<svg width="147" height="71" viewBox="0 0 147 71" fill="none" xmlns="http://www.w3.org/2000/svg">
<path d="M20.9809 39.48C18.7409 39.48 16.5943 39.1867 14.5409 38.6C12.4876 37.9867 10.8343 37.2 9.58094 36.24L11.7809 31.36C12.9809 32.2133 14.3943 32.92 16.0209 33.48C17.6743 34.0133 19.3409 34.28 21.0209 34.28C22.3009 34.28 23.3276 34.16 24.1009 33.92C24.9009 33.6533 25.4876 33.2933 25.8609 32.84C26.2343 32.3867 26.4209 31.8667 26.4209 31.28C26.4209 30.5333 26.1276 29.9467 25.5409 29.52C24.9543 29.0667 24.1809 28.7067 23.2209 28.44C22.2609 28.1467 21.1943 27.88 20.0209 27.64C18.8743 27.3733 17.7143 27.0533 16.5409 26.68C15.3943 26.3067 14.3409 25.8267 13.3809 25.24C12.4209 24.6533 11.6343 23.88 11.0209 22.92C10.4343 21.96 10.1409 20.7333 10.1409 19.24C10.1409 17.64 10.5676 16.1867 11.4209 14.88C12.3009 13.5467 13.6076 12.4933 15.3409 11.72C17.1009 10.92 19.3009 10.52 21.9409 10.52C23.7009 10.52 25.4343 10.7333 27.1409 11.16C28.8476 11.56 30.3543 12.1733 31.6609 13L29.6609 17.92C28.3543 17.1733 27.0476 16.6267 25.7409 16.28C24.4343 15.9067 23.1543 15.72 21.9009 15.72C20.6476 15.72 19.6209 15.8667 18.8209 16.16C18.0209 16.4533 17.4476 16.84 17.1009 17.32C16.7543 17.7733 16.5809 18.3067 16.5809 18.92C16.5809 19.64 16.8743 20.2267 17.4609 20.68C18.0476 21.1067 18.8209 21.4533 19.7809 21.72C20.7409 21.9867 21.7943 22.2533 22.9409 22.52C24.1143 22.7867 25.2743 23.0933 26.4209 23.44C27.5943 23.7867 28.6609 24.2533 29.6209 24.84C30.5809 25.4267 31.3543 26.2 31.9409 27.16C32.5543 28.12 32.8609 29.3333 32.8609 30.8C32.8609 32.3733 32.4209 33.8133 31.5409 35.12C30.6609 36.4267 29.3409 37.48 27.5809 38.28C25.8476 39.08 23.6476 39.48 20.9809 39.48ZM56.4888 11H62.9688V39H56.4888V11ZM43.7688 39H37.2888V11H43.7688V39ZM56.9688 27.52H43.2888V22.04H56.9688V27.52ZM75.5534 22.28H89.0334V27.32H75.5534V22.28ZM76.0334 33.8H91.2734V39H69.5934V11H90.7534V16.2H76.0334V33.8ZM96.4294 39V11H102.909V39H96.4294ZM109.554 39V11H114.914L131.434 31.16H128.834V11H135.234V39H129.914L113.354 18.84H115.954V39H109.554Z" fill="white"/>
<path d="M25.4224 65.14C24.657 65.14 23.9244 65.0327 23.2244 64.818C22.5244 64.594 21.969 64.3093 21.5584 63.964L22.1884 62.55C22.5804 62.858 23.0657 63.1147 23.6444 63.32C24.223 63.5253 24.8157 63.628 25.4224 63.628C25.9357 63.628 26.351 63.572 26.6684 63.46C26.9857 63.348 27.219 63.1987 27.3684 63.012C27.5177 62.816 27.5924 62.5967 27.5924 62.354C27.5924 62.0553 27.485 61.8173 27.2704 61.64C27.0557 61.4533 26.7757 61.3087 26.4304 61.206C26.0944 61.094 25.7164 60.9913 25.2964 60.898C24.8857 60.8047 24.4704 60.6973 24.0504 60.576C23.6397 60.4453 23.2617 60.282 22.9164 60.086C22.5804 59.8807 22.305 59.61 22.0904 59.274C21.8757 58.938 21.7684 58.5087 21.7684 57.986C21.7684 57.454 21.9084 56.9687 22.1884 56.53C22.4777 56.082 22.9117 55.7273 23.4904 55.466C24.0784 55.1953 24.8204 55.06 25.7164 55.06C26.3044 55.06 26.8877 55.1347 27.4664 55.284C28.045 55.4333 28.549 55.648 28.9784 55.928L28.4044 57.342C27.9657 57.0807 27.513 56.8893 27.0464 56.768C26.5797 56.6373 26.1317 56.572 25.7024 56.572C25.1984 56.572 24.7877 56.6327 24.4704 56.754C24.1624 56.8753 23.9337 57.034 23.7844 57.23C23.6444 57.426 23.5744 57.65 23.5744 57.902C23.5744 58.2007 23.677 58.4433 23.8824 58.63C24.097 58.8073 24.3724 58.9473 24.7084 59.05C25.0537 59.1527 25.4364 59.2553 25.8564 59.358C26.2764 59.4513 26.6917 59.5587 27.1024 59.68C27.5224 59.8013 27.9004 59.96 28.2364 60.156C28.5817 60.352 28.857 60.618 29.0624 60.954C29.277 61.29 29.3844 61.7147 29.3844 62.228C29.3844 62.7507 29.2397 63.236 28.9504 63.684C28.6704 64.1227 28.2364 64.4773 27.6484 64.748C27.0604 65.0093 26.3184 65.14 25.4224 65.14ZM33.0403 65V56.74H29.7923V55.2H38.1083V56.74H34.8603V65H33.0403ZM41.7318 65V61.122L42.1378 62.242L37.8818 55.2H39.8278L43.2438 60.87H42.1518L45.5958 55.2H47.3878L43.1318 62.242L43.5518 61.122V65H41.7318ZM48.4566 65V55.2H50.2766V63.46H55.4006V65H48.4566ZM58.5175 59.274H63.3895V60.772H58.5175V59.274ZM58.6575 63.474H64.1875V65H56.8375V55.2H63.9915V56.726H58.6575V63.474ZM73.1235 65.14C72.3582 65.14 71.6255 65.0327 70.9255 64.818C70.2255 64.594 69.6702 64.3093 69.2595 63.964L69.8895 62.55C70.2815 62.858 70.7669 63.1147 71.3455 63.32C71.9242 63.5253 72.5169 63.628 73.1235 63.628C73.6369 63.628 74.0522 63.572 74.3695 63.46C74.6869 63.348 74.9202 63.1987 75.0695 63.012C75.2189 62.816 75.2935 62.5967 75.2935 62.354C75.2935 62.0553 75.1862 61.8173 74.9715 61.64C74.7569 61.4533 74.4769 61.3087 74.1315 61.206C73.7955 61.094 73.4175 60.9913 72.9975 60.898C72.5869 60.8047 72.1715 60.6973 71.7515 60.576C71.3409 60.4453 70.9629 60.282 70.6175 60.086C70.2815 59.8807 70.0062 59.61 69.7915 59.274C69.5769 58.938 69.4695 58.5087 69.4695 57.986C69.4695 57.454 69.6095 56.9687 69.8895 56.53C70.1789 56.082 70.6129 55.7273 71.1915 55.466C71.7795 55.1953 72.5215 55.06 73.4175 55.06C74.0055 55.06 74.5889 55.1347 75.1675 55.284C75.7462 55.4333 76.2502 55.648 76.6795 55.928L76.1055 57.342C75.6669 57.0807 75.2142 56.8893 74.7475 56.768C74.2809 56.6373 73.8329 56.572 73.4035 56.572C72.8995 56.572 72.4889 56.6327 72.1715 56.754C71.8635 56.8753 71.6349 57.034 71.4855 57.23C71.3455 57.426 71.2755 57.65 71.2755 57.902C71.2755 58.2007 71.3782 58.4433 71.5835 58.63C71.7982 58.8073 72.0735 58.9473 72.4095 59.05C72.7549 59.1527 73.1375 59.2553 73.5575 59.358C73.9775 59.4513 74.3929 59.5587 74.8035 59.68C75.2235 59.8013 75.6015 59.96 75.9375 60.156C76.2829 60.352 76.5582 60.618 76.7635 60.954C76.9782 61.29 77.0855 61.7147 77.0855 62.228C77.0855 62.7507 76.9409 63.236 76.6515 63.684C76.3715 64.1227 75.9375 64.4773 75.3495 64.748C74.7615 65.0093 74.0195 65.14 73.1235 65.14ZM80.7415 65V56.74H77.4935V55.2H85.8095V56.74H82.5615V65H80.7415ZM91.6307 65.14C90.8653 65.14 90.1607 65.014 89.5167 64.762C88.8727 64.51 88.3127 64.16 87.8367 63.712C87.3607 63.2547 86.992 62.7227 86.7307 62.116C86.4693 61.5 86.3387 60.828 86.3387 60.1C86.3387 59.372 86.4693 58.7047 86.7307 58.098C86.992 57.482 87.3607 56.95 87.8367 56.502C88.3127 56.0447 88.8727 55.69 89.5167 55.438C90.1607 55.186 90.8607 55.06 91.6167 55.06C92.382 55.06 93.082 55.186 93.7167 55.438C94.3607 55.69 94.9207 56.0447 95.3967 56.502C95.8727 56.95 96.2413 57.482 96.5027 58.098C96.764 58.7047 96.8947 59.372 96.8947 60.1C96.8947 60.828 96.764 61.5 96.5027 62.116C96.2413 62.732 95.8727 63.264 95.3967 63.712C94.9207 64.16 94.3607 64.51 93.7167 64.762C93.082 65.014 92.3867 65.14 91.6307 65.14ZM91.6167 63.544C92.1113 63.544 92.5687 63.46 92.9887 63.292C93.4087 63.124 93.7727 62.886 94.0807 62.578C94.3887 62.2607 94.6267 61.8967 94.7947 61.486C94.972 61.066 95.0607 60.604 95.0607 60.1C95.0607 59.596 94.972 59.1387 94.7947 58.728C94.6267 58.308 94.3887 57.944 94.0807 57.636C93.7727 57.3187 93.4087 57.076 92.9887 56.908C92.5687 56.74 92.1113 56.656 91.6167 56.656C91.122 56.656 90.6647 56.74 90.2447 56.908C89.834 57.076 89.47 57.3187 89.1527 57.636C88.8447 57.944 88.602 58.308 88.4247 58.728C88.2567 59.1387 88.1727 59.596 88.1727 60.1C88.1727 60.5947 88.2567 61.052 88.4247 61.472C88.602 61.892 88.8447 62.2607 89.1527 62.578C89.4607 62.886 89.8247 63.124 90.2447 63.292C90.6647 63.46 91.122 63.544 91.6167 63.544ZM98.8238 65V55.2H102.856C103.724 55.2 104.466 55.34 105.082 55.62C105.707 55.9 106.188 56.3013 106.524 56.824C106.86 57.3467 107.028 57.9673 107.028 58.686C107.028 59.4047 106.86 60.0253 106.524 60.548C106.188 61.0613 105.707 61.458 105.082 61.738C104.466 62.0087 103.724 62.144 102.856 62.144H99.8318L100.644 61.318V65H98.8238ZM105.236 65L102.758 61.444H104.704L107.196 65H105.236ZM100.644 61.514L99.8318 60.646H102.772C103.574 60.646 104.176 60.4733 104.578 60.128C104.988 59.7827 105.194 59.302 105.194 58.686C105.194 58.0607 104.988 57.58 104.578 57.244C104.176 56.908 103.574 56.74 102.772 56.74H99.8318L100.644 55.844V61.514ZM110.744 59.274H115.616V60.772H110.744V59.274ZM110.884 63.474H116.414V65H109.064V55.2H116.218V56.726H110.884V63.474ZM121.481 65.14C120.716 65.14 119.983 65.0327 119.283 64.818C118.583 64.594 118.028 64.3093 117.617 63.964L118.247 62.55C118.639 62.858 119.124 63.1147 119.703 63.32C120.282 63.5253 120.874 63.628 121.481 63.628C121.994 63.628 122.41 63.572 122.727 63.46C123.044 63.348 123.278 63.1987 123.427 63.012C123.576 62.816 123.651 62.5967 123.651 62.354C123.651 62.0553 123.544 61.8173 123.329 61.64C123.114 61.4533 122.834 61.3087 122.489 61.206C122.153 61.094 121.775 60.9913 121.355 60.898C120.944 60.8047 120.529 60.6973 120.109 60.576C119.698 60.4453 119.32 60.282 118.975 60.086C118.639 59.8807 118.364 59.61 118.149 59.274C117.934 58.938 117.827 58.5087 117.827 57.986C117.827 57.454 117.967 56.9687 118.247 56.53C118.536 56.082 118.97 55.7273 119.549 55.466C120.137 55.1953 120.879 55.06 121.775 55.06C122.363 55.06 122.946 55.1347 123.525 55.284C124.104 55.4333 124.608 55.648 125.037 55.928L124.463 57.342C124.024 57.0807 123.572 56.8893 123.105 56.768C122.638 56.6373 122.19 56.572 121.761 56.572C121.257 56.572 120.846 56.6327 120.529 56.754C120.221 56.8753 119.992 57.034 119.843 57.23C119.703 57.426 119.633 57.65 119.633 57.902C119.633 58.2007 119.736 58.4433 119.941 58.63C120.156 58.8073 120.431 58.9473 120.767 59.05C121.112 59.1527 121.495 59.2553 121.915 59.358C122.335 59.4513 122.75 59.5587 123.161 59.68C123.581 59.8013 123.959 59.96 124.295 60.156C124.64 60.352 124.916 60.618 125.121 60.954C125.336 61.29 125.443 61.7147 125.443 62.228C125.443 62.7507 125.298 63.236 125.009 63.684C124.729 64.1227 124.295 64.4773 123.707 64.748C123.119 65.0093 122.377 65.14 121.481 65.14Z" fill="white"/>
</svg>
