<svg width="405" height="65" viewBox="0 0 405 65" fill="none" xmlns="http://www.w3.org/2000/svg">
<path d="M14.5271 60V12.825L20.9021 18.975H4.77715V7.5H29.3772V60H14.5271ZM66.4477 61.05C61.9477 61.05 57.9477 59.975 54.4477 57.825C50.9977 55.675 48.2727 52.575 46.2727 48.525C44.2727 44.475 43.2727 39.55 43.2727 33.75C43.2727 27.95 44.2727 23.025 46.2727 18.975C48.2727 14.925 50.9977 11.825 54.4477 9.675C57.9477 7.525 61.9477 6.45 66.4477 6.45C70.8977 6.45 74.8477 7.525 78.2977 9.675C81.7977 11.825 84.5477 14.925 86.5477 18.975C88.5477 23.025 89.5477 27.95 89.5477 33.75C89.5477 39.55 88.5477 44.475 86.5477 48.525C84.5477 52.575 81.7977 55.675 78.2977 57.825C74.8477 59.975 70.8977 61.05 66.4477 61.05ZM66.4477 48.9C68.0477 48.9 69.4477 48.4 70.6477 47.4C71.8977 46.4 72.8727 44.8 73.5727 42.6C74.2727 40.35 74.6227 37.4 74.6227 33.75C74.6227 30.05 74.2727 27.1 73.5727 24.9C72.8727 22.7 71.8977 21.1 70.6477 20.1C69.4477 19.1 68.0477 18.6 66.4477 18.6C64.8477 18.6 63.4227 19.1 62.1727 20.1C60.9727 21.1 59.9977 22.7 59.2477 24.9C58.5477 27.1 58.1977 30.05 58.1977 33.75C58.1977 37.4 58.5477 40.35 59.2477 42.6C59.9977 44.8 60.9727 46.4 62.1727 47.4C63.4227 48.4 64.8477 48.9 66.4477 48.9ZM108.34 60L144.19 7.5H154.99L119.14 60H108.34ZM113.14 35.925C110.59 35.925 108.29 35.35 106.24 34.2C104.19 33.05 102.59 31.4 101.44 29.25C100.29 27.05 99.7154 24.425 99.7154 21.375C99.7154 18.325 100.29 15.725 101.44 13.575C102.59 11.425 104.19 9.775 106.24 8.625C108.29 7.425 110.59 6.825 113.14 6.825C115.74 6.825 118.04 7.425 120.04 8.625C122.09 9.775 123.69 11.425 124.84 13.575C126.04 15.725 126.64 18.325 126.64 21.375C126.64 24.375 126.04 26.975 124.84 29.175C123.69 31.375 122.09 33.05 120.04 34.2C118.04 35.35 115.74 35.925 113.14 35.925ZM113.215 28.8C114.465 28.8 115.49 28.225 116.29 27.075C117.14 25.925 117.565 24.025 117.565 21.375C117.565 18.725 117.14 16.825 116.29 15.675C115.49 14.525 114.465 13.95 113.215 13.95C111.965 13.95 110.89 14.525 109.99 15.675C109.14 16.825 108.715 18.725 108.715 21.375C108.715 24.025 109.14 25.925 109.99 27.075C110.89 28.225 111.965 28.8 113.215 28.8ZM150.19 60.675C147.59 60.675 145.265 60.1 143.215 58.95C141.215 57.8 139.64 56.15 138.49 54C137.34 51.8 136.765 49.175 136.765 46.125C136.765 43.075 137.34 40.475 138.49 38.325C139.64 36.175 141.215 34.525 143.215 33.375C145.265 32.175 147.59 31.575 150.19 31.575C152.79 31.575 155.09 32.175 157.09 33.375C159.14 34.525 160.74 36.175 161.89 38.325C163.09 40.475 163.69 43.075 163.69 46.125C163.69 49.175 163.09 51.8 161.89 54C160.74 56.15 159.14 57.8 157.09 58.95C155.09 60.1 152.79 60.675 150.19 60.675ZM150.19 53.55C151.44 53.55 152.49 52.975 153.34 51.825C154.19 50.675 154.615 48.775 154.615 46.125C154.615 43.475 154.19 41.575 153.34 40.425C152.49 39.275 151.44 38.7 150.19 38.7C148.99 38.7 147.94 39.275 147.04 40.425C146.19 41.575 145.765 43.475 145.765 46.125C145.765 48.775 146.19 50.675 147.04 51.825C147.94 52.975 148.99 53.55 150.19 53.55ZM230.926 61.05C226.726 61.05 222.851 60.375 219.301 59.025C215.751 57.675 212.651 55.775 210.001 53.325C207.401 50.825 205.376 47.925 203.926 44.625C202.476 41.325 201.751 37.7 201.751 33.75C201.751 29.8 202.476 26.175 203.926 22.875C205.376 19.575 207.401 16.7 210.001 14.25C212.651 11.75 215.751 9.825 219.301 8.475C222.851 7.125 226.726 6.45 230.926 6.45C235.176 6.45 239.051 7.125 242.551 8.475C246.101 9.825 249.176 11.75 251.776 14.25C254.376 16.7 256.401 19.575 257.851 22.875C259.351 26.175 260.101 29.8 260.101 33.75C260.101 37.7 259.351 41.35 257.851 44.7C256.401 48 254.376 50.875 251.776 53.325C249.176 55.775 246.101 57.675 242.551 59.025C239.051 60.375 235.176 61.05 230.926 61.05ZM230.926 48.75C232.926 48.75 234.776 48.4 236.476 47.7C238.226 47 239.726 46 240.976 44.7C242.276 43.35 243.276 41.75 243.976 39.9C244.726 38.05 245.101 36 245.101 33.75C245.101 31.45 244.726 29.4 243.976 27.6C243.276 25.75 242.276 24.175 240.976 22.875C239.726 21.525 238.226 20.5 236.476 19.8C234.776 19.1 232.926 18.75 230.926 18.75C228.926 18.75 227.051 19.1 225.301 19.8C223.601 20.5 222.101 21.525 220.801 22.875C219.551 24.175 218.551 25.75 217.801 27.6C217.101 29.4 216.751 31.45 216.751 33.75C216.751 36 217.101 38.05 217.801 39.9C218.551 41.75 219.551 43.35 220.801 44.7C222.101 46 223.601 47 225.301 47.7C227.051 48.4 228.926 48.75 230.926 48.75ZM287.679 30.525H311.904V42H287.679V30.525ZM288.729 60H273.879V7.5H315.054V18.975H288.729V60ZM341.799 30.525H366.024V42H341.799V30.525ZM342.849 60H327.999V7.5H369.174V18.975H342.849V60ZM383.739 40.875L380.964 7.5H397.914L395.064 40.875H383.739ZM389.439 60.675C386.939 60.675 384.889 59.9 383.289 58.35C381.689 56.8 380.889 54.95 380.889 52.8C380.889 50.6 381.689 48.775 383.289 47.325C384.889 45.825 386.939 45.075 389.439 45.075C391.939 45.075 393.964 45.825 395.514 47.325C397.114 48.775 397.914 50.6 397.914 52.8C397.914 54.95 397.114 56.8 395.514 58.35C393.964 59.9 391.939 60.675 389.439 60.675Z" fill="black"/>
<path d="M401.5 8.5L398.5 40.5" stroke="#EB4897" stroke-width="3" stroke-linecap="round"/>
<path d="M372 9V18" stroke="#EB4897" stroke-width="3" stroke-linecap="round"/>
<path d="M318 9V18" stroke="#EB4897" stroke-width="3" stroke-linecap="round"/>
<path d="M346 22V27" stroke="#EB4897" stroke-width="3" stroke-linecap="round"/>
<path d="M224.976 42.9588L224.223 42.4191C222.768 41.3758 221.768 39.8142 221.428 38.0558L221.236 37.0562" stroke="#EB4897" stroke-width="3" stroke-linecap="round"/>
<path d="M400.758 51.1113C401.158 52.8692 401.196 57.0416 398.153 59.6679" stroke="#EB4897" stroke-width="3" stroke-linecap="round"/>
<path d="M246.89 2.46082C252.705 5.14024 264.467 15.2767 264.993 34.3873C265.518 53.498 252.087 61.5088 245.305 63.1254" stroke="#EB4897" stroke-width="3" stroke-linecap="round"/>
<path d="M162.5 31.5C165.333 34.6667 170.3 43.1 167.5 51.5" stroke="#EB4897" stroke-width="3" stroke-linecap="round"/>
<path d="M159 8.5L147.5 24.5" stroke="#EB4897" stroke-width="3" stroke-linecap="round"/>
<path d="M69 23.5C70.5 27.6667 72.6 37.7 69 44.5" stroke="#EB4897" stroke-width="3" stroke-linecap="round"/>
<path d="M33.5 18V59" stroke="#EB4897" stroke-width="3" stroke-linecap="round"/>
</svg>
