<svg width="30" height="30" viewBox="0 0 30 30" fill="none" xmlns="http://www.w3.org/2000/svg">
<path d="M18.0228 6.86268C17.4278 6.7528 16.8813 7.1324 16.768 7.71304C16.6547 8.29369 17.0356 8.86059 17.6145 8.97422C19.3573 9.31387 20.703 10.6625 21.0441 12.4106V12.4119C21.1412 12.9151 21.5844 13.281 22.0948 13.281C22.1633 13.281 22.2318 13.2747 22.3015 13.2622C22.8803 13.1461 23.2613 12.5805 23.148 11.9986C22.6388 9.38754 20.6284 7.3709 18.0228 6.86268Z" fill="white"/>
<path d="M17.9448 2.50991C17.666 2.46994 17.3859 2.55238 17.163 2.72976C16.934 2.90964 16.7908 3.16946 16.7597 3.46051C16.6937 4.04886 17.1182 4.58099 17.7058 4.64719C21.7579 5.09938 24.9074 8.25597 25.363 12.3207C25.424 12.8653 25.8809 13.2763 26.4262 13.2763C26.4672 13.2763 26.5071 13.2738 26.5482 13.2688C26.8332 13.2375 27.0872 13.0964 27.2664 12.8715C27.4445 12.6467 27.5254 12.3669 27.493 12.0808C26.9254 7.00932 23.0003 3.07328 17.9448 2.50991Z" fill="white"/>
<path fill-rule="evenodd" clip-rule="evenodd" d="M13.7897 16.2155C18.776 21.2004 19.9072 15.4334 23.0821 18.606C26.1428 21.6659 27.902 22.279 24.024 26.1559C23.5383 26.5463 20.452 31.2428 9.60575 20.3996C-1.24185 9.555 3.45198 6.46555 3.84246 5.97994C7.72983 2.09231 8.33233 3.86173 11.3931 6.92166C14.568 10.0956 8.80332 11.2305 13.7897 16.2155Z" fill="white"/>
</svg>
