<svg width="60" height="60" viewBox="0 0 60 60" fill="none" xmlns="http://www.w3.org/2000/svg">
<g clip-path="url(#clip0_74_2436)">
<path d="M56.1094 50.3906H3.8906C1.74606 50.3906 0 48.6446 0 46.4883V13.5117C0 11.3672 1.74606 9.62112 3.8906 9.62112H56.0976C58.2538 9.62112 59.9999 11.3672 59.9999 13.5117V46.4883C60 48.6446 58.254 50.3906 56.1094 50.3906Z" fill="#505278"/>
<path d="M56.1095 9.62092H30V50.3904H56.1094C58.2656 50.3904 60 48.6444 60 46.4998V13.5115C60.0001 11.367 58.254 9.62092 56.1095 9.62092Z" fill="#424566"/>
<path d="M31.3008 9.62111C30.9023 21.6563 20.9883 31.3125 8.85936 31.3125C5.71871 31.3125 2.71875 30.6679 0 29.4844V24.2461C2.61328 25.7578 5.63675 26.6133 8.85936 26.6133C18.3984 26.6133 26.2031 19.0547 26.6015 9.60941H31.3007V9.62111H31.3008Z" fill="#575982"/>
<path d="M30 9.62131V16.4299C30.7617 14.2854 31.2188 12.0002 31.3007 9.62131H30Z" fill="#505278"/>
<path d="M60.0001 33.457V38.2149C57.1876 37.6758 54.4454 37.4414 51.7267 37.711C46.8166 38.2031 42.2579 40.5001 37.3712 44.9415C36.586 45.6563 35.7891 46.3946 35.0274 47.1094C33.8556 48.1993 32.6836 49.3008 31.4531 50.379H23.8594C26.6719 48.5039 29.1914 46.1486 31.8281 43.6876C32.6133 42.9611 33.4101 42.1993 34.2187 41.4727C39.8906 36.3282 45.3047 33.6446 51.2578 33.0469C54.1994 32.7539 57.1759 32.9883 60.0001 33.457Z" fill="#505278"/>
<path d="M23.8594 50.3906H30V45.3867C27.9961 47.2265 26.0156 48.9493 23.8594 50.3906Z" fill="#575982"/>
<path d="M12.5625 29.461H6.80859C5.92966 29.461 5.21484 28.7461 5.21484 27.8672V24.0469C5.21484 23.1679 5.92966 22.4531 6.80859 22.4531H12.5625C13.4415 22.4531 14.1563 23.1679 14.1563 24.0469V27.8672C14.1446 28.7579 13.4414 29.461 12.5625 29.461Z" fill="#424566"/>
<path d="M12.5625 29.3672H6.79686C5.97657 29.3672 5.30859 28.6992 5.30859 27.8789V24.0469C5.30859 23.2266 5.97657 22.5586 6.79686 22.5586H12.5625C13.3828 22.5586 14.0508 23.2266 14.0508 24.0469V27.8789C14.0508 28.6992 13.3828 29.3672 12.5625 29.3672Z" fill="#FEBD55"/>
<path d="M14.0508 26.0859V25.8516H11.0039V24.8203L11.789 24.0352H14.0508C14.0508 23.9531 14.0391 23.8711 14.0274 23.8008H11.7305C11.6954 23.8008 11.6719 23.8125 11.6484 23.8359L10.8282 24.6562H9.79682V22.5703H9.56245V24.6562H8.54292L7.72263 23.8359C7.69921 23.8125 7.66399 23.8008 7.64057 23.8008H5.33201C5.3203 23.8711 5.30859 23.9531 5.30859 24.0352H7.59374L8.36719 24.8086V25.8516H5.30859V26.0859H8.36719V27.1289L7.59374 27.9023H5.30859C5.30859 27.9844 5.3203 28.0664 5.33201 28.1367H7.64057C7.6757 28.1367 7.69921 28.125 7.72263 28.1016L8.54292 27.2813H9.56245V29.3672H9.79682V27.2813H10.8281L11.6484 28.1016C11.6718 28.125 11.6952 28.1367 11.7304 28.1367H14.0273C14.039 28.0664 14.0507 27.9844 14.0507 27.9023H11.789L11.0038 27.1172V26.0859H14.0508ZM10.7695 27.0468H8.60156V24.8789H10.7695V27.0468Z" fill="#B5613C"/>
<path d="M53.7189 29.2968C53.6603 29.2968 53.6134 29.2851 53.5666 29.2617C53.3908 29.1797 53.3205 28.9687 53.4143 28.793C54.3166 27 54.3166 24.9492 53.4143 23.1562C53.3322 22.9804 53.4026 22.7696 53.5666 22.6875C53.7424 22.6054 53.9533 22.6758 54.0353 22.8398C55.0432 24.832 55.0432 27.1172 54.0353 29.1093C53.965 29.2266 53.8478 29.2968 53.7189 29.2968ZM52.5118 28.6289C53.461 26.9414 53.461 24.9961 52.5118 23.3085C52.4181 23.1445 52.2071 23.0742 52.0314 23.1797C51.8674 23.2734 51.797 23.4844 51.9025 23.6601C52.7345 25.1367 52.7345 26.8242 51.9025 28.289C51.8087 28.453 51.8674 28.6757 52.0314 28.7695C52.09 28.8046 52.1486 28.8163 52.2072 28.8163C52.3243 28.8047 52.4415 28.7343 52.5118 28.6289ZM51.0119 28.1484C51.9376 26.8008 51.9376 25.125 51.0119 23.7656C50.9064 23.6016 50.6837 23.5663 50.5197 23.6718C50.3557 23.7773 50.3205 23.9999 50.4259 24.164C51.176 25.2656 51.176 26.6483 50.4259 27.7499C50.3205 27.914 50.3556 28.1249 50.5197 28.2421C50.5784 28.2889 50.6486 28.3006 50.719 28.3006C50.836 28.3125 50.9415 28.2539 51.0119 28.1484ZM49.4298 27.7031C49.9455 27.2344 50.2267 26.6132 50.2267 25.9688C50.2267 25.3243 49.9455 24.7031 49.4298 24.2344C49.2892 24.1055 49.0666 24.1055 48.9377 24.2578C48.8088 24.3984 48.8088 24.6211 48.9611 24.75C49.3244 25.0898 49.5236 25.5234 49.5236 25.9688C49.5236 26.4141 49.3244 26.8477 48.9611 27.1875C48.8205 27.3164 48.8088 27.5391 48.9377 27.6797C49.008 27.75 49.1017 27.7969 49.1955 27.7969C49.2774 27.7969 49.3595 27.7617 49.4298 27.7031Z" fill="#CAD4FF"/>
<path d="M29.5195 44.4844H5.66015C5.4609 44.4844 5.30859 44.3321 5.30859 44.1328C5.30859 43.9336 5.4609 43.7813 5.66015 43.7813H29.5195C29.7187 43.7813 29.871 43.9336 29.871 44.1328C29.871 44.3321 29.707 44.4844 29.5195 44.4844Z" fill="#E6EAFF"/>
<path d="M54.4336 44.4844H49.9102C49.7109 44.4844 49.5586 44.3321 49.5586 44.1328C49.5586 43.9336 49.7109 43.7813 49.9102 43.7813H54.4336C54.6328 43.7813 54.7852 43.9336 54.7852 44.1328C54.7852 44.3321 54.6211 44.4844 54.4336 44.4844ZM47.9883 44.1328C47.9883 43.9336 47.836 43.7813 47.6367 43.7813H43.1133C42.914 43.7813 42.7617 43.9336 42.7617 44.1328C42.7617 44.3321 42.914 44.4844 43.1133 44.4844H47.6367C47.836 44.4844 47.9883 44.3203 47.9883 44.1328Z" fill="#CAD4FF"/>
<path d="M5.66015 17.6133C5.4609 17.6133 5.30859 17.4609 5.30859 17.2617V15.8789C5.30859 15.6797 5.4609 15.5274 5.66015 15.5274C5.85939 15.5274 6.0117 15.6797 6.0117 15.8789V17.25C6.0117 17.4492 5.85939 17.6133 5.66015 17.6133ZM7.92187 17.2617V15.8789C7.92187 15.6797 7.76956 15.5274 7.57032 15.5274C7.37108 15.5274 7.21877 15.6797 7.21877 15.8789V17.25C7.21877 17.4492 7.37108 17.6015 7.57032 17.6015C7.76946 17.6133 7.92187 17.4492 7.92187 17.2617ZM9.84375 17.2617V15.8789C9.84375 15.6797 9.69144 15.5274 9.4922 15.5274C9.29296 15.5274 9.14065 15.6797 9.14065 15.8789V17.25C9.14065 17.4492 9.29296 17.6015 9.4922 17.6015C9.67963 17.6133 9.84375 17.4492 9.84375 17.2617ZM11.7539 17.2617V15.8789C11.7539 15.6797 11.6016 15.5274 11.4024 15.5274C11.2031 15.5274 11.0508 15.6797 11.0508 15.8789V17.25C11.0508 17.4492 11.2031 17.6015 11.4024 17.6015C11.6015 17.6133 11.7539 17.4492 11.7539 17.2617Z" fill="#E6EAFF"/>
<path d="M6.38673 38.5196H6.32809C5.74216 38.5196 5.26172 38.0391 5.26172 37.4532V35.7891C5.26172 35.2032 5.74216 34.7227 6.32809 34.7227H6.38673C6.97265 34.7227 7.45309 35.2032 7.45309 35.7891V37.4532C7.45319 38.039 6.98445 38.5196 6.38673 38.5196ZM6.32818 35.4258C6.12894 35.4258 5.96492 35.5898 5.96492 35.789V37.4531C5.96492 37.6523 6.12894 37.8164 6.32818 37.8164H6.38683C6.58607 37.8164 6.75009 37.6523 6.75009 37.4531V35.789C6.75009 35.5898 6.58607 35.4258 6.38683 35.4258H6.32818Z" fill="#E6EAFF"/>
<path d="M9.23438 38.5196H9.17574C8.58982 38.5196 8.10938 38.0391 8.10938 37.4532V35.7891C8.10938 35.2032 8.58982 34.7227 9.17574 34.7227H9.23438C9.8203 34.7227 10.3008 35.2032 10.3008 35.7891V37.4532C10.3008 38.039 9.83211 38.5196 9.23438 38.5196ZM9.17584 35.4258C8.9766 35.4258 8.81258 35.5898 8.81258 35.789V37.4531C8.81258 37.6523 8.9766 37.8164 9.17584 37.8164H9.23448C9.43372 37.8164 9.59774 37.6523 9.59774 37.4531V35.789C9.59774 35.5898 9.43372 35.4258 9.23448 35.4258H9.17584Z" fill="#E6EAFF"/>
<path d="M12.082 38.5196H12.0234C11.4375 38.5196 10.957 38.0391 10.957 37.4532V35.7891C10.957 35.2032 11.4375 34.7227 12.0234 34.7227H12.082C12.668 34.7227 13.1484 35.2032 13.1484 35.7891V37.4532C13.1484 38.039 12.668 38.5196 12.082 38.5196ZM12.0234 35.4258C11.8242 35.4258 11.6601 35.5898 11.6601 35.789V37.4531C11.6601 37.6523 11.8242 37.8164 12.0234 37.8164H12.082C12.2813 37.8164 12.4453 37.6523 12.4453 37.4531V35.789C12.4453 35.5898 12.2813 35.4258 12.082 35.4258H12.0234Z" fill="#E6EAFF"/>
<path d="M14.9297 38.5196H14.8711C14.2851 38.5196 13.8047 38.0391 13.8047 37.4532V35.7891C13.8047 35.2032 14.2851 34.7227 14.8711 34.7227H14.9297C15.5156 34.7227 15.9961 35.2032 15.9961 35.7891V37.4532C15.9961 38.039 15.5156 38.5196 14.9297 38.5196ZM14.8711 35.4258C14.6718 35.4258 14.5078 35.5898 14.5078 35.789V37.4531C14.5078 37.6523 14.6718 37.8164 14.8711 37.8164H14.9297C15.1289 37.8164 15.293 37.6523 15.293 37.4531V35.789C15.293 35.5898 15.1289 35.4258 14.9297 35.4258H14.8711Z" fill="#E6EAFF"/>
<path d="M19.3008 38.5196H19.2421C18.6562 38.5196 18.1758 38.0391 18.1758 37.4532V35.7891C18.1758 35.2032 18.6562 34.7227 19.2421 34.7227H19.3008C19.8867 34.7227 20.3672 35.2032 20.3672 35.7891V37.4532C20.3673 38.039 19.8867 38.5196 19.3008 38.5196ZM19.2422 35.4258C19.043 35.4258 18.879 35.5898 18.879 35.789V37.4531C18.879 37.6523 19.043 37.8164 19.2422 37.8164H19.3009C19.5001 37.8164 19.6641 37.6523 19.6641 37.4531V35.789C19.6641 35.5898 19.5001 35.4258 19.3009 35.4258H19.2422Z" fill="#E6EAFF"/>
<path d="M22.1484 38.5196H22.0898C21.5039 38.5196 21.0234 38.0391 21.0234 37.4532V35.7891C21.0234 35.2032 21.5039 34.7227 22.0898 34.7227H22.1484C22.7344 34.7227 23.2148 35.2032 23.2148 35.7891V37.4532C23.2149 38.039 22.7344 38.5196 22.1484 38.5196ZM22.0899 35.4258C21.8907 35.4258 21.7266 35.5898 21.7266 35.789V37.4531C21.7266 37.6523 21.8907 37.8164 22.0899 37.8164H22.1485C22.3478 37.8164 22.5118 37.6523 22.5118 37.4531V35.789C22.5118 35.5898 22.3478 35.4258 22.1485 35.4258H22.0899Z" fill="#E6EAFF"/>
<path d="M24.9961 38.5196H24.9375C24.3515 38.5196 23.8711 38.0391 23.8711 37.4532V35.7891C23.8711 35.2032 24.3515 34.7227 24.9375 34.7227H24.9961C25.582 34.7227 26.0625 35.2032 26.0625 35.7891V37.4532C26.0626 38.039 25.5821 38.5196 24.9961 38.5196ZM24.9376 35.4258C24.7383 35.4258 24.5743 35.5898 24.5743 35.789V37.4531C24.5743 37.6523 24.7383 37.8164 24.9376 37.8164H24.9962C25.1954 37.8164 25.3595 37.6523 25.3595 37.4531V35.789C25.3595 35.5898 25.1954 35.4258 24.9962 35.4258H24.9376Z" fill="#E6EAFF"/>
<path d="M27.8438 38.5196H27.7851C27.1992 38.5196 26.7188 38.0391 26.7188 37.4532V35.7891C26.7188 35.2032 27.1992 34.7227 27.7851 34.7227H27.8438C28.4297 34.7227 28.9101 35.2032 28.9101 35.7891V37.4532C28.9102 38.039 28.4298 38.5196 27.8438 38.5196ZM27.7852 35.4258C27.586 35.4258 27.422 35.5898 27.422 35.789V37.4531C27.422 37.6523 27.586 37.8164 27.7852 37.8164H27.8439C28.0431 37.8164 28.2071 37.6523 28.2071 37.4531V35.789C28.2071 35.5898 28.0431 35.4258 27.8439 35.4258H27.7852Z" fill="#E6EAFF"/>
<path d="M32.2149 38.5196H32.1562C31.5703 38.5196 31.0898 38.0391 31.0898 37.4532V35.7891C31.0898 35.2032 31.5703 34.7227 32.1562 34.7227H32.2149C32.8008 34.7227 33.2812 35.2032 33.2812 35.7891V37.4532C33.2812 38.039 32.8008 38.5196 32.2149 38.5196ZM32.1562 35.4258C31.957 35.4258 31.793 35.5898 31.793 35.789V37.4531C31.793 37.6523 31.957 37.8164 32.1562 37.8164H32.2149C32.4141 37.8164 32.5781 37.6523 32.5781 37.4531V35.789C32.5781 35.5898 32.4141 35.4258 32.2149 35.4258H32.1562Z" fill="#CAD4FF"/>
<path d="M35.0624 38.5196H35.0039C34.4179 38.5196 33.9375 38.0391 33.9375 37.4532V35.7891C33.9375 35.2032 34.4179 34.7227 35.0039 34.7227H35.0624C35.6483 34.7227 36.1288 35.2032 36.1288 35.7891V37.4532C36.1288 38.039 35.6483 38.5196 35.0624 38.5196ZM35.0039 35.4258C34.8046 35.4258 34.6406 35.5898 34.6406 35.789V37.4531C34.6406 37.6523 34.8046 37.8164 35.0039 37.8164H35.0624C35.2617 37.8164 35.4257 37.6523 35.4257 37.4531V35.789C35.4257 35.5898 35.2617 35.4258 35.0624 35.4258H35.0039Z" fill="#CAD4FF"/>
<path d="M37.9102 38.5196H37.8515C37.2656 38.5196 36.7852 38.0391 36.7852 37.4532V35.7891C36.7852 35.2032 37.2656 34.7227 37.8515 34.7227H37.9102C38.4961 34.7227 38.9765 35.2032 38.9765 35.7891V37.4532C38.9766 38.039 38.4961 38.5196 37.9102 38.5196ZM37.8516 35.4258C37.6524 35.4258 37.4884 35.5898 37.4884 35.789V37.4531C37.4884 37.6523 37.6524 37.8164 37.8516 37.8164H37.9103C38.1095 37.8164 38.2735 37.6523 38.2735 37.4531V35.789C38.2735 35.5898 38.1095 35.4258 37.9103 35.4258H37.8516Z" fill="#CAD4FF"/>
<path d="M40.7578 38.5196H40.6992C40.1133 38.5196 39.6328 38.0391 39.6328 37.4532V35.7891C39.6328 35.2032 40.1133 34.7227 40.6992 34.7227H40.7578C41.3437 34.7227 41.8242 35.2032 41.8242 35.7891V37.4532C41.8243 38.039 41.3437 38.5196 40.7578 38.5196ZM40.6993 35.4258C40.5 35.4258 40.336 35.5898 40.336 35.789V37.4531C40.336 37.6523 40.5 37.8164 40.6993 37.8164H40.7579C40.9572 37.8164 41.1212 37.6523 41.1212 37.4531V35.789C41.1212 35.5898 40.9572 35.4258 40.7579 35.4258H40.6993Z" fill="#CAD4FF"/>
<path d="M45.1289 38.5196H45.0703C44.4844 38.5196 44.0039 38.0391 44.0039 37.4532V35.7891C44.0039 35.2032 44.4844 34.7227 45.0703 34.7227H45.1289C45.7148 34.7227 46.1953 35.2032 46.1953 35.7891V37.4532C46.1953 38.039 45.7148 38.5196 45.1289 38.5196ZM45.0703 35.4258C44.871 35.4258 44.707 35.5898 44.707 35.789V37.4531C44.707 37.6523 44.871 37.8164 45.0703 37.8164H45.1289C45.3282 37.8164 45.4922 37.6523 45.4922 37.4531V35.789C45.4922 35.5898 45.3282 35.4258 45.1289 35.4258H45.0703Z" fill="#CAD4FF"/>
<path d="M47.9765 38.5196H47.9179C47.332 38.5196 46.8516 38.0391 46.8516 37.4532V35.7891C46.8516 35.2032 47.332 34.7227 47.9179 34.7227H47.9765C48.5624 34.7227 49.0428 35.2032 49.0428 35.7891V37.4532C49.0428 38.039 48.5624 38.5196 47.9765 38.5196ZM47.9178 35.4258C47.7186 35.4258 47.5546 35.5898 47.5546 35.789V37.4531C47.5546 37.6523 47.7186 37.8164 47.9178 37.8164H47.9764C48.1756 37.8164 48.3396 37.6523 48.3396 37.4531V35.789C48.3396 35.5898 48.1756 35.4258 47.9764 35.4258H47.9178Z" fill="#CAD4FF"/>
<path d="M50.8242 38.5196H50.7656C50.1797 38.5196 49.6992 38.0391 49.6992 37.4532V35.7891C49.6992 35.2032 50.1797 34.7227 50.7656 34.7227H50.8242C51.4102 34.7227 51.8906 35.2032 51.8906 35.7891V37.4532C51.8906 38.039 51.4102 38.5196 50.8242 38.5196ZM50.7657 35.4258C50.5664 35.4258 50.4024 35.5898 50.4024 35.789V37.4531C50.4024 37.6523 50.5664 37.8164 50.7657 37.8164H50.8243C51.0236 37.8164 51.1876 37.6523 51.1876 37.4531V35.789C51.1876 35.5898 51.0236 35.4258 50.8243 35.4258H50.7657Z" fill="#CAD4FF"/>
<path d="M53.6719 38.5196H53.6132C53.0273 38.5196 52.5469 38.0391 52.5469 37.4532V35.7891C52.5469 35.2032 53.0273 34.7227 53.6132 34.7227H53.6719C54.2578 34.7227 54.7382 35.2032 54.7382 35.7891V37.4532C54.7383 38.039 54.2578 38.5196 53.6719 38.5196ZM53.6133 35.4258C53.4141 35.4258 53.2501 35.5898 53.2501 35.789V37.4531C53.2501 37.6523 53.4141 37.8164 53.6133 37.8164H53.672C53.8712 37.8164 54.0352 37.6523 54.0352 37.4531V35.789C54.0352 35.5898 53.8712 35.4258 53.672 35.4258H53.6133Z" fill="#CAD4FF"/>
</g>
<defs>
<clipPath id="clip0_74_2436">
<rect width="60" height="60" fill="white"/>
</clipPath>
</defs>
</svg>
