<svg width="84" height="84" viewBox="0 0 84 84" fill="none" xmlns="http://www.w3.org/2000/svg">
<g clip-path="url(#clip0_112_1320)">
<path d="M54.8735 28.7037H46.4594C45.2068 28.7037 44.1914 29.7191 44.1914 30.9717V69.9411C44.1914 70.4058 44.5682 70.7827 45.0329 70.7827H79.5612C80.8138 70.7827 81.8292 69.7673 81.8292 68.5147V55.6594C81.8292 50.4776 79.7708 45.508 76.1066 41.8439L68.6888 34.4262C65.0249 30.7623 60.0553 28.7037 54.8735 28.7037Z" fill="url(#paint0_linear_112_1320)"/>
<path d="M81.8291 55.6595C81.8291 53.4563 81.4557 51.2919 80.7463 49.2495L77.8497 46.3529C77.1946 45.6187 76.2415 45.1559 75.1802 45.1559H74.6286C73.8888 45.1559 73.2891 45.7556 73.2891 46.4954V52.5334C73.2891 52.9772 73.5058 53.3694 73.8382 53.6132L81.8293 61.6042V55.6595H81.8291Z" fill="url(#paint1_linear_112_1320)"/>
<path d="M44.1914 69.9413C44.1914 70.406 44.5682 70.7828 45.0329 70.7828H79.5612C80.8138 70.7828 81.8292 69.7675 81.8292 68.5149V55.6595C81.8292 55.2578 81.8153 54.8576 81.7909 54.4588H44.1914V69.9413Z" fill="url(#paint2_linear_112_1320)"/>
<path d="M56.5119 31.4524H50.0042C49.0354 31.4524 48.25 32.2536 48.25 33.2421V50.4577C48.25 51.7095 49.2445 52.7242 50.4713 52.7242H74.9449C76.334 52.7242 77.3714 51.4401 77.13 50.0444C76.5949 46.9504 75.1411 44.0737 72.9339 41.8218L67.197 35.9682C64.3631 33.0767 60.5195 31.4524 56.5119 31.4524Z" fill="url(#paint3_linear_112_1320)"/>
<path d="M57.0457 34.3186H51.8897C51.1222 34.3186 50.5 34.9408 50.5 35.7083V49.0763C50.5 50.0483 51.2879 50.8363 52.26 50.8363H71.65C72.7505 50.8363 73.5725 49.8392 73.3812 48.7554C72.9571 46.3529 71.8053 44.1191 70.0568 42.3706L65.5114 37.8253C63.2662 35.58 60.2209 34.3186 57.0457 34.3186Z" fill="url(#paint4_linear_112_1320)"/>
<path d="M74.4645 53.7095H75.0161C76.9919 53.7095 78.5934 52.108 78.5934 50.1323V48.57C78.5934 46.5943 76.9919 44.9927 75.0161 44.9927H74.4645C73.7247 44.9927 73.125 45.5924 73.125 46.3322V52.3702C73.125 53.1098 73.7247 53.7095 74.4645 53.7095Z" fill="url(#paint5_linear_112_1320)"/>
<path d="M55.1191 55.5756H51.5167C50.9551 55.5756 50.5 56.0308 50.5 56.5922C50.5 57.1538 50.9553 57.6089 51.5167 57.6089H55.1191C55.6806 57.6089 56.1357 57.1536 56.1357 56.5922C56.1357 56.0308 55.6805 55.5756 55.1191 55.5756Z" fill="url(#paint6_linear_112_1320)"/>
<path d="M82.5092 65.3017H76.4219V61.2484C76.4219 58.7671 78.4333 56.7556 80.9147 56.7556C81.7954 56.7556 82.5092 57.4695 82.5092 58.3501V65.3017Z" fill="url(#paint7_linear_112_1320)"/>
<path d="M41.4014 28.3336H13.9693C13.3531 28.3336 12.8535 27.834 12.8535 27.2178V4.37003C12.8535 3.75384 13.3531 3.25423 13.9693 3.25423H41.4014C42.0176 3.25423 42.5172 3.75384 42.5172 4.37003V27.2178C42.5172 27.8341 42.0176 28.3336 41.4014 28.3336Z" fill="url(#paint8_linear_112_1320)"/>
<path d="M42.5167 4.37003V27.218C42.5167 27.834 42.0171 28.3336 41.401 28.3336H37.76L19.7891 10.3627V3.25439H41.401C42.0171 3.25439 42.5167 3.754 42.5167 4.37003Z" fill="url(#paint9_linear_112_1320)"/>
<path d="M41.4013 3.25423H33.6074C34.2236 3.25423 34.7232 3.75384 34.7232 4.37003V27.2178C34.7232 27.834 34.2236 28.3336 33.6074 28.3336H41.4013C42.0175 28.3336 42.5171 27.834 42.5171 27.2178V4.37003C42.5171 3.75384 42.0175 3.25423 41.4013 3.25423Z" fill="url(#paint10_linear_112_1320)"/>
<path d="M12.8535 22.2845V27.2178C12.8535 27.834 13.3531 28.3336 13.9693 28.3336H41.4014C42.0176 28.3336 42.5172 27.834 42.5172 27.2178V22.2845H12.8535Z" fill="url(#paint11_linear_112_1320)"/>
<path d="M20.9339 10.5538L20.9557 10.5671C21.4573 10.8717 22.0878 10.8665 22.5844 10.5539C23.0918 10.2476 23.7272 10.2476 24.2346 10.5539C24.7421 10.8603 25.3775 10.8603 25.8849 10.5539C26.1201 10.4178 26.3803 10.4148 26.6423 10.4639C26.9412 10.52 27.2189 10.296 27.2189 9.99171V3.48121C27.2189 3.26434 27.0431 3.08873 26.8264 3.08873H19.9921C19.7752 3.08873 19.5996 3.2645 19.5996 3.48121V9.98242C19.5996 10.2847 19.8745 10.511 20.1716 10.4553C20.4364 10.4057 20.6991 10.4111 20.9339 10.5538Z" fill="url(#paint12_linear_112_1320)"/>
<path d="M40.9861 62.7633H3.32667C2.48074 62.7633 1.79492 62.0775 1.79492 61.2316V29.8656C1.79492 29.0196 2.48074 28.3338 3.32667 28.3338H40.9861C41.8321 28.3338 42.5179 29.0196 42.5179 29.8656V61.2316C42.5179 62.0775 41.8321 62.7633 40.9861 62.7633Z" fill="url(#paint13_linear_112_1320)"/>
<path d="M42.5174 29.8652V61.2315C42.5174 62.0771 41.8314 62.7631 40.986 62.7631H35.9875L11.3164 38.092V28.3336H40.986C41.8314 28.3336 42.5174 29.0196 42.5174 29.8652Z" fill="url(#paint14_linear_112_1320)"/>
<path d="M40.9869 28.3334H30.2871C31.133 28.3334 31.8189 29.0192 31.8189 29.8652V61.2313C31.8189 62.0773 31.133 62.7631 30.2871 62.7631H40.9869C41.8328 62.7631 42.5186 62.0773 42.5186 61.2313V29.8653C42.5186 29.0192 41.8328 28.3334 40.9869 28.3334Z" fill="url(#paint15_linear_112_1320)"/>
<path d="M1.79492 54.4588V61.2313C1.79492 62.0773 2.48074 62.7631 3.32667 62.7631H40.9861C41.8321 62.7631 42.5179 62.0773 42.5179 61.2313V54.4588H1.79492Z" fill="url(#paint16_linear_112_1320)"/>
<path d="M12.8884 38.3544L12.9184 38.3726C13.607 38.7907 14.4727 38.7837 15.1542 38.3544C15.8508 37.9337 16.7232 37.9337 17.4199 38.3544C18.1165 38.7751 18.9888 38.7751 19.6856 38.3544C20.0084 38.1675 20.3658 38.1634 20.7256 38.2309C21.136 38.3079 21.517 38.0002 21.517 37.5828V28.645C21.517 28.3474 21.2757 28.1061 20.9781 28.1061H11.5955C11.298 28.1061 11.0566 28.3474 11.0566 28.645V37.5701C11.0566 37.9851 11.4341 38.2958 11.8419 38.2194C12.2054 38.1512 12.5659 38.1585 12.8884 38.3544Z" fill="url(#paint17_linear_112_1320)"/>
<path d="M45.1265 70.7828H3.4562C1.72862 70.7828 0.328125 69.3823 0.328125 67.6548V65.8912C0.328125 64.1636 1.72862 62.7631 3.4562 62.7631H45.1265C46.0202 62.7631 46.7449 63.4877 46.7449 64.3814V69.1643C46.7449 70.0582 46.0202 70.7828 45.1265 70.7828Z" fill="url(#paint18_linear_112_1320)"/>
<path d="M26.5977 64.6012V70.7828H32.7793L26.5977 64.6012Z" fill="url(#paint19_linear_112_1320)"/>
<path d="M68.6484 70.7828H80.3585C82.0861 70.7828 83.4866 69.3823 83.4866 67.6548V65.8912C83.4866 64.1636 82.0861 62.7631 80.3585 62.7631H68.6484V70.7828Z" fill="url(#paint20_linear_112_1320)"/>
<path d="M74.0742 64.6012V70.7828H80.2558L74.0742 64.6012Z" fill="url(#paint21_linear_112_1320)"/>
<path d="M18.1182 81.3396C23.9264 81.3396 28.6348 76.6311 28.6348 70.8229C28.6348 65.0148 23.9264 60.3063 18.1182 60.3063C12.31 60.3063 7.60156 65.0148 7.60156 70.8229C7.60156 76.6311 12.31 81.3396 18.1182 81.3396Z" fill="url(#paint22_linear_112_1320)"/>
<path d="M18.1181 78.529C22.3741 78.529 25.8242 75.0789 25.8242 70.8229C25.8242 66.567 22.3741 63.1169 18.1181 63.1169C13.8622 63.1169 10.4121 66.567 10.4121 70.8229C10.4121 75.0789 13.8622 78.529 18.1181 78.529Z" fill="url(#paint23_linear_112_1320)"/>
<path d="M18.1179 75.6186C20.7665 75.6186 22.9136 73.4715 22.9136 70.8229C22.9136 68.1744 20.7665 66.0273 18.1179 66.0273C15.4694 66.0273 13.3223 68.1744 13.3223 70.8229C13.3223 73.4715 15.4694 75.6186 18.1179 75.6186Z" fill="url(#paint24_linear_112_1320)"/>
<path d="M65.6963 81.3396C71.5045 81.3396 76.213 76.6311 76.213 70.8229C76.213 65.0148 71.5045 60.3063 65.6963 60.3063C59.8881 60.3063 55.1797 65.0148 55.1797 70.8229C55.1797 76.6311 59.8881 81.3396 65.6963 81.3396Z" fill="url(#paint25_linear_112_1320)"/>
<path d="M65.6963 78.529C69.9522 78.529 73.4023 75.0789 73.4023 70.823C73.4023 66.567 69.9522 63.1169 65.6963 63.1169C61.4403 63.1169 57.9902 66.567 57.9902 70.823C57.9902 75.0789 61.4403 78.529 65.6963 78.529Z" fill="url(#paint26_linear_112_1320)"/>
<path d="M65.696 75.6186C68.3446 75.6186 70.4917 73.4715 70.4917 70.8229C70.4917 68.1744 68.3446 66.0273 65.696 66.0273C63.0475 66.0273 60.9004 68.1744 60.9004 70.8229C60.9004 73.4715 63.0475 75.6186 65.696 75.6186Z" fill="url(#paint27_linear_112_1320)"/>
</g>
<defs>
<linearGradient id="paint0_linear_112_1320" x1="40.6162" y1="36.5342" x2="75.2605" y2="71.1784" gradientUnits="userSpaceOnUse">
<stop stop-color="#FD4755"/>
<stop offset="1" stop-color="#AC2538"/>
</linearGradient>
<linearGradient id="paint1_linear_112_1320" x1="83.2163" y1="57.3625" x2="74.6856" y2="48.8317" gradientUnits="userSpaceOnUse">
<stop stop-color="#972437" stop-opacity="0"/>
<stop offset="1" stop-color="#972437"/>
</linearGradient>
<linearGradient id="paint2_linear_112_1320" x1="63.0104" y1="58.9613" x2="63.0104" y2="67.8493" gradientUnits="userSpaceOnUse">
<stop stop-color="#972437" stop-opacity="0"/>
<stop offset="1" stop-color="#972437"/>
</linearGradient>
<linearGradient id="paint3_linear_112_1320" x1="75.4316" y1="60.0454" x2="43.7172" y2="30.7768" gradientUnits="userSpaceOnUse">
<stop stop-color="#FD4755"/>
<stop offset="1" stop-color="#AC2538"/>
</linearGradient>
<linearGradient id="paint4_linear_112_1320" x1="48.852" y1="34.6616" x2="71.0492" y2="56.8588" gradientUnits="userSpaceOnUse">
<stop stop-color="#EAF6FF"/>
<stop offset="0.2575" stop-color="#DCE8FA"/>
<stop offset="0.7423" stop-color="#B8C4ED"/>
<stop offset="1" stop-color="#A2AEE6"/>
</linearGradient>
<linearGradient id="paint5_linear_112_1320" x1="72.7757" y1="46.923" x2="77.4706" y2="51.618" gradientUnits="userSpaceOnUse">
<stop stop-color="#537983"/>
<stop offset="1" stop-color="#3E5959"/>
</linearGradient>
<linearGradient id="paint6_linear_112_1320" x1="53.3178" y1="55.4652" x2="53.3178" y2="58.4002" gradientUnits="userSpaceOnUse">
<stop stop-color="#FEE45A"/>
<stop offset="1" stop-color="#FE860A"/>
</linearGradient>
<linearGradient id="paint7_linear_112_1320" x1="76.7239" y1="58.754" x2="82.5353" y2="64.5653" gradientUnits="userSpaceOnUse">
<stop stop-color="#FEE45A"/>
<stop offset="1" stop-color="#FE860A"/>
</linearGradient>
<linearGradient id="paint8_linear_112_1320" x1="17.8364" y1="5.94499" x2="41.5191" y2="29.6278" gradientUnits="userSpaceOnUse">
<stop stop-color="#FEE45A"/>
<stop offset="1" stop-color="#FE860A"/>
</linearGradient>
<linearGradient id="paint9_linear_112_1320" x1="40.507" y1="16.3258" x2="9.97095" y2="-5.36948" gradientUnits="userSpaceOnUse">
<stop stop-color="#FE860A" stop-opacity="0"/>
<stop offset="1" stop-color="#FE7701"/>
</linearGradient>
<linearGradient id="paint10_linear_112_1320" x1="43.503" y1="9.72039" x2="24.819" y2="29.4254" gradientUnits="userSpaceOnUse">
<stop stop-color="#FE860A" stop-opacity="0"/>
<stop offset="1" stop-color="#FE7701"/>
</linearGradient>
<linearGradient id="paint11_linear_112_1320" x1="27.6853" y1="24.1458" x2="27.6853" y2="29.5083" gradientUnits="userSpaceOnUse">
<stop stop-color="#FE860A" stop-opacity="0"/>
<stop offset="1" stop-color="#FE7701"/>
</linearGradient>
<linearGradient id="paint12_linear_112_1320" x1="20.5758" y1="3.9164" x2="29.0128" y2="12.3534" gradientUnits="userSpaceOnUse">
<stop stop-color="#EAF6FF"/>
<stop offset="0.2575" stop-color="#DCE8FA"/>
<stop offset="0.7423" stop-color="#B8C4ED"/>
<stop offset="1" stop-color="#A2AEE6"/>
</linearGradient>
<linearGradient id="paint13_linear_112_1320" x1="8.63546" y1="32.0277" x2="41.1477" y2="64.54" gradientUnits="userSpaceOnUse">
<stop stop-color="#FEE45A"/>
<stop offset="1" stop-color="#FE860A"/>
</linearGradient>
<linearGradient id="paint14_linear_112_1320" x1="39.7585" y1="46.2784" x2="-2.16231" y2="16.4947" gradientUnits="userSpaceOnUse">
<stop stop-color="#FE860A" stop-opacity="0"/>
<stop offset="1" stop-color="#FE7701"/>
</linearGradient>
<linearGradient id="paint15_linear_112_1320" x1="43.872" y1="37.2104" x2="18.2223" y2="64.2617" gradientUnits="userSpaceOnUse">
<stop stop-color="#FE860A" stop-opacity="0"/>
<stop offset="1" stop-color="#FE7701"/>
</linearGradient>
<linearGradient id="paint16_linear_112_1320" x1="22.1564" y1="57.014" x2="22.1564" y2="64.3757" gradientUnits="userSpaceOnUse">
<stop stop-color="#FE860A" stop-opacity="0"/>
<stop offset="1" stop-color="#FE7701"/>
</linearGradient>
<linearGradient id="paint17_linear_112_1320" x1="12.3966" y1="29.2426" x2="23.9792" y2="40.8252" gradientUnits="userSpaceOnUse">
<stop stop-color="#EAF6FF"/>
<stop offset="0.2575" stop-color="#DCE8FA"/>
<stop offset="0.7423" stop-color="#B8C4ED"/>
<stop offset="1" stop-color="#A2AEE6"/>
</linearGradient>
<linearGradient id="paint18_linear_112_1320" x1="23.5364" y1="65.0129" x2="23.5364" y2="69.4018" gradientUnits="userSpaceOnUse">
<stop stop-color="#EAF6FF"/>
<stop offset="0.2575" stop-color="#DCE8FA"/>
<stop offset="0.7423" stop-color="#B8C4ED"/>
<stop offset="1" stop-color="#A2AEE6"/>
</linearGradient>
<linearGradient id="paint19_linear_112_1320" x1="34.1674" y1="75.2618" x2="24.6149" y2="65.7092" gradientUnits="userSpaceOnUse">
<stop stop-color="#8795DE" stop-opacity="0"/>
<stop offset="0.4678" stop-color="#7D8DDC" stop-opacity="0.468"/>
<stop offset="1" stop-color="#6C7FD8"/>
</linearGradient>
<linearGradient id="paint20_linear_112_1320" x1="76.0675" y1="65.0129" x2="76.0675" y2="69.4018" gradientUnits="userSpaceOnUse">
<stop stop-color="#EAF6FF"/>
<stop offset="0.2575" stop-color="#DCE8FA"/>
<stop offset="0.7423" stop-color="#B8C4ED"/>
<stop offset="1" stop-color="#A2AEE6"/>
</linearGradient>
<linearGradient id="paint21_linear_112_1320" x1="81.6441" y1="75.2618" x2="72.0914" y2="65.7092" gradientUnits="userSpaceOnUse">
<stop stop-color="#8795DE" stop-opacity="0"/>
<stop offset="0.4678" stop-color="#7D8DDC" stop-opacity="0.468"/>
<stop offset="1" stop-color="#6C7FD8"/>
</linearGradient>
<linearGradient id="paint22_linear_112_1320" x1="11.3926" y1="64.0972" x2="25.2115" y2="77.9161" gradientUnits="userSpaceOnUse">
<stop stop-color="#537983"/>
<stop offset="1" stop-color="#3E5959"/>
</linearGradient>
<linearGradient id="paint23_linear_112_1320" x1="21.6827" y1="74.3875" x2="11.6934" y2="64.3982" gradientUnits="userSpaceOnUse">
<stop stop-color="#537983"/>
<stop offset="1" stop-color="#3E5959"/>
</linearGradient>
<linearGradient id="paint24_linear_112_1320" x1="14.9774" y1="67.6823" x2="21.8297" y2="74.5348" gradientUnits="userSpaceOnUse">
<stop stop-color="#EAF6FF"/>
<stop offset="0.2575" stop-color="#DCE8FA"/>
<stop offset="0.7423" stop-color="#B8C4ED"/>
<stop offset="1" stop-color="#A2AEE6"/>
</linearGradient>
<linearGradient id="paint25_linear_112_1320" x1="58.9706" y1="64.0972" x2="72.7894" y2="77.9161" gradientUnits="userSpaceOnUse">
<stop stop-color="#537983"/>
<stop offset="1" stop-color="#3E5959"/>
</linearGradient>
<linearGradient id="paint26_linear_112_1320" x1="69.2607" y1="74.3875" x2="59.2715" y2="64.3982" gradientUnits="userSpaceOnUse">
<stop stop-color="#537983"/>
<stop offset="1" stop-color="#3E5959"/>
</linearGradient>
<linearGradient id="paint27_linear_112_1320" x1="62.5554" y1="67.6823" x2="69.4077" y2="74.5348" gradientUnits="userSpaceOnUse">
<stop stop-color="#EAF6FF"/>
<stop offset="0.2575" stop-color="#DCE8FA"/>
<stop offset="0.7423" stop-color="#B8C4ED"/>
<stop offset="1" stop-color="#A2AEE6"/>
</linearGradient>
<clipPath id="clip0_112_1320">
<rect width="83.1587" height="83.1587" fill="white" transform="translate(0.328125 0.634735)"/>
</clipPath>
</defs>
</svg>
