<svg width="22" height="22" viewBox="0 0 22 22" fill="none" xmlns="http://www.w3.org/2000/svg">
<g id="premium 1" clip-path="url(#clip0_73_5001)">
<g id="Group">
<g id="Group_2">
<path id="Vector" d="M0.657164 10.7567L2.15997e-08 11.0353C-4.29472e-05 11.2018 0.0640235 11.3671 0.18902 11.4916L10.5465 21.8129C10.6674 21.9334 10.875 21.9994 10.9969 22C11.1207 22.0006 11.3325 21.9354 11.4555 21.8128L21.8112 11.485C21.9359 11.3607 21.9999 11.1958 22.0001 11.0296L21.4287 10.7567C21.1101 10.7567 18.1508 10.7567 14.5552 10.7567L10.6996 12.0013L7.43879 10.7567C4.05651 10.7567 1.23939 10.7567 0.657164 10.7567Z" fill="#FFB739"/>
<path id="Vector_2" d="M21.9998 11.0296C21.9998 11.1957 21.9359 11.3605 21.811 11.4849L11.4553 21.8127C11.3335 21.9346 11.1236 21.9998 11 21.9998V11.9042L14.5552 10.7567H21.4286L21.9998 11.0296Z" fill="#FF9441"/>
<path id="Vector_3" d="M7.43848 10.7567L10.9998 21.9998L14.5549 10.7567H7.43848Z" fill="#FF9441"/>
<path id="Vector_4" d="M14.5551 10.7567L11 21.9998V10.7567H14.5551Z" fill="#FF7149"/>
<path id="Vector_5" d="M21.892 10.6718L18.4448 5.50683C18.3971 5.43542 18.3356 5.37474 18.2649 5.32791L17.9524 5.47796L11.5964 5.51757L11 5.22044L10.5181 5.52428L4.17635 5.56381L3.73381 5.32855C3.66356 5.37526 3.60233 5.43572 3.55472 5.50717L0.107723 10.6786C0.0351484 10.7875 0 10.9117 0 11.0353C1.24871 11.0349 20.3872 11.0299 22 11.0295C22.0001 10.9056 21.9649 10.7809 21.892 10.6718Z" fill="#FFD17E"/>
<path id="Vector_6" d="M21.9998 11.0296C21.2007 11.0296 16.0971 11.0313 11 11.0326V5.22044L11.5965 5.5174L17.9524 5.47791L18.2649 5.32769C18.3357 5.37492 18.397 5.43542 18.4447 5.50666L21.8921 10.6716C21.9651 10.7811 22.0003 10.9056 21.9998 11.0296Z" fill="#FFB739"/>
<path id="Vector_7" d="M4.09027 5.22044C3.96154 5.22044 3.83804 5.25916 3.73389 5.32847L7.55192 11.0333H7.55235L10.9997 5.22044H4.09027Z" fill="#FFB739"/>
<path id="Vector_8" d="M14.4491 11.0315L18.2649 5.32783C18.161 5.25895 18.0379 5.22049 17.9095 5.22049H11L14.4463 11.0315H14.4491V11.0315Z" fill="#FF9441"/>
</g>
<path id="Vector_9" d="M7.15121 15.5254C6.07377 15.5254 5.19717 14.6489 5.19717 13.5714C5.19717 13.2155 4.90859 12.9269 4.55264 12.9269C4.19668 12.9269 3.90811 13.2155 3.90811 13.5714C3.90811 14.6435 3.03683 15.5254 1.9541 15.5254C1.59815 15.5254 1.30957 15.814 1.30957 16.17C1.30957 16.5259 1.59815 16.8145 1.9541 16.8145C3.03154 16.8145 3.90811 17.6911 3.90811 18.7685C3.90811 19.1245 4.19668 19.413 4.55264 19.413C4.90859 19.413 5.19717 19.1245 5.19717 18.7685C5.19717 17.6966 6.06836 16.8145 7.15121 16.8145C7.50717 16.8145 7.79575 16.5259 7.79575 16.17C7.79575 15.814 7.50717 15.5254 7.15121 15.5254Z" fill="#FFD17E"/>
<path id="Vector_10" d="M17.0296 2.59854C15.9521 2.59854 15.0756 1.72197 15.0756 0.644531C15.0756 0.288578 14.787 0 14.4311 0C14.0751 0 13.7865 0.288578 13.7865 0.644531C13.7865 1.72197 12.91 2.59854 11.8325 2.59854C11.4766 2.59854 11.188 2.88711 11.188 3.24307C11.188 3.59902 11.4766 3.8876 11.8325 3.8876C12.91 3.8876 13.7865 4.76416 13.7865 5.8416C13.7865 6.19755 14.0751 6.48613 14.4311 6.48613C14.787 6.48613 15.0756 6.19755 15.0756 5.8416C15.0756 4.76416 15.9521 3.8876 17.0296 3.8876C17.3855 3.8876 17.6741 3.59902 17.6741 3.24307C17.6741 2.88711 17.3855 2.59854 17.0296 2.59854Z" fill="#FFB739"/>
</g>
</g>
<defs>
<clipPath id="clip0_73_5001">
<rect width="22" height="22" fill="white"/>
</clipPath>
</defs>
</svg>
