<svg width="145" height="155" viewBox="0 0 145 155" fill="none" xmlns="http://www.w3.org/2000/svg">
<g clip-path="url(#clip0_159_5144)">
<path d="M25.3918 66.1818V72.0551H37.0086V77.9113H25.3918V87.0722H17.9395V60.3428H38.5767V66.1818H25.3918Z" fill="#588F27"/>
<path d="M58.7079 81.8839H47.58L45.5062 87.0722H37.9189L49.5358 60.3428H56.8701L68.5207 87.0722H60.7817L58.7079 81.8839ZM56.516 76.3017L53.1271 67.74L49.7381 76.3017H56.516Z" fill="#588F27"/>
<path d="M82.127 79.9661H78.0637V87.0722H70.6113V60.3428H82.6497C85.027 60.3428 87.1009 60.7366 88.8544 61.5414C90.6078 62.3462 91.9567 63.4935 92.9177 64.9832C93.8619 66.4729 94.3509 68.2195 94.3509 70.24C94.3509 72.175 93.9125 73.8702 93.0189 75.2914C92.1253 76.7298 90.8607 77.8599 89.2084 78.6647L94.8904 87.0722H86.9154L82.127 79.9661ZM85.6509 67.3291C84.8753 66.6441 83.7288 66.3017 82.1945 66.3017H78.0637V74.127H82.1945C83.7288 74.127 84.8753 73.7846 85.6509 73.1167C86.4264 72.4489 86.8142 71.4729 86.8142 70.24C86.8311 68.99 86.4433 68.014 85.6509 67.3291Z" fill="#588F27"/>
<path d="M122.205 87.0722L122.137 72.9113L115.376 84.4352H112.071L105.327 73.288V87.0722H98.4482V60.3428H104.569L113.825 75.7709L122.845 60.3428H128.983L129.05 87.0722H122.205Z" fill="#588F27"/>
<path d="M49.1316 95.8728C48.6764 95.6331 48.3223 95.2906 48.0694 94.8454C47.8165 94.4173 47.6816 93.9207 47.6816 93.3728C47.6816 92.8249 47.8165 92.3454 48.0694 91.9002C48.3223 91.4721 48.6764 91.1297 49.1316 90.8728C49.5869 90.616 50.0927 90.4961 50.6659 90.4961C51.2392 90.4961 51.745 90.616 52.2002 90.8728C52.6555 91.1297 53.0095 91.455 53.2625 91.9002C53.5154 92.3283 53.6502 92.8249 53.6502 93.3728C53.6502 93.9207 53.5154 94.4002 53.2625 94.8454C53.0095 95.2735 52.6386 95.616 52.2002 95.8728C51.745 96.1297 51.2392 96.2495 50.6659 96.2495C50.0927 96.2324 49.5869 96.1125 49.1316 95.8728ZM51.5427 94.9139C51.7956 94.7598 52.0148 94.5543 52.1497 94.2803C52.3014 94.0064 52.3689 93.6982 52.3689 93.3557C52.3689 93.0132 52.3014 92.705 52.1497 92.431C51.9979 92.1571 51.7956 91.9516 51.5427 91.7975C51.2898 91.6433 50.9863 91.5749 50.6659 91.5749C50.3456 91.5749 50.059 91.6433 49.7892 91.7975C49.5363 91.9516 49.3171 92.1571 49.1822 92.431C49.0305 92.705 48.963 93.0132 48.963 93.3557C48.963 93.6982 49.0305 94.0064 49.1822 94.2803C49.334 94.5543 49.5363 94.7598 49.7892 94.9139C50.0421 95.068 50.3456 95.1365 50.6659 95.1365C50.9863 95.1536 51.2729 95.068 51.5427 94.9139Z" fill="#588F27"/>
<path d="M60.2931 96.1466L59.2477 94.6055H59.1803H58.0844V96.1466H56.8198V90.5986H59.1803C59.6692 90.5986 60.0908 90.6843 60.4448 90.8384C60.7989 91.0096 61.0687 91.2322 61.271 91.5404C61.4565 91.8486 61.5576 92.1911 61.5576 92.6021C61.5576 93.013 61.4565 93.3726 61.271 93.6637C61.0687 93.9548 60.7989 94.1945 60.4448 94.3486L61.6756 96.1295H60.2931V96.1466ZM59.9727 91.9C59.7704 91.7288 59.4838 91.6432 59.1128 91.6432H58.0844V93.5781H59.1128C59.5006 93.5781 59.7873 93.4925 59.9727 93.3212C60.1751 93.15 60.2762 92.9103 60.2762 92.6021C60.2762 92.2938 60.1751 92.0541 59.9727 91.9Z" fill="#588F27"/>
<path d="M68.4537 93.2872H69.6002V95.5303C69.2968 95.7529 68.9596 95.9242 68.5718 96.0612C68.184 96.181 67.7962 96.2495 67.3915 96.2495C66.8183 96.2495 66.3125 96.1297 65.8572 95.8728C65.402 95.6331 65.0479 95.2906 64.795 94.8454C64.5421 94.4173 64.4072 93.9207 64.4072 93.3728C64.4072 92.8249 64.5421 92.3283 64.795 91.9002C65.0479 91.4721 65.402 91.1297 65.8741 90.8728C66.3293 90.6331 66.852 90.4961 67.4252 90.4961C67.8973 90.4961 68.3357 90.5817 68.7235 90.7358C69.1113 90.9071 69.4485 91.1297 69.7014 91.455L68.8921 92.2084C68.5043 91.7975 68.0322 91.5749 67.4758 91.5749C67.1218 91.5749 66.8183 91.6433 66.5485 91.7975C66.2787 91.9516 66.0596 92.1571 65.9247 92.431C65.7729 92.705 65.7055 93.0132 65.7055 93.3557C65.7055 93.6982 65.7729 94.0064 65.9247 94.2803C66.0764 94.5543 66.2787 94.7598 66.5485 94.9139C66.8183 95.068 67.1218 95.1365 67.459 95.1365C67.8299 95.1365 68.1502 95.0509 68.4369 94.8968V93.2872H68.4537Z" fill="#588F27"/>
<path d="M76.5804 94.9485H74.0514L73.5624 96.13H72.2642L74.6921 90.582H75.9397L78.3845 96.13H77.0525L76.5804 94.9485ZM76.1758 93.9896L75.3159 91.8663L74.456 93.9896H76.1758Z" fill="#588F27"/>
<path d="M86.1741 90.5986V96.1466H85.1456L82.4142 92.7733V96.1466H81.1665V90.5986H82.2119L84.9264 93.9719V90.5986H86.1741Z" fill="#588F27"/>
<path d="M89.6812 90.5986H90.9457V96.1466H89.6812V90.5986Z" fill="#588F27"/>
<path d="M95.5486 95.8728C95.0934 95.6331 94.7393 95.2906 94.4864 94.8454C94.2335 94.4173 94.0986 93.9207 94.0986 93.3728C94.0986 92.8249 94.2335 92.3283 94.4864 91.9002C94.7393 91.4721 95.0934 91.1297 95.5486 90.8728C96.0039 90.6331 96.5097 90.4961 97.0661 90.4961C97.5382 90.4961 97.9597 90.5817 98.3475 90.7529C98.7353 90.9242 99.0556 91.1639 99.3085 91.4892L98.4992 92.2427C98.1283 91.8146 97.6731 91.592 97.1335 91.592C96.7963 91.592 96.4928 91.6605 96.2231 91.8146C95.9533 91.9687 95.751 92.1742 95.5992 92.4482C95.4475 92.7221 95.38 93.0303 95.38 93.3728C95.38 93.7153 95.4475 94.0235 95.5992 94.2975C95.751 94.5714 95.9533 94.7769 96.2231 94.931C96.4928 95.0851 96.7963 95.1536 97.1335 95.1536C97.6731 95.1536 98.1452 94.931 98.4992 94.5029L99.3085 95.2564C99.0556 95.5817 98.7184 95.8214 98.3475 95.9927C97.9597 96.1639 97.5382 96.2495 97.0661 96.2495C96.5097 96.2324 96.0039 96.1125 95.5486 95.8728Z" fill="#588F27"/>
<path d="M11.3642 13.1849C10.538 18.7671 13.9101 22.5514 16.338 27.5685C17.6025 24.863 20.57 20.0856 19.6932 17.5685C21.4636 18.2534 20.5362 24.0582 18.3107 27.9795C22.9304 25.4281 27.449 20.976 26.6397 15.5308C25.763 9.58904 21.8851 5.59932 21.1432 0C16.0851 2.36301 12.2578 7.17466 11.3642 13.1849Z" fill="#A4D672"/>
<path d="M27.0609 48.664C23.4359 48.6811 21.362 46.1126 18.4115 44.0578C20.2492 43.4927 23.5539 42.003 25.0713 42.8078C24.8016 41.5749 21.0417 41.6434 18.3271 42.7393C20.3841 39.9653 23.6382 37.4311 27.0103 38.4756C30.6859 39.6057 32.8609 42.5167 36.3341 43.527C34.3615 46.6092 30.9556 48.6468 27.0609 48.664Z" fill="#A4D672"/>
<path d="M134.749 110.119C120.35 111.301 106.491 114.931 93.5081 120.924C88.2476 116.849 82.7005 113.219 76.9679 110.068C102.006 95.9242 126.302 94.3489 140.077 94.9311C138.88 100.274 137.076 105.359 134.749 110.119ZM91.3836 146.113C64.4575 121.934 35.5586 115.411 15.6127 114.298C12.9656 109.708 10.8243 104.794 9.29004 99.6057C22.6098 98.5098 46.5348 99.092 71.9267 111.986C78.9406 115.548 85.7017 119.88 92.0243 124.88C97.4703 129.178 102.697 134.041 107.603 139.366C102.562 142.294 97.1162 144.571 91.3836 146.113ZM18.2767 118.527C36.8569 120.034 62.3836 126.489 86.5447 147.226C82.4982 147.996 78.3336 148.407 74.0679 148.407C50.9354 148.407 30.4836 136.558 18.2767 118.527ZM111.077 137.191C106.642 132.328 101.938 127.825 97.0488 123.767C108.278 118.818 120.148 115.684 132.456 114.4C127.145 123.561 119.81 131.387 111.077 137.191Z" fill="#588F27"/>
<path d="M145 87.0889C144.359 99.058 140.583 110.959 134.108 121.216C133.906 121.541 133.721 121.866 133.501 122.174L132.861 123.116C132.422 123.733 132.018 124.383 131.562 124.983C130.652 126.181 129.758 127.431 128.764 128.579C126.858 130.942 124.751 133.151 122.559 135.257L120.89 136.798C120.333 137.311 119.743 137.791 119.153 138.287C118.007 139.281 116.776 140.171 115.562 141.113C114.955 141.558 114.314 141.986 113.69 142.414L112.746 143.065C112.426 143.287 112.105 143.476 111.785 143.681L109.846 144.897L107.857 146.027L106.862 146.592L105.85 147.106L103.81 148.133L101.719 149.058L100.674 149.52L99.6118 149.931C98.9036 150.205 98.1955 150.496 97.4874 150.753L95.3292 151.472C94.9752 151.592 94.6042 151.712 94.2502 151.832L93.1542 152.14L90.9624 152.757L88.7368 153.27L87.624 153.527L86.4943 153.733L84.2519 154.144L81.9926 154.435L80.863 154.589L79.7164 154.692L77.4403 154.88C76.6816 154.914 75.9228 154.931 75.1641 154.966C74.4054 154.983 73.6467 155.034 72.8711 155C71.3537 154.966 69.8194 154.983 68.3019 154.846L66.0257 154.674L63.7496 154.4C62.2321 154.246 60.7316 153.921 59.231 153.681L58.6746 153.579L58.1182 153.459L57.0054 153.202C56.2635 153.031 55.5048 152.877 54.7798 152.671L52.5711 152.037C52.2002 151.935 51.8292 151.832 51.4752 151.712L50.3961 151.335L48.2211 150.599L46.0798 149.76C44.6467 149.229 43.2641 148.544 41.8816 147.911C41.5275 147.757 41.1903 147.585 40.8531 147.397L39.8246 146.866L38.7961 146.335L38.2903 146.079L37.7845 145.787C36.4693 145.017 35.1205 144.264 33.856 143.39C33.2153 142.962 32.5577 142.568 31.9339 142.123L30.0624 140.77C29.7589 140.548 29.4385 140.325 29.135 140.085L28.2414 139.366L26.4374 137.928L24.7007 136.404L23.8409 135.633C23.5542 135.377 23.2845 135.103 23.0147 134.829C18.5804 130.565 14.6182 125.787 11.3641 120.548C10.9595 119.897 10.5379 119.246 10.1502 118.579L9.02051 116.558L8.46411 115.548L7.9583 114.503L6.92981 112.431C5.66527 109.623 4.48504 106.764 3.57458 103.801C2.59667 100.873 1.90539 97.8594 1.28155 94.8457L0.910623 92.5683C0.792599 91.8149 0.657716 91.0443 0.590274 90.2738C0.421669 88.7498 0.219343 87.2087 0.168762 85.6676C0.118181 84.8971 0.0675993 84.1265 0.0338783 83.356L0.0170179 81.0443C-0.0335635 79.5032 0.10132 77.9793 0.151902 76.4382C0.320506 73.3731 0.708297 70.3252 1.26469 67.3115C2.39434 61.2841 4.23213 55.4108 6.81179 49.9142C11.9711 38.9039 19.8112 29.2978 29.4385 22.3457C20.5531 30.2224 13.5223 40.0683 9.20597 50.9758L8.98679 51.4895L8.80132 52.0032L8.43039 53.0306L7.68853 55.1026C7.25016 56.5067 6.84551 57.9108 6.424 59.3149L5.91818 61.4553L5.66527 62.5169C5.58097 62.8765 5.49667 63.219 5.42923 63.5957L5.04144 65.7532C4.92341 66.4724 4.77167 67.1916 4.70423 67.9108C3.91179 73.6984 3.7769 79.5546 4.3333 85.3423C4.43446 86.7978 4.67051 88.219 4.87283 89.6573C4.95713 90.3765 5.10888 91.0786 5.24376 91.7978L5.66527 93.9382C6.32283 96.7635 7.04783 99.5717 8.02574 102.277C8.9362 105.017 10.1164 107.654 11.3304 110.274L12.3252 112.192L12.8141 113.15L13.3536 114.092L14.4327 115.959C14.8036 116.575 15.2083 117.174 15.5961 117.774C16.3548 119.007 17.2147 120.137 18.0409 121.318C18.2432 121.609 18.4624 121.9 18.6816 122.174L19.3391 123.014L19.9967 123.853L20.3339 124.281L20.6879 124.692C21.6321 125.77 22.5426 126.883 23.5542 127.894C24.0432 128.407 24.5321 128.938 25.038 129.435L26.5891 130.924C26.842 131.164 27.0949 131.421 27.3647 131.661L28.174 132.363L29.7926 133.767L31.4618 135.103L32.3048 135.77C32.5914 135.993 32.8781 136.181 33.1647 136.404L34.9013 137.671C35.4914 138.082 36.0984 138.459 36.6885 138.835C37.8688 139.64 39.1164 140.325 40.3473 141.044C45.3042 143.853 50.6153 145.976 56.0949 147.483C61.5746 148.99 67.2397 149.743 72.9385 149.88C73.6467 149.914 74.3548 149.897 75.063 149.88C75.7711 149.863 76.4792 149.863 77.2042 149.846L79.3287 149.709L80.3909 149.64L81.4531 149.52L83.5775 149.281L85.685 148.955L86.7473 148.784L87.7926 148.579L89.8833 148.151L91.9571 147.62L92.9856 147.363C93.3228 147.26 93.66 147.157 94.0141 147.055L96.0542 146.421L98.0775 145.702L99.0891 145.342L100.084 144.931L102.073 144.127L104.029 143.219L105.007 142.774L105.968 142.277C116.202 137.089 125.206 129.281 131.967 119.743L133.232 117.945L134.412 116.096L135.002 115.171L135.558 114.212L136.654 112.294L137.666 110.325C137.834 110 138.003 109.674 138.172 109.349L138.627 108.339L139.554 106.335L140.397 104.281C140.532 103.938 140.684 103.596 140.819 103.253L141.19 102.209C141.443 101.507 141.696 100.822 141.932 100.12L142.589 97.9964C142.69 97.6368 142.808 97.2943 142.909 96.9347L143.196 95.856C143.382 95.1368 143.584 94.4176 143.769 93.6984L144.241 91.5067C144.326 91.1471 144.41 90.7704 144.477 90.4108L144.663 89.3149L145 87.0889Z" fill="#588F27"/>
</g>
<defs>
<clipPath id="clip0_159_5144">
<rect width="145" height="155" fill="white"/>
</clipPath>
</defs>
</svg>
