<svg width="20" height="20" viewBox="0 0 20 20" fill="none" xmlns="http://www.w3.org/2000/svg">
<g clip-path="url(#clip0_164_1029)">
<path d="M11.9734 13.2431C11.8041 13.2431 11.6349 13.397 11.6349 13.9124C11.6349 14.4279 11.8041 14.5818 11.9734 14.5818C12.1426 14.5818 12.3119 14.4279 12.3119 13.9124C12.3119 13.3969 12.1426 13.2431 11.9734 13.2431Z" fill="#E64040"/>
<path d="M8.02661 10.7043C7.85736 10.7043 7.68811 10.8581 7.68811 11.3736C7.68811 11.8891 7.85736 12.0429 8.02661 12.0429C8.19586 12.0429 8.36511 11.8891 8.36511 11.3736C8.36511 10.8581 8.19586 10.7043 8.02661 10.7043Z" fill="#E64040"/>
<path d="M15.8562 7.09533C14.1605 5.22246 13.1528 3.57378 12.6059 2.52047C12.0137 1.37958 11.8196 0.672117 11.8181 0.666487L11.6418 0L11.0122 0.280834C10.9386 0.313636 9.19902 1.10695 8.2243 3.05637C7.735 4.03501 7.63714 5.1246 7.64124 5.86627C7.64363 6.2979 7.33781 6.67269 6.91412 6.75741C6.61706 6.81676 6.31148 6.72441 6.09707 6.51L4.92427 5.33721L4.52083 5.89352C4.47896 5.95127 3.49301 7.31102 3.31352 7.58271C2.437 8.90954 1.97996 10.4552 1.9918 12.0525C2.00768 14.1858 2.84662 16.1845 4.35408 17.6804C5.86147 19.1762 7.86656 20 10 20C14.4158 20 18.0083 16.4075 18.0083 11.9916C18.0084 10.3906 17.2239 8.60596 15.8562 7.09533ZM11.9733 15.4126C11.1579 15.4126 10.5424 14.8741 10.5424 13.9124C10.5424 12.9585 11.1578 12.4122 11.9733 12.4122C12.7889 12.4122 13.4043 12.9584 13.4043 13.9124C13.4043 14.8741 12.7888 15.4126 11.9733 15.4126ZM11.1886 9.95031H12.4888L8.81134 15.3357H7.51117L11.1886 9.95031ZM6.59567 11.3736C6.59567 10.4196 7.21114 9.8734 8.02666 9.8734C8.84219 9.8734 9.45765 10.4196 9.45765 11.3736C9.45765 12.3353 8.84219 12.8738 8.02666 12.8738C7.21114 12.8738 6.59567 12.3353 6.59567 11.3736Z" fill="#E64040"/>
</g>
<defs>
<clipPath id="clip0_164_1029">
<rect width="20" height="20" fill="white"/>
</clipPath>
</defs>
</svg>
