<svg width="48" height="48" viewBox="0 0 48 48" fill="none" xmlns="http://www.w3.org/2000/svg">
<g clip-path="url(#clip0_159_5942)">
<path fill-rule="evenodd" clip-rule="evenodd" d="M2.84351 24.0008C2.4479 24.0008 2.09047 23.8377 1.83137 23.5721L1.83016 23.5709C1.57043 23.306 1.41094 22.9406 1.41094 22.5361C1.41094 21.7263 2.05285 21.0704 2.84351 21.0704H45.3165C45.7114 21.0704 46.0693 21.2339 46.3292 21.4996L46.3298 21.5003C46.5894 21.7651 46.7491 22.1305 46.7491 22.5361C46.7491 23.3447 46.1073 24.0008 45.3165 24.0008H11.2903C10.9007 24.0008 10.5849 24.3237 10.5849 24.7221C10.5849 25.1204 10.9007 25.4434 11.2903 25.4434H45.3165C46.8866 25.4434 48.16 24.1414 48.16 22.5361C48.16 21.7338 47.8418 21.0047 47.3263 20.479C46.813 19.9545 46.1008 19.6278 45.3165 19.6278H2.84351C1.2732 19.6278 0 20.93 0 22.5361C0 23.3373 0.318095 24.066 0.833082 24.5916C1.34713 25.1181 2.05988 25.4434 2.84351 25.4434H8.47221C8.86183 25.4434 9.17768 25.1204 9.17768 24.7221C9.17768 24.3237 8.86183 24.0008 8.47221 24.0008H2.84351Z" fill="#588F27"/>
<path fill-rule="evenodd" clip-rule="evenodd" d="M16.8469 34.6083C16.9796 34.7877 17.1894 34.8936 17.4124 34.8936H30.7483C30.9713 34.8936 31.181 34.7877 31.3137 34.6083C32.9333 32.4186 33.5241 29.906 33.7181 27.9738C33.8155 27.0034 33.8141 26.1666 33.7881 25.5702C33.7751 25.2717 33.756 25.0324 33.7398 24.8656C33.7316 24.7821 33.7242 24.7167 33.7187 24.671C33.716 24.6481 33.7137 24.6302 33.712 24.6174C33.7111 24.611 33.7104 24.6058 33.7099 24.602L33.7092 24.5972L33.7089 24.5949C33.7089 24.5947 33.7088 24.5944 33.0123 24.6942L33.7088 24.5944C33.6538 24.2092 33.2974 23.9415 32.9127 23.9966C32.5282 24.0516 32.261 24.4082 32.3156 24.7932L32.3157 24.7935C32.3157 24.7936 32.3157 24.7937 32.3157 24.7939L32.3157 24.7942C32.3159 24.7955 32.3163 24.7982 32.3168 24.8021C32.3178 24.81 32.3195 24.8228 32.3216 24.8404C32.3259 24.8757 32.3321 24.9302 32.3391 25.0022C32.3531 25.1463 32.3704 25.3604 32.3822 25.6315C32.4058 26.1745 32.4072 26.9423 32.3178 27.8329C32.1471 29.5343 31.6496 31.638 30.3859 33.4842H17.7748C16.5111 31.638 16.0135 29.5343 15.8428 27.8329C15.7534 26.9423 15.7548 26.1745 15.7784 25.6315C15.7902 25.3604 15.8075 25.1463 15.8215 25.0022C15.8285 24.9302 15.8347 24.8757 15.8389 24.8404C15.8411 24.8228 15.8427 24.81 15.8438 24.8021C15.8441 24.7999 15.8443 24.7981 15.8445 24.7967C15.8446 24.7956 15.8447 24.7948 15.8448 24.7942L15.8449 24.7939C15.8449 24.7937 15.8449 24.7936 15.8449 24.7935C15.8449 24.7934 15.8449 24.7933 15.845 24.7932L15.845 24.7931C15.8995 24.4081 15.6323 24.0516 15.2479 23.9966C14.8632 23.9415 14.5067 24.2092 14.4517 24.5944L15.1483 24.6942C14.4517 24.5944 14.4517 24.5947 14.4517 24.5949L14.4513 24.5972L14.4507 24.602C14.4502 24.6058 14.4495 24.611 14.4486 24.6174C14.4469 24.6302 14.4446 24.6481 14.4419 24.671C14.4363 24.7167 14.4289 24.7821 14.4208 24.8656C14.4046 25.0324 14.3854 25.2717 14.3724 25.5702C14.3465 26.1666 14.3451 27.0034 14.4425 27.9738C14.6365 29.906 15.2273 32.4186 16.8469 34.6083Z" fill="#588F27"/>
<path fill-rule="evenodd" clip-rule="evenodd" d="M29.2496 32.5041C29.6386 32.6093 30.0419 32.3884 30.1503 32.0106C30.685 30.147 30.8556 28.2854 30.8949 26.899C30.906 26.5071 30.5877 26.1806 30.184 26.1698C29.7803 26.159 29.444 26.468 29.4329 26.86C29.3956 28.1783 29.2332 29.9155 28.7414 31.6296C28.633 32.0073 28.8605 32.3988 29.2496 32.5041Z" fill="#588F27"/>
<path fill-rule="evenodd" clip-rule="evenodd" d="M18.7736 32.5041C19.1302 32.3988 19.3388 32.0073 19.2395 31.6296C18.7887 29.9155 18.6397 28.1782 18.6055 26.86C18.5954 26.4681 18.2872 26.159 17.9171 26.1698C17.547 26.1805 17.2552 26.507 17.2654 26.899C17.3013 28.2854 17.4578 30.147 17.948 32.0106C18.0473 32.3884 18.417 32.6093 18.7736 32.5041Z" fill="#588F27"/>
<path fill-rule="evenodd" clip-rule="evenodd" d="M26.2251 32.5254C26.5974 32.5708 26.9343 32.2918 26.9776 31.9023C27.1804 30.08 27.2456 28.2538 27.2606 26.8876C27.2649 26.4956 26.9646 26.1741 26.5899 26.1696C26.2151 26.1651 25.9079 26.4793 25.9036 26.8713C25.8889 28.2099 25.8249 29.9826 25.6296 31.7381C25.5863 32.1276 25.8529 32.4801 26.2251 32.5254Z" fill="#588F27"/>
<path fill-rule="evenodd" clip-rule="evenodd" d="M21.8683 32.5254C22.2819 32.4801 22.5782 32.1276 22.53 31.7381C22.313 29.9826 22.2419 28.2099 22.2256 26.8713C22.2208 26.4793 21.8794 26.1651 21.4631 26.1696C21.0467 26.1741 20.713 26.4956 20.7178 26.8876C20.7345 28.2538 20.807 30.08 21.0322 31.9023C21.0804 32.2918 21.4547 32.5708 21.8683 32.5254Z" fill="#588F27"/>
<path fill-rule="evenodd" clip-rule="evenodd" d="M22.066 48.0543C22.3901 48.2602 22.815 48.1566 23.015 47.8229L22.4282 47.45C23.015 47.8229 23.0152 47.8226 23.0154 47.8222L23.0159 47.8215L23.0168 47.8199L23.0192 47.8159C23.0209 47.8129 23.0231 47.8093 23.0255 47.805C23.0304 47.7965 23.0367 47.7854 23.0442 47.7719C23.0591 47.7449 23.0789 47.7079 23.1021 47.6618C23.1485 47.5696 23.2091 47.4398 23.2724 47.278C23.3986 46.9561 23.5397 46.498 23.5981 45.9515C23.7175 44.8352 23.4847 43.3835 22.1773 42.0373C20.0916 39.8898 19.5645 36.9908 20.6446 34.4329C20.7965 34.0733 20.6364 33.655 20.2872 33.4986C19.9379 33.3422 19.5316 33.507 19.3798 33.8667C18.0634 36.9842 18.7345 40.5007 21.202 43.0415C22.1713 44.0395 22.3077 45.043 22.2272 45.796C22.1857 46.1841 22.0845 46.5142 21.9934 46.7467C21.9482 46.8622 21.9064 46.9512 21.8775 47.0085C21.8631 47.0371 21.8521 47.0576 21.8456 47.0693C21.8424 47.0751 21.8403 47.0788 21.8395 47.0801C21.8395 47.0802 21.8395 47.0802 21.8394 47.0803C21.642 47.4136 21.7429 47.849 22.066 48.0543Z" fill="#588F27"/>
<path fill-rule="evenodd" clip-rule="evenodd" d="M18.5134 45.7979C18.9018 45.7979 19.2167 45.4779 19.2167 45.0831C19.2167 44.3187 19.5026 43.4378 19.9976 42.4634C20.4888 41.4966 21.1511 40.5032 21.8369 39.5198C21.9877 39.3035 22.1404 39.0867 22.2925 38.8708C22.8194 38.1227 23.3392 37.3847 23.751 36.7106C24.0186 36.2724 24.2547 35.8391 24.4253 35.4245C24.5937 35.0151 24.716 34.582 24.716 34.1545C24.716 33.7598 24.4011 33.4398 24.0127 33.4398C23.6243 33.4398 23.3094 33.7598 23.3094 34.1545C23.3094 34.317 23.2599 34.5514 23.1275 34.8731C22.9973 35.1895 22.8038 35.5508 22.5559 35.9567C22.1709 36.587 21.6888 37.2716 21.1676 38.0116C21.0112 38.2338 20.8512 38.4611 20.6892 38.6933C20.0001 39.6814 19.2876 40.7448 18.7477 41.8077C18.2115 42.8631 17.8101 43.9847 17.8101 45.0831C17.8101 45.4779 18.1249 45.7979 18.5134 45.7979Z" fill="#588F27"/>
<path fill-rule="evenodd" clip-rule="evenodd" d="M25.5943 47.45C24.9857 47.8229 24.9855 47.8226 24.9853 47.8222L24.9849 47.8215L24.9839 47.8199L24.9814 47.8159C24.9796 47.8129 24.9774 47.8093 24.9749 47.805C24.9698 47.7965 24.9633 47.7854 24.9555 47.7719C24.94 47.7449 24.9195 47.7079 24.8954 47.6618C24.8473 47.5696 24.7845 47.4398 24.7188 47.278C24.588 46.9561 24.4417 46.498 24.3811 45.9515C24.2573 44.8352 24.4987 43.3835 25.8545 42.0373C28.0174 39.8898 28.5641 36.9908 27.444 34.4329C27.2865 34.0733 27.4524 33.655 27.8146 33.4986C28.1769 33.3422 28.5981 33.507 28.7556 33.8667C30.1208 36.9842 29.4248 40.5007 26.8659 43.0415C25.8608 44.0395 25.7193 45.043 25.8028 45.796C25.8458 46.1841 25.9507 46.5142 26.0452 46.7467C26.0921 46.8622 26.1355 46.9512 26.1654 47.0085C26.1803 47.0371 26.1918 47.0576 26.1985 47.0693C26.2018 47.0751 26.204 47.0788 26.2048 47.0801C26.2048 47.0802 26.2048 47.0802 26.2049 47.0803C26.4097 47.4136 26.3049 47.849 25.9699 48.0543C25.6338 48.2602 25.1931 48.1566 24.9857 47.8229L25.5943 47.45Z" fill="#588F27"/>
<path fill-rule="evenodd" clip-rule="evenodd" d="M29.6281 45.7979C30.0267 45.7979 30.3499 45.4779 30.3499 45.0831C30.3499 43.9847 29.9379 42.8631 29.3876 41.8077C28.8334 40.7448 28.1022 39.6814 27.395 38.6933C27.2288 38.4611 27.0646 38.2338 26.904 38.0116C26.3691 37.2716 25.8743 36.587 25.4792 35.9567C25.2247 35.5508 25.0261 35.1895 24.8925 34.8731C24.7567 34.5514 24.7059 34.317 24.7059 34.1545C24.7059 33.7598 24.3827 33.4398 23.984 33.4398C23.5854 33.4398 23.2622 33.7598 23.2622 34.1545C23.2622 34.582 23.3878 35.0151 23.5606 35.4245C23.7356 35.8391 23.978 36.2724 24.2526 36.7106C24.6752 37.3847 25.2087 38.1227 25.7495 38.8708C25.9056 39.0867 26.0623 39.3035 26.2171 39.5198C26.9209 40.5032 27.6007 41.4966 28.1048 42.4634C28.6128 43.4378 28.9062 44.3187 28.9062 45.0831C28.9062 45.4779 29.2294 45.7979 29.6281 45.7979Z" fill="#588F27"/>
<path fill-rule="evenodd" clip-rule="evenodd" d="M24.0092 21.0811C24.3987 21.0819 24.7152 20.768 24.716 20.3799L24.0134 20.3783C24.716 20.3799 24.716 20.3796 24.716 20.3793L24.716 20.3783L24.7161 20.3748L24.716 20.3626C24.716 20.3522 24.716 20.337 24.7158 20.3173C24.7156 20.278 24.715 20.2206 24.7139 20.1463C24.7115 19.9977 24.7066 19.7815 24.6966 19.5073C24.6766 18.9592 24.636 18.1785 24.5534 17.2425C24.3886 15.3737 24.0555 12.8707 23.3795 10.3584C22.7059 7.85511 21.6779 5.28848 20.092 3.33485C18.489 1.36001 16.3011 -0.000305176 13.3777 -0.000305176C10.6162 -0.000305176 8.6454 0.609053 7.36874 1.61189C6.07149 2.6309 5.55537 4.00877 5.64333 5.35322C5.77304 7.33598 7.24138 9.26906 9.3041 9.81773C8.75885 10.5247 8.37717 11.5516 8.7043 12.9176C9.02456 14.2548 10.1301 14.8905 11.2684 15.2579C12.04 15.507 12.9714 15.6747 13.8771 15.8377C14.2772 15.9097 14.6723 15.9808 15.0463 16.0576C16.3381 16.3229 17.471 16.666 18.2814 17.3004C19.0436 17.897 19.584 18.8026 19.584 20.3783C19.584 20.7664 19.8997 21.0811 20.2892 21.0811C20.6787 21.0811 20.9944 20.7664 20.9944 20.3783C20.9944 18.4156 20.2888 17.0845 19.1528 16.1952C18.065 15.3437 16.6477 14.9515 15.331 14.6811C14.87 14.5864 14.4273 14.507 14.0043 14.4312C13.154 14.2787 12.3832 14.1405 11.7031 13.9209C10.7107 13.6005 10.2212 13.1966 10.0763 12.5914C9.82895 11.5586 10.1825 10.9061 10.5859 10.4842C10.7979 10.2626 11.0295 10.1013 11.2108 9.99522C11.3004 9.9428 11.3748 9.90558 11.424 9.88255C11.4485 9.87108 11.4665 9.86325 11.4768 9.85894C11.4818 9.85682 11.4849 9.85556 11.4859 9.85514C11.8234 9.72358 12.006 9.35834 11.9078 9.01039C11.8092 8.66122 11.46 8.4442 11.102 8.50949C8.97996 8.89639 7.17469 7.15526 7.05082 5.2618C6.99203 4.36304 7.32187 3.43836 8.24195 2.71563C9.18261 1.97672 10.8005 1.40515 13.3777 1.40515C15.7931 1.40515 17.6037 2.50433 18.9954 4.21872C20.4042 5.95432 21.3671 8.30666 22.0171 10.7224C22.6647 13.1291 22.9878 15.545 23.1484 17.3655C23.2285 18.2741 23.2678 19.0305 23.2871 19.5584C23.2967 19.8223 23.3013 20.0288 23.3035 20.1684C23.3046 20.2382 23.3052 20.2913 23.3054 20.3264C23.3055 20.344 23.3055 20.3571 23.3056 20.3655L23.3056 20.3747V20.3767M11.4845 9.85568C11.4845 9.85569 11.4845 9.85567 11.4845 9.85568V9.85568Z" fill="#588F27"/>
<path fill-rule="evenodd" clip-rule="evenodd" d="M23.9796 21.0811C24.3749 21.0802 24.6946 20.7655 24.6938 20.3782C24.6938 20.3782 24.6938 20.3782 24.6938 20.3782L24.6938 20.3781M24.6938 20.3781L24.6938 20.3744C24.6938 20.3714 24.6938 20.3665 24.6938 20.3599C24.6939 20.3467 24.694 20.3264 24.6942 20.2992C24.6947 20.245 24.6957 20.1636 24.698 20.0573C24.7024 19.8446 24.7116 19.5326 24.7307 19.1394C24.7688 18.3527 24.8462 17.2433 25.0031 15.9571C25.3182 13.3744 25.949 10.1237 27.1994 7.34504C27.3589 6.99059 27.1949 6.57654 26.8332 6.42025C26.4715 6.26395 26.049 6.42459 25.8895 6.77904C24.5563 9.74172 23.9038 13.1498 23.5816 15.7906C23.4199 17.1162 23.3401 18.2596 23.3007 19.0729C23.281 19.4797 23.2714 19.8044 23.2667 20.0285C23.2643 20.1405 23.2632 20.2275 23.2627 20.287C23.2624 20.3168 23.2623 20.3397 23.2622 20.3555C23.2622 20.3634 23.2622 20.3695 23.2622 20.3738L23.2622 20.3789L23.2622 20.3809C23.2622 20.3811 23.2622 20.3812 23.9773 20.3796L23.2622 20.3812C23.2631 20.7686 23.5843 21.0819 23.9796 21.0811" fill="#588F27"/>
<path fill-rule="evenodd" clip-rule="evenodd" d="M27.7879 21.0811C28.1796 21.0811 28.4971 20.7664 28.4971 20.3783C28.4971 18.8026 29.0406 17.897 29.807 17.3004C30.622 16.666 31.7613 16.323 33.0604 16.0578C33.4365 15.981 33.8338 15.9099 34.2362 15.8379C35.147 15.675 36.0837 15.5074 36.8596 15.2583C38.0042 14.8909 39.1159 14.2553 39.4379 12.9182C39.7673 11.552 39.3835 10.525 38.8351 9.81792C40.9094 9.26922 42.3861 7.33611 42.5166 5.35336C42.6051 4.00888 42.0861 2.63097 40.7815 1.61193C39.4976 0.609066 37.5156 -0.000305176 34.7385 -0.000305176C31.3831 -0.000305176 29.004 1.76801 27.3538 4.1829C27.1342 4.50428 27.2191 4.94121 27.5434 5.1588C27.8678 5.3764 28.3087 5.29227 28.5283 4.97089C29.9951 2.82451 31.9811 1.40518 34.7385 1.40518C37.3303 1.40518 38.9573 1.97677 39.9033 2.71568C40.8286 3.43842 41.1602 4.36311 41.1011 5.2619C40.9765 7.15543 39.1609 8.89658 37.027 8.50968C36.6668 8.44439 36.3157 8.66141 36.2166 9.01059C36.1178 9.35857 36.3015 9.72384 36.6409 9.85538C36.642 9.85582 36.6451 9.85707 36.65 9.85916C36.6603 9.86348 36.6784 9.8713 36.7031 9.88278C36.7526 9.90581 36.8274 9.94304 36.9175 9.99546C37.0999 10.1015 37.3329 10.2628 37.546 10.4845C37.9517 10.9064 38.3072 11.5589 38.0582 12.5917L38.0582 12.5919C37.9125 13.197 37.4204 13.6009 36.4224 13.9212C35.7385 14.1407 34.9634 14.2789 34.1083 14.4314C33.6829 14.5072 33.2377 14.5866 32.7741 14.6812C31.45 14.9516 30.0246 15.3437 28.9307 16.1952C27.7883 17.0845 27.0786 18.4155 27.0786 20.3783C27.0786 20.7664 27.3962 21.0811 27.7879 21.0811Z" fill="#588F27"/>
<path fill-rule="evenodd" clip-rule="evenodd" d="M21.8351 17.9675C22.209 17.8656 22.4301 17.4776 22.329 17.101C20.8961 11.7667 18.6398 8.55357 16.7013 6.66544C15.7343 5.72354 14.8525 5.1173 14.2024 4.74336C13.8774 4.55646 13.6106 4.42771 13.4201 4.34407C13.3248 4.30225 13.2486 4.2717 13.1938 4.25079C13.1664 4.24034 13.1443 4.2323 13.1278 4.22646C13.1196 4.22354 13.1127 4.22117 13.1073 4.21933C13.1046 4.21841 13.1023 4.21762 13.1003 4.21696L13.0976 4.21606L13.0965 4.21568C13.096 4.21551 13.0955 4.21535 12.8778 4.88695L13.0955 4.21535C12.7273 4.09424 12.3313 4.29674 12.2111 4.66765C12.0912 5.0376 12.2909 5.43537 12.6572 5.55761C12.6579 5.55784 12.6596 5.55842 12.6622 5.55935C12.6685 5.56158 12.6803 5.56584 12.6973 5.57232C12.7313 5.58528 12.7862 5.60712 12.8596 5.63939C13.0066 5.70392 13.2282 5.81014 13.5069 5.97042C14.0639 6.29083 14.8501 6.82778 15.7263 7.68122C17.4742 9.38378 19.605 12.3699 20.975 17.47C21.0761 17.8467 21.4612 18.0694 21.8351 17.9675Z" fill="#588F27"/>
<path fill-rule="evenodd" clip-rule="evenodd" d="M26.1526 17.9675C26.5332 18.0694 26.9252 17.8467 27.0281 17.47C28.4226 12.3699 30.5914 9.38378 32.3705 7.68122C33.2624 6.82778 34.0626 6.29083 34.6296 5.97042C34.9132 5.81014 35.1387 5.70392 35.2884 5.63939C35.3632 5.60712 35.419 5.58528 35.4536 5.57232C35.4709 5.56584 35.4829 5.56158 35.4893 5.55935C35.492 5.55843 35.4937 5.55785 35.4944 5.55761C35.8673 5.43538 36.0706 5.03761 35.9485 4.66765C35.8261 4.29674 35.4231 4.09424 35.0483 4.21535L35.2699 4.88695C35.0483 4.21535 35.0478 4.21551 35.0473 4.21568L35.0461 4.21606L35.0434 4.21696C35.0414 4.21762 35.039 4.21841 35.0362 4.21933C35.0308 4.22117 35.0238 4.22354 35.0154 4.22646C34.9987 4.2323 34.9762 4.24034 34.9483 4.25079C34.8924 4.2717 34.8149 4.30225 34.7179 4.34407C34.524 4.42771 34.2524 4.55646 33.9217 4.74336C33.2599 5.1173 32.3623 5.72354 31.3781 6.66544C29.405 8.55357 27.1084 11.7667 25.65 17.101C25.547 17.4776 25.772 17.8656 26.1526 17.9675Z" fill="#588F27"/>
</g>
<defs>
<clipPath id="clip0_159_5942">
<rect width="48" height="48" fill="white"/>
</clipPath>
</defs>
</svg>
