<svg width="48" height="48" viewBox="0 0 48 48" fill="none" xmlns="http://www.w3.org/2000/svg">
<path fill-rule="evenodd" clip-rule="evenodd" d="M9.75071 38.8333C13.4089 42.347 18.3774 44.5067 23.8502 44.5067C30.2302 44.5067 35.9234 41.5716 39.6569 36.9765C39.8775 36.7049 40.2765 36.6637 40.5481 36.8843C40.8196 37.1049 40.8609 37.5039 40.6403 37.7754C36.6766 42.6538 30.628 45.7737 23.8502 45.7737C17.8866 45.7737 12.4869 43.3596 8.57497 39.4553C8.49574 39.4237 8.42148 39.3758 8.35735 39.3117C8.28962 39.244 8.24005 39.165 8.20863 39.0807C4.50251 35.1993 2.22656 29.9405 2.22656 24.15C2.22656 12.2076 11.9078 2.52637 23.8502 2.52637C29.6373 2.52637 34.8935 4.79971 38.7743 8.50209C38.8632 8.53218 38.9468 8.58266 39.0176 8.65355C39.085 8.72095 39.134 8.79981 39.1645 8.88385C43.0635 12.795 45.4739 18.1911 45.4739 24.15C45.4739 28.0707 44.4299 31.7494 42.6042 34.9213C42.4297 35.2245 42.0424 35.3288 41.7392 35.1543C41.4359 34.9798 41.3316 34.5925 41.5061 34.2892C43.2241 31.3045 44.2069 27.843 44.2069 24.15C44.2069 18.6719 42.043 13.6992 38.5234 10.04L32.2623 16.3011C32.6633 16.5734 32.9293 17.0516 32.9293 17.596V18.4892C32.9293 19.1695 32.514 19.7464 31.939 19.9474V31.3153H32.5307C33.3163 31.3153 33.9576 30.7036 33.9945 29.9354C33.9465 29.8423 33.9191 29.7347 33.9191 29.62V22.6417C33.9191 22.5257 33.9472 22.4168 33.9962 22.3231V21.2749C33.9962 20.6728 34.2379 20.0952 34.6682 19.6694L37.4613 16.9056C37.7086 16.6609 38.1095 16.6609 38.3567 16.9056C38.604 17.1502 38.604 17.5469 38.3567 17.7916L35.5636 20.5555C35.3709 20.7462 35.2626 21.005 35.2626 21.2749V22.0042H35.8129C36.5903 22.0042 37.2204 22.7006 37.2204 23.5595V27.247C37.2204 28.6212 36.3872 29.7804 35.2485 30.1412C35.1088 31.5045 33.9452 32.5684 32.5307 32.5684H31.939V36.0931C31.939 36.8814 31.2941 37.5204 30.4984 37.5204H28.7107C28.2827 37.5204 27.8767 37.3318 27.603 37.0055L27.6029 37.0053L26.7367 35.9729C26.7008 35.9301 26.6474 35.9052 26.591 35.9052H21.1105C21.0541 35.9052 21.0007 35.93 20.9647 35.9729L20.9646 35.973L20.9646 35.973L20.0985 37.0055C19.8248 37.3317 19.4189 37.5204 18.9907 37.5204H17.203C16.4074 37.5204 15.7625 36.8814 15.7625 36.0931V32.8215L9.75071 38.8333ZM30.688 20.0234V36.0931C30.688 36.1968 30.6032 36.2809 30.4984 36.2809H28.7107C28.6544 36.2809 28.601 36.256 28.5651 36.2132L27.6987 35.1806C27.4251 34.8544 27.0191 34.6657 26.591 34.6657H21.1105C20.6823 34.6657 20.2764 34.8544 20.0027 35.1805L19.1365 36.2131C19.1004 36.2561 19.047 36.2809 18.9907 36.2809H17.203C17.0983 36.2809 17.0135 36.1968 17.0135 36.0931V27.5857C17.0135 27.2434 16.7334 26.966 16.388 26.966C16.0425 26.966 15.7625 27.2434 15.7625 27.5857V31.248C15.6696 31.2497 15.577 31.2712 15.4917 31.3126H15.0519C14.2846 31.3126 13.6627 30.662 13.6627 29.8594V13.3852C13.6627 12.4574 14.3817 11.7053 15.2685 11.7053C16.1553 11.7053 16.8742 12.4574 16.8742 13.3852V13.6187C16.2159 13.9368 15.7625 14.605 15.7625 15.3778V16.1378C15.1874 16.3388 14.772 16.9157 14.772 17.596V18.4892C14.772 19.1695 15.1874 19.7464 15.7625 19.9474V24.0439C15.7625 24.376 15.9842 24.6453 16.2577 24.6453C16.5312 24.6453 16.7529 24.376 16.7529 24.0439V20.0234H30.688ZM24.3449 16.0618V15.4388C24.3449 14.3244 25.2537 13.4208 26.3749 13.4208H29.9079C30.8454 13.4208 31.6345 14.0525 31.8678 14.9111L37.621 9.15792C33.9966 5.82697 29.1609 3.79338 23.8502 3.79338C12.6075 3.79338 3.49357 12.9073 3.49357 24.15C3.49357 29.4544 5.52232 34.2849 8.84621 37.9079L14.3012 32.4528C13.2371 32.1162 12.4623 31.0825 12.4623 29.8594V13.3852C12.4623 11.7639 13.7187 10.4495 15.2685 10.4495C16.8182 10.4495 18.0746 11.7639 18.0746 13.3852V13.448C19.0108 13.6038 19.7241 14.4085 19.7241 15.3778V16.0618H24.3449ZM30.6766 16.0618H25.6063V15.4388C25.6063 15.0168 25.9505 14.6747 26.3749 14.6747H29.9079C30.3324 14.6747 30.6766 15.0168 30.6766 15.4388V16.0618ZM18.455 16.0618V15.3778C18.455 14.9895 18.1364 14.6747 17.7433 14.6747C17.7306 14.6747 17.7179 14.675 17.7054 14.6757C17.6363 14.7058 17.5607 14.7229 17.4814 14.7238C17.2179 14.8269 17.0316 15.0809 17.0316 15.3778V16.0618H18.455ZM36.0665 27.247C36.0665 27.8979 35.7423 28.465 35.2626 28.762V23.2793H35.8129C35.953 23.2793 36.0665 23.4048 36.0665 23.5595V27.247ZM16.0307 18.4892C16.0307 18.5953 16.1114 18.6815 16.2111 18.6815H31.4903C31.59 18.6815 31.6707 18.5953 31.6707 18.4892V17.596C31.6707 17.4899 31.59 17.4038 31.4903 17.4038H16.2111C16.1114 17.4038 16.0307 17.4899 16.0307 17.596V18.4892ZM21.0479 30.9177C21.8134 31.5371 22.7881 31.9082 23.8495 31.9082C26.311 31.9082 28.3063 29.9128 28.3063 27.4514C28.3063 26.3907 27.9358 25.4166 27.3171 24.6514C27.3206 24.4799 27.2568 24.3072 27.1259 24.1763C26.9951 24.0455 26.8226 23.9818 26.6512 23.9851C25.8857 23.3656 24.9109 22.9946 23.8495 22.9946C21.3881 22.9946 19.3928 24.99 19.3928 27.4514C19.3928 28.5136 19.7643 29.4889 20.3846 30.2546C20.382 30.4251 20.4458 30.5963 20.5759 30.7264C20.706 30.8565 20.8774 30.9203 21.0479 30.9177ZM22.0971 30.1292C22.6005 30.4593 23.2026 30.6513 23.8495 30.6513C25.6168 30.6513 27.0494 29.2186 27.0494 27.4514C27.0494 26.8044 26.8574 26.2023 26.5273 25.6989L22.0971 30.1292ZM21.1728 29.2054L25.6036 24.7747C25.0999 24.4439 24.4972 24.2515 23.8495 24.2515C22.0823 24.2515 20.6497 25.6842 20.6497 27.4514C20.6497 28.099 20.8421 28.7017 21.1728 29.2054Z" fill="#588F27"/>
</svg>
