<svg width="139" height="134" viewBox="0 0 139 134" fill="none" xmlns="http://www.w3.org/2000/svg">
<g clip-path="url(#clip0_159_5634)">
<path d="M69.2186 123.945C103.749 123.945 131.741 96.4019 131.741 62.4264C131.741 28.4508 103.749 0.908203 69.2186 0.908203C34.6888 0.908203 6.69678 28.4508 6.69678 62.4264C6.69678 96.4019 34.6888 123.945 69.2186 123.945Z" fill="url(#paint0_radial_159_5634)"/>
<path d="M122.005 75.25C121.836 75.8037 121.724 76.3574 121.555 76.9665C121.78 76.3574 122.061 75.7483 122.005 75.25Z" fill="url(#paint1_linear_159_5634)"/>
<path d="M127.182 74.6416C127.07 75.2507 126.901 75.9152 126.732 76.5796C127.07 75.8598 127.351 75.1399 127.182 74.6416Z" fill="url(#paint2_linear_159_5634)"/>
<path d="M14.9692 61.9053L15.1381 63.6218C15.1381 63.2896 15.1381 62.9573 15.1381 62.6251C15.0818 62.3482 14.9692 62.1268 14.9692 61.9053Z" fill="url(#paint3_linear_159_5634)"/>
<path d="M15.4197 66.9446C15.3634 66.5017 15.3634 66.1694 15.3071 65.8926C15.3634 66.2248 15.4197 66.6124 15.4197 66.9446Z" fill="url(#paint4_linear_159_5634)"/>
<path d="M15.3633 65.8923C15.307 65.1725 15.2507 64.8403 15.1382 63.6221C15.1945 64.3973 15.2507 65.1171 15.3633 65.8923Z" fill="url(#paint5_linear_159_5634)"/>
<path d="M21.4976 26.3572C21.8352 25.8034 22.1729 25.1943 22.5105 24.6406C22.004 25.1943 21.4976 25.7481 21.4976 26.3572Z" fill="url(#paint6_linear_159_5634)"/>
<path d="M15.4757 67.0551C15.4757 66.9997 15.4757 66.9997 15.4757 66.9443C15.4194 66.9997 15.4757 66.9997 15.4757 67.0551Z" fill="url(#paint7_linear_159_5634)"/>
<path d="M120.936 69.2705C120.767 69.6027 120.654 69.9903 120.485 70.3226L120.936 69.2705Z" fill="url(#paint8_linear_159_5634)"/>
<path d="M20.8219 88.9271C20.428 88.3734 20.0341 87.875 19.6401 87.3213C19.9778 87.9858 20.3154 88.6502 20.8219 88.9271Z" fill="url(#paint9_linear_159_5634)"/>
<path d="M105.798 15.6702L104.391 14.6182C104.616 14.8397 104.897 15.0611 105.122 15.2826C105.347 15.3934 105.572 15.5041 105.798 15.6702Z" fill="url(#paint10_linear_159_5634)"/>
<path d="M101.689 12.625C102.083 12.9019 102.308 13.068 102.534 13.2341C102.252 13.068 101.971 12.8465 101.689 12.625Z" fill="url(#paint11_linear_159_5634)"/>
<path d="M102.534 13.2334C103.096 13.6764 103.434 13.8979 104.391 14.6177C103.772 14.1747 103.153 13.7317 102.534 13.2334Z" fill="url(#paint12_linear_159_5634)"/>
<path d="M128.195 44.2979C128.42 44.9069 128.589 45.5714 128.814 46.1805C128.702 45.4607 128.589 44.6855 128.195 44.2979Z" fill="url(#paint13_linear_159_5634)"/>
<path d="M130.671 61.1304C129.94 55.3718 130.446 49.5577 127.239 44.0205C127.689 43.9652 127.97 44.0759 128.195 44.2974C126.282 38.3726 124.256 33.2784 120.148 28.3503C120.317 29.5131 121.836 31.6726 122.005 32.8354C118.629 25.3602 110.863 20.3767 105.122 15.2825C103.716 14.618 101.802 14.5073 101.577 12.5693C98.8196 10.6866 95.837 9.08086 92.7981 7.80731C93.1358 7.75193 93.4734 7.75193 93.8674 7.69656C93.3609 7.64119 92.8544 7.64119 92.3479 7.58582C89.9281 6.6445 87.452 5.86929 84.9759 5.2602C87.8459 5.2602 90.716 5.48169 93.7548 5.92466C90.4346 5.31557 87.0581 5.03871 83.7378 4.98334C70.6257 2.43623 56.7819 5.09408 45.5832 12.7354C53.6868 6.25689 63.4224 3.10069 73.6645 3.37755C68.4872 2.65772 62.1844 3.21144 57.1196 3.65441L58.2451 2.38086C44.5139 4.70648 35.5099 13.6214 27.8564 23.5329C28.8131 21.1519 29.9386 19.8784 30.8953 17.442C29.6572 18.4941 28.6443 19.6015 27.8002 20.7643C27.8564 20.6536 27.8564 20.4875 27.9127 20.3767C29.7698 17.885 32.1334 16.1131 32.471 13.1784C31.3455 14.4519 30.1637 15.6701 28.9819 16.8883C29.0382 16.7222 29.0945 16.5561 29.1508 16.39C29.0382 16.6114 28.9257 16.8329 28.8131 17.0544C27.2937 18.6048 25.8305 20.2106 24.5925 21.9825C25.4366 19.9338 26.4496 17.885 27.5751 15.8362C26.2245 18.0511 25.0427 20.4321 24.0297 22.8131C23.1856 24.142 22.454 25.5817 21.9475 27.1875C21.6099 26.9106 21.4973 26.5784 21.5536 26.3015C18.4022 31.728 15.9261 36.6007 14.9694 42.8577C15.7572 41.9718 16.32 39.3693 17.1079 38.4833C13.7313 46.0139 15.1945 54.9842 15.1945 62.5701C15.6447 64.0652 16.8265 65.5048 15.5321 66.9999C16.3763 73.423 18.571 79.4585 21.7787 84.885C21.1034 83.999 20.4844 83.0577 19.8091 82.1718C20.3155 83.2238 20.3155 83.2238 20.822 84.2205C16.6576 81.0643 16.7702 75.9147 13.1123 73.8106C15.6447 79.0156 17.1079 84.6635 21.7787 88.8718C21.4411 89.0379 21.1034 89.0379 20.8783 88.8718C24.5362 93.8552 27.969 98.0081 33.09 101.386C32.5836 100.334 30.5014 98.7833 29.9949 97.7313C31.2892 99.1709 32.7524 100.389 34.3281 101.441C35.7913 102.825 37.2544 104.21 38.605 105.428L36.9168 105.483C47.8904 113.9 60.6649 114.509 73.2706 113.402C70.7945 114.287 69.1062 114.343 66.6864 115.229C68.3184 115.45 69.8378 115.45 71.301 115.284C69.8941 115.893 68.4872 116.558 67.1366 117.278C72.8767 115.506 78.7293 113.235 84.2443 110.245C84.1317 110.245 84.0192 110.301 83.9066 110.301C84.5819 110.024 85.1447 109.636 85.7075 109.249C85.9888 109.138 86.2702 109.083 86.5516 108.972C85.7637 109.415 85.0321 109.858 84.2443 110.301C86.0451 110.024 88.2398 108.861 90.0406 107.587C90.716 107.311 91.335 107.034 91.954 106.757C84.5819 112.792 76.9285 116.668 67.7556 118.828C77.7164 116.835 87.1143 112.183 95.1617 105.262C95.3868 105.151 95.6119 105.04 95.8933 104.93L95.5556 105.816C91.5601 109.138 86.7204 111.574 82.1058 114.62C86.6641 113.069 90.8848 110.854 94.8241 108.086C94.4301 108.584 94.0362 109.083 93.6423 109.636C94.5989 108.75 95.5556 107.809 96.5123 106.868C100.114 104.099 103.434 100.832 106.417 97.1776C107.43 95.0734 108.499 92.8586 110.525 91.4189C110.469 91.5296 110.412 91.6957 110.3 91.8065C109.062 93.6338 107.767 95.461 106.417 97.1222C105.854 98.2296 105.348 99.3371 104.672 100.278C106.36 98.0635 107.992 95.7379 109.568 93.2461C105.967 100.002 101.296 105.594 95.0491 110.688C104.166 103.822 111.031 94.4643 114.914 83.5561C115.365 82.6147 115.815 81.6734 116.209 80.7321C116.209 80.8428 116.152 81.009 116.152 81.1197C115.59 82.6701 115.083 84.2759 114.802 85.9371C112.776 90.9205 109.287 95.461 106.417 100.5C113.339 93.6891 117.841 84.9957 119.923 75.5271C120.148 75.0842 120.204 74.6412 120.204 74.1428C120.204 74.0321 120.26 73.9214 120.26 73.8106C120.204 72.7586 120.148 71.7618 120.148 70.7098C120.26 70.2114 120.486 69.7685 120.88 69.3809V69.3255C120.711 70.8205 120.486 72.3156 120.204 73.8106C120.26 74.8073 120.317 75.804 120.26 76.7453C120.148 77.0776 120.035 77.4098 119.923 77.742C120.035 77.4652 120.148 77.2437 120.26 76.9668C120.26 77.1329 120.26 77.2437 120.204 77.4098C120.26 77.1883 120.26 77.0222 120.317 76.8007C120.654 76.0255 120.936 75.3057 121.273 74.5304C121.724 74.6966 121.892 75.0288 121.949 75.4164C122.399 73.6999 122.737 71.9833 123.018 70.2668C123.018 70.9313 123.018 71.6511 123.131 72.3709C123.412 70.4329 123.524 68.5503 123.468 66.6123C124.031 60.5767 123.468 54.5412 121.555 48.4503C121.555 48.2842 121.499 48.0627 121.442 47.8966L121.78 48.6718C121.611 48.3395 121.555 48.118 121.442 47.8966C121.386 47.6197 121.217 47.3428 121.105 47.066C120.936 46.7338 120.823 46.3461 120.486 45.6817C120.542 45.9032 120.598 46.1247 120.598 46.3461C119.754 45.128 118.685 43.8544 119.248 42.5255L119.416 43.6883C119.248 42.5255 119.135 41.418 118.966 40.2552C119.416 43.6883 122.343 46.8999 122.793 50.3883C122.624 49.2255 122.511 48.1181 122.343 46.9552C122.455 46.9552 122.568 46.9552 122.68 46.9552C126.169 57.4759 125.494 69.2701 122.737 80.1784C123.187 79.1263 123.187 79.1263 123.637 78.0189C124.031 83.1685 120.092 86.5462 120.992 90.6437C123.187 85.328 126.451 80.3999 126.507 74.1982C126.901 74.3643 127.07 74.5858 127.126 74.8627C128.42 68.8271 129.265 63.5668 128.308 57.5313C127.858 58.5833 128.083 61.1858 127.633 62.2379C128.533 54.2643 124.594 46.623 122.399 39.8123C121.611 38.7602 120.317 37.8742 120.711 36.3238C121.217 37.2652 121.724 38.2619 122.23 39.2585C122.286 39.48 122.343 39.6461 122.399 39.8676C122.568 40.0891 122.68 40.2552 122.737 40.4767L122.511 39.923C124.256 43.6329 125.663 47.4536 126.788 51.2743C126.62 50.1114 126.62 50.1114 126.507 49.004C129.658 53.1015 127.745 57.9189 130.671 61.1304ZM19.584 51.6065C19.6402 51.9941 19.6402 52.3817 19.6965 52.8247C19.6402 52.6032 19.584 52.3817 19.5277 52.1602C19.4714 51.9941 19.5277 51.828 19.584 51.6065ZM25.9431 34.0536L26.5621 33.3338C26.5058 33.4999 26.4496 33.6106 26.4496 33.7767C26.2807 33.8875 26.1119 33.9982 25.9431 34.0536ZM26.5621 33.3338C25.8305 34.1643 25.0989 34.9949 24.4236 35.8255C26.5621 33.3891 27.0686 29.5131 28.9819 26.8552C28.0253 29.0701 27.2374 31.1742 26.5621 33.3338ZM24.9864 30.6759C24.6487 31.285 24.3111 31.8387 24.0297 32.4478C24.3111 31.3404 24.6487 30.2329 24.9864 29.1255C24.9864 29.6238 24.9864 30.1222 24.9864 30.6759ZM17.8957 58.6941C18.8524 60.909 19.8091 63.2346 19.4714 65.7263C18.7961 63.3453 18.2896 61.0197 17.8957 58.6941C17.6143 57.9743 17.333 57.2544 17.0516 56.59C16.9953 54.9842 17.0516 53.323 17.1641 51.7172C17.2767 53.9875 17.5018 56.3685 17.8957 58.6941ZM19.584 66.3354C19.3026 67.609 19.4714 68.4395 19.9216 69.2147C19.8653 68.3288 19.7528 67.4982 19.6965 66.6123C20.1467 67.9412 20.5969 69.2701 21.1034 70.599C20.5969 70.1561 20.203 69.7131 19.9216 69.2701C19.9779 69.9346 20.0342 70.6544 20.0904 71.3189C18.2896 66.6676 17.333 62.0164 17.1079 57.3652C17.7269 60.2999 18.571 63.29 19.584 66.3354ZM96.6811 99.9462C96.2872 100.555 95.7807 101.054 95.1617 101.386C95.6682 100.887 96.1747 100.445 96.6811 99.9462ZM91.2787 104.431C92.3479 103.711 93.3609 102.936 94.3176 102.106L94.7115 102.272C93.1921 102.881 92.7419 103.988 91.2224 104.597L91.2787 104.431ZM98.0317 14.7288C97.6941 14.5073 97.3564 14.3966 96.9625 14.3412C96.9625 14.3412 96.9625 14.3412 97.0188 14.3966C96.9625 14.3966 96.9625 14.3966 96.9062 14.3412H96.9625C96.3998 13.8982 95.837 13.5106 95.2743 13.0676C98.5945 14.3412 101.633 15.8916 104.391 17.7742C102.365 16.6114 100.226 15.6147 98.0317 14.7288ZM30.3888 23.3114C29.9386 24.4742 29.4321 25.5817 28.9819 26.6891C28.3629 27.409 27.7439 28.1288 27.1249 28.7933C26.956 28.6271 26.8435 28.5164 26.7872 28.3503C26.956 27.7966 27.1249 27.2428 27.35 26.7445C27.4625 26.5784 27.5751 26.3569 27.6876 26.1908C27.5751 26.3015 27.5188 26.4123 27.4062 26.523C28.0253 25.1941 28.8131 23.9759 30.3888 23.3114ZM23.073 33.3338C22.8479 33.9982 22.7354 34.6627 22.6791 35.3271C22.5666 35.604 22.454 35.8255 22.3415 36.1023C22.5103 35.2718 22.6791 34.4412 22.9042 33.6106C21.8913 35.1057 21.2722 37.4866 21.0471 39.6461C20.822 40.366 20.5969 41.1412 20.3718 41.861C20.4281 39.7015 20.6532 37.5974 20.9346 35.604C22.0038 32.8354 23.2981 30.1222 24.705 27.5197C24.0297 29.5131 23.4107 31.5619 22.9605 33.666C22.9605 33.4999 23.0168 33.3891 23.073 33.3338ZM19.7528 38.7048C19.4714 41.2519 19.3026 43.799 19.3026 46.4569C19.1338 47.509 18.9649 48.561 18.8524 49.6131C18.4585 46.8999 18.571 44.242 18.9087 41.4734C19.19 40.5321 19.4714 39.6461 19.7528 38.7048ZM72.0326 111.962C74.0022 111.685 75.9156 111.297 77.8289 110.799C75.9156 111.63 74.0585 112.571 72.0326 111.962ZM79.3483 111.74C80.0236 111.131 80.699 110.522 81.3743 109.802C81.2054 109.802 81.0366 109.802 80.8678 109.858C83.7378 108.806 86.5516 107.477 89.1402 105.871C87.3394 107.366 85.4261 108.584 83.4564 109.692C82.8374 109.913 82.2184 110.19 81.5431 110.411C81.937 110.356 82.2747 110.245 82.6686 110.135C81.5993 110.688 80.4738 111.242 79.3483 111.74ZM91.7852 105.151C90.2658 106.259 88.69 107.255 87.0018 108.086C88.2961 106.923 89.6467 105.705 91.7852 105.151ZM120.542 51.5511C120.823 53.7106 121.105 55.8701 121.667 57.9742C121.667 58.085 121.611 58.2511 121.611 58.3619C121.442 57.5313 121.217 56.6453 120.992 55.8147C120.88 54.3751 120.767 52.9354 120.542 51.5511ZM121.836 67.1106C121.499 67.8858 121.33 68.7164 121.217 69.547C121.217 69.2147 121.273 68.8271 121.273 68.4949C121.442 68.0519 121.611 67.609 121.836 67.1106ZM120.88 73.2015C120.823 74.1428 120.711 75.0288 120.542 75.9147C120.654 75.0288 120.767 74.1428 120.88 73.2015ZM121.105 47.9519C121.555 50.1668 121.892 52.4924 121.892 54.8734C121.161 52.0495 120.204 49.2255 119.079 46.4569C119.079 46.3461 119.079 46.2908 119.079 46.18C119.698 47.6751 119.698 47.6751 120.373 49.1701C120.092 48.0627 119.81 47.0106 119.473 45.9585C119.923 46.6784 119.979 47.3982 120.092 48.1181C119.923 46.9552 119.81 45.8478 119.641 44.685C119.81 45.4602 120.598 46.8445 121.105 47.9519Z" fill="url(#paint14_linear_159_5634)"/>
<path d="M116.49 27.7969C116.827 28.2399 117.221 28.7382 117.559 29.2365C117.221 28.6275 116.884 28.0737 116.49 27.7969Z" fill="#003538"/>
<path d="M119.248 23.4229C119.641 23.9212 120.092 24.4195 120.486 24.9733C120.148 24.3088 119.754 23.6443 119.248 23.4229Z" fill="#003538"/>
<path d="M39.1113 101.829L40.5745 102.77C40.2931 102.549 40.068 102.383 39.7866 102.161C39.5615 102.051 39.3364 101.94 39.1113 101.829Z" fill="#003538"/>
<path d="M43.4448 104.598C43.0509 104.376 42.7695 104.155 42.5444 104.044C42.8258 104.21 43.1635 104.432 43.4448 104.598Z" fill="#003538"/>
<path d="M42.5443 104.044C41.9253 103.656 41.6439 103.435 40.5747 102.771C41.25 103.213 41.869 103.601 42.5443 104.044Z" fill="#003538"/>
<path d="M14.9694 74.6414C14.7443 74.0323 14.4629 73.4233 14.2378 72.7588C14.3503 73.534 14.5192 74.2538 14.9694 74.6414Z" fill="#003538"/>
<path d="M111.087 24.8623C111.256 25.1945 111.481 25.5268 111.65 25.859L111.087 24.8623Z" fill="#003538"/>
<path d="M64.2665 114.177C63.5912 114.122 62.9722 114.122 62.2969 114.066C63.0285 114.233 63.76 114.399 64.2665 114.177Z" fill="#003538"/>
<path d="M59.033 3.15625L57.3447 3.59923C57.6824 3.54385 58.02 3.48848 58.3577 3.43311C58.5828 3.26699 58.8079 3.21162 59.033 3.15625Z" fill="#003538"/>
<path d="M54.0806 4.37452C54.5308 4.26377 54.8684 4.2084 55.0935 4.09766C54.7559 4.2084 54.4182 4.31914 54.0806 4.37452Z" fill="#003538"/>
<path d="M55.0938 4.15333C55.7691 3.98721 56.163 3.87647 57.3448 3.59961C56.6132 3.71035 55.8253 3.93184 55.0938 4.15333Z" fill="#003538"/>
<path d="M95.7808 3.76507C96.3998 3.98656 97.0188 4.20805 97.6941 4.48491C96.9625 4.0973 96.3435 3.7097 95.7808 3.76507Z" fill="#003538"/>
<path d="M53.9683 4.4294C54.0245 4.4294 54.0245 4.4294 54.0808 4.37402C54.0245 4.4294 53.9683 4.4294 53.9683 4.4294Z" fill="#003538"/>
<path d="M110.694 12.2927C105.685 9.3026 101.352 5.20508 94.9365 4.26376C95.1616 3.93153 95.443 3.76541 95.7806 3.71004C89.8717 1.49516 84.5819 -0.110623 78.1102 -0.0552514C79.1232 0.55384 81.8244 0.719955 82.8373 1.32905C74.79 -0.719714 65.9547 2.10425 58.3576 3.37781C56.9507 4.04227 55.7126 5.42657 53.9681 4.42987C50.7041 5.37119 47.609 6.64475 44.7389 8.19516C44.9078 7.9183 45.1329 7.64144 45.3017 7.30921C44.9641 7.69682 44.6264 8.08442 44.2325 8.41665C41.9815 9.6902 39.843 11.0745 37.8171 12.6803C39.6179 10.4654 41.5875 8.41665 43.8385 6.36789C41.3062 8.52739 38.9426 10.9638 36.8041 13.5109C26.6183 21.9274 20.0904 34.2753 19.19 47.62C19.0774 37.3762 22.679 27.8522 29.2632 20.1555C25.4365 23.6993 21.9474 28.9043 19.1337 33.0018L18.8523 31.3406C12.1555 43.3563 13.6187 55.8704 16.7138 67.9414C15.4195 65.7266 15.0819 64.0654 13.7875 61.7952C13.8438 63.401 14.0689 64.896 14.5191 66.2803C14.4628 66.1695 14.3503 66.0588 14.294 65.9481C13.5062 62.958 13.5624 60.0233 11.424 57.9745C11.7616 59.6357 11.9867 61.2968 12.2118 63.0133C12.0993 62.8472 11.9867 62.7365 11.8742 62.5704C11.9867 62.7919 12.0993 63.0133 12.2118 63.2348C12.4932 65.339 12.8308 67.4985 13.5062 69.5472C12.3806 67.6092 11.3677 65.5605 10.4673 63.4563C11.424 65.8927 12.5495 68.2737 13.7875 70.5439C14.294 72.039 14.9693 73.4786 15.926 74.8629C15.4758 74.9183 15.1944 74.8076 14.9693 74.6414C17.2766 80.4555 19.6402 85.3836 24.0296 90.0348C23.8045 88.872 22.1163 86.8233 21.8912 85.6605C25.7742 92.9142 33.8215 97.3993 39.843 102.106C41.3062 102.66 43.1632 102.66 43.5572 104.598C49.1847 107.975 55.375 110.079 61.6215 110.965C60.496 110.91 59.3705 110.855 58.245 110.744C59.3705 111.021 59.3705 111.021 60.5523 111.242C55.4875 112.46 51.4357 109.194 47.4964 110.689C53.1802 111.962 58.639 114.398 64.8855 113.402C64.773 113.789 64.6041 114.011 64.3228 114.122C70.5693 114.454 76.028 114.398 81.8807 112.516C80.7551 112.239 78.2228 112.848 77.041 112.627C78.9543 112.516 80.8677 112.128 82.6685 111.63C84.6944 111.408 86.664 111.076 88.4649 110.799L87.4519 112.128C100.958 108.917 109.456 99.5034 116.434 89.0935C115.646 91.5299 114.577 92.8588 113.789 95.3505C114.971 94.2431 115.927 93.0249 116.715 91.8067C116.321 93.3018 115.983 94.7968 115.702 96.2919C117.841 90.7547 119.698 84.8299 120.767 78.7943C120.711 78.9051 120.654 79.0158 120.598 79.0712C120.823 78.4067 120.879 77.6869 120.879 77.0224C120.992 76.7456 121.048 76.4687 121.161 76.1919C121.048 77.0778 120.936 77.9084 120.767 78.7943C121.724 77.2439 122.117 74.8076 122.23 72.6481C122.399 71.9836 122.568 71.3191 122.737 70.5993C122.962 80.0679 121.217 88.3183 117.222 96.7348C121.836 87.82 124.031 77.7423 123.524 67.2216C123.581 66.9448 123.637 66.7233 123.693 66.4464L124.2 67.2216C124.369 72.3712 123.243 77.5762 122.793 83.058C124.425 78.5729 125.269 73.9216 125.494 69.1596C125.663 69.7687 125.832 70.3778 126 70.9869C125.888 69.658 125.719 68.329 125.55 67.0001C125.607 62.4596 125.044 57.8638 124.031 53.3233C122.962 51.2191 121.892 49.0043 122.005 46.6233C122.061 46.734 122.117 46.9001 122.23 47.0109C122.962 49.115 123.524 51.2191 124.031 53.3233C124.594 54.4307 125.1 55.5381 125.438 56.5902C124.762 53.9324 123.862 51.1638 122.905 48.4505C126.057 55.4274 127.576 62.515 127.689 70.4886C127.914 59.1927 124.819 48.0629 118.516 38.2621C118.066 37.3208 117.559 36.3795 117.053 35.4935C117.165 35.6043 117.222 35.6596 117.334 35.7704C118.234 37.1547 119.191 38.539 120.317 39.8125C123.018 44.4638 124.425 50.0009 126.676 55.3167C125.55 45.7373 121.498 36.8778 115.252 29.3472C115.027 28.9043 114.745 28.572 114.352 28.2398C114.295 28.1844 114.239 28.0737 114.126 28.0183C113.282 27.4092 112.382 26.8555 111.594 26.1357C111.256 25.7481 111.031 25.3051 110.975 24.7514V24.696C112.044 25.7481 113.113 26.8555 114.126 28.0183C114.971 28.572 115.758 29.1811 116.49 29.7902C116.715 30.0671 116.884 30.3439 117.053 30.6762C116.94 30.4547 116.771 30.1778 116.659 29.9563C116.771 30.0671 116.884 30.1778 116.996 30.2332C116.884 30.0671 116.715 29.9563 116.603 29.7902C116.209 29.0704 115.758 28.3505 115.364 27.6307C115.815 27.4092 116.152 27.4646 116.49 27.6861C115.421 26.2464 114.239 24.9175 113.057 23.6439C113.62 24.0869 114.183 24.5299 114.802 24.9175C113.451 23.4778 111.988 22.2043 110.469 21.0414C106.023 16.8332 100.902 13.5109 94.824 11.1299C94.6551 11.0191 94.4863 10.9084 94.3175 10.853L95.1616 11.0745C94.824 10.9638 94.5426 10.9084 94.3175 10.853C94.0361 10.7423 93.7547 10.6869 93.4734 10.6315C93.1357 10.5208 92.7418 10.41 92.0102 10.2439C92.2353 10.3547 92.4041 10.4654 92.6292 10.5762C91.1098 10.4654 89.4778 10.5208 88.7462 9.24723L89.7592 9.85632C88.7462 9.24723 87.7333 8.63814 86.7766 8.02905C89.7592 9.85632 94.2049 9.57946 97.1875 11.4067C96.1746 10.7976 95.1616 10.1885 94.2049 9.57946C94.2612 9.46872 94.3175 9.41334 94.43 9.35797C104.954 13.234 113.901 21.0968 120.823 30.0671C120.26 29.0704 120.26 29.0704 119.698 28.0737C124.031 30.953 124.256 36.1026 128.026 37.9852C125.156 32.9464 123.299 27.4092 118.403 23.4778C118.741 23.2563 119.022 23.3117 119.304 23.4224C115.364 18.6605 111.65 14.729 106.304 11.6836C106.867 12.6803 109.062 14.12 109.624 15.1166C103.828 9.46872 95.3305 7.75219 88.5211 5.14971C87.1705 5.09434 85.6511 5.59268 84.6944 4.26376C85.7636 4.42987 86.8892 4.65136 87.9584 4.92822C88.1272 4.98359 88.3523 5.09434 88.5211 5.14971C88.7462 5.14971 89.0276 5.20508 89.2527 5.26045L88.69 5.09434C92.6855 6.03566 96.6248 7.36458 100.395 8.915C99.3823 8.30591 99.3823 8.30591 98.3693 7.69682C103.659 8.08442 106.304 12.5695 110.694 12.2927ZM33.8215 91.8621C34.1592 92.0836 34.4968 92.3051 34.8345 92.5266C34.6094 92.4712 34.3843 92.3605 34.2155 92.2497C34.1029 92.139 33.9904 92.0282 33.8215 91.8621ZM23.8608 76.0257L23.692 75.0844C23.8045 75.1952 23.8608 75.3613 23.9734 75.472C23.9171 75.6381 23.9171 75.8596 23.8608 76.0257ZM23.692 75.0844C23.9171 76.1365 24.0859 77.2439 24.311 78.296C23.692 75.1398 20.9908 72.3158 20.0341 69.215C21.2159 71.2638 22.3414 73.2572 23.692 75.0844ZM20.5968 74.5861C20.8782 75.1952 21.1033 75.8043 21.441 76.4133C20.7094 75.472 20.0341 74.5861 19.4151 73.6448C19.7527 73.977 20.1466 74.3092 20.5968 74.5861ZM38.4361 97.5654C40.7997 98.2299 43.2195 98.9497 44.9641 100.722C42.713 99.7803 40.5183 98.7282 38.4361 97.5654C37.7045 97.3439 36.9167 97.1224 36.2414 96.901C34.8908 95.9043 33.6527 94.9076 32.4147 93.8001C34.328 95.1291 36.2977 96.4026 38.4361 97.5654ZM45.5268 101.054C46.3709 102.051 47.1588 102.494 48.0029 102.604C47.2713 102.106 46.5398 101.663 45.7519 101.165C47.1025 101.663 48.3968 102.106 49.8037 102.549C49.1284 102.604 48.5657 102.66 48.0029 102.604C48.5657 102.992 49.1847 103.379 49.7475 103.767C44.9078 102.272 40.6309 100.057 36.8041 97.3439C39.6179 98.6729 42.4879 99.9464 45.5268 101.054ZM120.317 62.6811C120.542 63.3456 120.598 64.0654 120.486 64.7299C120.486 64.0654 120.429 63.3456 120.317 62.6811ZM120.542 69.658C120.598 68.3844 120.598 67.1109 120.598 65.8373L120.936 65.6158C120.486 67.1662 121.048 68.1629 120.598 69.7687L120.542 69.658ZM53.4616 8.52739C53.0677 8.63814 52.7863 8.85962 52.5049 9.08111H52.5612C52.5049 9.08111 52.5049 9.13648 52.4487 9.13648L52.5049 9.08111C51.8296 9.24723 51.1543 9.41334 50.479 9.57946C53.5742 7.80756 56.7256 6.47863 59.877 5.48194C57.6823 6.36789 55.5438 7.36458 53.4616 8.52739ZM18.1207 65.8927C18.7398 67.0001 19.3588 68.0522 19.9778 69.1043C20.1466 70.0456 20.3155 70.9315 20.4843 71.8729C20.2592 71.9282 20.0904 71.8729 19.9215 71.8729C19.5839 71.3745 19.2462 70.9315 18.9649 70.4332C18.9086 70.2117 18.796 70.0456 18.7398 69.8241C18.7398 69.9902 18.796 70.101 18.796 70.2117C18.1207 68.8828 17.6142 67.4985 18.1207 65.8927ZM21.4972 77.7423C21.8912 78.3514 22.3414 78.8497 22.8479 79.2927C22.9604 79.5142 23.1292 79.791 23.2418 80.0125C22.679 79.3481 22.1163 78.6836 21.6098 78.0191C22.1726 79.7357 23.692 81.6737 25.2114 83.2241C25.6616 83.8886 26.1118 84.4976 26.562 85.1067C24.8738 83.7224 23.3543 82.2828 21.8912 80.7877C20.3717 78.2406 19.0211 75.5828 17.8394 72.8142C19.0211 74.5861 20.2592 76.3026 21.6098 78.0191C21.5535 77.9638 21.4972 77.853 21.4972 77.7423ZM23.7483 83.6671C25.5491 85.4943 27.5187 87.2109 29.6009 88.8167C30.3325 89.5919 31.064 90.3671 31.8519 91.0869C29.4321 89.7026 27.4062 87.9307 25.4365 85.9927C24.8175 85.2729 24.2547 84.4423 23.7483 83.6671ZM114.52 89.1489C115.533 87.4877 116.434 85.7712 117.222 83.9439C116.659 85.9373 116.265 87.9861 114.52 89.1489ZM118.91 83.3902C118.854 82.5043 118.797 81.5629 118.628 80.6216C118.516 80.7324 118.46 80.8985 118.347 81.0092C119.304 78.1299 119.979 75.1952 120.373 72.1497C120.429 74.42 120.26 76.6902 119.866 78.9051C119.698 79.5695 119.473 80.1786 119.247 80.7877C119.416 80.4555 119.585 80.1233 119.754 79.791C119.473 81.0092 119.191 82.172 118.91 83.3902ZM121.386 69.7133C121.33 71.5406 121.105 73.4233 120.711 75.1952C120.654 73.4786 120.542 71.7067 121.386 69.7133ZM96.7373 14.12C98.5944 15.2274 100.508 16.3902 102.534 17.2762C102.646 17.3869 102.703 17.4423 102.815 17.553C102.027 17.1654 101.239 16.7778 100.395 16.4456C99.2134 15.6704 97.9754 14.8952 96.7373 14.12ZM109.906 22.8687C110.3 23.5886 110.862 24.253 111.481 24.8621C111.2 24.6406 110.975 24.4191 110.694 24.1423C110.412 23.7547 110.187 23.3117 109.906 22.8687ZM114.183 27.4092C114.858 28.0183 115.533 28.6828 116.152 29.3472C115.477 28.7381 114.858 28.0737 114.183 27.4092ZM94.2612 11.4621C96.2871 12.5142 98.313 13.677 100.226 15.172C97.5252 14.0092 94.7114 12.9571 91.7851 12.0712C91.7288 12.0158 91.6163 11.9605 91.56 11.9051C93.1357 12.3481 93.1357 12.3481 94.7677 12.791C93.6985 12.3481 92.6855 11.9051 91.6725 11.4621C92.5167 11.5728 93.1357 11.9605 93.811 12.3481C92.7981 11.739 91.7851 11.1299 90.8284 10.5208C91.4474 10.9638 93.0232 11.1299 94.2612 11.4621Z" fill="#003538"/>
<path d="M37.817 33.6112L33.0898 30.1228L33.934 29.0153C34.2716 28.6277 34.6093 28.4062 34.9469 28.4062C35.3409 28.4062 35.7348 28.5724 36.185 28.8492C36.4101 29.0153 36.5789 29.1815 36.6915 29.3476C36.804 29.5137 36.9166 29.6798 36.9728 29.7905C37.0291 29.9567 37.0291 30.0674 37.0291 30.2335C37.0291 30.3996 36.9728 30.5658 36.8603 30.6765C36.804 30.8426 36.6915 31.0087 36.5226 31.1748L38.5485 32.6699L37.817 33.6112ZM35.7911 30.6765C35.8473 30.6211 35.8473 30.5658 35.9036 30.5104C35.9036 30.455 35.9599 30.455 35.9599 30.3996C35.9599 30.3443 35.9599 30.3443 35.9599 30.2889C35.9599 30.2335 35.9599 30.2335 35.9599 30.1782C35.9599 30.1782 35.9599 30.1228 35.9036 30.0674C35.9036 30.012 35.8473 30.012 35.8473 29.9567C35.8473 29.9567 35.7911 29.9013 35.7348 29.8459C35.6785 29.7905 35.6222 29.7905 35.6222 29.7352C35.566 29.7352 35.566 29.6798 35.4534 29.6244C35.4534 29.6244 35.3971 29.6244 35.3971 29.5691C35.3409 29.5137 35.2846 29.4583 35.2283 29.4583C35.172 29.4583 35.172 29.4029 35.0595 29.3476C35.0032 29.2922 34.9469 29.2922 34.8907 29.2922C34.8344 29.2922 34.8344 29.2922 34.7781 29.2922C34.7218 29.2922 34.6656 29.2922 34.6656 29.2922C34.6093 29.2922 34.6093 29.3476 34.553 29.4029C34.4967 29.4583 34.4405 29.5137 34.3842 29.5691L35.7911 30.6765Z" fill="#EDEDED"/>
<path d="M39.3363 28.2393L36.6914 25.6369L37.5355 24.8063L40.1805 27.3534C40.3493 27.5195 40.4619 27.6302 40.5181 27.6856C40.5744 27.741 40.687 27.8517 40.7995 27.9071C40.9121 28.0178 40.9683 28.0732 41.0246 28.0732C41.0809 28.0732 41.1372 28.1286 41.1934 28.1286C41.2497 28.1286 41.306 28.1286 41.3623 28.1286C41.4185 28.0732 41.4748 28.0732 41.5311 28.0178C41.5874 27.9625 41.6436 27.9071 41.6436 27.8517C41.6999 27.7964 41.6999 27.741 41.6436 27.6856C41.6436 27.6302 41.5874 27.5749 41.5874 27.5195C41.5874 27.4641 41.5311 27.4088 41.4185 27.298C41.306 27.1873 41.2497 27.1319 41.1934 27.0211C41.1372 26.9658 41.0246 26.855 40.8558 26.6889L38.2671 24.0864L39.1112 23.2559L41.7562 25.8583C41.8687 25.9691 41.9813 26.1352 42.0938 26.2459C42.2064 26.3567 42.3189 26.4674 42.3752 26.6335C42.4878 26.7443 42.544 26.9104 42.6003 27.0211C42.6566 27.1319 42.7129 27.298 42.7129 27.4088C42.7129 27.5749 42.7129 27.6856 42.7129 27.8517C42.6566 27.9625 42.6003 28.1286 42.544 28.2947C42.4315 28.4608 42.3189 28.5716 42.2064 28.7377C42.0376 28.9038 41.925 29.0145 41.7562 29.0699C41.5874 29.1807 41.4748 29.236 41.306 29.236C41.1934 29.2914 41.0246 29.2914 40.9121 29.236C40.7432 29.236 40.6307 29.1807 40.5181 29.1253C40.4056 29.0699 40.2368 29.0145 40.1242 28.9038C40.0117 28.793 39.8428 28.7377 39.7303 28.6269C39.6177 28.5162 39.5052 28.4054 39.3363 28.2393Z" fill="#EDEDED"/>
<path d="M45.1329 25.8591L41.5312 21.2078L42.5442 20.4326C42.7693 20.2665 42.9944 20.1004 43.2195 20.045C43.4446 19.9343 43.6697 19.8789 43.8385 19.8789C44.0636 19.8789 44.2325 19.9343 44.4576 20.045C44.6264 20.1558 44.8515 20.3219 45.0203 20.5434C45.0766 20.6541 45.1329 20.7095 45.1891 20.8202C45.2454 20.8756 45.3017 20.9863 45.358 21.0971C45.4142 21.2078 45.4142 21.3186 45.4705 21.4293C45.4705 21.5401 45.4705 21.6508 45.4705 21.8169C45.4705 21.9277 45.4142 22.0938 45.3017 22.2045C46.2584 22.869 47.1025 23.4227 47.7778 23.9211L46.7649 24.6409L44.5701 22.9244L44.4013 23.0351L46.0333 25.1946L45.1329 25.8591ZM44.0074 22.426L44.2887 22.2045C44.345 22.1492 44.4013 22.0938 44.4013 21.983C44.4013 21.8723 44.4013 21.8169 44.4013 21.7062C44.345 21.5954 44.345 21.5401 44.2887 21.4847C44.2325 21.4293 44.2325 21.3739 44.1762 21.3186C44.1199 21.2632 44.0636 21.2078 44.0074 21.1525C43.9511 21.0971 43.8948 21.0417 43.8385 20.9863C43.7823 20.931 43.6697 20.8756 43.6134 20.8756C43.5572 20.8756 43.4446 20.8756 43.3883 20.931L43.0507 21.1525L44.0074 22.426Z" fill="#EDEDED"/>
<path d="M49.466 22.8137L46.4834 17.7748L48.6219 16.5566L49.0158 17.2765L47.8903 17.8856L48.6781 19.2699L49.466 18.8269L49.8599 19.5467L49.1846 19.9343L50.085 21.4847L51.2105 20.8756L51.6045 21.5955L49.466 22.8137Z" fill="#EDEDED"/>
<path d="M56.0503 19.6018L55.375 13.677L56.388 13.3447L59.4831 18.4943L58.3576 18.8819L57.7386 17.7745L57.007 17.996L57.1758 19.2695L56.0503 19.6018ZM56.8382 17.2761L57.4009 17.11L56.4442 15.172L56.8382 17.2761Z" fill="#EDEDED"/>
<path d="M61.4525 17.996L60.3833 12.2373L61.2274 12.0712L63.0845 14.8398L62.5218 11.8497L63.4784 11.6836L64.5477 17.4423L63.7035 17.6084L61.8465 14.6737L62.4655 17.8852L61.4525 17.996Z" fill="#EDEDED"/>
<path d="M66.9111 17.1653L66.686 11.3513L67.9241 11.2959C68.318 11.2959 68.6557 11.2959 68.8808 11.3513C69.1621 11.4066 69.331 11.5174 69.4998 11.6835C69.6686 11.8496 69.7812 12.0157 69.8375 12.2372C69.8937 12.4587 69.95 12.7356 69.95 13.0678L70.0063 15.0058C70.0063 15.2273 70.0063 15.3934 70.0063 15.5595C70.0063 15.7257 70.0063 15.8918 69.95 16.0025C69.8937 16.1686 69.8937 16.2794 69.8375 16.3901C69.7812 16.5009 69.7249 16.6116 69.6123 16.667C69.4998 16.7777 69.3872 16.8331 69.2747 16.8885C69.1621 16.9438 68.9933 16.9992 68.7682 17.0546C68.5994 17.1099 68.3743 17.1099 68.1492 17.1099L66.9111 17.1653ZM68.1492 16.2794C68.2617 16.2794 68.3743 16.2794 68.4306 16.2794C68.4868 16.2794 68.5431 16.2794 68.5994 16.224C68.6557 16.224 68.7119 16.1686 68.7682 16.1686C68.8245 16.1686 68.8245 16.1133 68.8245 16.0579C68.8245 16.0025 68.8808 15.9471 68.8808 15.8918C68.8808 15.8364 68.8808 15.781 68.8808 15.6703L68.7682 12.5141C68.7682 12.348 68.7119 12.1818 68.5994 12.1265C68.4868 12.0711 68.2617 12.0711 68.0366 12.0711L68.1492 16.2794Z" fill="#EDEDED"/>
<path d="M75.4653 17.3866L76.4783 11.6279L77.3224 11.794L78.054 15.0056L78.5605 12.0155L79.5172 12.1816L78.5042 17.9403L77.6601 17.7742L76.9285 14.3412L76.3657 17.5527L75.4653 17.3866Z" fill="#EDEDED"/>
<path d="M80.5864 18.384L83.6253 13.2344L84.6382 13.5666L84.0192 19.4914L82.8937 19.1592L83.0625 17.8856L82.331 17.6641L81.7119 18.7716L80.5864 18.384ZM82.6123 16.9443L83.1751 17.1104L83.569 14.9509L82.6123 16.9443Z" fill="#EDEDED"/>
<path d="M86.27 20.4321L88.4085 15.947L87.6206 15.5594L88.0145 14.7842L90.6595 16.0024L90.2656 16.7776L89.4777 16.4453L87.3392 20.9305L86.27 20.4321Z" fill="#EDEDED"/>
<path d="M91.1096 20.3772L93.1355 17.2764L94.1485 17.8855L92.1789 20.9309C92.0663 21.097 92.01 21.2078 91.9538 21.3185C91.8975 21.3739 91.8412 21.4846 91.7849 21.5954C91.7287 21.7061 91.6724 21.8169 91.6724 21.8722C91.6724 21.9276 91.6724 21.983 91.6724 22.0937C91.6724 22.1491 91.6724 22.2045 91.7287 22.2598C91.7849 22.3152 91.8412 22.3706 91.8975 22.426C91.9538 22.4813 92.0663 22.4813 92.1226 22.5367C92.1789 22.5921 92.2351 22.5367 92.2914 22.5367C92.3477 22.4813 92.404 22.4813 92.4602 22.426C92.5165 22.3706 92.5728 22.3152 92.6291 22.2045C92.6853 22.0937 92.7979 21.983 92.8542 21.9276C92.9104 21.8722 92.9667 21.7061 93.0793 21.54L95.0489 18.4945L96.0619 19.1036L94.036 22.2045C93.9234 22.3706 93.8108 22.4813 93.7546 22.6474C93.642 22.7582 93.5857 22.8689 93.4732 23.035C93.3606 23.1458 93.2481 23.2565 93.1355 23.3119C93.023 23.3673 92.9104 23.478 92.7416 23.478C92.6291 23.5334 92.4602 23.5334 92.3477 23.5334C92.1789 23.5334 92.0663 23.478 91.8975 23.478C91.7287 23.4226 91.5598 23.3673 91.391 23.2565C91.2222 23.1458 91.0534 23.035 90.9408 22.9243C90.8283 22.8136 90.7157 22.6474 90.6594 22.5367C90.6032 22.426 90.5469 22.2598 90.5469 22.1491C90.5469 21.983 90.5469 21.8722 90.5469 21.7615C90.5469 21.6507 90.6032 21.4846 90.6594 21.3185C90.7157 21.1524 90.772 21.0417 90.8845 20.8755C90.9408 20.7094 90.9971 20.5433 91.1096 20.3772Z" fill="#EDEDED"/>
<path d="M94.7114 25.4161L98.5381 20.9863L99.5511 21.8169C99.7762 21.983 99.945 22.2045 100.114 22.3706C100.226 22.5367 100.339 22.7582 100.395 22.9243C100.452 23.1458 100.452 23.3119 100.395 23.5334C100.339 23.7549 100.226 23.9764 100.001 24.1425C99.945 24.2533 99.8325 24.3086 99.7762 24.364C99.7199 24.4194 99.6074 24.4748 99.4948 24.5855C99.3823 24.6409 99.2697 24.6962 99.1572 24.7516C99.0446 24.807 98.9321 24.807 98.8195 24.807C98.707 24.807 98.5381 24.807 98.3693 24.7516C97.9191 25.8037 97.5252 26.745 97.1875 27.4648L96.2309 26.6896L97.4689 24.1979L97.3001 24.0872L95.4993 26.1359L94.7114 25.4161ZM97.8628 23.5888L98.1442 23.8103C98.2005 23.8657 98.313 23.921 98.3693 23.8657C98.4819 23.8657 98.5381 23.8103 98.6507 23.7549C98.707 23.6996 98.8195 23.6442 98.8758 23.5888C98.9321 23.5334 98.9883 23.4781 99.0446 23.4227C99.1009 23.3673 99.1572 23.3119 99.1572 23.2566C99.2134 23.2012 99.2134 23.1458 99.2697 23.0351C99.326 22.9243 99.326 22.869 99.326 22.8136C99.326 22.7582 99.2697 22.6475 99.2134 22.5921L98.9321 22.3153L97.8628 23.5888Z" fill="#EDEDED"/>
<path d="M98.4819 28.7384L103.772 25.8037L104.503 26.5789L100.958 31.3963L100.17 30.5103L100.958 29.5136L100.452 28.9599L99.3261 29.6244L98.4819 28.7384ZM100.958 28.5169L101.352 28.9599L102.815 27.2988L100.958 28.5169Z" fill="#EDEDED"/>
<path d="M102.14 33.002L107.036 29.6797L107.711 30.6764L103.49 33.5557L104.166 34.497L103.49 34.94L102.14 33.002Z" fill="#EDEDED"/>
<path d="M33.4277 88.0962L37.7609 84.1094L38.7176 85.1614C39.0553 85.549 39.2241 85.8813 39.1678 86.2689C39.1115 86.6565 38.8864 86.9887 38.4925 87.3763C38.3237 87.5424 38.0986 87.7086 37.9298 87.8193C37.7609 87.93 37.5921 87.9854 37.4233 87.9854C37.2545 87.9854 37.0856 87.9854 36.9731 87.93C36.8043 87.8747 36.6917 87.8193 36.5229 87.7085C36.4103 87.5978 36.2415 87.4871 36.0727 87.3209L34.2156 89.0375L33.4277 88.0962ZM36.6917 86.7119C36.748 86.7672 36.8043 86.8226 36.8043 86.8226C36.8605 86.878 36.8605 86.878 36.9168 86.878C36.9731 86.878 36.9731 86.9333 37.0294 86.9333C37.0856 86.9333 37.0856 86.9333 37.1419 86.9333C37.1419 86.9333 37.1982 86.9333 37.2545 86.878C37.3107 86.878 37.3107 86.8226 37.367 86.8226C37.367 86.8226 37.4233 86.7672 37.4796 86.7672C37.5358 86.7119 37.5921 86.7119 37.5921 86.6565C37.5921 86.6565 37.6484 86.6011 37.7047 86.5457C37.7047 86.5457 37.7047 86.5457 37.7609 86.4904C37.8172 86.435 37.8735 86.3796 37.9298 86.3796C37.986 86.3243 37.986 86.3243 38.0423 86.2689C38.0986 86.2135 38.0986 86.1581 38.1549 86.1581C38.1549 86.1028 38.2111 86.1028 38.2111 86.0474C38.2111 85.992 38.2111 85.9366 38.2111 85.9366C38.2111 85.8813 38.1549 85.8259 38.1549 85.7705C38.0986 85.7152 38.0986 85.6598 38.0423 85.6044L36.6917 86.7119Z" fill="#EDEDED"/>
<path d="M38.7174 90.3113L41.081 87.4873L41.9814 88.2625L39.6178 91.0311C39.5053 91.1972 39.3927 91.308 39.3365 91.3633C39.2802 91.4187 39.2239 91.5295 39.1114 91.6402C39.0551 91.7509 38.9988 91.8063 38.9425 91.8617C38.9425 91.9171 38.8862 91.9724 38.8862 92.0278C38.8862 92.0832 38.8862 92.1385 38.9425 92.1939C38.9988 92.2493 39.0551 92.3047 39.1114 92.36C39.1676 92.4154 39.2239 92.4708 39.2802 92.4708C39.3365 92.4708 39.3927 92.4708 39.449 92.4708C39.5053 92.4708 39.5616 92.4154 39.6178 92.4154C39.6741 92.4154 39.7304 92.3047 39.8429 92.2493C39.9555 92.1385 40.0118 92.0832 40.068 92.0278C40.1243 91.9724 40.2369 91.8617 40.3494 91.6956L42.713 88.927L43.6134 89.7022L41.2498 92.5262C41.1373 92.6923 41.0247 92.803 40.9122 92.9138C40.7996 93.0245 40.6871 93.1352 40.5745 93.246C40.462 93.3567 40.2931 93.4121 40.1806 93.5228C40.068 93.5782 39.9555 93.6336 39.7867 93.689C39.6178 93.7443 39.5053 93.7443 39.3927 93.689C39.2802 93.689 39.1113 93.6336 38.9425 93.5228C38.7737 93.4675 38.6049 93.3567 38.436 93.1906C38.2672 93.0799 38.1547 92.9138 38.0421 92.803C37.9296 92.6369 37.8733 92.5261 37.817 92.4154C37.7607 92.3047 37.7607 92.1385 37.7607 92.0278C37.7607 91.8617 37.817 91.7509 37.817 91.6402C37.8733 91.5295 37.9296 91.3633 37.9858 91.2526C38.0421 91.0865 38.1547 90.9757 38.2672 90.865C38.4923 90.5881 38.6049 90.4774 38.7174 90.3113Z" fill="#EDEDED"/>
<path d="M42.3193 95.848L45.527 90.9199L46.6525 91.6398C46.8776 91.8059 47.1027 91.972 47.2716 92.1381C47.4404 92.3042 47.5529 92.4703 47.6092 92.6918C47.6655 92.8579 47.7218 93.0794 47.6655 93.3009C47.6092 93.5224 47.5529 93.7439 47.3841 93.9654C47.3278 94.0761 47.2716 94.1315 47.2153 94.2422C47.159 94.2976 47.1027 94.4084 46.9902 94.4637C46.8776 94.5745 46.8214 94.6298 46.7088 94.6852C46.5963 94.7406 46.4837 94.796 46.3712 94.796C46.2586 94.796 46.0898 94.796 45.921 94.796C45.5833 95.9034 45.3582 96.9001 45.1331 97.6753L44.0639 97.0108L44.9643 94.4084L44.7955 94.2976L43.3323 96.5679L42.3193 95.848ZM45.1894 93.5778L45.4708 93.7439C45.527 93.7993 45.6396 93.7993 45.6959 93.7993C45.8084 93.7993 45.8647 93.7439 45.921 93.6885C45.9772 93.6331 46.0335 93.5778 46.0898 93.5224C46.1461 93.467 46.2023 93.4117 46.2023 93.3563C46.2586 93.3009 46.2586 93.2455 46.3149 93.1902C46.3712 93.1348 46.3712 93.0241 46.4274 92.9687C46.4837 92.9133 46.4837 92.8026 46.4274 92.6918C46.4274 92.6364 46.3712 92.5257 46.3149 92.5257L45.9772 92.3042L45.1894 93.5778Z" fill="#EDEDED"/>
<path d="M47.3276 98.7828L49.9726 93.5225L52.1673 94.5745L51.8297 95.2944L50.7042 94.7406L49.9726 96.1803L50.7604 96.5679L50.3665 97.2878L49.5786 96.9002L48.7908 98.5059L49.9163 99.0597L49.5786 99.7795L47.3276 98.7828Z" fill="#EDEDED"/>
<path d="M54.8687 101.939L57.7387 96.6787L58.7516 96.9556L58.3577 102.936L57.2322 102.604L57.3448 101.33L56.6132 101.108L56.0504 102.271L54.8687 101.939ZM56.8383 100.389L57.401 100.555L57.7387 98.3952L56.8383 100.389Z" fill="#EDEDED"/>
<path d="M60.8901 103.434L61.7905 97.6758L62.6347 97.7865L63.4788 100.998L63.929 97.9526L64.942 98.1188L64.0416 103.877L63.1974 103.767L62.4096 100.389L61.9031 103.545L60.8901 103.434Z" fill="#EDEDED"/>
<path d="M66.9116 104.154L67.0804 98.3398L68.3185 98.3952C68.7124 98.3952 69.0501 98.4506 69.2752 98.506C69.5566 98.5613 69.7254 98.7274 69.8942 98.8936C70.063 99.0597 70.1193 99.2812 70.1756 99.5026C70.2319 99.7241 70.2319 100.001 70.2319 100.389L70.1756 102.327C70.1756 102.548 70.1756 102.714 70.1193 102.88C70.1193 103.046 70.063 103.213 70.0068 103.323C69.9505 103.489 69.8942 103.6 69.8379 103.711C69.7817 103.822 69.6691 103.932 69.6128 103.988C69.5003 104.099 69.3877 104.154 69.2752 104.209C69.1064 104.265 68.9938 104.32 68.7687 104.32C68.5999 104.32 68.3748 104.375 68.0934 104.32L66.9116 104.154ZM68.1497 103.323C68.2622 103.323 68.3748 103.323 68.4311 103.323C68.4873 103.323 68.5436 103.323 68.6562 103.323C68.7124 103.323 68.7687 103.323 68.825 103.268C68.8813 103.268 68.8813 103.213 68.9375 103.157C68.9375 103.102 68.9938 103.046 68.9938 102.991C68.9938 102.936 68.9938 102.88 68.9938 102.77L69.1064 99.6134C69.1064 99.4473 69.0501 99.2812 68.9375 99.2258C68.825 99.1704 68.6562 99.115 68.3748 99.115L68.1497 103.323Z" fill="#EDEDED"/>
<path d="M76.3097 103.822L75.353 98.0631L76.1972 97.9523L77.998 100.776L77.4915 97.7862L78.4482 97.6201L79.4049 103.379L78.5607 103.49L76.7599 100.499L77.2664 103.711L76.3097 103.822Z" fill="#EDEDED"/>
<path d="M81.9932 102.77L81.543 96.7896L82.5559 96.5127L85.4822 101.773L84.3567 102.105L83.7377 100.998L83.0061 101.219L83.1187 102.493L81.9932 102.77ZM82.8373 100.444L83.4001 100.278L82.4997 98.2846L82.8373 100.444Z" fill="#EDEDED"/>
<path d="M88.2397 100.721L86.27 96.1253L85.4822 96.4575L85.1445 95.627L87.8457 94.5195L88.1834 95.3501L87.3955 95.6823L89.3652 100.278L88.2397 100.721Z" fill="#EDEDED"/>
<path d="M91.3351 96.9554L89.478 93.7439L90.5473 93.1348L92.3481 96.291C92.4606 96.4571 92.5169 96.6232 92.5732 96.6786C92.6294 96.734 92.6857 96.8447 92.742 96.9554C92.7983 97.0662 92.8545 97.1216 92.9108 97.1769C92.9671 97.2323 93.0234 97.2323 93.0796 97.2877C93.1359 97.343 93.1922 97.343 93.2485 97.343C93.3047 97.343 93.361 97.2877 93.4736 97.2323C93.5299 97.1769 93.5861 97.1216 93.6424 97.1216C93.6987 97.0662 93.6987 97.0108 93.6987 96.9554C93.6987 96.9001 93.6987 96.8447 93.6987 96.734C93.6987 96.6786 93.6424 96.5678 93.5861 96.4571C93.5299 96.3464 93.4736 96.2356 93.4173 96.1802C93.361 96.1249 93.3048 95.9588 93.1922 95.7926L91.3914 92.6364L92.4606 92.0273L94.3177 95.2389C94.4303 95.405 94.4865 95.5711 94.5428 95.6819C94.5991 95.7926 94.6554 95.9588 94.7116 96.1249C94.7679 96.291 94.8242 96.4017 94.8242 96.5678C94.8242 96.6786 94.8242 96.8447 94.8242 96.9554C94.8242 97.1216 94.7679 97.2323 94.7116 97.343C94.6554 97.4538 94.5428 97.5645 94.4303 97.7307C94.3177 97.8414 94.1489 97.9521 93.9801 98.0629C93.8112 98.1736 93.6424 98.229 93.4736 98.2844C93.3048 98.3397 93.1359 98.3397 93.0234 98.3397C92.9108 98.3397 92.742 98.2844 92.6294 98.229C92.5169 98.1736 92.3481 98.1183 92.2918 98.0075C92.1792 97.9521 92.0667 97.8414 91.9541 97.6753C91.8416 97.5645 91.729 97.3984 91.6728 97.2877C91.5039 97.2323 91.4477 97.1216 91.3351 96.9554Z" fill="#EDEDED"/>
<path d="M97.8627 95.5717L94.3174 90.8651L95.3866 90.0899C95.6117 89.9237 95.8368 89.7576 96.0619 89.7023C96.287 89.5915 96.5121 89.5915 96.6809 89.5361C96.906 89.5361 97.0749 89.5915 97.3 89.7023C97.4688 89.813 97.6939 89.9791 97.8627 90.2006C97.919 90.3113 97.9753 90.3667 98.0315 90.4775C98.0878 90.5328 98.1441 90.6436 98.2004 90.7543C98.2567 90.8651 98.2566 90.9758 98.3129 91.0865C98.3129 91.1973 98.3129 91.308 98.3129 91.4741C98.3129 91.5849 98.2566 91.751 98.1441 91.8618C99.1008 92.5262 99.9449 93.1353 100.62 93.5783L99.6073 94.2981L97.4125 92.5262L97.2437 92.637L98.8757 94.7965L97.8627 95.5717ZM96.7372 92.1386L97.0186 91.9171C97.0749 91.8618 97.1311 91.8064 97.1311 91.6956C97.1311 91.5849 97.1311 91.5295 97.1311 91.4188C97.0749 91.308 97.0749 91.2527 97.0186 91.1973C96.9623 91.1419 96.9623 91.0865 96.906 91.0312C96.8498 90.9758 96.7935 90.9204 96.7372 90.8651C96.6809 90.8097 96.6247 90.7543 96.5684 90.6989C96.5121 90.6436 96.3996 90.5882 96.3433 90.5882C96.287 90.5882 96.1745 90.5882 96.1182 90.6436L95.7805 90.8651L96.7372 92.1386Z" fill="#EDEDED"/>
<path d="M102.252 92.1939L99.1011 87.0997L99.8889 86.3799L104.897 89.7576L104.053 90.5328L102.984 89.8129L102.421 90.3113L103.153 91.3634L102.252 92.1939ZM101.971 89.7576L102.421 89.3146L100.677 87.9303L101.971 89.7576Z" fill="#EDEDED"/>
<path d="M106.586 87.8749L102.027 84.1096L102.815 83.2236L106.698 86.4906L107.486 85.6046L108.105 86.103L106.586 87.8749Z" fill="#EDEDED"/>
<path d="M69.5562 91.4188C89.1988 91.4188 105.122 75.751 105.122 56.4238C105.122 37.0965 89.1988 21.4287 69.5562 21.4287C49.9137 21.4287 33.9902 37.0965 33.9902 56.4238C33.9902 75.751 49.9137 91.4188 69.5562 91.4188Z" fill="#EDEDED"/>
<path d="M69.5562 90.09C88.4528 90.09 103.772 75.0172 103.772 56.4239C103.772 37.8306 88.4528 22.7578 69.5562 22.7578C50.6596 22.7578 35.3408 37.8306 35.3408 56.4239C35.3408 75.0172 50.6596 90.09 69.5562 90.09Z" fill="url(#paint15_radial_159_5634)"/>
<path d="M101.633 76.3587C101.633 76.3587 101.971 76.3587 102.59 76.3033C105.741 75.9711 115.983 74.2546 124.031 64.6199C133.766 53.1025 130.503 43.7447 139 34.2207C139 34.2207 137.649 34.4976 135.398 35.8265C131.797 37.8752 125.944 42.4711 119.866 52.4381C110.018 68.6067 106.473 73.3686 101.633 76.3587Z" fill="url(#paint16_linear_159_5634)"/>
<path d="M101.633 76.3583C106.473 73.3129 110.018 68.5509 119.866 52.4377C125.944 42.4707 131.853 37.8749 135.398 35.8261C137.649 34.5526 139 34.2203 139 34.2203C139 34.2203 120.486 33.2236 111.313 47.3435C103.096 59.9683 105.629 70.1567 102.871 74.9187C102.534 75.4724 102.14 75.9707 101.633 76.3583Z" fill="url(#paint17_linear_159_5634)"/>
<path d="M101.633 76.3586C101.633 76.3586 101.971 76.3586 102.59 76.3032C102.928 76.0817 103.322 75.7495 103.772 75.3619C104.391 74.8636 105.066 74.1991 105.798 73.3685C106.529 72.5379 107.261 71.652 108.049 70.5999C109.568 68.5512 111.2 66.1148 112.888 63.5123C114.577 60.9098 116.434 58.1412 118.235 55.3727C119.135 53.9884 120.035 52.6041 120.992 51.2751C121.892 49.9462 122.849 48.6173 123.806 47.3437C125.663 44.852 127.576 42.5817 129.377 40.7545C130.277 39.8685 131.122 39.0379 131.909 38.3735C132.697 37.709 133.429 37.1553 134.048 36.7677C134.667 36.3801 135.173 36.1032 135.511 35.9925C135.68 35.9371 135.792 35.8817 135.905 35.8264C136.018 35.8264 136.018 35.771 136.018 35.771C136.074 35.771 136.13 35.6603 136.186 35.6049C136.186 35.5495 136.13 35.4941 136.074 35.4941C136.074 35.4941 136.018 35.4941 135.905 35.5495C135.792 35.6049 135.68 35.6049 135.511 35.7156H135.455C135.117 35.8817 134.611 36.1032 133.992 36.4908C133.373 36.8784 132.585 37.4322 131.797 38.0966C130.953 38.7611 130.109 39.5917 129.152 40.4776C127.295 42.3049 125.325 44.5751 123.356 47.1222C122.399 48.3958 121.442 49.7247 120.486 51.0536C119.529 52.3826 118.628 53.7669 117.672 55.1512C115.815 57.9198 113.958 60.633 112.213 63.2355C110.469 65.8379 108.837 68.2189 107.317 70.2123C106.586 71.209 105.854 72.095 105.179 72.8148C104.503 73.5346 103.884 74.1437 103.322 74.5867C103.209 74.6974 103.096 74.8082 102.984 74.8636C102.534 75.4726 102.14 75.971 101.633 76.3586Z" fill="url(#paint18_linear_159_5634)"/>
<path d="M37.3668 76.3587C37.3668 76.3587 37.0291 76.3587 36.4101 76.3033C33.2587 75.9711 23.0166 74.2546 14.9692 64.6199C5.28988 53.1025 8.49757 43.7447 0 34.2207C0 34.2207 1.35061 34.4976 3.60162 35.8265C7.20324 37.8752 13.0559 42.4711 19.1336 52.4381C29.0381 68.6067 32.5271 73.3686 37.3668 76.3587Z" fill="url(#paint19_linear_159_5634)"/>
<path d="M37.3668 76.3583C32.5271 73.3129 28.9818 68.5509 19.1336 52.4377C13.0559 42.4707 7.14696 37.8749 3.60162 35.8261C1.35061 34.5526 0 34.2203 0 34.2203C0 34.2203 18.5146 33.2236 27.6874 47.3435C35.9036 59.9683 33.3713 70.1567 36.1287 74.9187C36.4664 75.4724 36.8603 75.9707 37.3668 76.3583Z" fill="url(#paint20_linear_159_5634)"/>
<path d="M37.367 76.3586C37.367 76.3586 37.0293 76.3586 36.4103 76.3032C36.0727 76.0817 35.6787 75.7495 35.2285 75.3619C34.6095 74.8636 33.9342 74.1991 33.2026 73.3685C32.471 72.5379 31.7395 71.652 30.9516 70.5999C29.4322 68.5512 27.8002 66.1148 26.1119 63.5123C24.4237 60.9098 22.5666 58.1412 20.7658 55.3727C19.8654 53.9884 18.965 52.6041 18.0083 51.2751C17.1079 49.9462 16.1512 48.6173 15.1945 47.3437C13.3374 44.852 11.4241 42.5817 9.62328 40.7545C8.72287 39.8685 7.87874 39.0379 7.09089 38.3735C6.30303 37.709 5.57145 37.1553 4.95243 36.7677C4.3334 36.3801 3.82692 36.1032 3.48927 35.9925C3.32044 35.9371 3.20789 35.8817 3.09534 35.8264C2.98279 35.8264 2.98279 35.771 2.98279 35.771C2.92652 35.771 2.87024 35.6603 2.81396 35.6049C2.81396 35.5495 2.87024 35.4941 2.92652 35.4941C2.92652 35.4941 2.98279 35.4941 3.09534 35.5495C3.20789 35.6049 3.32044 35.6049 3.48927 35.7156H3.54554C3.93947 35.9371 4.44595 36.214 5.06498 36.6016C5.68401 36.9892 6.47186 37.5429 7.25971 38.2074C8.10384 38.8718 8.94797 39.7024 9.90465 40.5884C11.7617 42.4156 13.7314 44.6859 15.701 47.233C16.6577 48.5065 17.6144 49.8355 18.571 51.1644C19.5277 52.4933 20.4281 53.8776 21.3848 55.2619C23.2419 58.0305 25.099 60.7437 26.8435 63.3462C28.5881 65.9487 30.22 68.3297 31.7395 70.3231C32.4711 71.3198 33.2026 72.2057 33.8779 72.9255C34.5532 73.6454 35.1723 74.2545 35.735 74.6974C35.8476 74.8082 35.9601 74.9189 36.0727 74.9743C36.4666 75.4726 36.8605 75.971 37.367 76.3586Z" fill="url(#paint21_linear_159_5634)"/>
<path d="M49.4099 67.1659C49.4099 67.332 49.4662 67.6089 49.4662 67.9411C49.4662 68.2733 49.4662 68.5502 49.5225 68.7717C49.5225 68.9932 49.5225 69.2147 49.5225 69.5469C49.5225 69.8791 49.5225 70.1006 49.5225 70.3221C49.5225 70.5436 49.5225 70.8205 49.5225 71.0973C49.5225 71.3742 49.5225 71.651 49.4662 71.9279C49.4662 72.1494 49.4099 72.4262 49.4099 72.7031C49.3537 72.98 49.3537 73.2568 49.2974 73.4783C49.2411 73.8659 49.1286 74.2535 49.016 74.5857C48.9035 74.9733 48.7346 75.3056 48.5095 75.6378C48.2844 75.97 48.0593 76.3023 47.7779 76.4684C47.4966 76.6899 47.1589 76.856 46.8213 76.9114C46.4273 77.0221 46.0334 76.9667 45.5832 76.856C45.1893 76.7453 44.8516 76.5238 44.5703 76.3023C44.2889 76.0808 44.0638 75.8039 43.895 75.4717C43.7261 75.1395 43.5573 74.8072 43.501 74.5304C43.3885 74.1981 43.3322 73.8659 43.2197 73.4229C42.8257 71.4849 42.7132 69.5469 42.7694 67.5535C42.7694 67.4981 42.8257 66.4461 42.9383 64.2866C42.9383 64.2312 42.9383 64.1758 42.9383 64.0651C42.9383 63.9543 42.9383 63.8436 42.9383 63.7882C42.9383 63.7329 42.9383 63.6775 42.9383 63.5667C42.9383 63.456 42.9383 63.3453 42.9945 63.2899C42.9945 63.2345 42.9945 63.1791 43.0508 63.0684C43.0508 62.9576 43.1071 62.9023 43.1071 62.7915C43.1071 62.7362 43.1634 62.6808 43.1634 62.57C43.1634 62.4593 43.2196 62.4039 43.2759 62.3486C43.3322 62.2932 43.3322 62.1824 43.3885 62.1271C43.6136 61.7395 43.9512 61.4626 44.3452 61.2411C44.7391 61.075 45.1893 60.9643 45.5832 61.0196C45.752 60.9089 45.9771 60.8535 46.146 60.8535C46.3711 60.9089 46.5399 60.9643 46.765 61.0196C46.9338 61.1304 47.1589 61.2411 47.3277 61.4072C47.5528 61.5734 47.7217 61.7395 47.8342 61.9056C47.9468 62.0717 48.1156 62.2378 48.2281 62.4039C48.6784 63.013 49.016 63.7329 49.1848 64.5081C49.2411 65.2279 49.3537 66.1692 49.4099 67.1659ZM47.7217 74.5857C48.0031 73.7552 48.2282 72.8138 48.2844 71.7064C48.3407 70.599 48.3407 69.6023 48.2281 68.7163C48.2281 68.5502 48.2281 68.1626 48.1719 67.6089C48.1719 67.0552 48.1719 66.6122 48.1156 66.3353C48.1156 66.0585 48.0593 65.6709 47.9468 65.2833C47.8905 64.8403 47.7779 64.4527 47.6091 64.1205C47.4403 63.6775 47.1589 63.2899 46.765 62.8469C46.6524 62.7362 46.5399 62.6254 46.4273 62.4593C46.2585 62.5147 46.146 62.5147 45.9771 62.4039C45.8646 62.3486 45.752 62.2932 45.6958 62.2378C45.5269 62.3486 45.3018 62.2932 45.133 62.1271C44.8516 62.1271 44.6265 62.1824 44.4577 62.3486C44.2889 62.4593 44.1201 62.6808 44.0638 62.9576C44.0075 63.1791 43.9512 63.4006 43.9512 63.6221C43.895 63.8436 43.895 64.0651 43.895 64.2312C43.895 64.3973 43.895 64.6188 43.8387 64.951C43.8387 65.2833 43.8387 65.4494 43.8387 65.6155C43.6699 68.2733 43.7261 70.3221 43.9512 71.7618C44.1763 73.1461 44.3452 74.1428 44.514 74.6411C44.7954 75.4163 45.3018 75.8039 45.9771 75.8593C46.8775 75.8593 47.4403 75.4717 47.7217 74.5857Z" fill="white"/>
<path d="M55.3188 73.3678C55.4876 74.0323 55.6001 74.6968 55.769 75.1951C55.9378 75.7488 56.0503 76.2472 56.2754 76.6901C56.388 76.967 56.3317 77.1885 55.9941 77.3546C55.7127 77.5207 55.4876 77.4654 55.2625 77.2992C55.0936 77.1331 54.9811 77.0224 54.8685 76.9116C54.6997 76.6901 54.6434 76.4687 54.8123 76.2472C54.5872 75.6381 54.3621 74.7521 54.137 73.5893C53.8556 72.4265 53.6868 71.7067 53.5742 71.3191C53.4617 70.9868 53.3491 70.4885 53.1803 69.8794C53.0115 69.2703 52.8989 68.772 52.7864 68.4397C52.7864 68.5505 52.7864 68.6058 52.7864 68.7166C52.7864 68.8273 52.7864 68.9381 52.7864 68.9934C52.7864 69.1042 52.7864 69.1596 52.7864 69.2703C52.7864 70.0455 52.7864 71.153 52.8426 72.7034C52.8989 74.2538 52.8989 75.3612 52.8989 76.1364C52.8989 76.3579 52.7864 76.524 52.6175 76.6348C52.3924 76.7455 52.2236 76.7455 51.9985 76.6348C51.7734 76.524 51.7171 76.3579 51.7171 76.1364C51.7171 75.4166 51.7171 74.2538 51.6609 72.5926C51.6046 70.9315 51.6046 69.7687 51.6609 69.0488C51.7734 66.1141 51.886 63.8992 51.9422 62.4042C51.8297 62.2934 51.7734 62.1273 51.7734 61.9612C51.7734 61.7951 51.886 61.629 51.9985 61.5736C52.4487 61.2968 52.9552 61.186 53.5179 61.2414C54.0244 61.2968 54.5309 61.5182 54.9248 61.7951C55.375 62.072 55.7127 62.4596 55.9378 62.9579C56.1629 63.4563 56.2754 63.9546 56.2192 64.453C56.1066 65.1728 55.8815 65.6711 55.4313 66.0587C54.9811 66.391 54.3621 66.6678 53.6305 66.8339L53.6868 67.0554C53.743 67.1662 53.743 67.2769 53.7993 67.443C53.8556 67.6092 53.8556 67.7199 53.9119 67.8306C53.9681 68.1075 54.0807 68.5505 54.2495 69.1042L55.0374 71.8728C55.0374 72.1496 55.1499 72.648 55.3188 73.3678ZM54.8123 64.8406C54.9811 64.453 54.9811 64.01 54.8685 63.6224C54.756 63.2348 54.4746 62.9025 54.137 62.6257C53.743 62.3488 53.4054 62.2381 52.9552 62.2934C52.9552 63.2348 52.9552 64.3422 52.8989 65.6711C52.9552 65.6711 53.0677 65.6158 53.1803 65.6158C53.3491 65.5604 53.4054 65.5604 53.5179 65.5604C53.5742 65.5604 53.6868 65.505 53.7993 65.505C53.9119 65.4496 54.0244 65.4496 54.137 65.3943C54.1932 65.3389 54.3058 65.2835 54.4183 65.2835C54.5309 65.2282 54.5872 65.1728 54.6434 65.1174C54.756 65.0067 54.8123 64.9513 54.8123 64.8406Z" fill="white"/>
<path d="M58.5265 72.3709C58.4702 70.7098 58.639 68.6056 58.8641 66.1693C58.8641 66.0585 58.8641 65.7263 58.9204 65.228C58.9767 64.6742 59.033 64.342 59.033 64.1205C59.0892 63.899 59.1455 63.6222 59.2018 63.1792C59.3143 62.7916 59.4269 62.4594 59.5394 62.1825C59.8208 61.518 60.271 61.1304 60.7775 60.8536C61.3403 60.6321 61.9593 60.6321 62.5783 60.9643C63.2536 61.2966 63.6475 61.7949 63.8726 62.404C64.0977 63.0131 64.154 63.7329 64.154 64.6189C64.154 64.8404 64.0415 65.0065 63.8726 65.0618C63.7038 65.1726 63.535 65.1726 63.3662 65.0618C63.1973 64.9511 63.0848 64.8404 63.0848 64.6189C63.0848 64.342 63.0848 64.1205 63.0285 63.9544C63.0285 63.7883 62.9722 63.5668 62.916 63.2346C62.8597 62.9577 62.7471 62.7362 62.6909 62.5147C62.5783 62.3486 62.4658 62.1825 62.2407 62.0718C62.0718 61.961 61.7905 61.8503 61.5654 61.8503C61.3403 61.8503 61.1714 61.9056 61.0026 62.0164C60.8338 62.1271 60.7212 62.2379 60.6087 62.404C60.4961 62.5701 60.4399 62.7362 60.3836 63.0131C60.3273 63.2346 60.271 63.4561 60.2147 63.5668C60.2147 63.6776 60.1585 63.899 60.1585 64.1205C59.7645 66.8337 59.5957 69.547 59.5957 72.2048C59.5957 72.2048 59.5957 72.3156 59.5957 72.5371C59.5957 72.7585 59.5957 72.8693 59.5957 72.9247C59.5957 72.98 59.5957 73.0908 59.5957 73.3123C59.5957 73.5337 59.652 73.6445 59.652 73.7552C59.652 73.866 59.7083 73.9767 59.7083 74.1428C59.7645 74.309 59.7645 74.4751 59.8208 74.5304C59.8771 74.6412 59.9334 74.7519 59.9896 74.8627C60.0459 74.9734 60.1022 75.1395 60.1585 75.1949C60.2147 75.3057 60.3273 75.361 60.4399 75.4718C60.665 75.6379 60.9463 75.804 61.2277 75.9701C61.5654 76.1362 61.7905 76.1362 62.0156 76.0255C62.2969 75.8594 62.5783 75.5271 62.7471 75.0288C62.9722 74.5304 63.1411 73.7552 63.3099 72.6478C63.4224 71.928 63.4224 71.5404 63.4787 71.3742C63.535 70.9313 63.535 70.6544 63.4787 70.599C63.4787 70.5437 63.4224 70.4883 63.4224 70.3775C63.4224 70.3775 63.3662 70.3775 63.3099 70.3775C63.2536 70.3775 63.2536 70.3775 63.1973 70.3775C63.0848 70.3222 62.9722 70.3222 62.8034 70.2668C62.6346 70.2114 62.522 70.2114 62.522 70.2114H62.4658C62.2407 70.1561 62.1281 70.1561 62.0156 70.1007C61.903 70.0453 61.7905 69.9899 61.6779 69.8792C61.5654 69.7685 61.5091 69.6577 61.5091 69.4916C61.5091 69.2701 61.5654 69.1594 61.7342 69.0486C61.7905 68.9932 61.8467 68.9933 61.903 68.9933C61.9593 68.9933 62.0156 68.9933 62.0718 68.9933C62.1281 68.9933 62.1844 68.9932 62.2407 69.0486C62.3532 69.104 62.4095 69.104 62.4095 69.104C62.6346 69.1594 62.8597 69.2147 63.1411 69.2147C63.3662 69.2701 63.535 69.2701 63.6475 69.3255C63.7601 69.3255 63.9289 69.3809 64.0415 69.4916C64.2103 69.6023 64.3228 69.7131 64.4354 69.8238C64.5479 69.9346 64.5479 70.0453 64.5479 70.2114C64.6605 70.4329 64.6605 70.6544 64.7168 70.9866C64.7168 71.2635 64.7168 71.5404 64.6605 71.7619C64.6042 71.9833 64.6042 72.2602 64.4917 72.5924C64.4354 72.98 64.3791 73.2015 64.3791 73.2569C64.3228 73.7552 64.2666 74.1428 64.2103 74.4197C64.154 74.6966 64.0415 75.0288 63.8726 75.4718C63.7038 75.8594 63.535 76.247 63.2536 76.5238C62.7471 77.0222 62.1844 77.299 61.5091 77.2437C60.8338 77.1883 60.2147 76.9668 59.7083 76.4685C59.3706 76.1362 59.0892 75.7486 58.8641 75.2503C58.639 74.7519 58.5265 74.309 58.4702 73.866C58.5828 73.4784 58.5828 72.98 58.5265 72.3709Z" fill="white"/>
<path d="M72.8202 72.4823C72.989 74.1988 73.1579 75.4723 73.383 76.1368C73.4393 76.3583 73.383 76.5798 73.2704 76.7459C73.1016 76.912 72.9328 76.9674 72.7077 76.912C72.4826 76.8566 72.37 76.7459 72.3137 76.5244C72.0886 75.8046 71.9198 74.6418 71.751 72.9806C71.6947 72.4823 71.6947 71.9839 71.5822 71.4856C71.3571 71.4302 70.9069 71.4302 70.2316 71.4302C69.5 71.4856 69.1061 71.4856 69.1061 71.4856C68.8247 72.7037 68.6559 73.5897 68.5996 74.2542C68.5996 74.3649 68.5433 74.531 68.5433 74.7525C68.5433 74.974 68.487 75.1401 68.487 75.3062C68.487 75.417 68.4308 75.5831 68.4308 75.8046C68.3745 75.9707 68.3745 76.1922 68.3182 76.3583C68.2619 76.5244 68.2057 76.6905 68.1494 76.8013C68.0368 76.9674 67.868 77.0781 67.6992 77.0781C67.5304 77.0781 67.3615 76.9674 67.249 76.8013C67.1364 76.6351 67.0801 76.469 67.1927 76.2475C67.3615 75.9153 67.4178 75.417 67.4741 74.6971C67.5303 73.9773 67.5866 73.5343 67.5866 73.4236C67.8117 72.15 68.0931 70.8211 68.4308 69.3814C68.487 69.1599 68.5996 68.7723 68.7121 68.1079C68.881 67.4434 68.9935 67.0004 69.0498 66.7236C69.1061 66.4467 69.2186 66.0591 69.3312 65.5054C69.4437 64.9517 69.5563 64.5087 69.6688 64.1211C69.7814 63.7889 69.8939 63.3459 70.0065 62.9029C70.119 62.4599 70.2878 62.017 70.4004 61.574C70.5129 61.2971 70.6818 61.131 70.9631 61.1864C71.2445 61.1864 71.4133 61.3525 71.5259 61.574C71.5822 61.7955 71.6384 61.9616 71.6947 62.1831C71.751 62.4046 71.751 62.6261 71.8073 62.8475C71.8073 63.069 71.8635 63.2905 71.8635 63.512C71.8635 63.6781 71.8635 63.955 71.9198 64.1765C71.9198 64.4533 71.9198 64.6748 71.9761 64.8409C71.9761 65.0624 72.0324 65.3393 72.0324 65.6161C72.0324 65.893 72.0886 66.1145 72.1449 66.3913C72.2012 66.6682 72.2012 66.8897 72.2575 67.1112C72.3137 67.3327 72.3138 67.6095 72.37 67.8864C72.4263 68.1632 72.4263 68.4401 72.4826 68.6616C72.5389 68.9385 72.5951 69.4922 72.7077 70.4335C72.7077 71.2641 72.7639 71.9839 72.8202 72.4823ZM70.6255 70.3228C70.9069 70.2674 71.132 70.2674 71.3008 70.3228C71.3008 70.1566 71.2445 69.9905 71.2445 69.6583C71.1882 69.3814 71.1882 69.1599 71.1882 69.0492C71.132 68.8831 71.0757 68.274 70.9631 67.3327C70.8506 66.3913 70.738 65.6161 70.6818 65.1178C70.6818 65.0624 70.6818 64.9517 70.6818 64.7856C70.6818 64.6748 70.6818 64.5641 70.6818 64.4533C70.4567 65.3393 70.0065 67.2219 69.3874 70.0459C69.3874 70.1013 69.3874 70.212 69.3312 70.3781C69.8939 70.3228 70.3441 70.3228 70.6255 70.3228Z" fill="white"/>
<path d="M81.0367 75.7487C81.0367 75.9701 80.9804 76.1363 80.8116 76.247C80.6428 76.3577 80.4739 76.3577 80.2488 76.3024C80.0237 76.247 79.9112 76.0809 79.8549 75.9148C78.2229 70.9313 77.0974 67.609 76.5909 65.8925C76.6472 66.8338 76.7598 68.5503 76.8723 70.8759C77.0411 73.2569 77.1537 75.0842 77.1537 76.3577C77.1537 76.5792 77.0974 76.7454 76.8723 76.8561C76.7035 76.9668 76.4784 76.9668 76.2533 76.8561C76.0282 76.7454 75.9156 76.5792 75.9156 76.3577C75.8593 76.0255 75.8594 75.7487 75.8031 75.5825C75.7468 75.4718 75.8031 75.3611 75.8031 75.3057C75.7468 74.3644 75.6905 72.9801 75.578 71.1528C75.4654 69.3255 75.3529 67.6644 75.2966 66.1693C75.2403 64.6743 75.2403 63.29 75.2966 61.9611C75.2966 61.7949 75.3529 61.6842 75.4091 61.6288C75.4654 61.5181 75.578 61.4627 75.6905 61.4627C75.8031 61.4627 75.9156 61.4627 76.0282 61.4627C76.1407 61.4627 76.2533 61.5181 76.3096 61.6288C76.3658 61.7396 76.4221 61.8503 76.4221 61.9611C76.4221 62.0164 76.4221 62.0718 76.4221 62.1272C76.9849 63.7883 78.1104 67.2768 79.8549 72.4817C80.0237 70.2668 80.08 68.8272 80.08 68.1627C80.08 67.8858 80.08 67.3875 80.08 66.723C80.08 66.0586 80.08 65.5602 80.08 65.1726C80.08 64.785 80.08 64.342 80.1363 63.7883C80.1363 63.2346 80.1925 62.7363 80.3051 62.2933C80.08 62.0718 80.08 61.8503 80.2488 61.6288C80.3614 61.4627 80.4739 61.352 80.6428 61.1858C80.8679 60.9644 81.093 60.909 81.3181 61.0751C81.5432 61.2412 81.6557 61.4627 81.6557 61.7396C81.4869 62.404 81.4306 63.0685 81.3743 63.733C81.3181 64.4528 81.3181 65.2834 81.3743 66.2247C81.3743 67.166 81.3743 67.8858 81.3743 68.2735C81.3743 69.0487 81.3181 70.2115 81.2055 71.8726C81.093 73.5892 81.0367 74.8627 81.0367 75.7487Z" fill="white"/>
<path d="M83.9628 62.2936C83.7377 62.2936 83.6252 62.2382 83.5126 62.0721C83.4001 61.906 83.4001 61.7399 83.5126 61.5737C83.6252 61.3522 83.7377 61.2969 83.9628 61.2969C84.0191 61.2969 84.3568 61.3522 84.9758 61.4076C85.5948 61.463 86.045 61.5184 86.3827 61.5184C86.6078 61.5184 86.7766 61.6291 86.8892 61.7952C87.0017 61.9613 87.0017 62.1828 86.8892 62.3489C86.7766 62.5704 86.6078 62.6812 86.3827 62.6812C86.2701 62.6812 86.1013 62.6812 85.9888 62.6812C86.045 65.2837 86.045 67.3324 85.9325 68.8828C85.9325 69.2704 85.8762 69.8795 85.8762 70.7101C85.8762 71.5407 85.8199 72.2051 85.8199 72.6481C85.8199 72.8142 85.8199 72.9803 85.8199 73.2572C85.8199 73.5341 85.7636 73.7002 85.7636 73.9217C85.7636 74.0878 85.7636 74.3093 85.7636 74.5308C85.7636 74.7523 85.7636 74.9737 85.7636 75.1952C85.7636 75.4167 85.8199 75.5828 85.8199 75.8043C86.045 75.8043 86.2139 75.7489 86.3827 75.6936C86.6078 75.6382 86.8329 75.6382 86.9454 75.8043C87.1143 75.9704 87.1705 76.1365 87.1143 76.358C87.058 76.5795 86.9454 76.7456 86.7203 76.801C86.2139 76.9671 85.3697 76.9671 84.3005 76.7456C84.2442 76.7456 84.1317 76.6903 84.0754 76.6349C84.0191 76.5795 83.9628 76.5242 83.9066 76.4688C83.8503 76.3027 83.8503 76.1919 83.9066 76.0258C83.9628 75.8597 84.0754 75.8043 84.2442 75.7489C84.3568 75.6936 84.413 75.6936 84.4693 75.6936H84.6381C84.5819 75.2506 84.5819 74.3093 84.6381 72.925C84.6381 72.482 84.6944 71.8175 84.6944 70.9316C84.6944 70.0456 84.7507 69.3812 84.7507 68.9382C84.807 68.3845 84.807 67.6646 84.807 66.8894C84.807 66.1142 84.807 65.339 84.807 64.6192C84.807 63.844 84.807 63.1795 84.8632 62.5704C84.807 62.5704 84.7507 62.5704 84.6381 62.5151C84.5256 62.5151 84.4693 62.4597 84.413 62.4597C84.3568 62.4597 84.3005 62.4043 84.2442 62.4043C84.1879 62.4043 84.1317 62.3489 84.0754 62.3489C84.1317 62.3489 84.0754 62.3489 83.9628 62.2936Z" fill="white"/>
<path d="M94.9928 71.9835C95.1616 72.3157 95.2742 72.7034 95.2742 73.1463C95.2742 73.5893 95.2179 74.0323 95.1053 74.4199C94.9928 74.8075 94.8239 75.1951 94.6551 75.5827C94.3175 76.2472 93.8673 76.7455 93.3045 77.0224C92.7418 77.2992 92.0665 77.2992 91.3911 76.967C91.1098 76.8562 90.8847 76.6901 90.6596 76.524C90.4345 76.3579 90.2656 76.1364 90.0968 75.9149C89.928 75.6934 89.8154 75.4719 89.7029 75.2505C89.5903 75.029 89.5341 74.8075 89.4215 74.4753C89.3652 74.143 89.309 73.9215 89.2527 73.7C89.1964 73.4786 89.1964 73.2017 89.1401 72.8695C89.1401 72.4819 89.1401 72.2604 89.1401 72.0389C89.1401 71.8728 89.1401 71.5959 89.1401 71.2083C89.1401 70.8207 89.1401 70.5438 89.1401 70.4331C89.1401 68.6058 89.1964 66.5017 89.2527 64.1761C89.309 63.4009 89.4215 62.7364 89.6466 62.1273C89.8717 61.5736 90.2656 61.1306 90.8847 60.8538C91.3349 60.6323 91.7851 60.5769 92.1227 60.6323C92.5167 60.743 92.798 60.9091 93.0794 61.1306C93.3608 61.3521 93.5859 61.6843 93.7547 62.0719C93.9235 62.4595 94.0924 62.8472 94.1486 63.2348C94.2612 63.6224 94.3175 64.01 94.3175 64.3422C94.3175 64.5083 94.2612 64.6744 94.0924 64.7852C93.9235 64.8959 93.7547 64.8959 93.5859 64.8405C93.4171 64.7852 93.3045 64.6744 93.3045 64.5083C93.1357 63.567 92.9669 62.9025 92.798 62.5703C92.6855 62.3488 92.5167 62.1273 92.3478 62.0166C92.179 61.8505 91.9539 61.7951 91.7288 61.7951C91.5037 61.7951 91.2786 61.9058 91.0535 62.1273C90.8847 62.3488 90.7721 62.5703 90.6596 62.9025C90.547 63.2348 90.4907 63.4562 90.4907 63.6777C90.4907 63.8992 90.4345 64.2315 90.4907 64.6744C90.4907 65.1174 90.4907 65.3943 90.4907 65.4496C90.4345 67.7199 90.3782 69.2149 90.3782 69.8794C90.3782 70.0455 90.3782 70.3777 90.3782 70.7653C90.3782 71.2083 90.3782 71.5405 90.3782 71.8728C90.3782 72.205 90.3782 72.4819 90.4345 72.7587C90.4907 74.0323 90.7721 74.8629 91.2223 75.3612C91.7288 75.8596 92.179 76.081 92.5729 75.9703C93.0231 75.8042 93.3608 75.4719 93.5859 74.9182C94.0924 73.7554 94.2049 72.9802 93.9235 72.5372C93.811 72.3157 93.811 72.1496 93.9235 71.9281C94.0361 71.762 94.2049 71.6513 94.43 71.6513C94.6551 71.7067 94.8802 71.8174 94.9928 71.9835Z" fill="white"/>
<path d="M51.2667 39.5361C50.9291 39.8683 50.6477 39.8683 50.3101 39.5361C49.9724 39.2038 49.9724 38.927 50.2538 38.5947C50.4226 38.4286 50.704 38.0964 51.0979 37.6534C51.4919 37.2104 51.8295 36.8782 52.0546 36.6014C52.2797 36.3245 52.5611 36.2691 52.8987 36.4352C53.1801 36.6014 53.4052 36.8228 53.4052 37.0997C53.4615 38.7055 53.5178 39.9237 53.5178 40.8096C53.5178 41.6402 53.4615 42.9137 53.3489 44.5195C53.2927 46.1253 53.2364 47.3435 53.2364 48.1741C53.2364 49.7245 53.2927 51.4964 53.5178 53.5452C53.6303 54.8187 53.6866 55.76 53.7429 56.3691C53.7429 56.4245 53.7429 56.5352 53.7429 56.646C53.7429 56.7567 53.7429 56.8675 53.7429 56.9228C53.7429 56.9782 53.7429 57.089 53.7429 57.1997C53.7429 57.3104 53.7429 57.4212 53.6866 57.4766C53.6866 57.5873 53.6303 57.6427 53.574 57.7534C53.5178 57.8642 53.4615 57.9195 53.4052 58.0303C53.2364 58.2518 52.955 58.3625 52.6174 58.2518C52.2797 58.141 52.1109 57.9749 52.0546 57.698C52.0546 57.6427 52.0546 57.6427 51.9983 57.5873C51.9421 57.3104 51.9421 57.1443 52.0546 56.9228C51.9983 56.5352 51.9983 56.2584 51.9983 56.0369C51.9983 55.7047 51.9421 55.2063 51.8858 54.5972C51.8295 54.0435 51.7732 53.2129 51.6607 52.1055C51.5481 50.5551 51.4918 48.8939 51.5481 47.122C51.5481 46.7898 51.6044 45.627 51.6607 43.6336C51.717 41.5848 51.7732 40.0344 51.7732 38.9823L51.2667 39.5361Z" fill="white"/>
<path d="M60.3832 58.1962C59.0889 58.0301 58.1885 57.3103 57.5695 56.0367C57.2318 55.2615 57.0067 54.3202 56.8379 53.2127C56.6691 52.1607 56.6128 51.164 56.6691 50.2227C56.7253 49.2813 56.7253 48.34 56.7253 47.2879C56.7816 44.2425 57.2881 41.6954 58.1322 39.702C58.5824 38.6499 59.1452 37.8747 59.8205 37.3764C59.8767 37.1549 60.0456 36.9888 60.2707 36.9334C60.6646 36.8227 61.0585 36.7673 61.3399 36.7119C61.6776 36.7119 61.9589 36.7673 62.2966 36.9334C62.578 37.0995 62.8593 37.321 63.0844 37.5425C63.3095 37.764 63.5346 38.0408 63.7035 38.3731C63.9286 38.7053 64.0974 39.0375 64.2099 39.3698C64.3788 39.702 64.4913 40.0342 64.6039 40.4218C64.7164 40.8094 64.829 41.197 64.8853 41.4739C64.9415 41.7508 65.0541 42.083 65.1103 42.3598C65.5043 44.464 65.6731 46.7896 65.5606 49.2813C65.5606 49.3367 65.5606 49.6136 65.5606 50.1673C65.5606 50.721 65.5606 51.0532 65.5043 51.164C65.5043 51.2747 65.5043 51.607 65.448 52.0499C65.448 52.4929 65.3917 52.8805 65.3354 53.102C65.2792 53.3235 65.2229 53.6003 65.1666 53.9879C65.1104 54.3755 64.9978 54.6524 64.8853 54.9293C64.7727 55.2061 64.6601 55.483 64.4913 55.7045C64.0974 56.4797 63.4784 57.0888 62.6905 57.5871C62.0152 58.1408 61.1711 58.307 60.3832 58.1962ZM58.6387 43.6888C58.4136 45.0731 58.3573 47.2326 58.3573 50.1119C58.3573 51.9392 58.4699 53.3235 58.695 54.2094C59.0326 55.7598 59.5954 56.5904 60.3832 56.5904C61.3399 56.6458 62.0715 56.3689 62.6342 55.7045C63.197 55.04 63.5346 54.2094 63.7035 53.2127C64.0411 50.8871 64.0974 48.34 63.8723 45.5714C63.816 45.1838 63.816 44.8516 63.7597 44.5194C63.7035 44.1871 63.6472 43.7441 63.5909 43.0797C63.4784 42.4152 63.3658 41.8615 63.2533 41.4185C63.1407 40.9202 62.9719 40.4218 62.7468 39.9235C62.578 39.4251 62.2966 39.0375 62.0152 38.7607C61.7338 38.4838 61.3962 38.3731 61.0585 38.4284C60.552 38.5392 60.1018 39.0929 59.7079 39.9789C59.2014 41.1417 58.8075 42.4152 58.6387 43.6888Z" fill="white"/>
<path d="M72.0321 58.1962C70.7378 58.0301 69.8374 57.3103 69.2184 56.0367C68.8807 55.2615 68.6556 54.3202 68.4868 53.2127C68.318 52.1607 68.2617 51.164 68.318 50.2227C68.3743 49.2813 68.3743 48.34 68.3743 47.2879C68.4305 44.2425 68.937 41.6954 69.7811 39.702C70.2313 38.6499 70.7941 37.8747 71.4694 37.3764C71.5257 37.1549 71.6945 36.9888 71.9196 36.9334C72.3135 36.8227 72.7074 36.7673 72.9888 36.7119C73.3265 36.7119 73.6079 36.7673 73.9455 36.9334C74.2269 37.0995 74.5083 37.321 74.7334 37.5425C74.9585 37.764 75.1836 38.0408 75.3524 38.3731C75.5775 38.7053 75.7463 39.0375 75.8589 39.3698C76.0277 39.702 76.1402 40.0342 76.2528 40.4218C76.3653 40.8094 76.4779 41.197 76.5342 41.4739C76.5904 41.7508 76.703 42.083 76.7593 42.3598C77.1532 44.464 77.322 46.7896 77.2095 49.2813C77.2095 49.3367 77.2095 49.6136 77.2095 50.1673C77.2095 50.721 77.2095 51.0532 77.1532 51.164C77.1532 51.2747 77.1532 51.607 77.0969 52.0499C77.0969 52.4929 77.0407 52.8805 76.9844 53.102C76.9281 53.3235 76.8718 53.6003 76.8155 53.9879C76.7593 54.3755 76.6467 54.6524 76.5342 54.9293C76.4216 55.2061 76.3091 55.483 76.1402 55.7045C75.7463 56.4797 75.1273 57.0888 74.3394 57.5871C73.6641 58.1408 72.8763 58.307 72.0321 58.1962ZM70.2876 43.6888C70.0625 45.0731 70.0062 47.2326 70.0062 50.1119C70.0062 51.9392 70.1188 53.3235 70.3439 54.2094C70.6815 55.7598 71.2443 56.5904 72.0321 56.5904C72.9888 56.6458 73.7204 56.3689 74.2832 55.7045C74.8459 55.04 75.1836 54.2094 75.3524 53.2127C75.69 50.8871 75.7463 48.34 75.5212 45.5714C75.4649 45.1838 75.4649 44.8516 75.4087 44.5194C75.3524 44.1871 75.2961 43.7441 75.2398 43.0797C75.1273 42.4152 75.0147 41.8615 74.9022 41.4185C74.7896 40.9202 74.6208 40.4218 74.3957 39.9235C74.2269 39.4251 73.9455 39.0375 73.6641 38.7607C73.3828 38.4838 73.0451 38.3731 72.7074 38.4284C72.201 38.5392 71.7508 39.0929 71.3568 39.9789C70.8504 41.1417 70.4564 42.4152 70.2876 43.6888Z" fill="white"/>
<path d="M82.7244 41.9172C82.218 42.3048 81.7678 42.3602 81.2613 42.1387C80.8111 41.9172 80.4734 41.5296 80.2483 40.9205C80.0232 40.3668 79.967 39.7024 80.0232 39.0379C80.0795 38.3734 80.2483 37.7643 80.5297 37.2106C80.6985 36.9338 80.9236 36.823 81.2613 36.8784C81.9929 36.4908 82.6682 36.5462 83.2309 36.9891C83.3435 36.9891 83.8499 36.8784 84.6378 36.7123C85.4819 36.5462 86.101 36.4908 86.5512 36.5462C86.7763 36.5462 86.9451 36.6569 87.0576 36.7676C87.2265 36.8784 87.2827 37.0999 87.2827 37.3214C87.2827 37.8197 87.2265 38.3734 87.0576 38.9271C86.8888 39.4809 86.72 40.09 86.4949 40.7544C86.2698 41.4189 86.101 41.9726 85.9884 42.3048C85.9321 42.6371 85.5382 44.4643 84.8066 47.7867C84.5815 48.8387 84.1876 50.8875 83.7374 53.9329C83.5123 55.2065 83.2872 56.2032 83.0621 56.923L82.8933 57.4767C82.8933 57.6429 82.837 57.809 82.7807 57.9197C82.6119 58.1966 82.3868 58.3627 82.0491 58.3627C81.7678 58.3627 81.5427 58.3073 81.4301 58.0858C81.3176 57.8643 81.2613 57.6428 81.2613 57.366C81.2613 57.1999 81.3176 56.9784 81.4301 56.7015C81.5427 56.4247 81.5989 56.2032 81.5989 56.1478C81.824 55.3726 82.0491 54.3759 82.218 53.1577C82.5556 50.8321 82.9495 48.8941 83.2872 47.3437C83.3435 46.9007 83.456 46.347 83.6249 45.6825C83.7374 45.0181 83.9062 44.409 84.0188 43.8552C84.1313 43.3015 84.3002 42.8032 84.4127 42.1941C84.469 41.8619 84.6941 41.2528 85.0317 40.3114C85.3694 39.3701 85.5945 38.5949 85.6508 38.0966C85.2568 38.1519 84.6378 38.2073 83.8499 38.3734C84.1313 39.8131 83.7374 40.9759 82.7244 41.9172ZM81.7115 40.6437C81.7115 40.699 81.7678 40.699 81.7678 40.7544C82.2742 40.3668 82.4993 39.7577 82.4993 39.0379C82.4993 38.9271 82.4993 38.761 82.4431 38.5949C82.1617 38.5949 81.8803 38.5949 81.5989 38.5395C81.4864 38.8718 81.4864 39.3148 81.4864 39.8131C81.5427 40.2007 81.5989 40.4776 81.7115 40.6437ZM86.8325 52.4379C87.6767 52.3271 88.2394 52.7148 88.6334 53.6007C89.0273 54.4867 89.0836 55.428 88.8022 56.48C88.5208 57.5321 87.958 58.1412 87.1702 58.3627C86.3261 58.5842 85.707 58.4181 85.2568 57.7536C84.8066 57.1445 84.5815 56.3693 84.5815 55.4833C84.5815 55.1511 84.5815 54.8743 84.6378 54.542C84.6941 54.2098 84.7504 53.8776 84.8629 53.49C84.9755 53.1024 85.1443 52.7701 85.4257 52.5486C85.6508 52.3271 85.9884 52.2164 86.3261 52.2718C86.5512 52.2164 86.72 52.2718 86.8325 52.4379ZM86.7763 56.8123C87.1139 56.5908 87.2827 56.0371 87.3953 55.1511C87.4516 54.3205 87.339 53.8776 87.0014 53.9329C86.9451 53.9329 86.8888 53.9883 86.8325 53.9883C86.6637 54.0437 86.4949 54.0437 86.3261 54.0437C86.3261 54.099 86.2698 54.1544 86.2135 54.2652C86.101 54.7081 86.101 55.1511 86.101 55.5387C86.101 56.2586 86.2135 56.7569 86.4949 56.923C86.6074 56.8676 86.72 56.8676 86.7763 56.8123Z" fill="white"/>
</g>
<defs>
<radialGradient id="paint0_radial_159_5634" cx="0" cy="0" r="1" gradientUnits="userSpaceOnUse" gradientTransform="translate(69.1952 62.4143) scale(62.532 61.5282)">
<stop offset="0.6816" stop-color="#25981C"/>
<stop offset="0.7159" stop-color="#56AF4F"/>
<stop offset="0.7519" stop-color="#83C47E"/>
<stop offset="0.7892" stop-color="#A9D6A5"/>
<stop offset="0.8273" stop-color="#C8E5C6"/>
<stop offset="0.8665" stop-color="#E0F1DF"/>
<stop offset="0.9072" stop-color="#F1F9F1"/>
<stop offset="0.9503" stop-color="#FCFDFC"/>
<stop offset="1" stop-color="white"/>
</radialGradient>
<linearGradient id="paint1_linear_159_5634" x1="121.552" y1="76.1055" x2="122.015" y2="76.1055" gradientUnits="userSpaceOnUse">
<stop stop-color="#008603"/>
<stop offset="0.1801" stop-color="#189213"/>
<stop offset="0.5613" stop-color="#56B03D"/>
<stop offset="1" stop-color="#A4D672"/>
</linearGradient>
<linearGradient id="paint2_linear_159_5634" x1="126.768" y1="75.5966" x2="127.233" y2="75.5966" gradientUnits="userSpaceOnUse">
<stop stop-color="#008603"/>
<stop offset="0.1801" stop-color="#189213"/>
<stop offset="0.5613" stop-color="#56B03D"/>
<stop offset="1" stop-color="#A4D672"/>
</linearGradient>
<linearGradient id="paint3_linear_159_5634" x1="14.9692" y1="62.7418" x2="15.1337" y2="62.7418" gradientUnits="userSpaceOnUse">
<stop stop-color="#008603"/>
<stop offset="0.1801" stop-color="#189213"/>
<stop offset="0.5613" stop-color="#56B03D"/>
<stop offset="1" stop-color="#A4D672"/>
</linearGradient>
<linearGradient id="paint4_linear_159_5634" x1="15.3448" y1="66.4121" x2="15.4428" y2="66.4121" gradientUnits="userSpaceOnUse">
<stop stop-color="#008603"/>
<stop offset="0.1801" stop-color="#189213"/>
<stop offset="0.5613" stop-color="#56B03D"/>
<stop offset="1" stop-color="#A4D672"/>
</linearGradient>
<linearGradient id="paint5_linear_159_5634" x1="15.1307" y1="64.7461" x2="15.3447" y2="64.7461" gradientUnits="userSpaceOnUse">
<stop stop-color="#008603"/>
<stop offset="0.1801" stop-color="#189213"/>
<stop offset="0.5613" stop-color="#56B03D"/>
<stop offset="1" stop-color="#A4D672"/>
</linearGradient>
<linearGradient id="paint6_linear_159_5634" x1="21.486" y1="25.4803" x2="22.5053" y2="25.4803" gradientUnits="userSpaceOnUse">
<stop stop-color="#008603"/>
<stop offset="0.1801" stop-color="#189213"/>
<stop offset="0.5613" stop-color="#56B03D"/>
<stop offset="1" stop-color="#A4D672"/>
</linearGradient>
<linearGradient id="paint7_linear_159_5634" x1="15.4425" y1="66.9925" x2="15.4558" y2="66.9925" gradientUnits="userSpaceOnUse">
<stop stop-color="#008603"/>
<stop offset="0.1801" stop-color="#189213"/>
<stop offset="0.5613" stop-color="#56B03D"/>
<stop offset="1" stop-color="#A4D672"/>
</linearGradient>
<linearGradient id="paint8_linear_159_5634" x1="120.5" y1="69.7916" x2="120.94" y2="69.7916" gradientUnits="userSpaceOnUse">
<stop stop-color="#008603"/>
<stop offset="0.1801" stop-color="#189213"/>
<stop offset="0.5613" stop-color="#56B03D"/>
<stop offset="1" stop-color="#A4D672"/>
</linearGradient>
<linearGradient id="paint9_linear_159_5634" x1="19.6588" y1="88.1219" x2="20.816" y2="88.1219" gradientUnits="userSpaceOnUse">
<stop stop-color="#008603"/>
<stop offset="0.1801" stop-color="#189213"/>
<stop offset="0.5613" stop-color="#56B03D"/>
<stop offset="1" stop-color="#A4D672"/>
</linearGradient>
<linearGradient id="paint10_linear_159_5634" x1="104.391" y1="15.159" x2="105.797" y2="15.159" gradientUnits="userSpaceOnUse">
<stop stop-color="#008603"/>
<stop offset="0.1801" stop-color="#189213"/>
<stop offset="0.5613" stop-color="#56B03D"/>
<stop offset="1" stop-color="#A4D672"/>
</linearGradient>
<linearGradient id="paint11_linear_159_5634" x1="101.673" y1="12.9449" x2="102.527" y2="12.9449" gradientUnits="userSpaceOnUse">
<stop stop-color="#008603"/>
<stop offset="0.1801" stop-color="#189213"/>
<stop offset="0.5613" stop-color="#56B03D"/>
<stop offset="1" stop-color="#A4D672"/>
</linearGradient>
<linearGradient id="paint12_linear_159_5634" x1="102.527" y1="13.9493" x2="104.391" y2="13.9493" gradientUnits="userSpaceOnUse">
<stop stop-color="#008603"/>
<stop offset="0.1801" stop-color="#189213"/>
<stop offset="0.5613" stop-color="#56B03D"/>
<stop offset="1" stop-color="#A4D672"/>
</linearGradient>
<linearGradient id="paint13_linear_159_5634" x1="128.181" y1="45.2492" x2="128.791" y2="45.2492" gradientUnits="userSpaceOnUse">
<stop stop-color="#008603"/>
<stop offset="0.1801" stop-color="#189213"/>
<stop offset="0.5613" stop-color="#56B03D"/>
<stop offset="1" stop-color="#A4D672"/>
</linearGradient>
<linearGradient id="paint14_linear_159_5634" x1="13.06" y1="60.5763" x2="130.697" y2="60.5763" gradientUnits="userSpaceOnUse">
<stop stop-color="#008603"/>
<stop offset="0.1801" stop-color="#189213"/>
<stop offset="0.5613" stop-color="#56B03D"/>
<stop offset="1" stop-color="#A4D672"/>
</linearGradient>
<radialGradient id="paint15_radial_159_5634" cx="0" cy="0" r="1" gradientUnits="userSpaceOnUse" gradientTransform="translate(69.5386 56.411) scale(34.2374 33.6878)">
<stop offset="0.3856" stop-color="#046A38"/>
<stop offset="0.5712" stop-color="#046435"/>
<stop offset="0.8249" stop-color="#03522C"/>
<stop offset="1" stop-color="#034223"/>
</radialGradient>
<linearGradient id="paint16_linear_159_5634" x1="176.988" y1="36.6993" x2="48.0228" y2="81.5829" gradientUnits="userSpaceOnUse">
<stop stop-color="#A4D672"/>
<stop offset="0.4387" stop-color="#56B03D"/>
<stop offset="0.8199" stop-color="#189213"/>
<stop offset="1" stop-color="#008603"/>
</linearGradient>
<linearGradient id="paint17_linear_159_5634" x1="114.941" y1="39.582" x2="122.661" y2="62.8986" gradientUnits="userSpaceOnUse">
<stop stop-color="#A4D672"/>
<stop offset="0.4387" stop-color="#56B03D"/>
<stop offset="0.8199" stop-color="#189213"/>
<stop offset="1" stop-color="#008603"/>
</linearGradient>
<linearGradient id="paint18_linear_159_5634" x1="119.548" y1="57.5193" x2="126.594" y2="73.9534" gradientUnits="userSpaceOnUse">
<stop stop-color="#A4D672"/>
<stop offset="0.4387" stop-color="#56B03D"/>
<stop offset="0.8199" stop-color="#189213"/>
<stop offset="1" stop-color="#008603"/>
</linearGradient>
<linearGradient id="paint19_linear_159_5634" x1="-37.9765" y1="36.6993" x2="90.989" y2="81.5829" gradientUnits="userSpaceOnUse">
<stop stop-color="#A4D672"/>
<stop offset="0.4387" stop-color="#56B03D"/>
<stop offset="0.8199" stop-color="#189213"/>
<stop offset="1" stop-color="#008603"/>
</linearGradient>
<linearGradient id="paint20_linear_159_5634" x1="24.0707" y1="39.582" x2="16.3508" y2="62.8986" gradientUnits="userSpaceOnUse">
<stop stop-color="#A4D672"/>
<stop offset="0.4387" stop-color="#56B03D"/>
<stop offset="0.8199" stop-color="#189213"/>
<stop offset="1" stop-color="#008603"/>
</linearGradient>
<linearGradient id="paint21_linear_159_5634" x1="19.4646" y1="57.5193" x2="12.418" y2="73.9534" gradientUnits="userSpaceOnUse">
<stop stop-color="#A4D672"/>
<stop offset="0.4387" stop-color="#56B03D"/>
<stop offset="0.8199" stop-color="#189213"/>
<stop offset="1" stop-color="#008603"/>
</linearGradient>
<clipPath id="clip0_159_5634">
<rect width="139" height="134" fill="white"/>
</clipPath>
</defs>
</svg>
