<svg width="60" height="60" viewBox="0 0 60 60" fill="none" xmlns="http://www.w3.org/2000/svg">
<g clip-path="url(#clip0_159_3289)">
<path fill-rule="evenodd" clip-rule="evenodd" d="M3.55439 30.0005C3.05987 30.0005 2.61309 29.7966 2.28921 29.4647L2.2877 29.4631C1.96304 29.132 1.76367 28.6752 1.76367 28.1696C1.76367 27.1574 2.56606 26.3375 3.55439 26.3375H56.6456C57.1392 26.3375 57.5867 26.5419 57.9115 26.8741L57.9123 26.8748C58.2368 27.2058 58.4363 27.6626 58.4363 28.1696C58.4363 29.1804 57.6342 30.0005 56.6456 30.0005H14.1129C13.6259 30.0005 13.2311 30.4041 13.2311 30.9021C13.2311 31.4 13.6259 31.8037 14.1129 31.8037H56.6456C58.6082 31.8037 60.2 30.1762 60.2 28.1696C60.2 27.1667 59.8022 26.2554 59.1579 25.5982C58.5163 24.9426 57.626 24.5343 56.6456 24.5343H3.55439C1.5915 24.5343 0 26.162 0 28.1696C0 29.1711 0.397619 30.082 1.04135 30.739C1.68391 31.3972 2.57485 31.8037 3.55439 31.8037H10.5903C11.0773 31.8037 11.4721 31.4 11.4721 30.9021C11.4721 30.4041 11.0773 30.0005 10.5903 30.0005H3.55439Z" fill="#56B03D"/>
<path fill-rule="evenodd" clip-rule="evenodd" d="M21.0582 43.2597C21.2241 43.4839 21.4863 43.6162 21.765 43.6162H38.4349C38.7136 43.6162 38.9758 43.4839 39.1417 43.2597C41.1662 40.5225 41.9047 37.3818 42.1471 34.9666C42.2688 33.7535 42.2671 32.7076 42.2347 31.9621C42.2185 31.5889 42.1945 31.2898 42.1742 31.0812C42.1641 30.9769 42.1548 30.8952 42.1479 30.838C42.1445 30.8094 42.1416 30.787 42.1395 30.771C42.1384 30.763 42.1375 30.7565 42.1369 30.7518L42.1361 30.7458L42.1357 30.743C42.1356 30.7426 42.1356 30.7423 41.2649 30.867L42.1356 30.7423C42.0668 30.2607 41.6213 29.9262 41.1404 29.995C40.6598 30.0638 40.3258 30.5095 40.394 30.9908L40.3941 30.9911C40.3941 30.9913 40.3941 30.9914 40.3941 30.9916L40.3942 30.992C40.3944 30.9937 40.3949 30.997 40.3955 31.0019C40.3968 31.0117 40.3989 31.0278 40.4016 31.0498C40.4069 31.0939 40.4146 31.162 40.4234 31.252C40.4409 31.4322 40.4625 31.6998 40.4772 32.0387C40.5067 32.7174 40.5085 33.6772 40.3968 34.7904C40.1834 36.9172 39.5615 39.5468 37.9818 41.8546H22.218C20.6383 39.5468 20.0164 36.9172 19.803 34.7904C19.6912 33.6772 19.693 32.7174 19.7225 32.0387C19.7373 31.6998 19.7588 31.4322 19.7764 31.252C19.7851 31.162 19.7929 31.0939 19.7982 31.0498C19.8009 31.0278 19.8029 31.0117 19.8042 31.0019C19.8046 30.9991 19.8049 30.9969 19.8051 30.9951C19.8053 30.9938 19.8054 30.9927 19.8055 30.992L19.8056 30.9916C19.8056 30.9914 19.8056 30.9913 19.8057 30.9911C19.8057 30.991 19.8057 30.9909 19.8057 30.9908L19.8057 30.9906C19.8739 30.5094 19.5399 30.0638 19.0594 29.995C18.5785 29.9262 18.1329 30.2607 18.0642 30.7423L18.9349 30.867C18.0642 30.7423 18.0641 30.7426 18.0641 30.743L18.0637 30.7458L18.0629 30.7518C18.0622 30.7565 18.0613 30.763 18.0603 30.771C18.0582 30.787 18.0553 30.8095 18.0518 30.838C18.0449 30.8952 18.0357 30.9769 18.0255 31.0812C18.0053 31.2898 17.9813 31.5889 17.9651 31.9621C17.9327 32.7076 17.9309 33.7535 18.0527 34.9666C18.2951 37.3818 19.0336 40.5225 21.0582 43.2597Z" fill="#56B03D"/>
<path fill-rule="evenodd" clip-rule="evenodd" d="M36.5616 40.6303C37.0479 40.7618 37.552 40.4857 37.6875 40.0135C38.3558 37.684 38.5692 35.357 38.6183 33.624C38.6321 33.1341 38.2343 32.726 37.7297 32.7125C37.225 32.699 36.8047 33.0853 36.7908 33.5752C36.7441 35.2231 36.5411 37.3946 35.9263 39.5373C35.7909 40.0094 36.0753 40.4988 36.5616 40.6303Z" fill="#56B03D"/>
<path fill-rule="evenodd" clip-rule="evenodd" d="M23.4666 40.6303C23.9124 40.4988 24.1732 40.0094 24.049 39.5373C23.4854 37.3946 23.2993 35.223 23.2566 33.5753C23.2439 33.0853 22.8586 32.699 22.396 32.7125C21.9334 32.7259 21.5687 33.134 21.5814 33.6239C21.6263 35.357 21.8219 37.684 22.4346 40.0135C22.5588 40.4857 23.0208 40.7618 23.4666 40.6303Z" fill="#56B03D"/>
<path fill-rule="evenodd" clip-rule="evenodd" d="M32.7814 40.657C33.2467 40.7137 33.6678 40.365 33.722 39.8782C33.9754 37.6002 34.057 35.3175 34.0757 33.6098C34.0811 33.1197 33.7057 32.7178 33.2373 32.7122C32.7689 32.7066 32.3849 33.0993 32.3795 33.5894C32.3611 35.2626 32.2812 37.4785 32.037 39.6729C31.9829 40.1598 32.3161 40.6004 32.7814 40.657Z" fill="#56B03D"/>
<path fill-rule="evenodd" clip-rule="evenodd" d="M27.3356 40.657C27.8526 40.6004 28.2229 40.1598 28.1627 39.6729C27.8915 37.4785 27.8026 35.2626 27.7822 33.5894C27.7763 33.0993 27.3495 32.7066 26.8291 32.7122C26.3086 32.7178 25.8915 33.1197 25.8975 33.6098C25.9183 35.3175 26.0089 37.6002 26.2906 39.8782C26.3507 40.365 26.8186 40.7137 27.3356 40.657Z" fill="#56B03D"/>
<path fill-rule="evenodd" clip-rule="evenodd" d="M27.5825 60.0678C27.9877 60.3253 28.5188 60.1958 28.7688 59.7786L28.0352 59.3125C28.7688 59.7786 28.769 59.7782 28.7693 59.7778L28.7698 59.7769L28.771 59.7748L28.774 59.7699C28.7762 59.7661 28.7788 59.7616 28.7819 59.7563C28.788 59.7456 28.7959 59.7318 28.8052 59.7149C28.8239 59.6811 28.8486 59.6349 28.8777 59.5772C28.9356 59.462 29.0113 59.2997 29.0906 59.0975C29.2482 58.6951 29.4246 58.1225 29.4976 57.4393C29.6468 56.044 29.3558 54.2294 27.7216 52.5466C25.1146 49.8622 24.4556 46.2385 25.8058 43.0411C25.9956 42.5916 25.7955 42.0687 25.3589 41.8733C24.9224 41.6778 24.4146 41.8838 24.2247 42.3333C22.5792 46.2302 23.4181 50.6259 26.5026 53.8019C27.7141 55.0493 27.8846 56.3038 27.784 57.245C27.7321 57.7302 27.6057 58.1427 27.4918 58.4334C27.4352 58.5777 27.3829 58.689 27.3469 58.7607C27.3289 58.7964 27.3151 58.822 27.307 58.8366C27.303 58.8439 27.3004 58.8485 27.2994 58.8501C27.2994 58.8502 27.2993 58.8503 27.2993 58.8503C27.0524 59.267 27.1787 59.8112 27.5825 60.0678Z" fill="#56B03D"/>
<path fill-rule="evenodd" clip-rule="evenodd" d="M23.1418 57.2471C23.6274 57.2471 24.021 56.8471 24.021 56.3537C24.021 55.3982 24.3784 54.297 24.9971 53.0791C25.6111 51.8705 26.439 50.6287 27.2962 49.3995C27.4848 49.1291 27.6756 48.8582 27.8657 48.5883C28.5244 47.6532 29.1742 46.7307 29.6889 45.888C30.0234 45.3403 30.3185 44.7986 30.5317 44.2803C30.7422 43.7687 30.8951 43.2273 30.8951 42.6929C30.8951 42.1995 30.5015 41.7995 30.016 41.7995C29.5305 41.7995 29.1368 42.1995 29.1368 42.6929C29.1368 42.896 29.0749 43.189 28.9095 43.5911C28.7468 43.9866 28.5049 44.4383 28.195 44.9457C27.7138 45.7335 27.1111 46.5892 26.4597 47.5143C26.2641 47.7921 26.0641 48.0761 25.8616 48.3664C25.0003 49.6015 24.1097 50.9308 23.4347 52.2594C22.7645 53.5786 22.2627 54.9806 22.2627 56.3537C22.2627 56.8471 22.6563 57.2471 23.1418 57.2471Z" fill="#56B03D"/>
<path fill-rule="evenodd" clip-rule="evenodd" d="M31.9927 59.3125C31.2319 59.7786 31.2317 59.7782 31.2314 59.7778L31.2309 59.7769L31.2296 59.7748L31.2265 59.7699C31.2243 59.7661 31.2215 59.7616 31.2183 59.7563C31.212 59.7456 31.2038 59.7318 31.1941 59.7149C31.1748 59.6811 31.1491 59.6349 31.119 59.5772C31.0589 59.462 30.9804 59.2997 30.8982 59.0975C30.7347 58.6951 30.5519 58.1225 30.4761 57.4393C30.3214 56.044 30.6231 54.2294 32.3179 52.5466C35.0215 49.8622 35.7048 46.2385 34.3047 43.0411C34.1079 42.5916 34.3153 42.0687 34.7681 41.8733C35.2208 41.6778 35.7474 41.8838 35.9443 42.3333C37.6507 46.2302 36.7808 50.6259 33.5821 53.8019C32.3257 55.0493 32.1488 56.3038 32.2532 57.245C32.307 57.7302 32.4381 58.1427 32.5562 58.4334C32.6149 58.5777 32.6691 58.689 32.7065 58.7607C32.7251 58.7964 32.7395 58.822 32.7478 58.8366C32.752 58.8439 32.7547 58.8485 32.7557 58.8501C32.7558 58.8502 32.7558 58.8503 32.7558 58.8503C33.0118 59.267 32.8809 59.8112 32.4621 60.0678C32.042 60.3253 31.4912 60.1958 31.2319 59.7786L31.9927 59.3125Z" fill="#56B03D"/>
<path fill-rule="evenodd" clip-rule="evenodd" d="M37.0355 57.2471C37.5338 57.2471 37.9377 56.8471 37.9377 56.3537C37.9377 54.9806 37.4227 53.5786 36.7349 52.2594C36.0422 50.9308 35.1281 49.6015 34.2441 48.3664C34.0363 48.0761 33.8311 47.7921 33.6303 47.5143C32.9617 46.5892 32.3432 45.7335 31.8494 44.9457C31.5313 44.4383 31.283 43.9866 31.116 43.5911C30.9462 43.189 30.8827 42.896 30.8827 42.6929C30.8827 42.1995 30.4787 41.7995 29.9804 41.7995C29.4821 41.7995 29.0781 42.1995 29.0781 42.6929C29.0781 43.2273 29.2351 43.7687 29.4511 44.2803C29.6699 44.7986 29.9728 45.3403 30.3161 45.888C30.8444 46.7307 31.5113 47.6532 32.1873 48.5883C32.3824 48.8582 32.5782 49.1291 32.7718 49.3995C33.6515 50.6287 34.5012 51.8705 35.1314 53.0791C35.7663 54.297 36.1332 55.3982 36.1332 56.3537C36.1332 56.8471 36.5371 57.2471 37.0355 57.2471Z" fill="#56B03D"/>
<path fill-rule="evenodd" clip-rule="evenodd" d="M30.0113 26.3516C30.4982 26.3527 30.8937 25.9603 30.8948 25.4751L30.0165 25.4732C30.8948 25.4751 30.8948 25.4748 30.8948 25.4744L30.8948 25.4731L30.8948 25.4688L30.8948 25.4535C30.8948 25.4404 30.8947 25.4215 30.8946 25.3969C30.8942 25.3477 30.8935 25.276 30.8921 25.1831C30.8891 24.9973 30.8831 24.7271 30.8706 24.3844C30.8455 23.6992 30.7947 22.7233 30.6916 21.5533C30.4856 19.2174 30.0691 16.0886 29.2241 12.9482C28.3822 9.81914 27.0971 6.61084 25.1148 4.16881C23.111 1.70026 20.3761 -0.000131607 16.7219 -0.000131607C13.27 -0.000131607 10.8065 0.761566 9.21068 2.01511C7.58912 3.28887 6.94397 5.01121 7.05391 6.69178C7.21605 9.17022 9.05149 11.5866 11.6299 12.2724C10.9483 13.1562 10.4712 14.4397 10.8801 16.1472C11.2805 17.8187 12.6624 18.6133 14.0853 19.0727C15.0497 19.384 16.214 19.5936 17.3461 19.7973C17.8462 19.8873 18.3401 19.9762 18.8076 20.0722C20.4223 20.4039 21.8385 20.8327 22.8515 21.6257C23.8042 22.3715 24.4797 23.5035 24.4797 25.4732C24.4797 25.9583 24.8744 26.3516 25.3613 26.3516C25.8481 26.3516 26.2428 25.9583 26.2428 25.4732C26.2428 23.0197 25.3607 21.3559 23.9407 20.2442C22.581 19.1799 20.8093 18.6896 19.1635 18.3516C18.5873 18.2333 18.0339 18.134 17.5052 18.0392C16.4422 17.8486 15.4787 17.6758 14.6287 17.4014C13.3881 17.0009 12.7763 16.496 12.5951 15.7395C12.2859 14.4485 12.7279 13.6329 13.2322 13.1055C13.4971 12.8284 13.7866 12.6268 14.0133 12.4943C14.1253 12.4287 14.2183 12.3822 14.2798 12.3534C14.3104 12.3391 14.3329 12.3293 14.3457 12.3239C14.352 12.3213 14.3558 12.3197 14.3572 12.3192C14.779 12.1547 15.0073 11.6982 14.8845 11.2632C14.7612 10.8268 14.3248 10.5555 13.8772 10.6371C11.2247 11.1207 8.96812 8.94433 8.81329 6.5775C8.73979 5.45405 9.15209 4.2982 10.3022 3.39478C11.478 2.47116 13.5004 1.75669 16.7219 1.75669C19.7411 1.75669 22.0044 3.13066 23.744 5.27364C25.5051 7.44315 26.7087 10.3836 27.5212 13.4032C28.3307 16.4116 28.7345 19.4315 28.9352 21.7071C29.0354 22.8429 29.0845 23.7884 29.1086 24.4483C29.1207 24.7781 29.1264 25.0363 29.1292 25.2108C29.1306 25.2981 29.1312 25.3644 29.1315 25.4083C29.1316 25.4302 29.1317 25.4466 29.1317 25.4571L29.1317 25.4686L29.1317 25.4712M14.3554 12.3198C14.3554 12.3199 14.3554 12.3198 14.3554 12.3198V12.3198Z" fill="#56B03D"/>
<path fill-rule="evenodd" clip-rule="evenodd" d="M29.9749 26.3516C30.469 26.3505 30.8686 25.9572 30.8676 25.473C30.8676 25.473 30.8676 25.473 30.8676 25.473L30.8676 25.4728M30.8676 25.4728L30.8676 25.4683C30.8676 25.4645 30.8676 25.4584 30.8677 25.4501C30.8677 25.4336 30.8679 25.4082 30.8682 25.3743C30.8688 25.3065 30.8701 25.2047 30.8728 25.0718C30.8784 24.806 30.8899 24.416 30.9137 23.9245C30.9614 22.9411 31.0581 21.5543 31.2543 19.9466C31.6481 16.7183 32.4366 12.6549 33.9996 9.18155C34.199 8.73848 33.994 8.22092 33.5419 8.02555C33.0897 7.83018 32.5616 8.03098 32.3622 8.47405C30.6957 12.1774 29.8801 16.4375 29.4774 19.7385C29.2752 21.3954 29.1755 22.8248 29.1262 23.8413C29.1016 24.3499 29.0896 24.7557 29.0837 25.0358C29.0808 25.1759 29.0794 25.2846 29.0787 25.3591C29.0784 25.3963 29.0782 25.4249 29.0782 25.4447C29.0781 25.4545 29.0781 25.4622 29.0781 25.4675L29.0781 25.4739L29.0781 25.4763C29.0781 25.4766 29.0781 25.4767 29.972 25.4748L29.0781 25.4767C29.0792 25.961 29.4807 26.3526 29.9749 26.3516" fill="#56B03D"/>
<path fill-rule="evenodd" clip-rule="evenodd" d="M34.7352 26.3516C35.2248 26.3516 35.6217 25.9583 35.6217 25.4731C35.6217 23.5034 36.3011 22.3715 37.2591 21.6258C38.2779 20.8328 39.702 20.404 41.3259 20.0725C41.796 19.9765 42.2926 19.8876 42.7956 19.7976C43.9341 19.5939 45.1049 19.3844 46.0748 19.0731C47.5056 18.6139 48.8952 17.8194 49.2978 16.148C49.7095 14.4403 49.2297 13.1565 48.5442 12.2726C51.1371 11.5868 52.983 9.17039 53.1461 6.69195C53.2567 5.01134 52.6079 3.28896 50.9772 2.01517C49.3724 0.761581 46.8949 -0.000131607 43.4235 -0.000131607C39.2293 -0.000131607 36.2553 2.21026 34.1926 5.22887C33.9181 5.6306 34.0242 6.17675 34.4296 6.44875C34.8351 6.72075 35.3863 6.61558 35.6608 6.21386C37.4942 3.53088 39.9767 1.75673 43.4235 1.75673C46.6633 1.75673 48.697 2.47121 49.8795 3.39485C51.0361 4.29828 51.4507 5.45414 51.3767 6.57763C51.2209 8.94454 48.9515 11.121 46.2841 10.6373C45.8339 10.5557 45.395 10.827 45.2711 11.2635C45.1476 11.6985 45.3772 12.155 45.8015 12.3195C45.8028 12.32 45.8067 12.3216 45.8129 12.3242C45.8258 12.3296 45.8484 12.3394 45.8792 12.3537C45.9411 12.3825 46.0346 12.429 46.1473 12.4946C46.3753 12.6272 46.6665 12.8288 46.9329 13.1058C47.44 13.6332 47.8844 14.4489 47.5732 15.7399L47.5731 15.7401C47.391 16.4965 46.7759 17.0014 45.5284 17.4018C44.6735 17.6762 43.7046 17.8489 42.6357 18.0395C42.104 18.1342 41.5475 18.2335 40.968 18.3518C39.3129 18.6897 37.5312 19.1799 36.1638 20.2442C34.7357 21.3558 33.8486 23.0196 33.8486 25.4731C33.8486 25.9583 34.2456 26.3516 34.7352 26.3516Z" fill="#56B03D"/>
<path fill-rule="evenodd" clip-rule="evenodd" d="M27.2943 22.4594C27.7617 22.332 28.038 21.847 27.9116 21.3762C26.1205 14.7084 23.3001 10.692 20.877 8.3318C19.6683 7.15442 18.566 6.39663 17.7533 5.9292C17.3472 5.69558 17.0136 5.53463 16.7755 5.43009C16.6564 5.37781 16.5612 5.33962 16.4926 5.31349C16.4583 5.30042 16.4307 5.29037 16.4101 5.28307C16.3998 5.27942 16.3913 5.27646 16.3845 5.27416C16.3812 5.27301 16.3782 5.27202 16.3758 5.27119L16.3724 5.27007L16.371 5.2696C16.3704 5.26939 16.3698 5.26919 16.0976 6.10869L16.3698 5.26919C15.9095 5.11779 15.4145 5.37092 15.2642 5.83456C15.1143 6.297 15.3639 6.79421 15.8219 6.94701C15.8228 6.9473 15.8249 6.94803 15.8282 6.94919C15.836 6.95198 15.8508 6.9573 15.872 6.9654C15.9145 6.9816 15.9831 7.0089 16.0749 7.04924C16.2587 7.12991 16.5356 7.26267 16.8839 7.46302C17.5803 7.86354 18.563 8.53473 19.6582 9.60153C21.8431 11.7297 24.5066 15.4624 26.2191 21.8376C26.3455 22.3084 26.8269 22.5868 27.2943 22.4594Z" fill="#56B03D"/>
<path fill-rule="evenodd" clip-rule="evenodd" d="M32.6907 22.4594C33.1665 22.5868 33.6565 22.3084 33.7852 21.8376C35.5282 15.4624 38.2393 11.7297 40.4632 9.60153C41.578 8.53473 42.5782 7.86354 43.287 7.46302C43.6415 7.26267 43.9234 7.12991 44.1105 7.04924C44.204 7.0089 44.2737 6.9816 44.317 6.9654C44.3386 6.9573 44.3536 6.95198 44.3616 6.94919C44.3649 6.94803 44.3671 6.94731 44.368 6.94701C44.8341 6.79422 45.0882 6.29701 44.9356 5.83456C44.7826 5.37092 44.2788 5.11779 43.8104 5.26919L44.0873 6.10869C43.8104 5.26919 43.8097 5.26939 43.8091 5.2696L43.8076 5.27007L43.8042 5.27119C43.8017 5.27202 43.7987 5.27301 43.7953 5.27416C43.7884 5.27646 43.7797 5.27942 43.7693 5.28307C43.7483 5.29037 43.7202 5.30042 43.6853 5.31349C43.6155 5.33962 43.5186 5.37781 43.3974 5.43009C43.155 5.53463 42.8155 5.69558 42.4021 5.9292C41.5749 6.39663 40.4529 7.15442 39.2226 8.3318C36.7563 10.692 33.8855 14.7084 32.0624 21.3762C31.9337 21.847 32.215 22.332 32.6907 22.4594Z" fill="#56B03D"/>
</g>
<defs>
<clipPath id="clip0_159_3289">
<rect width="60" height="60" fill="white"/>
</clipPath>
</defs>
</svg>
