<svg width="21" height="19" viewBox="0 0 21 19" fill="none" xmlns="http://www.w3.org/2000/svg">
<path d="M10.4523 18.2158C10.3506 18.2158 10.2491 18.1886 10.158 18.1342C10.0592 18.0751 7.71016 16.662 5.32745 14.5329C3.91524 13.271 2.78796 12.0194 1.97698 10.8129C0.927534 9.25177 0.399791 7.75011 0.408305 6.34962C0.41827 4.72 0.981638 3.18744 1.99475 2.03422C3.02497 0.861574 4.39983 0.21582 5.86614 0.21582C7.74536 0.21582 9.46347 1.30644 10.4523 3.03411C11.4411 1.30648 13.1592 0.21582 15.0385 0.21582C16.4238 0.21582 17.7455 0.798486 18.7602 1.8565C19.8738 3.01757 20.5066 4.65809 20.4962 6.35735C20.4877 7.7554 19.95 9.25478 18.8983 10.8138C18.0848 12.0197 16.9591 13.2707 15.5524 14.5322C13.1784 16.6611 10.8463 18.0741 10.7481 18.1332C10.6567 18.1883 10.5544 18.2158 10.4523 18.2158ZM5.8661 1.4353C4.73528 1.4353 3.66956 1.93951 2.86521 2.85509C2.04795 3.78535 1.59342 5.02913 1.58534 6.35735C1.56921 9.00121 4.02216 11.7539 6.08279 13.5975C7.90292 15.2259 9.74906 16.4484 10.4512 16.8942C11.1497 16.4476 12.9828 15.2256 14.7954 13.5982C16.8502 11.7531 19.303 8.99788 19.3192 6.34966C19.3276 4.97284 18.8195 3.64848 17.9253 2.71611C17.1332 1.8902 16.1079 1.43534 15.0385 1.43534C13.2391 1.43534 11.621 2.74652 11.0123 4.69809C10.9338 4.94979 10.7076 5.12031 10.4523 5.12031C10.197 5.12031 9.97082 4.94975 9.89235 4.69805C9.28355 2.74652 7.66555 1.4353 5.8661 1.4353Z" fill="#777777"/>
</svg>
