<svg width="151" height="75" viewBox="0 0 151 75" fill="none" xmlns="http://www.w3.org/2000/svg">
<path d="M22.9809 49.48C20.7409 49.48 18.5943 49.1867 16.5409 48.6C14.4876 47.9867 12.8343 47.2 11.5809 46.24L13.7809 41.36C14.9809 42.2133 16.3943 42.92 18.0209 43.48C19.6743 44.0133 21.3409 44.28 23.0209 44.28C24.3009 44.28 25.3276 44.16 26.1009 43.92C26.9009 43.6533 27.4876 43.2933 27.8609 42.84C28.2343 42.3867 28.4209 41.8667 28.4209 41.28C28.4209 40.5333 28.1276 39.9467 27.5409 39.52C26.9543 39.0667 26.1809 38.7067 25.2209 38.44C24.2609 38.1467 23.1943 37.88 22.0209 37.64C20.8743 37.3733 19.7143 37.0533 18.5409 36.68C17.3943 36.3067 16.3409 35.8267 15.3809 35.24C14.4209 34.6533 13.6343 33.88 13.0209 32.92C12.4343 31.96 12.1409 30.7333 12.1409 29.24C12.1409 27.64 12.5676 26.1867 13.4209 24.88C14.3009 23.5467 15.6076 22.4933 17.3409 21.72C19.1009 20.92 21.3009 20.52 23.9409 20.52C25.7009 20.52 27.4343 20.7333 29.1409 21.16C30.8476 21.56 32.3543 22.1733 33.6609 23L31.6609 27.92C30.3543 27.1733 29.0476 26.6267 27.7409 26.28C26.4343 25.9067 25.1543 25.72 23.9009 25.72C22.6476 25.72 21.6209 25.8667 20.8209 26.16C20.0209 26.4533 19.4476 26.84 19.1009 27.32C18.7543 27.7733 18.5809 28.3067 18.5809 28.92C18.5809 29.64 18.8743 30.2267 19.4609 30.68C20.0476 31.1067 20.8209 31.4533 21.7809 31.72C22.7409 31.9867 23.7943 32.2533 24.9409 32.52C26.1143 32.7867 27.2743 33.0933 28.4209 33.44C29.5943 33.7867 30.6609 34.2533 31.6209 34.84C32.5809 35.4267 33.3543 36.2 33.9409 37.16C34.5543 38.12 34.8609 39.3333 34.8609 40.8C34.8609 42.3733 34.4209 43.8133 33.5409 45.12C32.6609 46.4267 31.3409 47.48 29.5809 48.28C27.8476 49.08 25.6476 49.48 22.9809 49.48ZM58.4888 21H64.9688V49H58.4888V21ZM45.7688 49H39.2888V21H45.7688V49ZM58.9688 37.52H45.2888V32.04H58.9688V37.52ZM77.5534 32.28H91.0334V37.32H77.5534V32.28ZM78.0334 43.8H93.2734V49H71.5934V21H92.7534V26.2H78.0334V43.8ZM98.4294 49V21H104.909V49H98.4294ZM111.554 49V21H116.914L133.434 41.16H130.834V21H137.234V49H131.914L115.354 28.84H117.954V49H111.554Z" fill="black"/>
<path d="M17.12 70.17C16.1907 70.17 15.301 70.0397 14.451 69.779C13.601 69.507 12.9267 69.1613 12.428 68.742L13.193 67.025C13.669 67.399 14.2583 67.7107 14.961 67.96C15.6637 68.2093 16.3833 68.334 17.12 68.334C17.7433 68.334 18.2477 68.266 18.633 68.13C19.0183 67.994 19.3017 67.8127 19.483 67.586C19.6643 67.348 19.755 67.0817 19.755 66.787C19.755 66.4243 19.6247 66.1353 19.364 65.92C19.1033 65.6933 18.7633 65.5177 18.344 65.393C17.936 65.257 17.477 65.1323 16.967 65.019C16.4683 64.9057 15.964 64.7753 15.454 64.628C14.9553 64.4693 14.4963 64.271 14.077 64.033C13.669 63.7837 13.3347 63.455 13.074 63.047C12.8133 62.639 12.683 62.1177 12.683 61.483C12.683 60.837 12.853 60.2477 13.193 59.715C13.5443 59.171 14.0713 58.7403 14.774 58.423C15.488 58.0943 16.389 57.93 17.477 57.93C18.191 57.93 18.8993 58.0207 19.602 58.202C20.3047 58.3833 20.9167 58.644 21.438 58.984L20.741 60.701C20.2083 60.3837 19.6587 60.1513 19.092 60.004C18.5253 59.8453 17.9813 59.766 17.46 59.766C16.848 59.766 16.3493 59.8397 15.964 59.987C15.59 60.1343 15.3123 60.327 15.131 60.565C14.961 60.803 14.876 61.075 14.876 61.381C14.876 61.7437 15.0007 62.0383 15.25 62.265C15.5107 62.4803 15.845 62.6503 16.253 62.775C16.6723 62.8997 17.137 63.0243 17.647 63.149C18.157 63.2623 18.6613 63.3927 19.16 63.54C19.67 63.6873 20.129 63.88 20.537 64.118C20.9563 64.356 21.2907 64.679 21.54 65.087C21.8007 65.495 21.931 66.0107 21.931 66.634C21.931 67.2687 21.7553 67.858 21.404 68.402C21.064 68.9347 20.537 69.3653 19.823 69.694C19.109 70.0113 18.208 70.17 17.12 70.17ZM26.3704 70V59.97H22.4264V58.1H32.5244V59.97H28.5804V70H26.3704ZM36.9409 70V65.291L37.4339 66.651L32.2659 58.1H34.6289L38.7769 64.985H37.4509L41.6329 58.1H43.8089L38.6409 66.651L39.1509 65.291V70H36.9409ZM45.0902 70V58.1H47.3002V68.13H53.5222V70H45.0902ZM57.3069 63.047H63.2229V64.866H57.3069V63.047ZM57.4769 68.147H64.1919V70H55.2669V58.1H63.9539V59.953H57.4769V68.147ZM75.0429 70.17C74.1135 70.17 73.2239 70.0397 72.3739 69.779C71.5239 69.507 70.8495 69.1613 70.3509 68.742L71.1159 67.025C71.5919 67.399 72.1812 67.7107 72.8839 67.96C73.5865 68.2093 74.3062 68.334 75.0429 68.334C75.6662 68.334 76.1705 68.266 76.5559 68.13C76.9412 67.994 77.2245 67.8127 77.4059 67.586C77.5872 67.348 77.6779 67.0817 77.6779 66.787C77.6779 66.4243 77.5475 66.1353 77.2869 65.92C77.0262 65.6933 76.6862 65.5177 76.2669 65.393C75.8589 65.257 75.3999 65.1323 74.8899 65.019C74.3912 64.9057 73.8869 64.7753 73.3769 64.628C72.8782 64.4693 72.4192 64.271 71.9999 64.033C71.5919 63.7837 71.2575 63.455 70.9969 63.047C70.7362 62.639 70.6059 62.1177 70.6059 61.483C70.6059 60.837 70.7759 60.2477 71.1159 59.715C71.4672 59.171 71.9942 58.7403 72.6969 58.423C73.4109 58.0943 74.3119 57.93 75.3999 57.93C76.1139 57.93 76.8222 58.0207 77.5249 58.202C78.2275 58.3833 78.8395 58.644 79.3609 58.984L78.6639 60.701C78.1312 60.3837 77.5815 60.1513 77.0149 60.004C76.4482 59.8453 75.9042 59.766 75.3829 59.766C74.7709 59.766 74.2722 59.8397 73.8869 59.987C73.5129 60.1343 73.2352 60.327 73.0539 60.565C72.8839 60.803 72.7989 61.075 72.7989 61.381C72.7989 61.7437 72.9235 62.0383 73.1729 62.265C73.4335 62.4803 73.7679 62.6503 74.1759 62.775C74.5952 62.8997 75.0599 63.0243 75.5699 63.149C76.0799 63.2623 76.5842 63.3927 77.0829 63.54C77.5929 63.6873 78.0519 63.88 78.4599 64.118C78.8792 64.356 79.2135 64.679 79.4629 65.087C79.7235 65.495 79.8539 66.0107 79.8539 66.634C79.8539 67.2687 79.6782 67.858 79.3269 68.402C78.9869 68.9347 78.4599 69.3653 77.7459 69.694C77.0319 70.0113 76.1309 70.17 75.0429 70.17ZM84.2933 70V59.97H80.3493V58.1H90.4473V59.97H86.5033V70H84.2933ZM97.5158 70.17C96.5865 70.17 95.7308 70.017 94.9488 69.711C94.1668 69.405 93.4868 68.98 92.9088 68.436C92.3308 67.8807 91.8831 67.2347 91.5658 66.498C91.2485 65.75 91.0898 64.934 91.0898 64.05C91.0898 63.166 91.2485 62.3557 91.5658 61.619C91.8831 60.871 92.3308 60.225 92.9088 59.681C93.4868 59.1257 94.1668 58.695 94.9488 58.389C95.7308 58.083 96.5808 57.93 97.4988 57.93C98.4281 57.93 99.2781 58.083 100.049 58.389C100.831 58.695 101.511 59.1257 102.089 59.681C102.667 60.225 103.114 60.871 103.432 61.619C103.749 62.3557 103.908 63.166 103.908 64.05C103.908 64.934 103.749 65.75 103.432 66.498C103.114 67.246 102.667 67.892 102.089 68.436C101.511 68.98 100.831 69.405 100.049 69.711C99.2781 70.017 98.4338 70.17 97.5158 70.17ZM97.4988 68.232C98.0995 68.232 98.6548 68.13 99.1648 67.926C99.6748 67.722 100.117 67.433 100.491 67.059C100.865 66.6737 101.154 66.2317 101.358 65.733C101.573 65.223 101.681 64.662 101.681 64.05C101.681 63.438 101.573 62.8827 101.358 62.384C101.154 61.874 100.865 61.432 100.491 61.058C100.117 60.6727 99.6748 60.378 99.1648 60.174C98.6548 59.97 98.0995 59.868 97.4988 59.868C96.8981 59.868 96.3428 59.97 95.8328 60.174C95.3341 60.378 94.8921 60.6727 94.5068 61.058C94.1328 61.432 93.8381 61.874 93.6228 62.384C93.4188 62.8827 93.3168 63.438 93.3168 64.05C93.3168 64.6507 93.4188 65.206 93.6228 65.716C93.8381 66.226 94.1328 66.6737 94.5068 67.059C94.8808 67.433 95.3228 67.722 95.8328 67.926C96.3428 68.13 96.8981 68.232 97.4988 68.232ZM106.25 70V58.1H111.146C112.2 58.1 113.101 58.27 113.849 58.61C114.609 58.95 115.192 59.4373 115.6 60.072C116.008 60.7067 116.212 61.4603 116.212 62.333C116.212 63.2057 116.008 63.9593 115.6 64.594C115.192 65.2173 114.609 65.699 113.849 66.039C113.101 66.3677 112.2 66.532 111.146 66.532H107.474L108.46 65.529V70H106.25ZM114.036 70L111.027 65.682H113.39L116.416 70H114.036ZM108.46 65.767L107.474 64.713H111.044C112.019 64.713 112.75 64.5033 113.237 64.084C113.736 63.6647 113.985 63.081 113.985 62.333C113.985 61.5737 113.736 60.99 113.237 60.582C112.75 60.174 112.019 59.97 111.044 59.97H107.474L108.46 58.882V65.767ZM120.725 63.047H126.641V64.866H120.725V63.047ZM120.895 68.147H127.61V70H118.685V58.1H127.372V59.953H120.895V68.147ZM133.763 70.17C132.833 70.17 131.944 70.0397 131.094 69.779C130.244 69.507 129.569 69.1613 129.071 68.742L129.836 67.025C130.312 67.399 130.901 67.7107 131.604 67.96C132.306 68.2093 133.026 68.334 133.763 68.334C134.386 68.334 134.89 68.266 135.276 68.13C135.661 67.994 135.944 67.8127 136.126 67.586C136.307 67.348 136.398 67.0817 136.398 66.787C136.398 66.4243 136.267 66.1353 136.007 65.92C135.746 65.6933 135.406 65.5177 134.987 65.393C134.579 65.257 134.12 65.1323 133.61 65.019C133.111 64.9057 132.607 64.7753 132.097 64.628C131.598 64.4693 131.139 64.271 130.72 64.033C130.312 63.7837 129.977 63.455 129.717 63.047C129.456 62.639 129.326 62.1177 129.326 61.483C129.326 60.837 129.496 60.2477 129.836 59.715C130.187 59.171 130.714 58.7403 131.417 58.423C132.131 58.0943 133.032 57.93 134.12 57.93C134.834 57.93 135.542 58.0207 136.245 58.202C136.947 58.3833 137.559 58.644 138.081 58.984L137.384 60.701C136.851 60.3837 136.301 60.1513 135.735 60.004C135.168 59.8453 134.624 59.766 134.103 59.766C133.491 59.766 132.992 59.8397 132.607 59.987C132.233 60.1343 131.955 60.327 131.774 60.565C131.604 60.803 131.519 61.075 131.519 61.381C131.519 61.7437 131.643 62.0383 131.893 62.265C132.153 62.4803 132.488 62.6503 132.896 62.775C133.315 62.8997 133.78 63.0243 134.29 63.149C134.8 63.2623 135.304 63.3927 135.803 63.54C136.313 63.6873 136.772 63.88 137.18 64.118C137.599 64.356 137.933 64.679 138.183 65.087C138.443 65.495 138.574 66.0107 138.574 66.634C138.574 67.2687 138.398 67.858 138.047 68.402C137.707 68.9347 137.18 69.3653 136.466 69.694C135.752 70.0113 134.851 70.17 133.763 70.17Z" fill="#EB4897"/>
</svg>
