<svg width="1249" height="617" viewBox="0 0 1249 617" fill="none" xmlns="http://www.w3.org/2000/svg">
<path fill-rule="evenodd" clip-rule="evenodd" d="M1095.04 64.6868C1073.5 70.3168 1059.78 89.6428 1061.32 112.174C1062.89 135.072 1083.01 153.812 1106.08 153.861C1133.74 153.92 1155.6 128.671 1151.16 101.787C1149.46 91.5028 1145.79 84.4778 1138.11 76.7968C1130.8 69.4798 1123.8 65.6598 1114.6 63.9658C1106.71 62.5128 1102.81 62.6568 1095.04 64.6868ZM1121.56 74.2428C1129.39 77.8128 1137.12 85.4968 1140.72 93.2678C1143.15 98.5348 1143.54 100.609 1143.54 108.373C1143.54 116.416 1143.2 118.088 1140.35 124.098C1136.53 132.164 1130.13 138.701 1122.26 142.565C1117.15 145.074 1115.47 145.373 1106.54 145.373C1097.8 145.373 1095.82 145.037 1090.86 142.713C1069.98 132.925 1062.57 107.283 1075.04 87.9888C1084.97 72.6238 1105.02 66.6998 1121.56 74.2428ZM1094.29 87.5348C1093.35 87.9128 1093.04 92.6588 1093.04 106.456V124.873H1097.54H1102.04V117.373C1102.04 110.098 1102.11 109.873 1104.47 109.873C1107.74 109.873 1109.77 112.116 1111.07 117.168C1111.67 119.481 1112.39 122.16 1112.66 123.123C1113.05 124.445 1114.24 124.873 1117.53 124.873H1121.9L1120.08 118.515C1117.9 110.899 1116.39 107.875 1114.75 107.868C1114.08 107.865 1114.76 106.853 1116.26 105.618C1120.14 102.412 1121.26 98.7228 1119.76 94.1238C1118.01 88.7418 1113.74 86.8548 1103.54 86.9538C1099.14 86.9958 1094.98 87.2578 1094.29 87.5348ZM1110.21 94.5278C1114.15 98.0968 1111.17 103.873 1105.38 103.873H1102.04V98.3728V92.8728H1105.21C1106.95 92.8728 1109.2 93.6178 1110.21 94.5278ZM105.037 151.873C105.037 153.523 105.02 155.196 105 155.591C104.98 155.986 108.418 156.893 112.64 157.606C122.765 159.316 127.432 162.014 130.287 167.807L132.537 172.373V256.373V340.373L130.308 344.895C127.485 350.622 123.644 352.913 113.537 354.896L105.537 356.466V359.919V363.373H142.037H178.537L178.835 359.834L179.133 356.294L170.881 355.091C161.633 353.744 154.582 350.67 151.737 346.747C147.26 340.575 147.069 336.863 147.053 255.423C147.044 212.793 147.418 178.897 147.891 179.423C148.361 179.945 166.474 221.675 188.141 272.155L227.537 363.938L231.867 363.655L236.197 363.373L275.633 268.44C297.323 216.227 315.297 173.28 315.575 173.001C315.853 172.723 315.958 210.943 315.809 257.934C315.556 337.494 315.415 343.596 313.766 346.613C311.397 350.95 305.611 353.719 295.99 355.121L288.037 356.28V360.077V363.873H340.537H393.037V360.077V356.28L385.084 355.121C374.89 353.635 369.867 351.09 367.425 346.173C365.618 342.537 365.537 338.648 365.537 255.873C365.537 170.795 365.57 169.315 367.565 165.873C370.207 161.314 375.523 158.789 385.215 157.491L393.037 156.444V152.658V148.873L353.287 148.88L313.537 148.887L282.018 222.978C264.683 263.729 250.058 296.949 249.518 296.8C248.365 296.484 250.117 300.437 213.556 215.623L184.781 148.873H144.909H105.037V151.873ZM399.037 152.728V156.584L405.287 157.185C418.151 158.422 423.905 161.956 426.056 169.942C426.728 172.441 426.987 202.905 426.809 258.561C426.556 337.521 426.415 343.597 424.766 346.613C422.397 350.95 416.611 353.719 406.99 355.121L399.037 356.28V360.077V363.873H491.97C579.61 363.873 584.932 363.773 585.427 362.123C585.715 361.161 588.478 347.323 591.565 331.373C594.653 315.423 597.421 301.361 597.716 300.123C598.212 298.048 597.914 297.876 593.895 297.906L589.537 297.939L585.315 306.807C571.812 335.17 551.904 349.217 519.944 352.932C505.551 354.606 490.473 353.89 486.03 351.323C479.036 347.282 479.04 347.315 479.039 300.475L479.037 258.577L487.787 259.173C504.135 260.287 513.546 264.951 520.192 275.235C524.472 281.856 528.456 293.301 529.553 302.123L530.267 307.873H534.661H539.055L538.796 254.623L538.537 201.373H534.596H530.655L529.375 208.373C526.448 224.384 519.937 236.443 511.239 241.96C504.999 245.919 498.743 247.672 487.956 248.487L479.037 249.16L479.052 208.766C479.068 165.46 479.075 165.394 484.259 161.545C489.966 157.308 524.187 158.425 539.8 163.359C558.331 169.213 567.891 180.49 573.414 203.007L575.712 212.373H579.124H582.537L582.801 180.623L583.065 148.873H491.051H399.037V152.728ZM605.037 152.661V156.588L611.277 157.24C619.356 158.085 625.928 161.375 628.52 165.873C630.5 169.309 630.537 170.955 630.537 256.373C630.537 342.076 630.507 343.425 628.502 346.838C625.717 351.578 621.765 353.631 612.721 355.037L605.037 356.232V360.128V364.024L665.287 363.607C723.103 363.207 725.94 363.1 735.521 360.963C757.802 355.994 774.051 347.617 788.068 333.873C807.304 315.013 816.494 294.062 818.996 263.371C821.187 236.486 815.484 211.464 803.044 193.383C791.575 176.714 773.511 163.641 752.037 156.469C731.778 149.702 730.949 149.633 664.787 149.16L605.037 148.733V152.661ZM823.037 154.784C823.037 155.298 838.562 189.239 857.537 230.207C876.512 271.176 892.037 305.157 892.037 305.721C892.037 306.542 739.592 553.435 735.728 558.873C730.153 566.717 753.51 539.079 826.056 451.99C907.329 354.423 911.398 349.718 912.548 351.99C913.212 353.3 922.392 372.598 932.949 394.873L952.143 435.373L985.84 433.868C1007.05 432.921 1019.47 431.991 1019.37 431.358C1019.27 430.805 1006.5 400.882 990.99 364.863C975.476 328.843 962.568 298.607 962.306 297.671C961.998 296.572 979.217 271.013 1010.93 225.492C1037.94 186.729 1060.04 154.757 1060.04 154.443C1060.04 154.13 1041.93 153.884 1019.79 153.898L979.537 153.922L955.188 194.398C941.796 216.659 930.51 234.873 930.108 234.873C929.706 234.873 921.987 216.76 912.954 194.623L896.531 154.373L859.784 154.111C837.46 153.951 823.037 154.215 823.037 154.784ZM716.906 161.319C739.372 167.327 754.739 186.969 760.997 217.677C766.831 246.303 765.7 284.8 758.332 308.373C754.5 320.634 748.454 331.445 741.559 338.364C731.08 348.881 720.667 352.873 703.713 352.873C692.099 352.873 687.52 351.008 684.42 345.014C682.627 341.548 682.523 337.392 682.254 258.441C682.061 202.044 682.315 173.851 683.047 170.325C684.267 164.448 687.197 161.085 692.222 159.797C696.59 158.678 710.157 159.514 716.906 161.319ZM664.061 390.409C649.405 394.527 638.833 406.041 634.526 422.576C633.684 425.81 633.037 432.672 633.037 438.373C633.037 455.357 637.429 467.375 646.75 475.894C654.227 482.727 661.063 485.168 673.037 485.28C682.091 485.365 691.428 483.667 692.633 481.718C692.932 481.234 692.628 477.436 691.957 473.278C690.829 466.287 690.579 465.767 688.637 466.375C684.094 467.795 671.25 468.098 667.538 466.873C662.196 465.11 656.663 459.72 653.928 453.615C651.923 449.141 651.579 446.762 651.579 437.373C651.579 428.055 651.93 425.591 653.875 421.255C658.245 411.51 665.984 406.516 676.537 406.631C679.837 406.667 684.382 407.368 686.638 408.188L690.738 409.679L692.463 401.651C693.412 397.236 693.817 393.292 693.363 392.885C689.619 389.534 672.364 388.076 664.061 390.409ZM122.537 390.491C120.887 390.728 118.524 391.144 117.287 391.416L115.037 391.911V437.892V483.873H123.537H132.037V467.512V451.15L140.805 450.65C157.784 449.682 167.291 441.563 170.059 425.665C172.672 410.66 165.989 396.738 154.033 392.282C149.606 390.632 129.512 389.489 122.537 390.491ZM376.037 390.473C374.662 390.715 372.075 391.149 370.287 391.438L367.037 391.964V437.918V483.873H376.037H385.037V465.243V446.613L389.651 447.133C398.67 448.15 400.318 450.874 405.22 472.873L407.559 483.373L416.635 483.658L425.71 483.944L422.388 469.676C418.017 450.9 416.64 447.092 412.774 443.093C409.653 439.863 409.608 439.704 411.537 438.635C415.351 436.52 419.997 430.511 421.638 425.57C424.801 416.045 422.161 403.038 415.872 397.172C410.558 392.215 404.412 390.505 391.037 390.262C384.162 390.136 377.412 390.232 376.037 390.473ZM192.037 437.373V483.873H200.515H208.994L209.265 464.623L209.537 445.373L224.287 445.096L239.037 444.82V464.346V483.873H247.537H256.037V437.373V390.873H247.56H239.083L238.81 408.623L238.537 426.373H224.037H209.537L209.264 408.623L208.991 390.873H200.514H192.037V437.373ZM299.037 392.141C299.037 393.209 278.007 476.924 276.432 482.123C275.955 483.7 276.798 483.873 284.951 483.873C293.504 483.873 294.029 483.75 294.549 481.623C294.851 480.385 296.109 475.098 297.344 469.873L299.589 460.373L310.766 460.091L321.943 459.808L322.932 463.591C323.475 465.671 324.811 470.9 325.899 475.21C326.987 479.52 328.081 483.25 328.33 483.499C328.578 483.748 332.808 483.821 337.729 483.662L346.676 483.373L338.427 451.373C333.889 433.773 328.509 412.96 326.469 405.123L322.762 390.873H310.899C301.988 390.873 299.037 391.188 299.037 392.141ZM449.037 392.151C449.037 395.21 445.045 469.116 444.501 476.123L443.9 483.873H451.883H459.866L460.446 476.623C460.765 472.635 461.468 456.596 462.009 440.979C462.55 425.362 463.182 412.395 463.413 412.163C463.645 411.932 464.369 415.034 465.022 419.058C466.155 426.038 476.008 471.253 478.112 479.123L479.114 482.873H485.517C489.038 482.873 492.166 482.473 492.469 481.983C492.771 481.494 497.009 465.313 501.886 446.025L510.753 410.957L511.405 434.165C511.763 446.929 512.338 463.335 512.682 470.623L513.307 483.873H521.672C527.705 483.873 530.033 483.525 530.022 482.623C530.014 481.936 529.118 462.698 528.031 439.873C526.944 417.048 526.051 396.671 526.046 394.591L526.037 390.81L514.374 391.091L502.711 391.373L498.041 408.873C495.473 418.498 492.059 432.56 490.454 440.123C488.85 447.685 487.281 453.872 486.968 453.873C486.655 453.873 485.641 449.594 484.715 444.365C483.788 439.135 480.701 424.96 477.855 412.865L472.681 390.873H460.859C451.931 390.873 449.037 391.186 449.037 392.151ZM560.03 435.623C553.796 460.236 548.495 481.161 548.25 482.123C547.849 483.693 548.731 483.873 556.835 483.873H565.866L568.619 471.873L571.372 459.873H582.588H593.804L596.722 471.623L599.64 483.373L608.839 483.661C613.898 483.819 618.047 483.594 618.059 483.161C618.072 482.727 612.788 461.786 606.319 436.623L594.555 390.873H582.96H571.365L560.03 435.623ZM710.037 391.637C710.037 392.098 715.437 404.579 722.037 419.373L734.037 446.272V465.072V483.873H742.537H751.037V464.685V445.497L763.537 418.873C770.412 404.23 776.037 391.939 776.037 391.561C776.037 391.183 771.809 390.873 766.641 390.873H757.245L753.28 402.123C751.099 408.311 748.081 417.114 746.572 421.686C745.064 426.259 743.558 429.728 743.226 429.395C742.893 429.062 739.66 420.371 736.041 410.082L729.461 391.373L719.749 391.087C714.407 390.929 710.037 391.177 710.037 391.637ZM399.735 406.977C404.812 408.841 407.381 417.72 404.7 424.137C402.54 429.307 397.938 431.865 390.787 431.869L385.037 431.873V418.936V406L388.287 405.636C391.912 405.231 396.415 405.759 399.735 406.977ZM147.07 407.39C151.033 409.439 153.038 413.703 153.033 420.073C153.027 429.645 147.411 434.873 137.136 434.873H132.037V421.04C132.037 413.431 132.337 406.906 132.704 406.54C133.969 405.275 144.144 405.877 147.07 407.39ZM315.509 427.195C317.449 435.347 319.037 442.66 319.037 443.445C319.037 444.562 317.31 444.873 311.096 444.873C306.728 444.873 302.967 444.536 302.738 444.123C302.509 443.71 303.787 436.848 305.579 428.873C307.37 420.898 309.174 412.573 309.587 410.373L310.339 406.373L311.16 409.373C311.611 411.023 313.568 419.043 315.509 427.195ZM587.614 428.695C589.497 436.572 591.037 443.435 591.037 443.945C591.037 444.455 587.212 444.873 582.537 444.873C577.862 444.873 574.037 444.471 574.037 443.981C574.037 443.49 575.341 437.527 576.934 430.731C578.527 423.934 580.126 416.573 580.487 414.373C581.729 406.808 582.31 405.98 583.294 410.373C583.787 412.573 585.731 420.818 587.614 428.695Z" fill="black"/>
<path d="M896 154.5H823L893.5 304L732 563L912.5 351.5L952 435.5L1019.5 432L962.5 298.5L1060.5 154.5H978.5L930 236L896 154.5Z" fill="#EA1F27"/>
</svg>
