<svg width="48" height="48" viewBox="0 0 48 48" fill="none" xmlns="http://www.w3.org/2000/svg">
<path d="M38.1758 23.9214C38.1967 23.7327 38.2917 23.56 38.44 23.4413C38.5882 23.3226 38.7775 23.2676 38.9663 23.2885C39.155 23.3094 39.3277 23.4044 39.4464 23.5527C39.5651 23.7009 39.6201 23.8902 39.5992 24.0789C39.4896 25.073 39.3174 26.0592 39.0837 27.0316C39.0392 27.2162 38.9233 27.3757 38.7613 27.4748C38.5993 27.574 38.4045 27.6047 38.2199 27.5603C38.0352 27.5159 37.8758 27.3999 37.7766 27.2379C37.6774 27.0759 37.6467 26.8811 37.6911 26.6965C37.911 25.7826 38.0729 24.8557 38.1758 23.9214Z" fill="#588F27"/>
<path d="M33.063 12.6129C37.2499 13.0332 39.7515 17.379 39.7515 21.3376C39.7515 21.5275 39.676 21.7096 39.5418 21.8438C39.4075 21.9781 39.2254 22.0535 39.0355 22.0535C38.8456 22.0535 38.6635 21.9781 38.5292 21.8438C38.395 21.7096 38.3195 21.5275 38.3195 21.3376C38.3195 18.0155 36.2998 14.377 32.9205 14.0348C32.7316 14.0158 32.5579 13.9225 32.4377 13.7755C32.3176 13.6285 32.2607 13.4398 32.2797 13.2508C32.2987 13.0619 32.392 12.8882 32.539 12.7681C32.686 12.6479 32.8748 12.591 33.0637 12.61L33.063 12.6129Z" fill="#588F27"/>
<path d="M4.21716 38.7047L3.56563 38.1448C3.38199 37.9916 3.23985 37.7946 3.15227 37.572C3.06469 37.3494 3.03449 37.1084 3.06446 36.8711C3.09144 36.6391 3.17598 36.4175 3.31039 36.2264C3.44481 36.0354 3.62484 35.8809 3.83412 35.7771L4.62167 35.3748L3.72243 32.8775C3.63139 32.6233 3.61456 32.3484 3.67389 32.085C3.73322 31.8215 3.86627 31.5804 4.0575 31.3897C4.25031 31.1967 4.49398 31.0624 4.76015 31.0024C5.02633 30.9425 5.30405 30.9594 5.56101 31.0511L7.46188 31.732C6.08124 28.4405 5.37521 24.9055 5.3856 21.3363C5.3856 15.3752 9.45153 10.2912 14.6415 9.76278C16.9882 9.45907 19.3724 9.85535 21.4947 10.9019C20.6992 7.70583 18.7998 6.62187 18.7253 6.58034C18.228 6.31637 17.8542 5.86766 17.6845 5.33083C17.5147 4.794 17.5625 4.21196 17.8176 3.71003C18.0727 3.20809 18.5147 2.82639 19.0484 2.6471C19.5821 2.46781 20.1649 2.50526 20.6713 2.7514C22.4469 3.80163 23.8585 5.37014 24.7165 7.24619C25.5386 6.06445 26.5887 5.05909 27.8051 4.28928C29.1517 3.40809 30.6781 2.83897 32.2728 2.62356C33.8676 2.40814 35.4903 2.55187 37.0224 3.04423C37.432 3.17264 37.7843 3.43916 38.0193 3.79834C38.2543 4.15752 38.3574 4.5871 38.3111 5.01383C37.996 6.99254 37.1846 8.85913 35.9527 10.4394C39.8397 12.0911 42.6155 16.4105 42.6155 21.3363C42.6427 26.1941 41.3318 30.9656 38.8266 35.1278C38.5273 35.6289 38.2094 36.1122 37.8851 36.5854L42.4672 37.7023C43.4041 37.9309 44.2247 38.4948 44.774 39.2873C45.3233 40.0799 45.5633 41.0462 45.4485 42.0036C45.3337 42.9611 44.8722 43.8433 44.1511 44.4835C43.43 45.1238 42.4994 45.4777 41.5351 45.4784H34.7463H34.7399H34.7342H26.8758H26.8644H26.8529H19.0067C19.0003 45.4784 18.9953 45.482 18.9888 45.482C18.9824 45.482 18.9774 45.4784 18.9709 45.4784H15.5035C14.5044 45.478 13.5168 45.266 12.6055 44.8563C11.6943 44.4466 10.8802 43.8485 10.2169 43.1014C10.0547 42.9183 9.90173 42.7271 9.75868 42.5286L4.10905 43.14C4.05674 43.1457 4.00415 43.1486 3.95153 43.1486C3.69349 43.1477 3.44049 43.077 3.2193 42.9441C2.99811 42.8112 2.81694 42.621 2.69496 42.3936C2.57297 42.1662 2.5147 41.9101 2.52631 41.6523C2.53791 41.3945 2.61897 41.1447 2.76089 40.9292L4.21716 38.7047ZM20.0241 4.02867C19.9398 3.98668 19.8481 3.96172 19.7542 3.95522C19.6602 3.94873 19.566 3.96082 19.4767 3.99082C19.3875 4.02081 19.305 4.06811 19.2341 4.13001C19.1631 4.19192 19.1051 4.2672 19.0633 4.35157C18.9807 4.52358 18.9695 4.7213 19.0323 4.9015C19.0951 5.08169 19.2267 5.22968 19.3983 5.3131C19.7141 5.48636 22.4147 7.11015 23.1084 11.7023C23.5821 11.8378 24.0807 11.8623 24.5654 11.7739C23.8265 6.17225 20.4136 4.23057 20.0241 4.02867ZM36.8878 4.86634C36.8992 4.76599 36.8748 4.66485 36.8191 4.58066C36.7633 4.49647 36.6796 4.43462 36.5828 4.40598C35.254 3.96969 33.8434 3.84088 32.4576 4.02928C31.0717 4.21767 29.7468 4.71834 28.5827 5.49352C27.2309 6.33127 26.1307 7.51863 25.3981 8.93012C25.6375 9.67832 25.8169 10.4444 25.9343 11.2212C26.3814 10.9524 26.8486 10.7188 27.3319 10.5224C28.6622 8.39064 30.731 6.82343 33.1433 6.11998C33.3282 6.0765 33.5227 6.10823 33.6842 6.20819C33.8456 6.30815 33.9608 6.46816 34.0043 6.65301C34.0477 6.83787 34.016 7.03242 33.916 7.19388C33.8161 7.35534 33.6561 7.47047 33.4712 7.51395C32.0112 7.95832 30.6905 8.77214 29.6373 9.87662C30.8658 9.66856 32.1171 9.63073 33.356 9.76421C33.7396 9.80536 34.1202 9.87185 34.495 9.96325C35.7336 8.50853 36.5598 6.74855 36.8878 4.86634ZM37.6037 34.3925C39.9726 30.4514 41.2111 25.9344 41.1835 21.3363C41.1835 16.7412 38.203 11.6887 33.2128 11.184C30.8965 10.8601 28.5389 11.3335 26.5271 12.5264C25.7705 13.0022 24.8948 13.2547 24.0009 13.2547C23.107 13.2547 22.2313 13.0022 21.4746 12.5264C19.4604 11.3386 17.1042 10.8655 14.7876 11.184C9.79877 11.6952 6.81752 16.7462 6.81752 21.3363C6.80421 25.172 7.66665 28.9602 9.33912 32.4121L10.9622 32.9971C11.1283 32.8539 11.298 32.7221 11.4777 32.5976C12.299 32.0284 13.2316 31.6398 14.2141 31.4574C15.1966 31.275 16.2066 31.3029 17.1774 31.5394L36.3866 36.221C36.8097 35.6361 37.2178 35.0254 37.598 34.3925H37.6037ZM11.288 42.147C11.8169 42.7427 12.4661 43.2196 13.1927 43.5463C13.9193 43.8729 14.7069 44.0419 15.5035 44.0422H18.2729V41.8986C18.2729 41.7087 18.3483 41.5266 18.4826 41.3923C18.6168 41.258 18.7989 41.1826 18.9888 41.1826C19.1787 41.1826 19.3608 41.258 19.4951 41.3923C19.6293 41.5266 19.7048 41.7087 19.7048 41.8986V44.0465H26.1484V41.8986C26.1484 41.7087 26.2238 41.5266 26.3581 41.3923C26.4924 41.258 26.6745 41.1826 26.8644 41.1826C27.0542 41.1826 27.2364 41.258 27.3706 41.3923C27.5049 41.5266 27.5803 41.7087 27.5803 41.8986V44.0465H34.0239V41.8986C34.0239 41.7087 34.0994 41.5266 34.2336 41.3923C34.3679 41.258 34.55 41.1826 34.7399 41.1826C34.9298 41.1826 35.1119 41.258 35.2462 41.3923C35.3804 41.5266 35.4559 41.7087 35.4559 41.8986V44.0465H41.5351C42.1497 44.0471 42.7433 43.8223 43.2033 43.4146C43.6633 43.0069 43.9579 42.4447 44.0312 41.8345C44.1045 41.2242 43.9515 40.6082 43.6011 40.1032C43.2508 39.5982 42.7274 39.2392 42.13 39.0942L31.1601 36.4208V38.3188C31.1601 38.5087 31.0847 38.6908 30.9504 38.825C30.8161 38.9593 30.634 39.0347 30.4442 39.0347C30.2543 39.0347 30.0722 38.9593 29.9379 38.825C29.8036 38.6908 29.7282 38.5087 29.7282 38.3188V36.0721L24.0005 34.676V36.8869C24.0005 37.0768 23.9251 37.2589 23.7908 37.3931C23.6566 37.5274 23.4745 37.6028 23.2846 37.6028C23.0947 37.6028 22.9126 37.5274 22.7783 37.3931C22.644 37.2589 22.5686 37.0768 22.5686 36.8869V34.3273L16.8409 32.9312C15.6742 32.6468 14.4471 32.7426 13.3386 33.2045C12.23 33.6664 11.298 34.4703 10.6784 35.499C10.0588 36.5277 9.78398 37.7275 9.89402 38.9233C10.004 40.1192 10.4932 41.2486 11.2901 42.147H11.288ZM8.99689 41.1633C8.50942 40.0176 8.33405 38.7633 8.4886 37.5279C8.64316 36.2924 9.12213 35.12 9.87681 34.1297L5.06986 32.3992L5.96481 34.8936C6.08364 35.2211 6.07822 35.5807 5.94955 35.9044C5.82089 36.2281 5.57794 36.4934 5.26675 36.6499L4.48922 37.0523L5.15076 37.62C5.41533 37.8465 5.58773 38.1621 5.63536 38.5071C5.68299 38.8521 5.60254 39.2025 5.40923 39.4922L3.95368 41.7096L8.99689 41.1633Z" fill="#588F27"/>
</svg>
