<svg width="21" height="21" viewBox="0 0 21 21" fill="none" xmlns="http://www.w3.org/2000/svg">
<g clip-path="url(#clip0_186_4889)">
<path d="M20.2071 8.67436L11.6414 8.67395C11.2631 8.67395 10.9565 8.9805 10.9565 9.35875V12.0951C10.9565 12.4733 11.2631 12.7799 11.6413 12.7799H16.465C15.9368 14.1507 14.951 15.2987 13.6932 16.0281L15.75 19.5886C19.0494 17.6804 21 14.3324 21 10.5845C21 10.0508 20.9607 9.66932 20.882 9.23976C20.8222 8.9134 20.5389 8.67436 20.2071 8.67436Z" fill="#167EE6"/>
<path d="M10.5 16.8913C8.13938 16.8913 6.07859 15.6015 4.97178 13.6929L1.41138 15.7451C3.22324 18.8853 6.61745 21 10.5 21C12.4046 21 14.2018 20.4872 15.75 19.5935V19.5886L13.6932 16.028C12.7524 16.5737 11.6636 16.8913 10.5 16.8913Z" fill="#12B347"/>
<path d="M15.75 19.5935V19.5886L13.6932 16.028C12.7524 16.5737 11.6637 16.8913 10.5 16.8913V21C12.4046 21 14.2019 20.4872 15.75 19.5935Z" fill="#0F993E"/>
<path d="M4.1087 10.5C4.1087 9.33643 4.42624 8.24783 4.97179 7.30706L1.41139 5.25488C0.512777 6.79818 0 8.59048 0 10.5C0 12.4095 0.512777 14.2018 1.41139 15.7451L4.97179 13.6929C4.42624 12.7522 4.1087 11.6636 4.1087 10.5Z" fill="#FFD500"/>
<path d="M10.5 4.1087C12.0393 4.1087 13.4533 4.65568 14.5577 5.56553C14.8302 5.78997 15.2262 5.77377 15.4758 5.52419L17.4146 3.58538C17.6978 3.30221 17.6776 2.83869 17.3751 2.57627C15.5247 0.970963 13.1171 0 10.5 0C6.61745 0 3.22324 2.11464 1.41138 5.25488L4.97178 7.30706C6.07859 5.39848 8.13937 4.1087 10.5 4.1087Z" fill="#FF4B26"/>
<path d="M14.5578 5.56553C14.8302 5.78997 15.2263 5.77377 15.4758 5.52419L17.4146 3.58538C17.6977 3.30221 17.6776 2.83869 17.3751 2.57627C15.5247 0.970922 13.1171 0 10.5 0V4.1087C12.0393 4.1087 13.4533 4.65568 14.5578 5.56553Z" fill="#D93F21"/>
</g>
<defs>
<clipPath id="clip0_186_4889">
<rect width="21" height="21" fill="white"/>
</clipPath>
</defs>
</svg>
