<svg width="24" height="24" viewBox="0 0 24 24" fill="none" xmlns="http://www.w3.org/2000/svg">
<path d="M18.4694 2.76923H5.53071C4.79856 2.76998 4.09662 3.06115 3.57892 3.57886C3.06121 4.09656 2.77004 4.7985 2.76929 5.53065V18.4693C2.77004 19.2015 3.06121 19.9034 3.57892 20.4211C4.09662 20.9388 4.79856 21.23 5.53071 21.2308H18.4694C19.2015 21.23 19.9035 20.9388 20.4212 20.4211C20.9389 19.9034 21.2301 19.2015 21.2308 18.4693V5.53065C21.2301 4.7985 20.9389 4.09656 20.4212 3.57886C19.9035 3.06115 19.2015 2.76998 18.4694 2.76923ZM19.8107 5.53065V11.2899H12.7101V4.18934H18.4694C18.825 4.18991 19.1658 4.3314 19.4172 4.58282C19.6686 4.83425 19.8101 5.17508 19.8107 5.53065ZM4.18941 5.53065C4.18997 5.17508 4.33147 4.83425 4.58289 4.58282C4.83431 4.3314 5.17514 4.18991 5.53071 4.18934H11.29V11.2899H4.18941V5.53065ZM5.53071 19.8106C5.17514 19.8101 4.83431 19.6686 4.58289 19.4172C4.33147 19.1657 4.18997 18.8249 4.18941 18.4693V12.7101H11.29V19.8106H5.53071ZM18.4694 19.8106H12.7101V12.7101H19.8107V18.4693C19.8101 18.8249 19.6686 19.1657 19.4172 19.4172C19.1658 19.6686 18.825 19.8101 18.4694 19.8106Z" fill="black"/>
</svg>
