<svg width="153" height="44" viewBox="0 0 153 44" fill="none" xmlns="http://www.w3.org/2000/svg">
<rect width="153" height="44" rx="5" fill="black"/>
<g clip-path="url(#clip0_925_306)">
<path d="M29.535 21.5025L15.9763 34.5586C15.3413 34.1247 14.9644 33.4029 14.971 32.6339V10.371C14.9644 9.60198 15.3413 8.88021 15.9763 8.44629L29.535 21.5025Z" fill="#2196F3"/>
<path d="M34.2793 16.9419L29.535 21.5024L15.9762 8.44622C16.0273 8.40662 16.0805 8.36979 16.1355 8.33588C16.8521 7.90156 17.7472 7.88754 18.4771 8.29911L34.2793 16.9419Z" fill="#4CAF50"/>
<path d="M40.029 21.5028C40.0378 22.371 39.5661 23.1729 38.8031 23.5869L34.2794 26.0633L29.535 21.5028L34.2794 16.9424L38.8031 19.4187C39.5661 19.8328 40.0378 20.6347 40.029 21.5028Z" fill="#FFC107"/>
<path d="M34.2793 26.0624L18.4771 34.7052C17.7456 35.1104 16.8539 35.0964 16.1355 34.6685C16.0805 34.6345 16.0273 34.5977 15.9762 34.5581L29.535 21.502L34.2793 26.0624Z" fill="#F44336"/>
</g>
<path d="M54.7209 12.0249C54.6522 11.8094 54.5599 11.6165 54.4439 11.446C54.3303 11.2732 54.1941 11.1264 54.0355 11.0057C53.8769 10.8826 53.6958 10.7891 53.4922 10.7251C53.291 10.6612 53.0696 10.6293 52.8281 10.6293C52.4186 10.6293 52.0492 10.7346 51.7202 10.9453C51.3911 11.156 51.1307 11.465 50.9389 11.8722C50.7495 12.277 50.6548 12.773 50.6548 13.3601C50.6548 13.9496 50.7507 14.4479 50.9425 14.8551C51.1342 15.2623 51.397 15.5713 51.7308 15.782C52.0646 15.9927 52.4446 16.098 52.8707 16.098C53.2661 16.098 53.6106 16.0175 53.9041 15.8565C54.2 15.6955 54.4285 15.4683 54.5895 15.1747C54.7528 14.8788 54.8345 14.5308 54.8345 14.1307L55.1186 14.1839H53.0376V13.2784H55.8963V14.1058C55.8963 14.7166 55.7661 15.2469 55.5057 15.6967C55.2476 16.1442 54.8902 16.4898 54.4332 16.7337C53.9787 16.9775 53.4579 17.0994 52.8707 17.0994C52.2126 17.0994 51.6349 16.9479 51.1378 16.6449C50.643 16.3419 50.2571 15.9122 49.9801 15.3558C49.7031 14.7971 49.5646 14.1342 49.5646 13.3672C49.5646 12.7872 49.6451 12.2663 49.8061 11.8047C49.9671 11.343 50.1932 10.9512 50.4844 10.6293C50.7779 10.3049 51.1224 10.0575 51.5178 9.88707C51.9155 9.71425 52.3499 9.62784 52.821 9.62784C53.214 9.62784 53.5798 9.68584 53.9183 9.80185C54.2592 9.91785 54.5623 10.0824 54.8274 10.2955C55.0949 10.5085 55.3163 10.7618 55.4915 11.0554C55.6667 11.3466 55.785 11.6697 55.8466 12.0249H54.7209ZM57.2892 17V9.72727H61.8489V10.6719H58.3865V12.8878H61.611V13.8288H58.3865V16.0554H61.8915V17H57.2892ZM62.956 10.6719V9.72727H68.5845V10.6719H66.3153V17H65.2216V10.6719H62.956ZM73.5721 9.72727V17H72.4748V9.72727H73.5721ZM74.8114 10.6719V9.72727H80.44V10.6719H78.1708V17H77.0771V10.6719H74.8114ZM90.6477 13.3636C90.6477 14.1402 90.5057 14.8078 90.2216 15.3665C89.9375 15.9228 89.5481 16.3513 89.0533 16.652C88.5608 16.9503 88.0009 17.0994 87.3736 17.0994C86.7438 17.0994 86.1816 16.9503 85.6868 16.652C85.1944 16.3513 84.8061 15.9216 84.522 15.3629C84.2379 14.8042 84.0959 14.1378 84.0959 13.3636C84.0959 12.5871 84.2379 11.9207 84.522 11.3643C84.8061 10.8056 85.1944 10.3771 85.6868 10.0788C86.1816 9.77817 86.7438 9.62784 87.3736 9.62784C88.0009 9.62784 88.5608 9.77817 89.0533 10.0788C89.5481 10.3771 89.9375 10.8056 90.2216 11.3643C90.5057 11.9207 90.6477 12.5871 90.6477 13.3636ZM89.5611 13.3636C89.5611 12.7718 89.4652 12.2734 89.2734 11.8686C89.084 11.4614 88.8236 11.1536 88.4922 10.9453C88.1631 10.7346 87.7902 10.6293 87.3736 10.6293C86.9545 10.6293 86.5805 10.7346 86.2514 10.9453C85.9223 11.1536 85.6619 11.4614 85.4702 11.8686C85.2808 12.2734 85.1861 12.7718 85.1861 13.3636C85.1861 13.9555 85.2808 14.455 85.4702 14.8622C85.6619 15.267 85.9223 15.5748 86.2514 15.7855C86.5805 15.9938 86.9545 16.098 87.3736 16.098C87.7902 16.098 88.1631 15.9938 88.4922 15.7855C88.8236 15.5748 89.084 15.267 89.2734 14.8622C89.4652 14.455 89.5611 13.9555 89.5611 13.3636ZM97.8858 9.72727V17H96.8773L93.1806 11.6662H93.1131V17H92.0158V9.72727H93.0314L96.7317 15.0682H96.7992V9.72727H97.8858Z" fill="white"/>
<path d="M57.3842 27.5746C57.2955 27.2869 57.1729 27.0295 57.0167 26.8022C56.864 26.5714 56.6793 26.3743 56.4627 26.2109C56.2496 26.0476 56.0046 25.9251 55.7276 25.8434C55.4506 25.7582 55.1488 25.7156 54.8221 25.7156C54.2362 25.7156 53.7141 25.8629 53.256 26.1577C52.7979 26.4524 52.4375 26.8857 52.1747 27.4574C51.9155 28.0256 51.7859 28.718 51.7859 29.5348C51.7859 30.3587 51.9155 31.0565 52.1747 31.6282C52.4339 32.1999 52.7944 32.6349 53.256 32.9332C53.7177 33.228 54.2539 33.3754 54.8647 33.3754C55.4187 33.3754 55.8981 33.2688 56.3029 33.0558C56.7113 32.8427 57.0256 32.5408 57.2457 32.1502C57.4659 31.756 57.576 31.2944 57.576 30.7653L58.0234 30.8345H55.0618V29.2898H59.4883V30.6001C59.4883 31.5341 59.2894 32.342 58.8917 33.0238C58.494 33.7056 57.9471 34.2312 57.2511 34.6005C56.555 34.9663 55.756 35.1491 54.854 35.1491C53.8491 35.1491 52.9666 34.9237 52.2067 34.4727C51.4503 34.0181 50.859 33.3736 50.4329 32.5391C50.0103 31.701 49.799 30.7067 49.799 29.5561C49.799 28.6754 49.9233 27.8888 50.1719 27.1964C50.424 26.5039 50.7756 25.9162 51.2266 25.4332C51.6776 24.9467 52.2067 24.5774 52.8139 24.3253C53.4212 24.0696 54.0817 23.9418 54.7955 23.9418C55.3991 23.9418 55.962 24.0305 56.484 24.2081C57.006 24.3821 57.4695 24.6307 57.8743 24.9538C58.2827 25.277 58.6183 25.6605 58.881 26.1044C59.1438 26.5483 59.3161 27.0384 59.3977 27.5746H57.3842ZM64.8829 35.1598C64.0839 35.1598 63.3914 34.984 62.8055 34.6325C62.2195 34.2809 61.765 33.7891 61.4419 33.157C61.1222 32.5249 60.9624 31.7862 60.9624 30.9411C60.9624 30.0959 61.1222 29.3555 61.4419 28.7198C61.765 28.0842 62.2195 27.5906 62.8055 27.239C63.3914 26.8874 64.0839 26.7116 64.8829 26.7116C65.6819 26.7116 66.3744 26.8874 66.9603 27.239C67.5463 27.5906 67.999 28.0842 68.3186 28.7198C68.6418 29.3555 68.8034 30.0959 68.8034 30.9411C68.8034 31.7862 68.6418 32.5249 68.3186 33.157C67.999 33.7891 67.5463 34.2809 66.9603 34.6325C66.3744 34.984 65.6819 35.1598 64.8829 35.1598ZM64.8936 33.6151C65.3268 33.6151 65.689 33.4961 65.9802 33.2582C66.2714 33.0167 66.488 32.6935 66.6301 32.2887C66.7757 31.8839 66.8485 31.4329 66.8485 30.9357C66.8485 30.435 66.7757 29.9822 66.6301 29.5774C66.488 29.169 66.2714 28.8441 65.9802 28.6026C65.689 28.3612 65.3268 28.2404 64.8936 28.2404C64.4497 28.2404 64.0803 28.3612 63.7856 28.6026C63.4944 28.8441 63.276 29.169 63.1304 29.5774C62.9884 29.9822 62.9173 30.435 62.9173 30.9357C62.9173 31.4329 62.9884 31.8839 63.1304 32.2887C63.276 32.6935 63.4944 33.0167 63.7856 33.2582C64.0803 33.4961 64.4497 33.6151 64.8936 33.6151ZM74.0089 35.1598C73.2099 35.1598 72.5174 34.984 71.9315 34.6325C71.3455 34.2809 70.891 33.7891 70.5678 33.157C70.2482 32.5249 70.0884 31.7862 70.0884 30.9411C70.0884 30.0959 70.2482 29.3555 70.5678 28.7198C70.891 28.0842 71.3455 27.5906 71.9315 27.239C72.5174 26.8874 73.2099 26.7116 74.0089 26.7116C74.8079 26.7116 75.5004 26.8874 76.0863 27.239C76.6722 27.5906 77.125 28.0842 77.4446 28.7198C77.7678 29.3555 77.9293 30.0959 77.9293 30.9411C77.9293 31.7862 77.7678 32.5249 77.4446 33.157C77.125 33.7891 76.6722 34.2809 76.0863 34.6325C75.5004 34.984 74.8079 35.1598 74.0089 35.1598ZM74.0195 33.6151C74.4528 33.6151 74.815 33.4961 75.1062 33.2582C75.3974 33.0167 75.614 32.6935 75.756 32.2887C75.9016 31.8839 75.9744 31.4329 75.9744 30.9357C75.9744 30.435 75.9016 29.9822 75.756 29.5774C75.614 29.169 75.3974 28.8441 75.1062 28.6026C74.815 28.3612 74.4528 28.2404 74.0195 28.2404C73.5756 28.2404 73.2063 28.3612 72.9116 28.6026C72.6204 28.8441 72.402 29.169 72.2564 29.5774C72.1143 29.9822 72.0433 30.435 72.0433 30.9357C72.0433 31.4329 72.1143 31.8839 72.2564 32.2887C72.402 32.6935 72.6204 33.0167 72.9116 33.2582C73.2063 33.4961 73.5756 33.6151 74.0195 33.6151ZM83.1242 38.2386C82.4317 38.2386 81.8369 38.1445 81.3398 37.9563C80.8426 37.7717 80.4431 37.5231 80.1412 37.2106C79.8394 36.8981 79.6299 36.5518 79.5127 36.1719L81.2492 35.7511C81.3273 35.9109 81.441 36.0689 81.5901 36.2251C81.7393 36.3849 81.9399 36.5163 82.192 36.6193C82.4477 36.7259 82.7691 36.7791 83.1562 36.7791C83.703 36.7791 84.1558 36.646 84.5145 36.3796C84.8731 36.1168 85.0525 35.6836 85.0525 35.0799V33.5298H84.9566C84.8572 33.7287 84.7116 33.9329 84.5198 34.1424C84.3316 34.3519 84.0812 34.5277 83.7687 34.6697C83.4598 34.8118 83.0709 34.8828 82.6022 34.8828C81.9736 34.8828 81.4037 34.7354 80.8923 34.4407C80.3845 34.1424 79.9797 33.6985 79.6778 33.109C79.3795 32.516 79.2304 31.7738 79.2304 30.8825C79.2304 29.984 79.3795 29.2259 79.6778 28.608C79.9797 27.9865 80.3863 27.516 80.8976 27.1964C81.409 26.8732 81.979 26.7116 82.6075 26.7116C83.0869 26.7116 83.4811 26.7933 83.79 26.9567C84.1025 27.1165 84.3511 27.31 84.5358 27.5373C84.7204 27.761 84.8607 27.9723 84.9566 28.1712H85.0631V26.8182H86.9648V35.1332C86.9648 35.8327 86.7979 36.4116 86.464 36.8697C86.1302 37.3278 85.6739 37.6705 85.0951 37.8977C84.5162 38.125 83.8593 38.2386 83.1242 38.2386ZM83.1402 33.37C83.5486 33.37 83.8966 33.2706 84.1842 33.0717C84.4719 32.8729 84.6903 32.587 84.8394 32.2141C84.9885 31.8413 85.0631 31.3938 85.0631 30.8718C85.0631 30.3569 84.9885 29.9059 84.8394 29.5188C84.6938 29.1317 84.4772 28.8317 84.1895 28.6186C83.9055 28.402 83.5557 28.2937 83.1402 28.2937C82.7105 28.2937 82.3518 28.4055 82.0642 28.6293C81.7765 28.853 81.5599 29.1602 81.4143 29.5508C81.2687 29.9379 81.1959 30.3782 81.1959 30.8718C81.1959 31.3725 81.2687 31.8111 81.4143 32.1875C81.5635 32.5604 81.7819 32.8516 82.0695 33.0611C82.3607 33.267 82.7176 33.37 83.1402 33.37ZM90.8692 24.0909V35H88.941V24.0909H90.8692ZM96.4743 35.1598C95.6539 35.1598 94.9455 34.9893 94.3489 34.6484C93.7559 34.304 93.2995 33.8175 92.9799 33.1889C92.6603 32.5568 92.5005 31.8129 92.5005 30.957C92.5005 30.1154 92.6603 29.3768 92.9799 28.7411C93.3031 28.1019 93.7541 27.6048 94.3329 27.2496C94.9118 26.891 95.5918 26.7116 96.373 26.7116C96.8773 26.7116 97.3532 26.7933 97.8006 26.9567C98.2516 27.1165 98.6493 27.3651 98.9938 27.7024C99.3418 28.0398 99.6152 28.4695 99.8141 28.9915C100.013 29.5099 100.112 30.1278 100.112 30.8452V31.4364H93.4061V30.1367H98.264C98.2605 29.7674 98.1806 29.4389 98.0243 29.1513C97.8681 28.8601 97.6497 28.631 97.3691 28.4641C97.0922 28.2972 96.769 28.2138 96.3997 28.2138C96.0055 28.2138 95.6593 28.3097 95.361 28.5014C95.0627 28.6896 94.8301 28.9382 94.6632 29.2472C94.4998 29.5526 94.4164 29.8881 94.4128 30.2539V31.3885C94.4128 31.8643 94.4998 32.2727 94.6738 32.6136C94.8478 32.951 95.0911 33.2102 95.4036 33.3913C95.7161 33.5689 96.0819 33.6577 96.5009 33.6577C96.7814 33.6577 97.0353 33.6186 97.2626 33.5405C97.4899 33.4588 97.687 33.3398 97.8539 33.1836C98.0208 33.0273 98.1468 32.8338 98.2321 32.603L100.032 32.8054C99.9189 33.2812 99.7022 33.6967 99.3826 34.0518C99.0666 34.4034 98.6618 34.6768 98.1681 34.8722C97.6745 35.0639 97.1099 35.1598 96.4743 35.1598ZM105.55 35V24.0909H109.641C110.479 24.0909 111.182 24.2472 111.75 24.5597C112.322 24.8722 112.753 25.3018 113.044 25.8487C113.339 26.392 113.486 27.0099 113.486 27.7024C113.486 28.402 113.339 29.0234 113.044 29.5668C112.75 30.1101 112.315 30.538 111.739 30.8505C111.164 31.1594 110.456 31.3139 109.614 31.3139H106.903V29.6893H109.348C109.838 29.6893 110.239 29.604 110.551 29.4336C110.864 29.2631 111.095 29.0288 111.244 28.7305C111.397 28.4322 111.473 28.0895 111.473 27.7024C111.473 27.3153 111.397 26.9744 111.244 26.6797C111.095 26.3849 110.862 26.1559 110.546 25.9925C110.234 25.8256 109.831 25.7422 109.337 25.7422H107.526V35H105.55ZM117.046 24.0909V35H115.118V24.0909H117.046ZM121.383 35.1651C120.865 35.1651 120.398 35.0728 119.982 34.8881C119.57 34.6999 119.244 34.4229 119.002 34.0572C118.764 33.6914 118.645 33.2404 118.645 32.7042C118.645 32.2425 118.731 31.8608 118.901 31.5589C119.071 31.2571 119.304 31.0156 119.599 30.8345C119.894 30.6534 120.226 30.5167 120.595 30.4244C120.968 30.3285 121.353 30.2592 121.751 30.2166C122.23 30.1669 122.619 30.1225 122.917 30.0835C123.216 30.0408 123.432 29.9769 123.567 29.8917C123.706 29.8029 123.775 29.6662 123.775 29.4815V29.4496C123.775 29.0483 123.656 28.7376 123.418 28.5174C123.18 28.2972 122.837 28.1871 122.39 28.1871C121.918 28.1871 121.543 28.2901 121.266 28.4961C120.993 28.7021 120.808 28.9453 120.712 29.2259L118.912 28.9702C119.054 28.473 119.288 28.0575 119.615 27.7237C119.941 27.3864 120.341 27.1342 120.813 26.9673C121.286 26.7969 121.808 26.7116 122.379 26.7116C122.774 26.7116 123.166 26.7578 123.557 26.8501C123.947 26.9425 124.304 27.0952 124.627 27.3082C124.95 27.5178 125.21 27.8036 125.405 28.1658C125.604 28.5281 125.703 28.9808 125.703 29.5241V35H123.85V33.8761H123.786C123.668 34.1033 123.503 34.3164 123.29 34.5153C123.081 34.7106 122.816 34.8686 122.497 34.9893C122.18 35.1065 121.809 35.1651 121.383 35.1651ZM121.884 33.7482C122.271 33.7482 122.607 33.6719 122.891 33.5192C123.175 33.3629 123.393 33.157 123.546 32.9013C123.702 32.6456 123.78 32.3668 123.78 32.065V31.1009C123.72 31.1506 123.617 31.1967 123.471 31.2393C123.329 31.282 123.169 31.3192 122.992 31.3512C122.814 31.3832 122.639 31.4116 122.465 31.4364C122.291 31.4613 122.14 31.4826 122.012 31.5004C121.724 31.5394 121.467 31.6033 121.239 31.6921C121.012 31.7809 120.833 31.9052 120.701 32.065C120.57 32.2212 120.504 32.4237 120.504 32.6722C120.504 33.0273 120.634 33.2955 120.893 33.4766C121.152 33.6577 121.483 33.7482 121.884 33.7482ZM128.548 38.0682C128.285 38.0682 128.042 38.0469 127.818 38.0043C127.598 37.9652 127.422 37.919 127.291 37.8658L127.738 36.3636C128.019 36.4453 128.269 36.4844 128.489 36.4808C128.709 36.4773 128.903 36.408 129.07 36.2731C129.24 36.1417 129.384 35.9215 129.501 35.6126L129.666 35.1705L126.699 26.8182H128.745L130.63 32.9972H130.716L132.607 26.8182H134.657L131.381 35.9908C131.229 36.424 131.026 36.7951 130.774 37.104C130.522 37.4165 130.213 37.6545 129.847 37.8178C129.485 37.9847 129.052 38.0682 128.548 38.0682Z" fill="white"/>
<defs>
<clipPath id="clip0_925_306">
<rect width="27" height="27" fill="white" transform="translate(14 8)"/>
</clipPath>
</defs>
</svg>
