<svg width="147" height="66" viewBox="0 0 147 66" fill="none" xmlns="http://www.w3.org/2000/svg">
<path d="M20.9809 39.48C18.7409 39.48 16.5943 39.1867 14.5409 38.6C12.4876 37.9867 10.8343 37.2 9.58094 36.24L11.7809 31.36C12.9809 32.2133 14.3943 32.92 16.0209 33.48C17.6743 34.0133 19.3409 34.28 21.0209 34.28C22.3009 34.28 23.3276 34.16 24.1009 33.92C24.9009 33.6533 25.4876 33.2933 25.8609 32.84C26.2343 32.3867 26.4209 31.8667 26.4209 31.28C26.4209 30.5333 26.1276 29.9467 25.5409 29.52C24.9543 29.0667 24.1809 28.7067 23.2209 28.44C22.2609 28.1467 21.1943 27.88 20.0209 27.64C18.8743 27.3733 17.7143 27.0533 16.5409 26.68C15.3943 26.3067 14.3409 25.8267 13.3809 25.24C12.4209 24.6533 11.6343 23.88 11.0209 22.92C10.4343 21.96 10.1409 20.7333 10.1409 19.24C10.1409 17.64 10.5676 16.1867 11.4209 14.88C12.3009 13.5467 13.6076 12.4933 15.3409 11.72C17.1009 10.92 19.3009 10.52 21.9409 10.52C23.7009 10.52 25.4343 10.7333 27.1409 11.16C28.8476 11.56 30.3543 12.1733 31.6609 13L29.6609 17.92C28.3543 17.1733 27.0476 16.6267 25.7409 16.28C24.4343 15.9067 23.1543 15.72 21.9009 15.72C20.6476 15.72 19.6209 15.8667 18.8209 16.16C18.0209 16.4533 17.4476 16.84 17.1009 17.32C16.7543 17.7733 16.5809 18.3067 16.5809 18.92C16.5809 19.64 16.8743 20.2267 17.4609 20.68C18.0476 21.1067 18.8209 21.4533 19.7809 21.72C20.7409 21.9867 21.7943 22.2533 22.9409 22.52C24.1143 22.7867 25.2743 23.0933 26.4209 23.44C27.5943 23.7867 28.6609 24.2533 29.6209 24.84C30.5809 25.4267 31.3543 26.2 31.9409 27.16C32.5543 28.12 32.8609 29.3333 32.8609 30.8C32.8609 32.3733 32.4209 33.8133 31.5409 35.12C30.6609 36.4267 29.3409 37.48 27.5809 38.28C25.8476 39.08 23.6476 39.48 20.9809 39.48ZM56.4888 11H62.9688V39H56.4888V11ZM43.7688 39H37.2888V11H43.7688V39ZM56.9688 27.52H43.2888V22.04H56.9688V27.52ZM75.5534 22.28H89.0334V27.32H75.5534V22.28ZM76.0334 33.8H91.2734V39H69.5934V11H90.7534V16.2H76.0334V33.8ZM96.4294 39V11H102.909V39H96.4294ZM109.554 39V11H114.914L131.434 31.16H128.834V11H135.234V39H129.914L113.354 18.84H115.954V39H109.554Z" fill="black"/>
<path d="M15.12 61.17C14.1907 61.17 13.301 61.0397 12.451 60.779C11.601 60.507 10.9267 60.1613 10.428 59.742L11.193 58.025C11.669 58.399 12.2583 58.7107 12.961 58.96C13.6637 59.2093 14.3833 59.334 15.12 59.334C15.7433 59.334 16.2477 59.266 16.633 59.13C17.0183 58.994 17.3017 58.8127 17.483 58.586C17.6643 58.348 17.755 58.0817 17.755 57.787C17.755 57.4243 17.6247 57.1353 17.364 56.92C17.1033 56.6933 16.7633 56.5177 16.344 56.393C15.936 56.257 15.477 56.1323 14.967 56.019C14.4683 55.9057 13.964 55.7753 13.454 55.628C12.9553 55.4693 12.4963 55.271 12.077 55.033C11.669 54.7837 11.3347 54.455 11.074 54.047C10.8133 53.639 10.683 53.1177 10.683 52.483C10.683 51.837 10.853 51.2477 11.193 50.715C11.5443 50.171 12.0713 49.7403 12.774 49.423C13.488 49.0943 14.389 48.93 15.477 48.93C16.191 48.93 16.8993 49.0207 17.602 49.202C18.3047 49.3833 18.9167 49.644 19.438 49.984L18.741 51.701C18.2083 51.3837 17.6587 51.1513 17.092 51.004C16.5253 50.8453 15.9813 50.766 15.46 50.766C14.848 50.766 14.3493 50.8397 13.964 50.987C13.59 51.1343 13.3123 51.327 13.131 51.565C12.961 51.803 12.876 52.075 12.876 52.381C12.876 52.7437 13.0007 53.0383 13.25 53.265C13.5107 53.4803 13.845 53.6503 14.253 53.775C14.6723 53.8997 15.137 54.0243 15.647 54.149C16.157 54.2623 16.6613 54.3927 17.16 54.54C17.67 54.6873 18.129 54.88 18.537 55.118C18.9563 55.356 19.2907 55.679 19.54 56.087C19.8007 56.495 19.931 57.0107 19.931 57.634C19.931 58.2687 19.7553 58.858 19.404 59.402C19.064 59.9347 18.537 60.3653 17.823 60.694C17.109 61.0113 16.208 61.17 15.12 61.17ZM24.3704 61V50.97H20.4264V49.1H30.5244V50.97H26.5804V61H24.3704ZM34.9409 61V56.291L35.4339 57.651L30.2659 49.1H32.6289L36.7769 55.985H35.4509L39.6329 49.1H41.8089L36.6409 57.651L37.1509 56.291V61H34.9409ZM43.0902 61V49.1H45.3002V59.13H51.5222V61H43.0902ZM55.3069 54.047H61.2229V55.866H55.3069V54.047ZM55.4769 59.147H62.1919V61H53.2669V49.1H61.9539V50.953H55.4769V59.147ZM73.0429 61.17C72.1135 61.17 71.2239 61.0397 70.3739 60.779C69.5239 60.507 68.8495 60.1613 68.3509 59.742L69.1159 58.025C69.5919 58.399 70.1812 58.7107 70.8839 58.96C71.5865 59.2093 72.3062 59.334 73.0429 59.334C73.6662 59.334 74.1705 59.266 74.5559 59.13C74.9412 58.994 75.2245 58.8127 75.4059 58.586C75.5872 58.348 75.6779 58.0817 75.6779 57.787C75.6779 57.4243 75.5475 57.1353 75.2869 56.92C75.0262 56.6933 74.6862 56.5177 74.2669 56.393C73.8589 56.257 73.3999 56.1323 72.8899 56.019C72.3912 55.9057 71.8869 55.7753 71.3769 55.628C70.8782 55.4693 70.4192 55.271 69.9999 55.033C69.5919 54.7837 69.2575 54.455 68.9969 54.047C68.7362 53.639 68.6059 53.1177 68.6059 52.483C68.6059 51.837 68.7759 51.2477 69.1159 50.715C69.4672 50.171 69.9942 49.7403 70.6969 49.423C71.4109 49.0943 72.3119 48.93 73.3999 48.93C74.1139 48.93 74.8222 49.0207 75.5249 49.202C76.2275 49.3833 76.8395 49.644 77.3609 49.984L76.6639 51.701C76.1312 51.3837 75.5815 51.1513 75.0149 51.004C74.4482 50.8453 73.9042 50.766 73.3829 50.766C72.7709 50.766 72.2722 50.8397 71.8869 50.987C71.5129 51.1343 71.2352 51.327 71.0539 51.565C70.8839 51.803 70.7989 52.075 70.7989 52.381C70.7989 52.7437 70.9235 53.0383 71.1729 53.265C71.4335 53.4803 71.7679 53.6503 72.1759 53.775C72.5952 53.8997 73.0599 54.0243 73.5699 54.149C74.0799 54.2623 74.5842 54.3927 75.0829 54.54C75.5929 54.6873 76.0519 54.88 76.4599 55.118C76.8792 55.356 77.2135 55.679 77.4629 56.087C77.7235 56.495 77.8539 57.0107 77.8539 57.634C77.8539 58.2687 77.6782 58.858 77.3269 59.402C76.9869 59.9347 76.4599 60.3653 75.7459 60.694C75.0319 61.0113 74.1309 61.17 73.0429 61.17ZM82.2933 61V50.97H78.3493V49.1H88.4473V50.97H84.5033V61H82.2933ZM95.5158 61.17C94.5865 61.17 93.7308 61.017 92.9488 60.711C92.1668 60.405 91.4868 59.98 90.9088 59.436C90.3308 58.8807 89.8831 58.2347 89.5658 57.498C89.2485 56.75 89.0898 55.934 89.0898 55.05C89.0898 54.166 89.2485 53.3557 89.5658 52.619C89.8831 51.871 90.3308 51.225 90.9088 50.681C91.4868 50.1257 92.1668 49.695 92.9488 49.389C93.7308 49.083 94.5808 48.93 95.4988 48.93C96.4281 48.93 97.2781 49.083 98.0488 49.389C98.8308 49.695 99.5108 50.1257 100.089 50.681C100.667 51.225 101.114 51.871 101.432 52.619C101.749 53.3557 101.908 54.166 101.908 55.05C101.908 55.934 101.749 56.75 101.432 57.498C101.114 58.246 100.667 58.892 100.089 59.436C99.5108 59.98 98.8308 60.405 98.0488 60.711C97.2781 61.017 96.4338 61.17 95.5158 61.17ZM95.4988 59.232C96.0995 59.232 96.6548 59.13 97.1648 58.926C97.6748 58.722 98.1168 58.433 98.4908 58.059C98.8648 57.6737 99.1538 57.2317 99.3578 56.733C99.5731 56.223 99.6808 55.662 99.6808 55.05C99.6808 54.438 99.5731 53.8827 99.3578 53.384C99.1538 52.874 98.8648 52.432 98.4908 52.058C98.1168 51.6727 97.6748 51.378 97.1648 51.174C96.6548 50.97 96.0995 50.868 95.4988 50.868C94.8981 50.868 94.3428 50.97 93.8328 51.174C93.3341 51.378 92.8921 51.6727 92.5068 52.058C92.1328 52.432 91.8381 52.874 91.6228 53.384C91.4188 53.8827 91.3168 54.438 91.3168 55.05C91.3168 55.6507 91.4188 56.206 91.6228 56.716C91.8381 57.226 92.1328 57.6737 92.5068 58.059C92.8808 58.433 93.3228 58.722 93.8328 58.926C94.3428 59.13 94.8981 59.232 95.4988 59.232ZM104.25 61V49.1H109.146C110.2 49.1 111.101 49.27 111.849 49.61C112.609 49.95 113.192 50.4373 113.6 51.072C114.008 51.7067 114.212 52.4603 114.212 53.333C114.212 54.2057 114.008 54.9593 113.6 55.594C113.192 56.2173 112.609 56.699 111.849 57.039C111.101 57.3677 110.2 57.532 109.146 57.532H105.474L106.46 56.529V61H104.25ZM112.036 61L109.027 56.682H111.39L114.416 61H112.036ZM106.46 56.767L105.474 55.713H109.044C110.019 55.713 110.75 55.5033 111.237 55.084C111.736 54.6647 111.985 54.081 111.985 53.333C111.985 52.5737 111.736 51.99 111.237 51.582C110.75 51.174 110.019 50.97 109.044 50.97H105.474L106.46 49.882V56.767ZM118.725 54.047H124.641V55.866H118.725V54.047ZM118.895 59.147H125.61V61H116.685V49.1H125.372V50.953H118.895V59.147ZM131.763 61.17C130.833 61.17 129.944 61.0397 129.094 60.779C128.244 60.507 127.569 60.1613 127.071 59.742L127.836 58.025C128.312 58.399 128.901 58.7107 129.604 58.96C130.306 59.2093 131.026 59.334 131.763 59.334C132.386 59.334 132.89 59.266 133.276 59.13C133.661 58.994 133.944 58.8127 134.126 58.586C134.307 58.348 134.398 58.0817 134.398 57.787C134.398 57.4243 134.267 57.1353 134.007 56.92C133.746 56.6933 133.406 56.5177 132.987 56.393C132.579 56.257 132.12 56.1323 131.61 56.019C131.111 55.9057 130.607 55.7753 130.097 55.628C129.598 55.4693 129.139 55.271 128.72 55.033C128.312 54.7837 127.977 54.455 127.717 54.047C127.456 53.639 127.326 53.1177 127.326 52.483C127.326 51.837 127.496 51.2477 127.836 50.715C128.187 50.171 128.714 49.7403 129.417 49.423C130.131 49.0943 131.032 48.93 132.12 48.93C132.834 48.93 133.542 49.0207 134.245 49.202C134.947 49.3833 135.559 49.644 136.081 49.984L135.384 51.701C134.851 51.3837 134.301 51.1513 133.735 51.004C133.168 50.8453 132.624 50.766 132.103 50.766C131.491 50.766 130.992 50.8397 130.607 50.987C130.233 51.1343 129.955 51.327 129.774 51.565C129.604 51.803 129.519 52.075 129.519 52.381C129.519 52.7437 129.643 53.0383 129.893 53.265C130.153 53.4803 130.488 53.6503 130.896 53.775C131.315 53.8997 131.78 54.0243 132.29 54.149C132.8 54.2623 133.304 54.3927 133.803 54.54C134.313 54.6873 134.772 54.88 135.18 55.118C135.599 55.356 135.933 55.679 136.183 56.087C136.443 56.495 136.574 57.0107 136.574 57.634C136.574 58.2687 136.398 58.858 136.047 59.402C135.707 59.9347 135.18 60.3653 134.466 60.694C133.752 61.0113 132.851 61.17 131.763 61.17Z" fill="#EB4897"/>
</svg>
