<svg width="349" height="132" viewBox="0 0 349 132" fill="none" xmlns="http://www.w3.org/2000/svg">
<path d="M89.0004 13.794L74.9591 29.9126H24.3913L10.3574 13.794C10.3574 13.794 17.3434 1.76567 28.8584 0.188049C40.1297 -1.35665 44.04 7.16619 49.6827 7.49146C55.3125 7.16487 59.2495 -1.35665 70.4995 0.186732C82.0284 1.76435 89.0004 13.794 89.0004 13.794Z" fill="white"/>
<path d="M78.7594 40.2695H20.5998C20.5998 40.2695 -7.32056 67.3525 1.8487 117.269C1.8487 117.269 4.90299 131.689 18.9444 131.689H80.4362C94.4487 131.689 97.5041 117.269 97.5041 117.269C106.673 67.3538 78.7594 40.2695 78.7594 40.2695ZM73.2343 55.5388C73.2343 55.5388 66.4226 80.3593 60.0917 72.566C53.7887 64.7991 71.1547 56.105 73.2343 55.5388ZM57.0161 50.7638C57.0161 50.7638 52.4795 55.1872 55.6172 65.4246C59.1374 76.9051 52.4998 79.5876 49.8356 76.2954C43.8799 68.9486 54.8584 51.6461 57.0161 50.7638ZM48.4303 61.3265C48.4303 61.3265 43.8938 65.7683 47.0314 75.9873C50.5591 87.4836 43.9141 90.1688 41.2424 86.8845C35.2663 79.5284 46.2737 62.2088 48.4303 61.3265ZM34.6198 107.879L26.2979 116.514C24.6287 118.588 22.5896 114.38 23.3826 113.393L30.4508 102.754C31.1679 101.853 31.4671 103.8 32.6149 105.231C33.7637 106.628 35.3358 106.998 34.6198 107.879ZM32.3926 97.7724C26.423 90.4427 37.409 73.1231 39.5945 72.2408C39.5945 72.2408 35.0515 76.6642 38.1891 86.9016C41.7158 98.3821 35.0504 101.082 32.3926 97.7724ZM38.8143 105.693C36.1213 102.384 38.3067 94.1892 47.6363 98.527C55.9228 102.401 59.5339 96.8203 59.5339 96.8203C58.8318 99.462 44.7711 113.026 38.8143 105.693ZM47.6512 94.7805C44.9656 91.4883 47.1639 83.2999 56.4732 87.6127C64.7875 91.4883 68.3847 85.9245 68.3847 85.9245C67.6612 88.5727 53.6134 102.127 47.6512 94.7805ZM56.237 84.2007C53.5653 80.9085 55.7294 72.7109 65.0803 77.05C73.3519 80.9427 76.9779 75.3433 76.9779 75.3433C76.2544 78.0113 62.1928 91.5475 56.237 84.2007Z" fill="white"/>
<path d="M140.927 43.4492V50.66H124.062V55.1686H137.268V62.3793H124.062V73.6584H117.471V43.4492H140.927Z" fill="white"/>
<path d="M151.176 73.6584H145.238V71.8519L156.141 43.4492H162.732L173.634 71.8519V73.6584H167.709L165.59 67.7987H153.258L151.176 73.6584ZM155.71 61.0282H163.175L159.442 50.7055L155.71 61.0282Z" fill="white"/>
<path d="M207.44 73.6586H201.083L196.18 64.1859C194.857 64.1859 193.589 64.1707 192.373 64.1404C191.149 64.11 189.954 63.9785 188.788 63.7457V73.6586H182.197V43.4494C184.3 43.1458 186.501 42.9231 188.8 42.7814C191.108 42.6296 193.371 42.5537 195.588 42.5537H196.611C198.664 42.5537 200.36 42.8168 201.699 43.3431C203.037 43.8694 204.109 44.5828 204.914 45.4835C205.719 46.3843 206.282 47.4368 206.602 48.6411C206.922 49.8353 207.082 51.1105 207.082 52.4666V54.2731C207.082 56.1656 206.774 57.886 206.158 59.4344C205.551 60.9828 204.467 62.177 202.906 63.017L207.44 71.8521V73.6586ZM195.662 49.7645C194.808 49.7645 193.753 49.7948 192.496 49.8555C191.24 49.9163 190.004 50.0225 188.788 50.1743V56.5653C189.93 56.7475 191.014 56.8639 192.04 56.9145C193.067 56.9549 193.897 56.9752 194.529 56.9752C195.991 56.9752 197.124 56.8942 197.929 56.7323C198.734 56.5603 199.325 56.3123 199.703 55.9885C200.081 55.6545 200.307 55.2345 200.381 54.7285C200.455 54.2123 200.491 53.595 200.491 52.8765C200.491 52.4818 200.467 52.0972 200.418 51.7227C200.368 51.3483 200.192 51.0093 199.888 50.7056C199.584 50.4122 199.103 50.1794 198.446 50.0073C197.789 49.8454 196.861 49.7645 195.662 49.7645Z" fill="white"/>
<path d="M233.789 67.48H230.426L223.539 55.624V73.6584H216.961V43.4492H223.539L232.101 58.9182L240.663 43.4492H247.254V73.6584H240.663V55.624L233.789 67.48Z" fill="white"/>
<path d="M261.742 73.6584H255.816V71.8519L266.719 43.4492H273.298L284.2 71.8519V73.6584H278.275L276.156 67.7987H263.824L261.742 73.6584ZM266.276 61.0282H273.741L270.008 50.7055L266.276 61.0282Z" fill="white"/>
<path d="M291.162 59.7229V57.3851C291.162 55.3408 291.367 53.4179 291.778 51.6165C292.197 49.8049 292.907 48.2312 293.909 46.8953C294.903 45.5595 296.254 44.5019 297.962 43.7226C299.671 42.9433 301.818 42.5537 304.405 42.5537H305.724C307.383 42.5537 308.992 42.6802 310.553 42.9332C312.113 43.1862 313.649 43.5556 315.16 44.0414V51.3888C314.306 51.0852 313.448 50.8271 312.585 50.6146C311.715 50.4122 310.861 50.2401 310.023 50.0984C309.177 49.9669 308.372 49.8707 307.608 49.81C306.836 49.7493 306.147 49.7189 305.539 49.7189C303.633 49.7189 302.163 49.9365 301.128 50.3717C300.094 50.8068 299.338 51.4141 298.862 52.1933C298.385 52.9726 298.106 53.9037 298.024 54.9865C297.934 56.0694 297.888 57.2586 297.888 58.554C297.888 59.8494 297.934 61.0385 298.024 62.1214C298.106 63.2043 298.385 64.1404 298.862 64.9298C299.338 65.7293 300.094 66.3466 301.128 66.7818C302.163 67.217 303.633 67.4346 305.539 67.4346C306.147 67.4346 306.836 67.4042 307.608 67.3435C308.372 67.2828 309.177 67.1866 310.023 67.055C310.861 66.9235 311.715 66.7413 312.585 66.5085C313.448 66.2859 314.306 66.0228 315.16 65.7192V73.1121C313.649 73.5675 312.113 73.9217 310.553 74.1747C308.992 74.4277 307.383 74.5542 305.724 74.5542H304.405C301.818 74.5542 299.671 74.1646 297.962 73.3853C296.254 72.606 294.903 71.5485 293.909 70.2126C292.907 68.8767 292.197 67.303 291.778 65.4915C291.367 63.69 291.162 61.7672 291.162 59.7229Z" fill="white"/>
<path d="M332.838 73.6584V62.4248L323.241 45.2557V43.4492H329.721L336.127 55.9883L342.57 43.4492H349.001V45.2557L339.416 62.4248V73.6584H332.838Z" fill="white"/>
<path d="M289.256 95.7393H176.654C175.844 95.7393 175.304 94.7231 175.304 93.199C175.304 91.6748 175.844 90.6587 176.654 90.6587H289.121C289.931 90.6587 290.471 91.6748 290.471 93.199C290.471 94.7231 289.931 95.7393 289.256 95.7393Z" fill="white"/>
<path d="M185.538 109.909V112.96H178.38V114.873H183.986V117.94H178.38V122.722H175.584V109.909H185.538Z" fill="white"/>
<path d="M187.879 122.722H185.366V121.947L189.998 109.909H192.782L197.415 121.947V122.722H194.901L194.002 120.232H188.766L187.879 122.722ZM189.801 117.363H192.967L191.39 112.976L189.801 117.363Z" fill="white"/>
<path d="M209.745 122.725H207.047L204.965 118.702C204.406 118.702 203.868 118.697 203.351 118.687C202.833 118.676 202.328 118.621 201.836 118.52V122.725H199.039V109.912C199.926 109.781 200.862 109.685 201.848 109.624C202.825 109.553 203.782 109.518 204.718 109.518H205.162C206.024 109.518 206.743 109.629 207.318 109.852C207.884 110.084 208.34 110.388 208.685 110.762C209.022 111.147 209.26 111.597 209.4 112.113C209.531 112.619 209.597 113.161 209.597 113.738V114.497C209.597 115.296 209.465 116.025 209.203 116.683C208.948 117.341 208.488 117.847 207.823 118.201L209.745 121.95V122.725ZM204.755 112.584C204.394 112.584 203.946 112.599 203.412 112.63C202.879 112.65 202.353 112.69 201.836 112.751V115.468C202.32 115.549 202.78 115.6 203.215 115.62C203.651 115.64 204.004 115.65 204.275 115.65C204.891 115.65 205.371 115.615 205.716 115.544C206.053 115.473 206.303 115.367 206.468 115.225C206.632 115.084 206.726 114.907 206.751 114.694C206.784 114.471 206.8 114.208 206.8 113.905C206.8 113.743 206.792 113.581 206.776 113.419C206.751 113.257 206.673 113.11 206.542 112.979C206.418 112.857 206.217 112.761 205.938 112.69C205.659 112.619 205.264 112.584 204.755 112.584Z" fill="white"/>
<path d="M218.924 120.095H217.495L214.575 115.071V122.722H211.791V109.909H214.575L218.209 116.467L221.844 109.909H224.64V122.722H221.844V115.071L218.924 120.095Z" fill="white"/>
<path d="M240.789 109.909V112.96H233.644V114.873H239.237V117.94H233.644V122.722H230.848V109.909H240.789Z" fill="white"/>
<path d="M253.356 122.725H250.659L248.577 118.702C248.018 118.702 247.48 118.697 246.963 118.687C246.445 118.676 245.936 118.621 245.435 118.52V122.725H242.639V109.912C243.534 109.781 244.47 109.685 245.447 109.624C246.425 109.553 247.386 109.518 248.33 109.518H248.761C249.632 109.518 250.351 109.629 250.917 109.852C251.484 110.084 251.94 110.388 252.285 110.762C252.621 111.147 252.86 111.597 252.999 112.113C253.131 112.619 253.196 113.161 253.196 113.738V114.497C253.196 115.296 253.069 116.025 252.814 116.683C252.552 117.341 252.092 117.847 251.435 118.201L253.356 121.95V122.725ZM248.355 112.584C247.993 112.584 247.546 112.599 247.012 112.63C246.478 112.65 245.953 112.69 245.435 112.751V115.468C245.92 115.549 246.38 115.6 246.815 115.62C247.25 115.64 247.603 115.65 247.874 115.65C248.499 115.65 248.979 115.615 249.316 115.544C249.661 115.473 249.911 115.367 250.067 115.225C250.231 115.084 250.33 114.907 250.363 114.694C250.388 114.471 250.4 114.208 250.4 113.905C250.4 113.743 250.392 113.581 250.375 113.419C250.351 113.257 250.277 113.11 250.153 112.979C250.022 112.857 249.817 112.761 249.537 112.69C249.258 112.619 248.864 112.584 248.355 112.584Z" fill="white"/>
<path d="M265.343 109.909V112.96H258.185V114.873H263.79V117.94H258.185V119.655H265.343V122.722H255.389V109.909H265.343Z" fill="white"/>
<path d="M272.327 120.038C272.886 120.038 273.321 120.002 273.633 119.931C273.945 119.871 274.183 119.785 274.348 119.673C274.512 119.562 274.615 119.441 274.656 119.309C274.697 119.177 274.717 119.051 274.717 118.929C274.717 118.707 274.672 118.525 274.582 118.383C274.491 118.251 274.352 118.15 274.163 118.079C273.974 117.998 273.719 117.943 273.399 117.912C273.087 117.882 272.709 117.862 272.266 117.852C272.003 117.831 271.695 117.811 271.342 117.791C270.989 117.761 270.627 117.705 270.258 117.624C269.888 117.543 269.523 117.422 269.161 117.26C268.792 117.098 268.467 116.875 268.188 116.592C267.9 116.308 267.671 115.949 267.498 115.514C267.317 115.079 267.227 114.547 267.227 113.92V113.677C267.227 113.131 267.309 112.604 267.473 112.098C267.629 111.592 267.905 111.147 268.299 110.762C268.685 110.388 269.206 110.084 269.863 109.852C270.52 109.629 271.342 109.518 272.327 109.518H272.882C273.596 109.518 274.29 109.573 274.964 109.685C275.637 109.796 276.294 109.953 276.935 110.155V113.313C276.179 113.09 275.432 112.918 274.693 112.797C273.953 112.665 273.198 112.599 272.426 112.599C271.867 112.599 271.428 112.635 271.108 112.705C270.787 112.776 270.549 112.867 270.393 112.979C270.229 113.09 270.126 113.206 270.085 113.328C270.044 113.439 270.023 113.556 270.023 113.677C270.023 113.91 270.069 114.092 270.159 114.224C270.241 114.365 270.381 114.477 270.578 114.558C270.775 114.628 271.03 114.684 271.342 114.724C271.654 114.755 272.027 114.775 272.463 114.785C272.709 114.795 273.005 114.811 273.35 114.831C273.686 114.851 274.044 114.902 274.422 114.983C274.799 115.064 275.173 115.19 275.543 115.362C275.912 115.524 276.241 115.747 276.528 116.03C276.816 116.323 277.05 116.688 277.23 117.123C277.411 117.568 277.501 118.1 277.501 118.717V118.975C277.501 119.522 277.423 120.043 277.267 120.539C277.103 121.035 276.824 121.475 276.43 121.859C276.044 122.244 275.522 122.548 274.865 122.77C274.216 122.993 273.395 123.104 272.401 123.104H271.834C271.021 123.104 270.229 123.048 269.457 122.937C268.685 122.836 267.925 122.689 267.178 122.497V119.279C268.024 119.511 268.894 119.699 269.789 119.84C270.685 119.972 271.531 120.038 272.327 120.038Z" fill="white"/>
<path d="M279.521 109.909H282.318V114.873H287.751V109.909H290.547V122.722H287.751V117.94H282.318V122.722H279.521V109.909Z" fill="white"/>
</svg>
