<svg width="148" height="66" viewBox="0 0 148 66" fill="none" xmlns="http://www.w3.org/2000/svg">
<path d="M16.5055 39.48C14.2655 39.48 12.1188 39.1867 10.0655 38.6C8.01213 37.9867 6.35879 37.2 5.10546 36.24L7.30546 31.36C8.50546 32.2133 9.91879 32.92 11.5455 33.48C13.1988 34.0133 14.8655 34.28 16.5455 34.28C17.8255 34.28 18.8521 34.16 19.6255 33.92C20.4255 33.6533 21.0121 33.2933 21.3855 32.84C21.7588 32.3867 21.9455 31.8667 21.9455 31.28C21.9455 30.5333 21.6521 29.9467 21.0655 29.52C20.4788 29.0667 19.7055 28.7067 18.7455 28.44C17.7855 28.1467 16.7188 27.88 15.5455 27.64C14.3988 27.3733 13.2388 27.0533 12.0655 26.68C10.9188 26.3067 9.86546 25.8267 8.90546 25.24C7.94546 24.6533 7.15879 23.88 6.54546 22.92C5.95879 21.96 5.66546 20.7333 5.66546 19.24C5.66546 17.64 6.09213 16.1867 6.94546 14.88C7.82546 13.5467 9.13213 12.4933 10.8655 11.72C12.6255 10.92 14.8255 10.52 17.4655 10.52C19.2255 10.52 20.9588 10.7333 22.6655 11.16C24.3721 11.56 25.8788 12.1733 27.1855 13L25.1855 17.92C23.8788 17.1733 22.5721 16.6267 21.2655 16.28C19.9588 15.9067 18.6788 15.72 17.4255 15.72C16.1721 15.72 15.1455 15.8667 14.3455 16.16C13.5455 16.4533 12.9721 16.84 12.6255 17.32C12.2788 17.7733 12.1055 18.3067 12.1055 18.92C12.1055 19.64 12.3988 20.2267 12.9855 20.68C13.5721 21.1067 14.3455 21.4533 15.3055 21.72C16.2655 21.9867 17.3188 22.2533 18.4655 22.52C19.6388 22.7867 20.7988 23.0933 21.9455 23.44C23.1188 23.7867 24.1855 24.2533 25.1455 24.84C26.1055 25.4267 26.8788 26.2 27.4655 27.16C28.0788 28.12 28.3855 29.3333 28.3855 30.8C28.3855 32.3733 27.9455 33.8133 27.0655 35.12C26.1855 36.4267 24.8655 37.48 23.1055 38.28C21.3721 39.08 19.1721 39.48 16.5055 39.48ZM54.4133 11H60.8933V39H54.4133V11ZM41.6933 39H35.2133V11H41.6933V39ZM54.8933 27.52H41.2133V22.04H54.8933V27.52ZM75.878 22.28H89.358V27.32H75.878V22.28ZM76.358 33.8H91.598V39H69.918V11H91.078V16.2H76.358V33.8ZM99.1539 39V11H105.634V39H99.1539ZM114.679 39V11H120.039L136.559 31.16H133.959V11H140.359V39H135.039L118.479 18.84H121.079V39H114.679Z" fill="black"/>
<path d="M25.7469 60.14C24.9816 60.14 24.2489 60.0327 23.5489 59.818C22.8489 59.594 22.2936 59.3093 21.8829 58.964L22.5129 57.55C22.9049 57.858 23.3902 58.1147 23.9689 58.32C24.5476 58.5253 25.1402 58.628 25.7469 58.628C26.2602 58.628 26.6756 58.572 26.9929 58.46C27.3102 58.348 27.5436 58.1987 27.6929 58.012C27.8422 57.816 27.9169 57.5967 27.9169 57.354C27.9169 57.0553 27.8096 56.8173 27.5949 56.64C27.3802 56.4533 27.1002 56.3087 26.7549 56.206C26.4189 56.094 26.0409 55.9913 25.6209 55.898C25.2102 55.8047 24.7949 55.6973 24.3749 55.576C23.9642 55.4453 23.5862 55.282 23.2409 55.086C22.9049 54.8807 22.6296 54.61 22.4149 54.274C22.2002 53.938 22.0929 53.5087 22.0929 52.986C22.0929 52.454 22.2329 51.9687 22.5129 51.53C22.8022 51.082 23.2362 50.7273 23.8149 50.466C24.4029 50.1953 25.1449 50.06 26.0409 50.06C26.6289 50.06 27.2122 50.1347 27.7909 50.284C28.3696 50.4333 28.8736 50.648 29.3029 50.928L28.7289 52.342C28.2902 52.0807 27.8376 51.8893 27.3709 51.768C26.9042 51.6373 26.4562 51.572 26.0269 51.572C25.5229 51.572 25.1122 51.6327 24.7949 51.754C24.4869 51.8753 24.2582 52.034 24.1089 52.23C23.9689 52.426 23.8989 52.65 23.8989 52.902C23.8989 53.2007 24.0016 53.4433 24.2069 53.63C24.4216 53.8073 24.6969 53.9473 25.0329 54.05C25.3782 54.1527 25.7609 54.2553 26.1809 54.358C26.6009 54.4513 27.0162 54.5587 27.4269 54.68C27.8469 54.8013 28.2249 54.96 28.5609 55.156C28.9062 55.352 29.1816 55.618 29.3869 55.954C29.6016 56.29 29.7089 56.7147 29.7089 57.228C29.7089 57.7507 29.5642 58.236 29.2749 58.684C28.9949 59.1227 28.5609 59.4773 27.9729 59.748C27.3849 60.0093 26.6429 60.14 25.7469 60.14ZM33.3649 60V51.74H30.1169V50.2H38.4329V51.74H35.1849V60H33.3649ZM42.0563 60V56.122L42.4623 57.242L38.2063 50.2H40.1523L43.5683 55.87H42.4763L45.9203 50.2H47.7123L43.4563 57.242L43.8763 56.122V60H42.0563ZM48.7811 60V50.2H50.6011V58.46H55.7251V60H48.7811ZM58.842 54.274H63.714V55.772H58.842V54.274ZM58.982 58.474H64.512V60H57.162V50.2H64.316V51.726H58.982V58.474ZM73.4481 60.14C72.6827 60.14 71.9501 60.0327 71.2501 59.818C70.5501 59.594 69.9947 59.3093 69.5841 58.964L70.2141 57.55C70.6061 57.858 71.0914 58.1147 71.6701 58.32C72.2487 58.5253 72.8414 58.628 73.4481 58.628C73.9614 58.628 74.3767 58.572 74.6941 58.46C75.0114 58.348 75.2447 58.1987 75.3941 58.012C75.5434 57.816 75.6181 57.5967 75.6181 57.354C75.6181 57.0553 75.5107 56.8173 75.2961 56.64C75.0814 56.4533 74.8014 56.3087 74.4561 56.206C74.1201 56.094 73.7421 55.9913 73.3221 55.898C72.9114 55.8047 72.4961 55.6973 72.0761 55.576C71.6654 55.4453 71.2874 55.282 70.9421 55.086C70.6061 54.8807 70.3307 54.61 70.1161 54.274C69.9014 53.938 69.7941 53.5087 69.7941 52.986C69.7941 52.454 69.9341 51.9687 70.2141 51.53C70.5034 51.082 70.9374 50.7273 71.5161 50.466C72.1041 50.1953 72.8461 50.06 73.7421 50.06C74.3301 50.06 74.9134 50.1347 75.4921 50.284C76.0707 50.4333 76.5747 50.648 77.0041 50.928L76.4301 52.342C75.9914 52.0807 75.5387 51.8893 75.0721 51.768C74.6054 51.6373 74.1574 51.572 73.7281 51.572C73.2241 51.572 72.8134 51.6327 72.4961 51.754C72.1881 51.8753 71.9594 52.034 71.8101 52.23C71.6701 52.426 71.6001 52.65 71.6001 52.902C71.6001 53.2007 71.7027 53.4433 71.9081 53.63C72.1227 53.8073 72.3981 53.9473 72.7341 54.05C73.0794 54.1527 73.4621 54.2553 73.8821 54.358C74.3021 54.4513 74.7174 54.5587 75.1281 54.68C75.5481 54.8013 75.9261 54.96 76.2621 55.156C76.6074 55.352 76.8827 55.618 77.0881 55.954C77.3027 56.29 77.4101 56.7147 77.4101 57.228C77.4101 57.7507 77.2654 58.236 76.9761 58.684C76.6961 59.1227 76.2621 59.4773 75.6741 59.748C75.0861 60.0093 74.3441 60.14 73.4481 60.14ZM81.066 60V51.74H77.818V50.2H86.134V51.74H82.886V60H81.066ZM91.9552 60.14C91.1898 60.14 90.4852 60.014 89.8412 59.762C89.1972 59.51 88.6372 59.16 88.1612 58.712C87.6852 58.2547 87.3165 57.7227 87.0552 57.116C86.7938 56.5 86.6632 55.828 86.6632 55.1C86.6632 54.372 86.7938 53.7047 87.0552 53.098C87.3165 52.482 87.6852 51.95 88.1612 51.502C88.6372 51.0447 89.1972 50.69 89.8412 50.438C90.4852 50.186 91.1852 50.06 91.9412 50.06C92.7065 50.06 93.4065 50.186 94.0412 50.438C94.6852 50.69 95.2452 51.0447 95.7212 51.502C96.1972 51.95 96.5658 52.482 96.8272 53.098C97.0885 53.7047 97.2192 54.372 97.2192 55.1C97.2192 55.828 97.0885 56.5 96.8272 57.116C96.5658 57.732 96.1972 58.264 95.7212 58.712C95.2452 59.16 94.6852 59.51 94.0412 59.762C93.4065 60.014 92.7112 60.14 91.9552 60.14ZM91.9412 58.544C92.4358 58.544 92.8932 58.46 93.3132 58.292C93.7332 58.124 94.0972 57.886 94.4052 57.578C94.7132 57.2607 94.9512 56.8967 95.1192 56.486C95.2965 56.066 95.3852 55.604 95.3852 55.1C95.3852 54.596 95.2965 54.1387 95.1192 53.728C94.9512 53.308 94.7132 52.944 94.4052 52.636C94.0972 52.3187 93.7332 52.076 93.3132 51.908C92.8932 51.74 92.4358 51.656 91.9412 51.656C91.4465 51.656 90.9892 51.74 90.5692 51.908C90.1585 52.076 89.7945 52.3187 89.4772 52.636C89.1692 52.944 88.9265 53.308 88.7492 53.728C88.5812 54.1387 88.4972 54.596 88.4972 55.1C88.4972 55.5947 88.5812 56.052 88.7492 56.472C88.9265 56.892 89.1692 57.2607 89.4772 57.578C89.7852 57.886 90.1492 58.124 90.5692 58.292C90.9892 58.46 91.4465 58.544 91.9412 58.544ZM99.1483 60V50.2H103.18C104.048 50.2 104.79 50.34 105.406 50.62C106.032 50.9 106.512 51.3013 106.848 51.824C107.184 52.3467 107.352 52.9673 107.352 53.686C107.352 54.4047 107.184 55.0253 106.848 55.548C106.512 56.0613 106.032 56.458 105.406 56.738C104.79 57.0087 104.048 57.144 103.18 57.144H100.156L100.968 56.318V60H99.1483ZM105.56 60L103.082 56.444H105.028L107.52 60H105.56ZM100.968 56.514L100.156 55.646H103.096C103.899 55.646 104.501 55.4733 104.902 55.128C105.313 54.7827 105.518 54.302 105.518 53.686C105.518 53.0607 105.313 52.58 104.902 52.244C104.501 51.908 103.899 51.74 103.096 51.74H100.156L100.968 50.844V56.514ZM111.069 54.274H115.941V55.772H111.069V54.274ZM111.209 58.474H116.739V60H109.389V50.2H116.543V51.726H111.209V58.474ZM121.805 60.14C121.04 60.14 120.307 60.0327 119.607 59.818C118.907 59.594 118.352 59.3093 117.941 58.964L118.571 57.55C118.963 57.858 119.449 58.1147 120.027 58.32C120.606 58.5253 121.199 58.628 121.805 58.628C122.319 58.628 122.734 58.572 123.051 58.46C123.369 58.348 123.602 58.1987 123.751 58.012C123.901 57.816 123.975 57.5967 123.975 57.354C123.975 57.0553 123.868 56.8173 123.653 56.64C123.439 56.4533 123.159 56.3087 122.813 56.206C122.477 56.094 122.099 55.9913 121.679 55.898C121.269 55.8047 120.853 55.6973 120.433 55.576C120.023 55.4453 119.645 55.282 119.299 55.086C118.963 54.8807 118.688 54.61 118.473 54.274C118.259 53.938 118.151 53.5087 118.151 52.986C118.151 52.454 118.291 51.9687 118.571 51.53C118.861 51.082 119.295 50.7273 119.873 50.466C120.461 50.1953 121.203 50.06 122.099 50.06C122.687 50.06 123.271 50.1347 123.849 50.284C124.428 50.4333 124.932 50.648 125.361 50.928L124.787 52.342C124.349 52.0807 123.896 51.8893 123.429 51.768C122.963 51.6373 122.515 51.572 122.085 51.572C121.581 51.572 121.171 51.6327 120.853 51.754C120.545 51.8753 120.317 52.034 120.167 52.23C120.027 52.426 119.957 52.65 119.957 52.902C119.957 53.2007 120.06 53.4433 120.265 53.63C120.48 53.8073 120.755 53.9473 121.091 54.05C121.437 54.1527 121.819 54.2553 122.239 54.358C122.659 54.4513 123.075 54.5587 123.485 54.68C123.905 54.8013 124.283 54.96 124.619 55.156C124.965 55.352 125.24 55.618 125.445 55.954C125.66 56.29 125.767 56.7147 125.767 57.228C125.767 57.7507 125.623 58.236 125.333 58.684C125.053 59.1227 124.619 59.4773 124.031 59.748C123.443 60.0093 122.701 60.14 121.805 60.14Z" fill="#EB4897"/>
</svg>
