<svg width="153" height="44" viewBox="0 0 153 44" fill="none" xmlns="http://www.w3.org/2000/svg">
<rect width="153" height="44" rx="5" fill="black"/>
<path d="M30.3884 8C30.4536 8 30.5187 8 30.5876 8C30.7474 9.97462 29.9937 11.4501 29.0777 12.5185C28.179 13.5796 26.9482 14.6087 24.9576 14.4526C24.8248 12.5062 25.5797 11.1402 26.4945 10.0742C27.3429 9.08075 28.8982 8.19672 30.3884 8Z" fill="#F6F4F1"/>
<path d="M36.4143 28.5528C36.4143 28.5724 36.4143 28.5897 36.4143 28.6081C35.8549 30.3024 35.0569 31.7545 34.0831 33.102C33.1942 34.3254 32.1048 35.9717 30.1597 35.9717C28.4789 35.9717 27.3625 34.891 25.64 34.8615C23.8178 34.832 22.8157 35.7652 21.1497 36C20.9592 36 20.7686 36 20.5817 36C19.3583 35.823 18.371 34.8541 17.6517 33.9811C15.5308 31.4016 13.8918 28.0696 13.5869 23.8056C13.5869 23.3875 13.5869 22.9707 13.5869 22.5527C13.716 19.501 15.1988 17.0198 17.1698 15.8173C18.2099 15.178 19.6399 14.6333 21.2321 14.8768C21.9145 14.9825 22.6116 15.2161 23.2227 15.4473C23.8018 15.6698 24.526 16.0645 25.2121 16.0436C25.6768 16.03 26.1391 15.7878 26.6076 15.6169C27.9797 15.1214 29.3248 14.5534 31.0978 14.8202C33.2286 15.1423 34.7409 16.0891 35.6754 17.5497C33.8729 18.6969 32.4478 20.4256 32.6913 23.3777C32.9077 26.0593 34.4667 27.6282 36.4143 28.5528Z" fill="#F6F4F1"/>
<path d="M52.7209 12.0249C52.6522 11.8094 52.5599 11.6165 52.4439 11.446C52.3303 11.2732 52.1941 11.1264 52.0355 11.0057C51.8769 10.8826 51.6958 10.7891 51.4922 10.7251C51.291 10.6612 51.0696 10.6293 50.8281 10.6293C50.4186 10.6293 50.0492 10.7346 49.7202 10.9453C49.3911 11.156 49.1307 11.465 48.9389 11.8722C48.7495 12.277 48.6548 12.773 48.6548 13.3601C48.6548 13.9496 48.7507 14.4479 48.9425 14.8551C49.1342 15.2623 49.397 15.5713 49.7308 15.782C50.0646 15.9927 50.4446 16.098 50.8707 16.098C51.2661 16.098 51.6106 16.0175 51.9041 15.8565C52.2 15.6955 52.4285 15.4683 52.5895 15.1747C52.7528 14.8788 52.8345 14.5308 52.8345 14.1307L53.1186 14.1839H51.0376V13.2784H53.8963V14.1058C53.8963 14.7166 53.7661 15.2469 53.5057 15.6967C53.2476 16.1442 52.8902 16.4898 52.4332 16.7337C51.9787 16.9775 51.4579 17.0994 50.8707 17.0994C50.2126 17.0994 49.6349 16.9479 49.1378 16.6449C48.643 16.3419 48.2571 15.9122 47.9801 15.3558C47.7031 14.7971 47.5646 14.1342 47.5646 13.3672C47.5646 12.7872 47.6451 12.2663 47.8061 11.8047C47.9671 11.343 48.1932 10.9512 48.4844 10.6293C48.7779 10.3049 49.1224 10.0575 49.5178 9.88707C49.9155 9.71425 50.3499 9.62784 50.821 9.62784C51.214 9.62784 51.5798 9.68584 51.9183 9.80185C52.2592 9.91785 52.5623 10.0824 52.8274 10.2955C53.0949 10.5085 53.3163 10.7618 53.4915 11.0554C53.6667 11.3466 53.785 11.6697 53.8466 12.0249H52.7209ZM55.2892 17V9.72727H59.8489V10.6719H56.3865V12.8878H59.611V13.8288H56.3865V16.0554H59.8915V17H55.2892ZM60.956 10.6719V9.72727H66.5845V10.6719H64.3153V17H63.2216V10.6719H60.956ZM71.5721 9.72727V17H70.4748V9.72727H71.5721ZM72.8114 10.6719V9.72727H78.44V10.6719H76.1708V17H75.0771V10.6719H72.8114ZM88.6477 13.3636C88.6477 14.1402 88.5057 14.8078 88.2216 15.3665C87.9375 15.9228 87.5481 16.3513 87.0533 16.652C86.5608 16.9503 86.0009 17.0994 85.3736 17.0994C84.7438 17.0994 84.1816 16.9503 83.6868 16.652C83.1944 16.3513 82.8061 15.9216 82.522 15.3629C82.2379 14.8042 82.0959 14.1378 82.0959 13.3636C82.0959 12.5871 82.2379 11.9207 82.522 11.3643C82.8061 10.8056 83.1944 10.3771 83.6868 10.0788C84.1816 9.77817 84.7438 9.62784 85.3736 9.62784C86.0009 9.62784 86.5608 9.77817 87.0533 10.0788C87.5481 10.3771 87.9375 10.8056 88.2216 11.3643C88.5057 11.9207 88.6477 12.5871 88.6477 13.3636ZM87.5611 13.3636C87.5611 12.7718 87.4652 12.2734 87.2734 11.8686C87.084 11.4614 86.8236 11.1536 86.4922 10.9453C86.1631 10.7346 85.7902 10.6293 85.3736 10.6293C84.9545 10.6293 84.5805 10.7346 84.2514 10.9453C83.9223 11.1536 83.6619 11.4614 83.4702 11.8686C83.2808 12.2734 83.1861 12.7718 83.1861 13.3636C83.1861 13.9555 83.2808 14.455 83.4702 14.8622C83.6619 15.267 83.9223 15.5748 84.2514 15.7855C84.5805 15.9938 84.9545 16.098 85.3736 16.098C85.7902 16.098 86.1631 15.9938 86.4922 15.7855C86.8236 15.5748 87.084 15.267 87.2734 14.8622C87.4652 14.455 87.5611 13.9555 87.5611 13.3636ZM95.8858 9.72727V17H94.8773L91.1806 11.6662H91.1131V17H90.0158V9.72727H91.0314L94.7317 15.0682H94.7992V9.72727H95.8858Z" fill="white"/>
<path d="M49.4769 35H47.3675L51.2081 24.0909H53.6477L57.4936 35H55.3842L52.4705 26.3281H52.3853L49.4769 35ZM49.5462 30.7227H55.299V32.31H49.5462V30.7227ZM58.8453 38.0682V26.8182H60.7416V28.1712H60.8534C60.9529 27.9723 61.0931 27.761 61.2742 27.5373C61.4553 27.31 61.7004 27.1165 62.0093 26.9567C62.3183 26.7933 62.7124 26.7116 63.1919 26.7116C63.824 26.7116 64.3939 26.8732 64.9017 27.1964C65.4131 27.516 65.8179 27.9901 66.1162 28.6186C66.4181 29.2436 66.569 30.0107 66.569 30.9197C66.569 31.8182 66.4216 32.5817 66.1269 33.2102C65.8321 33.8388 65.4308 34.3182 64.923 34.6484C64.4152 34.9787 63.8399 35.1438 63.1972 35.1438C62.7284 35.1438 62.3396 35.0657 62.0306 34.9094C61.7217 34.7532 61.4731 34.565 61.2849 34.3448C61.1002 34.1211 60.9564 33.9098 60.8534 33.7109H60.7735V38.0682H58.8453ZM60.7362 30.9091C60.7362 31.4382 60.8108 31.9016 60.96 32.2994C61.1127 32.6971 61.3311 33.0078 61.6151 33.2315C61.9028 33.4517 62.2508 33.5618 62.6592 33.5618C63.0853 33.5618 63.4422 33.4482 63.7298 33.2209C64.0175 32.9901 64.2341 32.6758 64.3797 32.2781C64.5289 31.8768 64.6034 31.4205 64.6034 30.9091C64.6034 30.4013 64.5306 29.9503 64.385 29.5561C64.2394 29.1619 64.0228 28.853 63.7352 28.6293C63.4475 28.4055 63.0889 28.2937 62.6592 28.2937C62.2472 28.2937 61.8975 28.402 61.6098 28.6186C61.3222 28.8352 61.1038 29.1388 60.9546 29.5295C60.809 29.9201 60.7362 30.38 60.7362 30.9091ZM68.2203 38.0682V26.8182H70.1166V28.1712H70.2284C70.3279 27.9723 70.4681 27.761 70.6492 27.5373C70.8303 27.31 71.0754 27.1165 71.3843 26.9567C71.6933 26.7933 72.0874 26.7116 72.5669 26.7116C73.199 26.7116 73.7689 26.8732 74.2767 27.1964C74.7881 27.516 75.1929 27.9901 75.4912 28.6186C75.7931 29.2436 75.944 30.0107 75.944 30.9197C75.944 31.8182 75.7966 32.5817 75.5019 33.2102C75.2071 33.8388 74.8058 34.3182 74.298 34.6484C73.7902 34.9787 73.2149 35.1438 72.5722 35.1438C72.1034 35.1438 71.7146 35.0657 71.4056 34.9094C71.0967 34.7532 70.8481 34.565 70.6599 34.3448C70.4752 34.1211 70.3314 33.9098 70.2284 33.7109H70.1485V38.0682H68.2203ZM70.1112 30.9091C70.1112 31.4382 70.1858 31.9016 70.335 32.2994C70.4877 32.6971 70.7061 33.0078 70.9901 33.2315C71.2778 33.4517 71.6258 33.5618 72.0342 33.5618C72.4603 33.5618 72.8172 33.4482 73.1048 33.2209C73.3925 32.9901 73.6091 32.6758 73.7547 32.2781C73.9039 31.8768 73.9784 31.4205 73.9784 30.9091C73.9784 30.4013 73.9056 29.9503 73.76 29.5561C73.6144 29.1619 73.3978 28.853 73.1102 28.6293C72.8225 28.4055 72.4639 28.2937 72.0342 28.2937C71.6222 28.2937 71.2725 28.402 70.9848 28.6186C70.6972 28.8352 70.4788 29.1388 70.3296 29.5295C70.184 29.9201 70.1112 30.38 70.1112 30.9091ZM87.3298 27.0898C87.2801 26.6246 87.0706 26.2624 86.7013 26.0032C86.3355 25.744 85.8596 25.6143 85.2737 25.6143C84.8618 25.6143 84.5084 25.6765 84.2137 25.8008C83.9189 25.9251 83.6934 26.0937 83.5372 26.3068C83.3809 26.5199 83.301 26.7631 83.2975 27.0366C83.2975 27.2638 83.349 27.4609 83.452 27.6278C83.5585 27.7947 83.7023 27.9368 83.8834 28.054C84.0645 28.1676 84.2652 28.2635 84.4854 28.3416C84.7055 28.4197 84.9275 28.4854 85.1512 28.5387L86.1739 28.7944C86.5858 28.8903 86.9818 29.0199 87.3618 29.1832C87.7453 29.3466 88.088 29.5526 88.3898 29.8011C88.6952 30.0497 88.9367 30.3498 89.1143 30.7013C89.2918 31.0529 89.3806 31.4648 89.3806 31.9371C89.3806 32.5763 89.2172 33.1392 88.8905 33.6257C88.5638 34.1087 88.0915 34.4869 87.4736 34.7603C86.8593 35.0302 86.1153 35.1651 85.2417 35.1651C84.393 35.1651 83.6562 35.0337 83.0312 34.771C82.4097 34.5082 81.9232 34.1246 81.5716 33.6204C81.2236 33.1161 81.0354 32.5018 81.007 31.7773H82.9513C82.9797 32.1573 83.0969 32.4734 83.3028 32.7255C83.5088 32.9776 83.7769 33.1658 84.1072 33.2901C84.441 33.4144 84.8138 33.4766 85.2258 33.4766C85.6555 33.4766 86.0319 33.4126 86.355 33.2848C86.6817 33.1534 86.9374 32.9723 87.1221 32.7415C87.3067 32.5071 87.4008 32.2337 87.4044 31.9212C87.4008 31.6371 87.3174 31.4027 87.154 31.218C86.9907 31.0298 86.7616 30.8736 86.4669 30.7493C86.1757 30.6214 85.8348 30.5078 85.4442 30.4084L84.203 30.0888C83.3046 29.858 82.5944 29.5082 82.0724 29.0394C81.5539 28.5671 81.2947 27.9403 81.2947 27.1591C81.2947 26.5163 81.4687 25.9535 81.8167 25.4705C82.1682 24.9876 82.6459 24.6129 83.2496 24.3466C83.8532 24.0767 84.5368 23.9418 85.3003 23.9418C86.0745 23.9418 86.7528 24.0767 87.3351 24.3466C87.9211 24.6129 88.3809 24.984 88.7148 25.4599C89.0486 25.9322 89.2208 26.4755 89.2314 27.0898H87.3298ZM95.1428 26.8182V28.3097H90.4393V26.8182H95.1428ZM91.6005 24.858H93.5288V32.5391C93.5288 32.7983 93.5678 32.9972 93.646 33.1357C93.7276 33.2706 93.8342 33.3629 93.9656 33.4126C94.0969 33.4624 94.2425 33.4872 94.4023 33.4872C94.5231 33.4872 94.6332 33.4783 94.7326 33.4606C94.8356 33.4428 94.9137 33.4268 94.967 33.4126L95.2919 34.9201C95.1889 34.9556 95.0415 34.9947 94.8498 35.0373C94.6616 35.0799 94.4308 35.1048 94.1573 35.1119C93.6744 35.1261 93.2393 35.0533 92.8523 34.8935C92.4652 34.7301 92.158 34.478 91.9308 34.1371C91.707 33.7962 91.5969 33.37 91.6005 32.8587V24.858ZM100.236 35.1598C99.4374 35.1598 98.7449 34.984 98.159 34.6325C97.5731 34.2809 97.1185 33.7891 96.7954 33.157C96.4758 32.5249 96.316 31.7862 96.316 30.9411C96.316 30.0959 96.4758 29.3555 96.7954 28.7198C97.1185 28.0842 97.5731 27.5906 98.159 27.239C98.7449 26.8874 99.4374 26.7116 100.236 26.7116C101.035 26.7116 101.728 26.8874 102.314 27.239C102.9 27.5906 103.353 28.0842 103.672 28.7198C103.995 29.3555 104.157 30.0959 104.157 30.9411C104.157 31.7862 103.995 32.5249 103.672 33.157C103.353 33.7891 102.9 34.2809 102.314 34.6325C101.728 34.984 101.035 35.1598 100.236 35.1598ZM100.247 33.6151C100.68 33.6151 101.043 33.4961 101.334 33.2582C101.625 33.0167 101.842 32.6935 101.984 32.2887C102.129 31.8839 102.202 31.4329 102.202 30.9357C102.202 30.435 102.129 29.9822 101.984 29.5774C101.842 29.169 101.625 28.8441 101.334 28.6026C101.043 28.3612 100.68 28.2404 100.247 28.2404C99.8032 28.2404 99.4339 28.3612 99.1391 28.6026C98.8479 28.8441 98.6295 29.169 98.4839 29.5774C98.3419 29.9822 98.2709 30.435 98.2709 30.9357C98.2709 31.4329 98.3419 31.8839 98.4839 32.2887C98.6295 32.6935 98.8479 33.0167 99.1391 33.2582C99.4339 33.4961 99.8032 33.6151 100.247 33.6151ZM105.794 35V26.8182H107.663V28.1818H107.748C107.898 27.7095 108.153 27.3455 108.515 27.0898C108.881 26.8306 109.298 26.701 109.767 26.701C109.874 26.701 109.993 26.7063 110.124 26.717C110.259 26.7241 110.371 26.7365 110.46 26.7543V28.5281C110.378 28.4996 110.248 28.4748 110.071 28.4535C109.897 28.4286 109.728 28.4162 109.565 28.4162C109.213 28.4162 108.897 28.4925 108.617 28.6452C108.34 28.7944 108.121 29.0021 107.961 29.2685C107.802 29.5348 107.722 29.842 107.722 30.19V35H105.794ZM115.026 35.1598C114.206 35.1598 113.497 34.9893 112.901 34.6484C112.308 34.304 111.851 33.8175 111.532 33.1889C111.212 32.5568 111.052 31.8129 111.052 30.957C111.052 30.1154 111.212 29.3768 111.532 28.7411C111.855 28.1019 112.306 27.6048 112.885 27.2496C113.464 26.891 114.144 26.7116 114.925 26.7116C115.429 26.7116 115.905 26.7933 116.352 26.9567C116.803 27.1165 117.201 27.3651 117.546 27.7024C117.894 28.0398 118.167 28.4695 118.366 28.9915C118.565 29.5099 118.664 30.1278 118.664 30.8452V31.4364H111.958V30.1367H116.816C116.812 29.7674 116.732 29.4389 116.576 29.1513C116.42 28.8601 116.201 28.631 115.921 28.4641C115.644 28.2972 115.321 28.2138 114.951 28.2138C114.557 28.2138 114.211 28.3097 113.913 28.5014C113.614 28.6896 113.382 28.9382 113.215 29.2472C113.052 29.5526 112.968 29.8881 112.965 30.2539V31.3885C112.965 31.8643 113.052 32.2727 113.226 32.6136C113.4 32.951 113.643 33.2102 113.955 33.3913C114.268 33.5689 114.634 33.6577 115.053 33.6577C115.333 33.6577 115.587 33.6186 115.814 33.5405C116.042 33.4588 116.239 33.3398 116.406 33.1836C116.573 33.0273 116.699 32.8338 116.784 32.603L118.584 32.8054C118.471 33.2812 118.254 33.6967 117.934 34.0518C117.618 34.4034 117.214 34.6768 116.72 34.8722C116.226 35.0639 115.662 35.1598 115.026 35.1598Z" fill="white"/>
</svg>
