<svg width="44" height="44" viewBox="0 0 44 44" fill="none" xmlns="http://www.w3.org/2000/svg">
<path d="M0 22.6875H21.4844V36.2656H0V22.6875Z" fill="white"/>
<path d="M17.6172 14.9531H3.86719C1.73482 14.9531 0 16.6879 0 18.8203V20.1094H21.4844V18.8203C21.4844 16.6879 19.7496 14.9531 17.6172 14.9531Z" fill="white"/>
<path d="M0 40.1328C0 42.2652 1.73482 44 3.86719 44H17.6172C19.7496 44 21.4844 42.2652 21.4844 40.1328V38.8438H0V40.1328Z" fill="white"/>
<path d="M34.1172 12.2031C28.6678 12.2031 24.2344 16.6366 24.2344 22.0859C24.2344 27.5353 28.6678 31.9688 34.1172 31.9688C39.5666 31.9688 44 27.5353 44 22.0859C44 16.6366 39.5666 12.2031 34.1172 12.2031ZM34.1172 29.3906C30.0894 29.3906 26.8125 26.1137 26.8125 22.0859C26.8125 20.5367 27.2987 19.0996 28.1246 17.9163L38.2869 28.0785C37.1035 28.9044 35.6665 29.3906 34.1172 29.3906ZM40.1098 26.2555L29.9476 16.0933C31.1309 15.2675 32.5679 14.7812 34.1172 14.7812C38.145 14.7812 41.4219 18.0581 41.4219 22.0859C41.4219 23.6351 40.9356 25.0723 40.1098 26.2555Z" fill="white"/>
<path d="M21.4353 5.92376L30.0291 9.36126C30.6901 9.62569 31.4402 9.30411 31.7047 8.64317C31.9691 7.98222 31.6475 7.23199 30.9866 6.96756L25.385 4.72691L30.9866 2.48626C31.6476 2.22183 31.9691 1.47168 31.7047 0.810652C31.4403 0.14962 30.6901 -0.171872 30.0291 0.0925578L21.4353 3.53006C20.9459 3.72582 20.625 4.19977 20.625 4.72691C20.625 5.25405 20.9459 5.728 21.4353 5.92376Z" fill="white"/>
<path d="M14.6094 6.01562H16.7578C17.4697 6.01562 18.0469 5.43847 18.0469 4.72656C18.0469 4.01466 17.4697 3.4375 16.7578 3.4375H14.6094V1.28906C14.6094 0.577156 14.0322 0 13.3203 0H8.16406C7.45216 0 6.875 0.577156 6.875 1.28906V7.21875H14.6094V6.01562Z" fill="white"/>
<path d="M14.8672 9.79688H6.61716C5.10199 9.79688 3.8492 10.9175 3.64062 12.375H17.8437C17.6351 10.9175 16.3823 9.79688 14.8672 9.79688Z" fill="white"/>
</svg>
