<svg width="91" height="103" viewBox="0 0 91 103" fill="none" xmlns="http://www.w3.org/2000/svg">
<path d="M11.911 29.5834C-5.27468 54.7017 6.29859 78.0368 14.2334 86.5646C21.007 94.3172 40.4763 106.915 64.1647 95.2863C90.8723 82.1753 89.5987 54.5854 86.2275 42.9566C81.0021 24.9319 77.325 14.2721 74.6155 4C72.6802 5.16288 62.6248 10.3959 43.8438 12.7216C25.0628 15.0474 14.2334 25.7071 11.911 29.5834Z" fill="#62A403" stroke="white" stroke-width="5"/>
<path d="M62.5 35.5L58.8333 35.5C41.1838 35.5 33.1667 45.3505 33.1667 57.5L33.1667 60.987C38.6887 60.5983 42.0308 58.8787 46.0018 54.3907C47.9543 52.1833 49.0818 52.3703 48.4347 53.4575C43.9797 60.9448 37.959 64.6628 28.345 64.8278L27.6667 64.8333L27.6667 68.5C30.1655 68.5 32.4333 68.2873 34.5087 67.8657C36.881 68.2873 40.1003 68.5 44.1667 68.5C54.2922 68.5 62.5 60.2922 62.5 50.1667C62.5 46.5 60.6667 42.8333 62.5 35.5Z" fill="#94C154"/>
</svg>
