<svg width="148" height="66" viewBox="0 0 148 66" fill="none" xmlns="http://www.w3.org/2000/svg">
<path d="M21.8055 39.48C19.5655 39.48 17.4188 39.1867 15.3655 38.6C13.3121 37.9867 11.6588 37.2 10.4055 36.24L12.6055 31.36C13.8055 32.2133 15.2188 32.92 16.8455 33.48C18.4988 34.0133 20.1655 34.28 21.8455 34.28C23.1255 34.28 24.1521 34.16 24.9255 33.92C25.7255 33.6533 26.3121 33.2933 26.6855 32.84C27.0588 32.3867 27.2455 31.8667 27.2455 31.28C27.2455 30.5333 26.9521 29.9467 26.3655 29.52C25.7788 29.0667 25.0055 28.7067 24.0455 28.44C23.0855 28.1467 22.0188 27.88 20.8455 27.64C19.6988 27.3733 18.5388 27.0533 17.3655 26.68C16.2188 26.3067 15.1655 25.8267 14.2055 25.24C13.2455 24.6533 12.4588 23.88 11.8455 22.92C11.2588 21.96 10.9655 20.7333 10.9655 19.24C10.9655 17.64 11.3921 16.1867 12.2455 14.88C13.1255 13.5467 14.4321 12.4933 16.1655 11.72C17.9255 10.92 20.1255 10.52 22.7655 10.52C24.5255 10.52 26.2588 10.7333 27.9655 11.16C29.6721 11.56 31.1788 12.1733 32.4855 13L30.4855 17.92C29.1788 17.1733 27.8721 16.6267 26.5655 16.28C25.2588 15.9067 23.9788 15.72 22.7255 15.72C21.4721 15.72 20.4455 15.8667 19.6455 16.16C18.8455 16.4533 18.2721 16.84 17.9255 17.32C17.5788 17.7733 17.4055 18.3067 17.4055 18.92C17.4055 19.64 17.6988 20.2267 18.2855 20.68C18.8721 21.1067 19.6455 21.4533 20.6055 21.72C21.5655 21.9867 22.6188 22.2533 23.7655 22.52C24.9388 22.7867 26.0988 23.0933 27.2455 23.44C28.4188 23.7867 29.4855 24.2533 30.4455 24.84C31.4055 25.4267 32.1788 26.2 32.7655 27.16C33.3788 28.12 33.6855 29.3333 33.6855 30.8C33.6855 32.3733 33.2455 33.8133 32.3655 35.12C31.4855 36.4267 30.1655 37.48 28.4055 38.28C26.6721 39.08 24.4721 39.48 21.8055 39.48ZM57.3133 11H63.7933V39H57.3133V11ZM44.5933 39H38.1133V11H44.5933V39ZM57.7933 27.52H44.1133V22.04H57.7933V27.52ZM76.378 22.28H89.858V27.32H76.378V22.28ZM76.858 33.8H92.098V39H70.418V11H91.578V16.2H76.858V33.8ZM97.2539 39V11H103.734V39H97.2539ZM110.379 39V11H115.739L132.259 31.16H129.659V11H136.059V39H130.739L114.179 18.84H116.779V39H110.379Z" fill="black"/>
<path d="M26.2469 60.14C25.4816 60.14 24.7489 60.0327 24.0489 59.818C23.3489 59.594 22.7936 59.3093 22.3829 58.964L23.0129 57.55C23.4049 57.858 23.8902 58.1147 24.4689 58.32C25.0476 58.5253 25.6402 58.628 26.2469 58.628C26.7602 58.628 27.1756 58.572 27.4929 58.46C27.8102 58.348 28.0436 58.1987 28.1929 58.012C28.3422 57.816 28.4169 57.5967 28.4169 57.354C28.4169 57.0553 28.3096 56.8173 28.0949 56.64C27.8802 56.4533 27.6002 56.3087 27.2549 56.206C26.9189 56.094 26.5409 55.9913 26.1209 55.898C25.7102 55.8047 25.2949 55.6973 24.8749 55.576C24.4642 55.4453 24.0862 55.282 23.7409 55.086C23.4049 54.8807 23.1296 54.61 22.9149 54.274C22.7002 53.938 22.5929 53.5087 22.5929 52.986C22.5929 52.454 22.7329 51.9687 23.0129 51.53C23.3022 51.082 23.7362 50.7273 24.3149 50.466C24.9029 50.1953 25.6449 50.06 26.5409 50.06C27.1289 50.06 27.7122 50.1347 28.2909 50.284C28.8696 50.4333 29.3736 50.648 29.8029 50.928L29.2289 52.342C28.7902 52.0807 28.3376 51.8893 27.8709 51.768C27.4042 51.6373 26.9562 51.572 26.5269 51.572C26.0229 51.572 25.6122 51.6327 25.2949 51.754C24.9869 51.8753 24.7582 52.034 24.6089 52.23C24.4689 52.426 24.3989 52.65 24.3989 52.902C24.3989 53.2007 24.5016 53.4433 24.7069 53.63C24.9216 53.8073 25.1969 53.9473 25.5329 54.05C25.8782 54.1527 26.2609 54.2553 26.6809 54.358C27.1009 54.4513 27.5162 54.5587 27.9269 54.68C28.3469 54.8013 28.7249 54.96 29.0609 55.156C29.4062 55.352 29.6816 55.618 29.8869 55.954C30.1016 56.29 30.2089 56.7147 30.2089 57.228C30.2089 57.7507 30.0642 58.236 29.7749 58.684C29.4949 59.1227 29.0609 59.4773 28.4729 59.748C27.8849 60.0093 27.1429 60.14 26.2469 60.14ZM33.8649 60V51.74H30.6169V50.2H38.9329V51.74H35.6849V60H33.8649ZM42.5563 60V56.122L42.9623 57.242L38.7063 50.2H40.6523L44.0683 55.87H42.9763L46.4203 50.2H48.2123L43.9563 57.242L44.3763 56.122V60H42.5563ZM49.2811 60V50.2H51.1011V58.46H56.2251V60H49.2811ZM59.342 54.274H64.214V55.772H59.342V54.274ZM59.482 58.474H65.012V60H57.662V50.2H64.816V51.726H59.482V58.474ZM73.9481 60.14C73.1827 60.14 72.4501 60.0327 71.7501 59.818C71.0501 59.594 70.4947 59.3093 70.0841 58.964L70.7141 57.55C71.1061 57.858 71.5914 58.1147 72.1701 58.32C72.7487 58.5253 73.3414 58.628 73.9481 58.628C74.4614 58.628 74.8767 58.572 75.1941 58.46C75.5114 58.348 75.7447 58.1987 75.8941 58.012C76.0434 57.816 76.1181 57.5967 76.1181 57.354C76.1181 57.0553 76.0107 56.8173 75.7961 56.64C75.5814 56.4533 75.3014 56.3087 74.9561 56.206C74.6201 56.094 74.2421 55.9913 73.8221 55.898C73.4114 55.8047 72.9961 55.6973 72.5761 55.576C72.1654 55.4453 71.7874 55.282 71.4421 55.086C71.1061 54.8807 70.8307 54.61 70.6161 54.274C70.4014 53.938 70.2941 53.5087 70.2941 52.986C70.2941 52.454 70.4341 51.9687 70.7141 51.53C71.0034 51.082 71.4374 50.7273 72.0161 50.466C72.6041 50.1953 73.3461 50.06 74.2421 50.06C74.8301 50.06 75.4134 50.1347 75.9921 50.284C76.5707 50.4333 77.0747 50.648 77.5041 50.928L76.9301 52.342C76.4914 52.0807 76.0387 51.8893 75.5721 51.768C75.1054 51.6373 74.6574 51.572 74.2281 51.572C73.7241 51.572 73.3134 51.6327 72.9961 51.754C72.6881 51.8753 72.4594 52.034 72.3101 52.23C72.1701 52.426 72.1001 52.65 72.1001 52.902C72.1001 53.2007 72.2027 53.4433 72.4081 53.63C72.6227 53.8073 72.8981 53.9473 73.2341 54.05C73.5794 54.1527 73.9621 54.2553 74.3821 54.358C74.8021 54.4513 75.2174 54.5587 75.6281 54.68C76.0481 54.8013 76.4261 54.96 76.7621 55.156C77.1074 55.352 77.3827 55.618 77.5881 55.954C77.8027 56.29 77.9101 56.7147 77.9101 57.228C77.9101 57.7507 77.7654 58.236 77.4761 58.684C77.1961 59.1227 76.7621 59.4773 76.1741 59.748C75.5861 60.0093 74.8441 60.14 73.9481 60.14ZM81.566 60V51.74H78.318V50.2H86.634V51.74H83.386V60H81.566ZM92.4552 60.14C91.6898 60.14 90.9852 60.014 90.3412 59.762C89.6972 59.51 89.1372 59.16 88.6612 58.712C88.1852 58.2547 87.8165 57.7227 87.5552 57.116C87.2938 56.5 87.1632 55.828 87.1632 55.1C87.1632 54.372 87.2938 53.7047 87.5552 53.098C87.8165 52.482 88.1852 51.95 88.6612 51.502C89.1372 51.0447 89.6972 50.69 90.3412 50.438C90.9852 50.186 91.6852 50.06 92.4412 50.06C93.2065 50.06 93.9065 50.186 94.5412 50.438C95.1852 50.69 95.7452 51.0447 96.2212 51.502C96.6972 51.95 97.0658 52.482 97.3272 53.098C97.5885 53.7047 97.7192 54.372 97.7192 55.1C97.7192 55.828 97.5885 56.5 97.3272 57.116C97.0658 57.732 96.6972 58.264 96.2212 58.712C95.7452 59.16 95.1852 59.51 94.5412 59.762C93.9065 60.014 93.2112 60.14 92.4552 60.14ZM92.4412 58.544C92.9358 58.544 93.3932 58.46 93.8132 58.292C94.2332 58.124 94.5972 57.886 94.9052 57.578C95.2132 57.2607 95.4512 56.8967 95.6192 56.486C95.7965 56.066 95.8852 55.604 95.8852 55.1C95.8852 54.596 95.7965 54.1387 95.6192 53.728C95.4512 53.308 95.2132 52.944 94.9052 52.636C94.5972 52.3187 94.2332 52.076 93.8132 51.908C93.3932 51.74 92.9358 51.656 92.4412 51.656C91.9465 51.656 91.4892 51.74 91.0692 51.908C90.6585 52.076 90.2945 52.3187 89.9772 52.636C89.6692 52.944 89.4265 53.308 89.2492 53.728C89.0812 54.1387 88.9972 54.596 88.9972 55.1C88.9972 55.5947 89.0812 56.052 89.2492 56.472C89.4265 56.892 89.6692 57.2607 89.9772 57.578C90.2852 57.886 90.6492 58.124 91.0692 58.292C91.4892 58.46 91.9465 58.544 92.4412 58.544ZM99.6483 60V50.2H103.68C104.548 50.2 105.29 50.34 105.906 50.62C106.532 50.9 107.012 51.3013 107.348 51.824C107.684 52.3467 107.852 52.9673 107.852 53.686C107.852 54.4047 107.684 55.0253 107.348 55.548C107.012 56.0613 106.532 56.458 105.906 56.738C105.29 57.0087 104.548 57.144 103.68 57.144H100.656L101.468 56.318V60H99.6483ZM106.06 60L103.582 56.444H105.528L108.02 60H106.06ZM101.468 56.514L100.656 55.646H103.596C104.399 55.646 105.001 55.4733 105.402 55.128C105.813 54.7827 106.018 54.302 106.018 53.686C106.018 53.0607 105.813 52.58 105.402 52.244C105.001 51.908 104.399 51.74 103.596 51.74H100.656L101.468 50.844V56.514ZM111.569 54.274H116.441V55.772H111.569V54.274ZM111.709 58.474H117.239V60H109.889V50.2H117.043V51.726H111.709V58.474ZM122.305 60.14C121.54 60.14 120.807 60.0327 120.107 59.818C119.407 59.594 118.852 59.3093 118.441 58.964L119.071 57.55C119.463 57.858 119.949 58.1147 120.527 58.32C121.106 58.5253 121.699 58.628 122.305 58.628C122.819 58.628 123.234 58.572 123.551 58.46C123.869 58.348 124.102 58.1987 124.251 58.012C124.401 57.816 124.475 57.5967 124.475 57.354C124.475 57.0553 124.368 56.8173 124.153 56.64C123.939 56.4533 123.659 56.3087 123.313 56.206C122.977 56.094 122.599 55.9913 122.179 55.898C121.769 55.8047 121.353 55.6973 120.933 55.576C120.523 55.4453 120.145 55.282 119.799 55.086C119.463 54.8807 119.188 54.61 118.973 54.274C118.759 53.938 118.651 53.5087 118.651 52.986C118.651 52.454 118.791 51.9687 119.071 51.53C119.361 51.082 119.795 50.7273 120.373 50.466C120.961 50.1953 121.703 50.06 122.599 50.06C123.187 50.06 123.771 50.1347 124.349 50.284C124.928 50.4333 125.432 50.648 125.861 50.928L125.287 52.342C124.849 52.0807 124.396 51.8893 123.929 51.768C123.463 51.6373 123.015 51.572 122.585 51.572C122.081 51.572 121.671 51.6327 121.353 51.754C121.045 51.8753 120.817 52.034 120.667 52.23C120.527 52.426 120.457 52.65 120.457 52.902C120.457 53.2007 120.56 53.4433 120.765 53.63C120.98 53.8073 121.255 53.9473 121.591 54.05C121.937 54.1527 122.319 54.2553 122.739 54.358C123.159 54.4513 123.575 54.5587 123.985 54.68C124.405 54.8013 124.783 54.96 125.119 55.156C125.465 55.352 125.74 55.618 125.945 55.954C126.16 56.29 126.267 56.7147 126.267 57.228C126.267 57.7507 126.123 58.236 125.833 58.684C125.553 59.1227 125.119 59.4773 124.531 59.748C123.943 60.0093 123.201 60.14 122.305 60.14Z" fill="#EB4897"/>
</svg>
