<svg width="74" height="74" viewBox="0 0 74 74" fill="none" xmlns="http://www.w3.org/2000/svg">
<g clip-path="url(#clip0_159_3066)">
<path d="M36.9984 0C16.5666 0 0 16.5666 0 36.9984C0 57.4303 16.5666 74 36.9984 74C57.4303 74 74 57.4303 74 36.9984C74 16.5666 57.4303 0 36.9984 0ZM44.7007 57.3426C42.7963 58.0943 41.2803 58.6644 40.1432 59.059C39.0094 59.4537 37.6907 59.6511 36.1903 59.6511C33.885 59.6511 32.0902 59.0872 30.8122 57.9627C29.5342 56.8383 28.8984 55.4131 28.8984 53.6809C28.8984 53.0075 28.9454 52.3184 29.0393 51.6168C29.1364 50.9151 29.2899 50.1258 29.4998 49.2394L31.8834 40.8198C32.0933 40.0117 32.275 39.2443 32.419 38.5301C32.5631 37.8097 32.632 37.1488 32.632 36.5474C32.632 35.4761 32.4097 34.7244 31.968 34.3015C31.5201 33.8787 30.6775 33.672 29.4215 33.672C28.8075 33.672 28.1748 33.7628 27.5264 33.9539C26.8843 34.1512 26.3268 34.3297 25.8695 34.5051L26.499 31.9116C28.0589 31.2758 29.553 30.7308 30.9782 30.2797C32.4034 29.8224 33.7503 29.5969 35.0188 29.5969C37.3085 29.5969 39.0751 30.1544 40.3186 31.257C41.5559 32.3627 42.1792 33.8004 42.1792 35.567C42.1792 35.9335 42.1354 36.5787 42.0508 37.4996C41.9662 38.4236 41.8065 39.2662 41.5747 40.0399L39.2036 48.4344C39.0094 49.1078 38.8371 49.8783 38.6805 50.7397C38.527 51.6011 38.4518 52.2589 38.4518 52.7005C38.4518 53.8156 38.6993 54.5768 39.2004 54.9808C39.6953 55.3849 40.563 55.5885 41.7908 55.5885C42.3703 55.5885 43.0187 55.4851 43.7516 55.2847C44.4783 55.0842 45.0045 54.9056 45.3366 54.7522L44.7007 57.3426ZM44.281 23.2697C43.1753 24.2971 41.8441 24.8108 40.2873 24.8108C38.7337 24.8108 37.3931 24.2971 36.278 23.2697C35.1692 22.2423 34.6085 20.9925 34.6085 19.5329C34.6085 18.0764 35.1723 16.8235 36.278 15.7867C37.3931 14.7468 38.7337 14.2299 40.2873 14.2299C41.8441 14.2299 43.1784 14.7468 44.281 15.7867C45.3867 16.8235 45.9411 18.0764 45.9411 19.5329C45.9411 20.9956 45.3867 22.2423 44.281 23.2697Z" fill="#51150A"/>
</g>
<defs>
<clipPath id="clip0_159_3066">
<rect width="74" height="74" fill="white"/>
</clipPath>
</defs>
</svg>
