<svg width="25" height="25" viewBox="0 0 25 25" fill="none" xmlns="http://www.w3.org/2000/svg">
<path fill-rule="evenodd" clip-rule="evenodd" d="M5.42366 2.93168C6.20159 2.60866 7.03563 2.44238 7.87796 2.44238C8.72029 2.44238 9.55434 2.60866 10.3323 2.93168C11.1102 3.2547 11.8167 3.72811 12.4113 4.32476L12.4146 4.3281L12.473 4.38722L12.5313 4.32811L12.5346 4.32476C13.1292 3.72811 13.8357 3.2547 14.6137 2.93168C15.3916 2.60866 16.2256 2.44238 17.068 2.44238C17.9103 2.44238 18.7443 2.60866 19.5223 2.93168C20.2999 3.25459 21.0062 3.72779 21.6007 4.32415C24.1457 6.86984 24.2023 11.079 21.1866 14.1512L21.1801 14.1578L13.1801 22.1577C12.9925 22.3453 12.7382 22.4506 12.473 22.4506C12.2077 22.4506 11.9534 22.3453 11.7659 22.1577L3.7593 14.1512C0.743599 11.079 0.800219 6.86983 3.34525 4.32414C3.9397 3.72778 4.646 3.25459 5.42366 2.93168ZM7.87796 4.44238C7.29886 4.44238 6.72546 4.5567 6.19063 4.77878C5.6558 5.00085 5.17007 5.32632 4.7613 5.73652L4.76007 5.73775C3.06646 7.43136 2.86272 10.3799 5.18348 12.7469L12.473 20.0364L19.7624 12.747C22.0832 10.3799 21.8795 7.43136 20.1859 5.73775L20.1846 5.73652C19.7759 5.32632 19.2901 5.00085 18.7553 4.77878C18.2205 4.5567 17.6471 4.44238 17.068 4.44238C16.4889 4.44238 15.9155 4.5567 15.3806 4.77878C14.8465 5.00056 14.3614 5.32547 13.9529 5.7349C13.9524 5.73544 13.9518 5.73598 13.9513 5.73652L13.1846 6.51317C12.9967 6.70351 12.7404 6.81064 12.473 6.81064C12.2055 6.81064 11.9492 6.70351 11.7613 6.51317L10.9946 5.73652C10.9941 5.73598 10.9936 5.73544 10.993 5.7349C10.5846 5.32547 10.0994 5.00056 9.5653 4.77878C9.03047 4.5567 8.45706 4.44238 7.87796 4.44238Z" fill="#253D4E"/>
</svg>
