<svg width="24" height="24" viewBox="0 0 24 24" fill="none" xmlns="http://www.w3.org/2000/svg">
<path d="M7.77409 5.41519H21.3228C21.7983 5.41519 22.1843 5.02984 22.1843 4.55375C22.1843 4.07766 21.7983 3.69231 21.3228 3.69231H7.77409C7.29801 3.69231 6.91265 4.07766 6.91265 4.55375C6.91265 5.02984 7.29801 5.41519 7.77409 5.41519ZM3.7081 3.69231H2.45958C1.9835 3.69231 1.59814 4.07766 1.59814 4.55375C1.59814 5.02984 1.9835 5.41519 2.45958 5.41519H3.7081C4.18419 5.41519 4.56954 5.02984 4.56954 4.55375C4.56954 4.07766 4.18361 3.69231 3.7081 3.69231ZM21.3228 11.022H7.77409C7.29801 11.022 6.91265 11.4074 6.91265 11.8835C6.91265 12.3595 7.29801 12.7449 7.77409 12.7449H21.3228C21.7983 12.7449 22.1843 12.359 22.1843 11.8835C22.1843 11.4079 21.7983 11.022 21.3228 11.022ZM3.7081 11.022H2.45958C1.9835 11.022 1.59814 11.4074 1.59814 11.8835C1.59814 12.3595 1.9835 12.7449 2.45958 12.7449H3.7081C4.18419 12.7449 4.56954 12.359 4.56954 11.8835C4.56954 11.4079 4.18361 11.022 3.7081 11.022ZM21.3228 18.3517H17.3367C16.8611 18.3517 16.4752 18.7376 16.4752 19.2132C16.4752 19.6887 16.8611 20.0746 17.3367 20.0746H21.3228C21.7983 20.0746 22.1843 19.6887 22.1843 19.2132C22.1843 18.7376 21.7983 18.3517 21.3228 18.3517ZM14.5479 18.3517H7.77409C7.29801 18.3517 6.91265 18.7376 6.91265 19.2132C6.91265 19.6887 7.29801 20.0746 7.77409 20.0746H14.5479C15.0234 20.0746 15.4093 19.6887 15.4093 19.2132C15.4093 18.7376 15.0234 18.3517 14.5479 18.3517ZM3.7081 18.3517H2.45958C1.9835 18.3517 1.59814 18.7376 1.59814 19.2132C1.59814 19.6887 1.9835 20.0746 2.45958 20.0746H3.7081C4.18419 20.0746 4.56954 19.6887 4.56954 19.2132C4.56954 18.7376 4.18361 18.3517 3.7081 18.3517Z" fill="#D1CFCF"/>
</svg>
