<svg width="30" height="30" viewBox="0 0 30 30" fill="none" xmlns="http://www.w3.org/2000/svg">
<path fill-rule="evenodd" clip-rule="evenodd" d="M4.375 12.8972C4.375 7.14737 9.17985 2.5 14.9918 2.5C20.8202 2.5 25.625 7.14737 25.625 12.8972C25.625 15.7946 24.5713 18.4845 22.8369 20.7645C20.9235 23.2794 18.5652 25.4706 15.9107 27.1905C15.3031 27.588 14.7548 27.618 14.0881 27.1905C11.4184 25.4706 9.06011 23.2794 7.16313 20.7645C5.42748 18.4845 4.375 15.7946 4.375 12.8972ZM11.4928 13.2197C11.4928 15.1452 13.0646 16.6596 14.9918 16.6596C16.9203 16.6596 18.5072 15.1452 18.5072 13.2197C18.5072 11.3092 16.9203 9.72104 14.9918 9.72104C13.0646 9.72104 11.4928 11.3092 11.4928 13.2197Z" fill="white"/>
</svg>
