<svg viewBox="0 0 95 35" xmlns="http://www.w3.org/2000/svg"><title>Group</title><g fill="none" fill-rule="evenodd"><path d="M15.685 14.64c-.064-.572-.177-.972-.338-1.2-.16-.23-.421-.344-.781-.344-.335 0-.599.114-.792.343-.193.228-.29.532-.29.913 0 .216.026.416.078.6.051.184.142.378.27.58a4.2 4.2 0 0 0 .521.648c.219.229.502.502.85.819.502.457.913.857 1.235 1.199.322.343.576.67.763.98.186.312.315.623.386.934.07.31.106.656.106 1.037 0 .482-.074.924-.222 1.323a2.844 2.844 0 0 1-1.592 1.695 3.135 3.135 0 0 1-1.236.238 3.25 3.25 0 0 1-1.294-.25 2.877 2.877 0 0 1-.994-.705 3.351 3.351 0 0 1-.656-1.084 4.225 4.225 0 0 1-.26-1.413l1.834-.324c.05 1.322.508 1.983 1.37 1.983.36 0 .647-.127.859-.38.212-.255.319-.59.319-1.01 0-.47-.168-.926-.503-1.37a4.339 4.339 0 0 0-.463-.533 35.136 35.136 0 0 0-.395-.381 33.236 33.236 0 0 0-.647-.59 11.022 11.022 0 0 1-1.033-1.038 6.172 6.172 0 0 1-.676-.942 3.637 3.637 0 0 1-.376-.924 4.136 4.136 0 0 1-.116-1c0-.951.273-1.713.82-2.284.548-.571 1.284-.857 2.21-.857 1.712 0 2.684 1.024 2.916 3.07l-1.873.268zm9.757 2.518c.303 0 .556-.028.758-.085a.888.888 0 0 0 .474-.302c.114-.145.193-.343.237-.595.044-.252.067-.573.067-.963 0-.378-.023-.693-.067-.944-.044-.252-.123-.45-.237-.595a.888.888 0 0 0-.474-.303 2.862 2.862 0 0 0-.758-.084h-.607v3.87h.607zm-.607 7.056h-1.95v-12.72h2.703c.618 0 1.139.064 1.563.19.425.128.77.341 1.033.64.264.299.454.683.57 1.153.115.471.173 1.05.173 1.736 0 .686-.058 1.268-.173 1.744-.115.477-.304.865-.566 1.164a2.16 2.16 0 0 1-1.028.639c-.423.127-.942.19-1.557.19h-.768v5.264zm11.254-4.356c0 .633.01 1.101.029 1.405.019.304.054.526.106.665.176.456.492.684.946.684.517 0 .845-.29.984-.873.051-.216.077-.843.077-1.881V15.85c0-.646-.01-1.117-.028-1.415-.02-.297-.056-.516-.107-.655-.176-.456-.486-.684-.927-.684-.53 0-.864.291-1.003.874a4.365 4.365 0 0 0-.058.665c-.013.329-.02.734-.02 1.215v4.008zm4.092.218c0 .47-.013.874-.038 1.21a6.01 6.01 0 0 1-.126.878 2.941 2.941 0 0 1-.232.658c-.096.19-.222.381-.376.572a2.614 2.614 0 0 1-.985.744 3.089 3.089 0 0 1-1.274.267c-.45 0-.871-.09-1.264-.267a2.625 2.625 0 0 1-.975-.744 3.715 3.715 0 0 1-.386-.572 2.622 2.622 0 0 1-.241-.668 5.396 5.396 0 0 1-.116-.877c-.02-.33-.029-.73-.029-1.201v-4.444c0-.47.01-.87.029-1.201.02-.33.058-.623.116-.877a2.63 2.63 0 0 1 .241-.668c.103-.19.232-.381.386-.572.257-.318.582-.565.975-.744a3.029 3.029 0 0 1 1.264-.267c.45 0 .875.09 1.274.267.4.179.727.426.985.744.154.19.28.382.376.572.097.19.174.41.232.658.058.248.1.54.126.877.025.337.038.741.038 1.211v4.444zm8.096-2.976c.353 0 .612-.034.776-.103.165-.07.297-.211.398-.425.165-.353.247-.812.247-1.378 0-.567-.082-1.026-.247-1.379-.1-.214-.233-.355-.398-.425-.164-.069-.423-.104-.776-.104h-.606v3.815h.606zm-.606 7.114h-1.95v-12.72h2.703c1.12 0 1.936.295 2.451.887.515.591.772 1.522.772 2.793 0 .827-.097 1.482-.292 1.965-.195.483-.534.896-1.015 1.24l1.5 5.835h-2.066l-1.193-5.32h-.91v5.32zm12.933 0h-1.95V13.287h-2.046v-1.793h6.08v1.793h-2.084zm12.199-10.927h-3.32v3.432h2.394v1.793h-2.394v3.91h3.32v1.792h-5.27v-12.72h5.27zm7.865 3.813c.353 0 .612-.034.776-.103.164-.07.297-.211.398-.425.164-.353.246-.812.246-1.378 0-.567-.082-1.026-.246-1.379-.101-.214-.234-.355-.398-.425-.164-.069-.423-.104-.776-.104h-.607v3.815h.607zm-.607 7.114h-1.95v-12.72h2.703c1.12 0 1.937.295 2.452.887.514.591.772 1.522.772 2.793 0 .827-.098 1.482-.292 1.965-.196.483-.534.896-1.015 1.24l1.5 5.835h-2.066l-1.193-5.32h-.91v5.32z" fill="#000"/><path stroke="#000" stroke-width="2.289" d="M1.966 33.754h91.738v-31.8H1.966z"/></g></svg>