<svg width="30" height="30" viewBox="0 0 30 30" fill="none" xmlns="http://www.w3.org/2000/svg">
<path fill-rule="evenodd" clip-rule="evenodd" d="M21.1742 3.75C22.8505 3.75 24.463 4.4125 25.6492 5.60125C26.8367 6.7875 27.5005 8.3875 27.5005 10.0625V19.9375C27.5005 23.425 24.663 26.25 21.1742 26.25H8.82549C5.33674 26.25 2.50049 23.425 2.50049 19.9375V10.0625C2.50049 6.575 5.32424 3.75 8.82549 3.75H21.1742ZM23.163 11.9244L23.263 11.8244C23.5617 11.4621 23.5617 10.9373 23.2492 10.5749C23.0755 10.3887 22.8367 10.275 22.588 10.25C22.3255 10.2363 22.0755 10.325 21.8867 10.4999L16.2505 14.9983C15.5255 15.5993 14.4867 15.5993 13.7505 14.9983L8.12549 10.4999C7.73674 10.2125 7.19924 10.25 6.87549 10.5874C6.53799 10.9248 6.50049 11.4621 6.78674 11.8369L6.95049 11.9994L12.638 16.4353C13.338 16.9851 14.1867 17.285 15.0755 17.285C15.9617 17.285 16.8255 16.9851 17.5242 16.4353L23.163 11.9244Z" fill="white"/>
</svg>
