<svg width="74" height="28" viewBox="0 0 74 28" fill="none" xmlns="http://www.w3.org/2000/svg">
<path d="M4.39965 27.6175L0.453661 24.4331C0.164341 24.1996 0 23.8723 0 23.5295V11.1078C0 10.4262 0.637134 9.87363 1.42308 9.87363H72.5769C73.3629 9.87363 74 10.4262 74 11.1078V23.8025C74 24.1267 73.8529 24.4379 73.5905 24.6688L70.2233 27.6321C69.7301 28.0662 68.9454 28.123 68.3759 27.766L63.793 24.8923C63.2497 24.5516 62.506 24.586 62.0076 24.9748L58.5854 27.6443C58.0443 28.0664 57.2232 28.0664 56.6821 27.6443L53.3573 25.0508C52.8162 24.6287 51.9951 24.6287 51.454 25.0508L48.1292 27.6443C47.5881 28.0664 46.767 28.0664 46.2259 27.6443L42.9011 25.0508C42.36 24.6287 41.5389 24.6287 40.9978 25.0508L37.673 27.6443C37.1319 28.0664 36.3108 28.0664 35.7697 27.6443L32.4449 25.0508C31.9038 24.6287 31.0827 24.6287 30.5416 25.0508L27.2168 27.6443C26.6757 28.0664 25.8546 28.0664 25.3135 27.6443L21.9887 25.0508C21.4476 24.6287 20.6265 24.6287 20.0854 25.0508L16.7606 27.6443C16.2195 28.0664 15.3984 28.0664 14.8573 27.6443L11.5325 25.0508C10.9914 24.6287 10.1703 24.6287 9.6292 25.0508L6.32072 27.6316C5.77277 28.059 4.93919 28.0529 4.39965 27.6175Z" fill="#FDC040"/>
<path d="M0 6.06667C0 2.65851 1.40282 0 5.33253 0H66.8846C70.8143 0 74 2.76286 74 6.17102V12.342H0V6.06667Z" fill="#FDC040"/>
</svg>
