<svg width="48" height="48" viewBox="0 0 48 48" fill="none" xmlns="http://www.w3.org/2000/svg">
<path d="M25.2985 28.3523C23.4958 28.3523 21.8286 27.7518 20.4697 26.5699C18.3075 24.6905 17.3241 21.7006 18.0206 19.131C18.6382 16.8515 20.4419 15.3198 23.0979 14.8185C25.2739 14.4078 26.7683 14.9614 28.2137 15.4958C30.1529 16.2137 32.1571 16.955 36.2009 15.4649C36.3833 15.3977 36.587 15.435 36.7331 15.5609C36.8803 15.6878 36.9465 15.883 36.907 16.0729C36.0558 20.1763 33.4905 25.6398 29.0649 27.5331C27.7827 28.0814 26.5102 28.3523 25.2985 28.3523ZM24.5849 15.7411C24.1859 15.7411 23.7614 15.7795 23.2963 15.867C21.0638 16.2883 19.5555 17.5459 19.051 19.4105C18.4686 21.5609 19.3401 24.1742 21.1705 25.7657C22.3171 26.763 24.8142 28.1913 28.6467 26.5529C32.1582 25.051 34.6201 20.7161 35.6473 16.7801C31.8275 17.9705 29.7198 17.1907 27.8435 16.4963C26.7673 16.0985 25.8019 15.7411 24.5849 15.7411Z" fill="#588F27"/>
<path d="M11.6708 25.3164C11.5588 25.3164 11.4447 25.2812 11.3487 25.2076C11.114 25.0295 11.0681 24.6946 11.2463 24.4599C13.6569 21.2876 14.8537 21.2962 20.6031 21.3356C21.3796 21.341 22.2585 21.3463 23.2356 21.3463C30.9497 21.3367 35.9321 15.6738 35.9823 15.6172C36.1743 15.3943 36.5113 15.3698 36.7343 15.5628C36.9572 15.7559 36.9817 16.0919 36.7887 16.3148C36.7343 16.3778 35.4372 17.8658 33.1183 19.3676C30.9764 20.7543 27.5236 22.4087 23.2367 22.414C22.2564 22.4151 21.3743 22.4087 20.5956 22.4034C14.9135 22.3639 14.1839 22.3596 12.0953 25.1063C11.9908 25.2439 11.8319 25.3164 11.6708 25.3164Z" fill="#588F27"/>
<path d="M28.0898 21.6785C28.0247 21.6785 27.9586 21.6668 27.8946 21.6412C27.6205 21.5334 27.4861 21.2241 27.5927 20.95L28.7522 17.9996C28.8599 17.7254 29.1703 17.591 29.4434 17.6977C29.7175 17.8054 29.8519 18.1148 29.7453 18.3889L28.5869 21.3404C28.5047 21.5505 28.3031 21.6785 28.0898 21.6785Z" fill="#588F27"/>
<path d="M25.1662 24.7054C25.0148 24.7054 24.8633 24.6403 24.7577 24.5155L22.8281 22.2222C22.6382 21.9971 22.667 21.66 22.8932 21.4702C23.1182 21.2803 23.4553 21.3091 23.6452 21.5352L25.5748 23.8286C25.7646 24.0536 25.7358 24.3907 25.5097 24.5795C25.4094 24.6648 25.2878 24.7054 25.1662 24.7054Z" fill="#588F27"/>
<path d="M33.1652 17.3241C33.1396 17.3241 33.1129 17.3219 33.0862 17.3187C32.795 17.2761 32.5934 17.0051 32.6361 16.7129L32.6457 16.6467C32.6553 16.5827 32.6649 16.5198 32.6724 16.4537C33.0905 12.9742 30.7886 9.02966 28.1337 6.38646C27.3113 9.96513 25.7145 11.291 24.2916 12.4718C23.21 13.3699 22.2756 14.1454 21.69 15.8137C21.6441 15.9427 21.6025 16.0782 21.5566 16.2403C21.4766 16.5241 21.1822 16.6883 20.8985 16.6083C20.6148 16.5283 20.4505 16.2339 20.5305 15.9502C20.5828 15.7667 20.6308 15.611 20.6841 15.4606C21.3668 13.5129 22.507 12.5667 23.611 11.6515C25.0798 10.4323 26.5988 9.17153 27.274 5.24833C27.307 5.05739 27.4404 4.89953 27.6238 4.83553C27.8073 4.77153 28.01 4.81206 28.155 4.94113C31.0617 7.53313 34.266 12.1369 33.7326 16.5817C33.723 16.6585 33.7124 16.7321 33.7017 16.8057L33.6921 16.8686C33.6526 17.1342 33.4254 17.3241 33.1652 17.3241Z" fill="#588F27"/>
<path d="M27.6966 16.4077C27.6401 16.4077 27.5825 16.3992 27.527 16.38C27.2476 16.2861 27.0972 15.9843 27.191 15.7048C28.9628 10.4301 27.3137 5.56399 27.2966 5.51492C27.1995 5.23652 27.3468 4.93252 27.6252 4.83652C27.9036 4.73946 28.2076 4.88666 28.3036 5.16506C28.3772 5.37732 30.0881 10.4269 28.2012 16.044C28.1276 16.2669 27.9195 16.4077 27.6966 16.4077Z" fill="#588F27"/>
<path d="M45.0039 43.3522H3.05192C1.61939 43.3522 0.45459 42.1874 0.45459 40.7549V32.6354C0.45459 31.2029 1.61939 30.0381 3.05192 30.0381H45.0039C46.4365 30.0381 47.6013 31.2029 47.6013 32.6354V40.7549C47.6013 42.1874 46.4365 43.3522 45.0039 43.3522ZM3.05192 31.1048C2.20819 31.1048 1.52126 31.7917 1.52126 32.6354V40.7549C1.52126 41.5986 2.20819 42.2856 3.05192 42.2856H45.0039C45.8477 42.2856 46.5346 41.5986 46.5346 40.7549V32.6354C46.5346 31.7917 45.8477 31.1048 45.0039 31.1048H3.05192Z" fill="#588F27"/>
<path d="M5.06791 40.6001C3.53404 40.6001 2.28711 39.3521 2.28711 37.8193V35.5718C2.28711 34.0379 3.53511 32.791 5.06791 32.791C6.60071 32.791 7.84871 34.039 7.84871 35.5718V37.8193C7.84871 39.3521 6.60071 40.6001 5.06791 40.6001ZM5.06791 33.8566C4.12284 33.8566 3.35378 34.6257 3.35378 35.5707V37.8182C3.35378 38.7633 4.12284 39.5323 5.06791 39.5323C6.01298 39.5323 6.78204 38.7633 6.78204 37.8182V35.5707C6.78204 34.6257 6.01298 33.8566 5.06791 33.8566Z" fill="#588F27"/>
<path d="M12.2133 37.3468H9.75892C9.46452 37.3468 9.22559 37.1079 9.22559 36.8135V33.3234C9.22559 33.029 9.46452 32.79 9.75892 32.79H12.2133C13.4699 32.79 14.4917 33.8119 14.4917 35.0684C14.4917 36.325 13.4699 37.3468 12.2133 37.3468ZM10.2912 36.2802H12.2123C12.88 36.2802 13.424 35.7362 13.424 35.0684C13.424 34.4007 12.88 33.8567 12.2123 33.8567H10.2912V36.2802Z" fill="#588F27"/>
<path d="M9.75794 40.6003C9.46354 40.6003 9.22461 40.3613 9.22461 40.0669V36.8136C9.22461 36.5192 9.46354 36.2803 9.75794 36.2803C10.0523 36.2803 10.2913 36.5192 10.2913 36.8136V40.0669C10.2913 40.3613 10.0534 40.6003 9.75794 40.6003Z" fill="#588F27"/>
<path d="M13.3663 40.6C13.1466 40.6 12.9407 40.4635 12.8639 40.2448L11.7109 36.9915C11.6127 36.7142 11.7578 36.4091 12.0351 36.311C12.3125 36.2128 12.6175 36.3579 12.7157 36.6352L13.8687 39.8886C13.9669 40.1659 13.8218 40.471 13.5445 40.5691C13.4858 40.5904 13.4261 40.6 13.3663 40.6Z" fill="#588F27"/>
<path d="M18.6485 40.6001C17.1146 40.6001 15.8677 39.3521 15.8677 37.8193V35.5718C15.8677 34.0379 17.1157 32.791 18.6485 32.791C19.3418 32.791 20.0063 33.0491 20.5205 33.5195C20.7381 33.7179 20.753 34.055 20.5546 34.2726C20.3562 34.4902 20.0191 34.5051 19.8015 34.3067C19.4847 34.0177 19.0751 33.8577 18.6485 33.8577C17.7034 33.8577 16.9343 34.6267 16.9343 35.5718V37.8193C16.9343 38.7643 17.7034 39.5334 18.6485 39.5334C19.4079 39.5334 20.0533 39.0374 20.2783 38.3526H19.4623C19.1679 38.3526 18.929 38.1137 18.929 37.8193C18.929 37.5249 19.1679 37.2859 19.4623 37.2859H20.897C21.1914 37.2859 21.4303 37.5249 21.4303 37.8193C21.4303 39.3521 20.1823 40.6001 18.6485 40.6001Z" fill="#588F27"/>
<path d="M28.4567 40.6002C28.1623 40.6002 27.9233 40.3612 27.9233 40.0668V35.8812C27.9233 34.7644 27.0145 33.8567 25.8988 33.8567C24.7831 33.8567 23.8743 34.7655 23.8743 35.8812V40.0668C23.8743 40.3612 23.6354 40.6002 23.341 40.6002C23.0466 40.6002 22.8076 40.3612 22.8076 40.0668V35.8812C22.8076 34.1767 24.1943 32.79 25.8988 32.79C27.6033 32.79 28.99 34.1767 28.99 35.8812V40.0668C28.99 40.3612 28.7511 40.6002 28.4567 40.6002Z" fill="#588F27"/>
<path d="M28.4568 38.5071H23.34C23.0456 38.5071 22.8066 38.2682 22.8066 37.9738C22.8066 37.6794 23.0456 37.4404 23.34 37.4404H28.4568C28.7512 37.4404 28.9901 37.6794 28.9901 37.9738C28.9901 38.2682 28.7512 38.5071 28.4568 38.5071Z" fill="#588F27"/>
<path d="M35.98 40.5998C35.8168 40.5998 35.6579 40.524 35.5555 40.3886L31.4339 34.9592V40.0664C31.4339 40.3608 31.1949 40.5998 30.9005 40.5998C30.6061 40.5998 30.3672 40.3608 30.3672 40.0664V33.3742C30.3672 33.1448 30.5133 32.9422 30.7309 32.8686C30.9475 32.796 31.1875 32.8696 31.3261 33.052L35.4477 38.4814V33.3742C35.4477 33.0798 35.6867 32.8408 35.9811 32.8408C36.2755 32.8408 36.5144 33.0798 36.5144 33.3742V40.0664C36.5144 40.2958 36.3683 40.4984 36.1507 40.572C36.0941 40.5912 36.0365 40.5998 35.98 40.5998Z" fill="#588F27"/>
<path d="M38.4235 40.6002C38.1291 40.6002 37.8901 40.3612 37.8901 40.0668V33.3234C37.8901 33.029 38.1291 32.79 38.4235 32.79C38.7179 32.79 38.9568 33.029 38.9568 33.3234V40.0668C38.9568 40.3612 38.7179 40.6002 38.4235 40.6002Z" fill="#588F27"/>
<path d="M43.1138 40.6001C41.5799 40.6001 40.333 39.3521 40.333 37.8193V35.5718C40.333 34.0379 41.581 32.791 43.1138 32.791C44.2925 32.791 45.3474 33.5409 45.7389 34.6566C45.837 34.935 45.6898 35.239 45.4125 35.3361C45.1351 35.4342 44.8301 35.287 44.733 35.0097C44.4909 34.3206 43.8402 33.8577 43.1138 33.8577C42.1687 33.8577 41.3997 34.6267 41.3997 35.5718V37.8193C41.3997 38.7643 42.1687 39.5334 43.1138 39.5334C43.8402 39.5334 44.4909 39.0705 44.733 38.3814C44.8311 38.103 45.1351 37.9579 45.4125 38.055C45.6909 38.1531 45.837 38.4571 45.7389 38.7345C45.3474 39.8502 44.2925 40.6001 43.1138 40.6001Z" fill="#588F27"/>
</svg>
