<svg width="85" height="84" viewBox="0 0 85 84" fill="none" xmlns="http://www.w3.org/2000/svg">
<g clip-path="url(#clip0_112_1302)">
<path d="M46.0698 18.0791L31.7971 8.77597H18.6023L4.32964 18.0775C2.24105 19.4395 0.982422 21.7654 0.982422 24.258V76.4176C0.982422 78.7767 2.08648 80.876 3.81031 82.226C5.06176 83.2071 6.64341 83.7934 8.35827 83.7934H42.0413C43.7966 83.7934 45.4081 83.1826 46.6719 82.1593C48.3499 80.8077 49.4189 78.7382 49.4189 76.4176V24.258C49.4189 21.7654 48.1587 19.4395 46.0698 18.0791ZM25.2007 25.7201C22.2324 25.7183 19.8259 23.3118 19.8259 20.3453C19.8276 17.377 22.2342 14.9705 25.2007 14.9705C28.1672 14.9705 30.5737 17.377 30.5755 20.3453C30.5755 23.3118 28.169 25.7183 25.2007 25.7201Z" fill="url(#paint0_linear_112_1302)"/>
<path d="M9.52738 40.2227C20.3581 40.2227 29.2766 32.0418 30.4444 21.5227C29.9071 23.9231 27.7641 25.7187 25.2007 25.7201C22.2324 25.7183 19.8259 23.3118 19.8259 20.3453C19.8276 17.377 22.2342 14.9705 25.2007 14.9705C28.0357 14.9705 30.3578 17.169 30.5597 19.9548C30.5691 19.6957 30.5755 19.4358 30.5755 19.1744C30.5755 15.3921 29.5771 11.8434 27.8306 8.77581H18.6024L4.3298 18.0774C2.24105 19.4395 0.982422 21.7654 0.982422 24.258V38.4145C3.59377 39.5762 6.48492 40.2227 9.52738 40.2227Z" fill="url(#paint1_linear_112_1302)"/>
<path d="M8.68164 34.9004V83.7934H42.0415C43.7968 83.7934 45.4083 83.1826 46.6721 82.1593C48.3501 80.8077 49.4191 78.7382 49.4191 76.4176V34.9004H8.68164Z" fill="url(#paint2_linear_112_1302)"/>
<path d="M0.982422 65.8903V76.4176C0.982422 78.7767 2.08648 80.876 3.81031 82.226C5.06176 83.2071 6.64341 83.7934 8.35827 83.7934H42.0413C43.7966 83.7934 45.4081 83.1826 46.6719 82.1593C48.3499 80.8077 49.4189 78.7382 49.4189 76.4176V65.8903H0.982422Z" fill="url(#paint3_linear_112_1302)"/>
<path d="M81.9742 42.8696L45.0915 5.98689C43.3292 4.22458 40.7948 3.47094 38.3546 3.98554L18.6839 8.13304C15.8232 8.73504 13.5898 10.9684 12.9878 13.8291L8.84048 33.4995C8.32588 35.9397 9.07952 38.4741 10.8418 40.2364L47.7245 77.119C49.3926 78.7871 51.6581 79.4902 53.8318 79.2261C55.4103 79.0353 56.9429 78.3323 58.156 77.119L81.974 53.3011C83.2147 52.0604 83.9225 50.4887 84.0924 48.8712C84.3223 46.7298 83.6147 44.5102 81.9742 42.8696ZM29.0006 24.1457C26.9004 26.2434 23.4976 26.2434 21.3997 24.1457C19.302 22.0455 19.302 18.6427 21.3997 16.5448C23.4976 14.4471 26.9004 14.4471 29.0006 16.5448C31.0983 18.6427 31.0983 22.0457 29.0006 24.1457Z" fill="url(#paint4_linear_112_1302)"/>
<path d="M27.0367 25.3901V56.4313L10.8421 40.2367C9.07981 38.4744 8.32502 35.9397 8.84109 33.4997L11.051 23.0134H20.535C20.7649 23.4189 21.0547 23.7998 21.4003 24.1455C22.9241 25.6693 25.1358 26.08 27.0367 25.3901Z" fill="url(#paint5_linear_112_1302)"/>
<path d="M84.0928 48.8712C83.9228 50.4887 83.2151 52.0604 81.9744 53.3011L58.1563 77.1192C56.9431 78.3323 55.4106 79.0354 53.832 79.2262L38.6649 64.059C37.771 63.5604 37.2402 62.6184 37.2402 61.7476C37.2402 61.4466 37.3413 61.0927 37.493 60.7917L55.1715 24.4765C55.5736 23.6195 56.3801 23.2174 57.2854 23.2174C58.3262 23.2174 59.4475 23.7941 59.9646 24.7431L84.0928 48.8712Z" fill="url(#paint6_linear_112_1302)"/>
<path d="M75.4436 59.8313L61.2553 74.0197L31.8378 44.602C30.4064 43.5335 29.5332 41.8058 29.5332 39.2345V32.0818C29.5332 27.0958 32.8074 25.2828 37.0879 25.2828C39.7671 25.2828 42.0809 26.0112 43.4204 27.8081L75.4436 59.8313Z" fill="url(#paint7_linear_112_1302)"/>
<path d="M78.8975 56.3778L64.7091 70.5661L54.914 60.7687C53.4825 59.7002 52.6094 57.9748 52.6094 55.4013V48.2485C52.6094 43.2624 55.8835 41.4495 60.1643 41.4495C62.8434 41.4495 65.1572 42.1779 66.4944 43.977L78.8975 56.3778Z" fill="url(#paint8_linear_112_1302)"/>
<path d="M29.3301 39.0296V31.8775C29.3301 26.8912 32.6039 25.078 36.885 25.078C41.1158 25.078 44.4402 26.8912 44.4402 31.8775V39.0296C44.4402 44.0159 41.1158 45.829 36.885 45.829C32.6039 45.829 29.3301 44.0159 29.3301 39.0296ZM39.4034 31.8775C39.4034 30.2154 38.4464 29.4598 36.885 29.4598C35.3237 29.4598 34.4171 30.2154 34.4171 31.8775V39.0296C34.4171 40.6916 35.3235 41.4472 36.885 41.4472C38.4466 41.4472 39.4034 40.6916 39.4034 39.0296V31.8775ZM60.0536 25.6825C60.0536 25.9848 60.0032 26.3373 59.8521 26.6396L42.1231 62.9539C41.7706 63.7095 40.8136 64.213 39.8567 64.213C38.1442 64.213 37.036 62.8029 37.036 61.5436C37.036 61.2414 37.1369 60.8887 37.2879 60.5866L54.9664 24.2723C55.3695 23.4161 56.1753 23.0131 57.0819 23.0131C58.4922 23.0129 60.0536 24.0706 60.0536 25.6825ZM52.4484 55.2475V48.0955C52.4484 43.1093 55.7222 41.2961 60.0032 41.2961C64.2341 41.2961 67.5581 43.1093 67.5581 48.0955V55.2475C67.5581 60.2339 64.2341 62.0471 60.0032 62.0471C55.7222 62.0471 52.4484 60.2339 52.4484 55.2475ZM62.5215 48.0955C62.5215 46.4335 61.5645 45.6779 60.0032 45.6779C58.442 45.6779 57.5352 46.4335 57.5352 48.0955V55.2475C57.5352 56.9097 58.442 57.6651 60.0032 57.6651C61.5645 57.6651 62.5215 56.9097 62.5215 55.2475V48.0955Z" fill="url(#paint9_linear_112_1302)"/>
<path d="M29.0015 16.5449C27.8975 15.4443 26.437 14.9212 24.9923 14.9775C24.4744 17.8316 22.5209 20.1891 19.9089 21.2739C18.9154 21.6864 17.8253 21.9146 16.6826 21.9146C14.7922 21.9146 13.0439 21.2897 11.636 20.2382C9.57354 18.6952 8.23599 16.2343 8.23599 13.4679C8.23599 8.81103 12.0239 5.02307 16.6826 5.02307C18.926 5.02307 20.9656 5.9008 22.4788 7.33309L27.3305 6.30975C25.0221 2.8885 21.1094 0.634735 16.6826 0.634735C9.60501 0.634735 3.84766 6.39046 3.84766 13.4679C3.84766 18.3757 6.61586 22.6501 10.6742 24.8073C12.4681 25.7622 14.513 26.3029 16.6826 26.3029C18.7451 26.3029 20.6953 25.8131 22.4225 24.9443C25.7014 23.2996 28.1818 20.2874 29.1121 16.6627C29.0769 16.6222 29.04 16.5836 29.0015 16.5449Z" fill="url(#paint10_linear_112_1302)"/>
<path d="M24.992 14.9775C24.4741 17.8316 22.5205 20.1891 19.9085 21.2739C18.915 21.6864 17.825 21.9146 16.6823 21.9146C16.2241 21.9146 15.7746 21.8772 15.3359 21.8066V26.2315C15.7786 26.2778 16.2275 26.3029 16.6823 26.3029C18.7448 26.3029 20.6949 25.8131 22.4222 24.9443C25.7011 23.2996 28.1815 20.2874 29.1117 16.6627C29.0767 16.6222 29.0398 16.5836 29.0012 16.5451C27.897 15.4445 26.4366 14.9214 24.992 14.9775Z" fill="url(#paint11_linear_112_1302)"/>
<path d="M16.6823 0.634735C16.2275 0.634735 15.7786 0.659357 15.3359 0.705665V5.1315C15.7746 5.06106 16.2239 5.02307 16.6823 5.02307C18.9256 5.02307 20.9653 5.9008 22.4785 7.33309L27.3302 6.30975C25.0218 2.8885 21.1091 0.634735 16.6823 0.634735Z" fill="url(#paint12_linear_112_1302)"/>
</g>
<defs>
<linearGradient id="paint0_linear_112_1302" x1="4.60618" y1="29.7444" x2="51.6313" y2="76.7695" gradientUnits="userSpaceOnUse">
<stop stop-color="#FEE45A"/>
<stop offset="1" stop-color="#FEA613"/>
</linearGradient>
<linearGradient id="paint1_linear_112_1302" x1="6.14022" y1="35.6462" x2="24.0444" y2="14.4068" gradientUnits="userSpaceOnUse">
<stop stop-color="#FEA613" stop-opacity="0"/>
<stop offset="1" stop-color="#E94444"/>
</linearGradient>
<linearGradient id="paint2_linear_112_1302" x1="16.3681" y1="64.1226" x2="34.0969" y2="55.5216" gradientUnits="userSpaceOnUse">
<stop stop-color="#FEA613" stop-opacity="0"/>
<stop offset="1" stop-color="#E94444"/>
</linearGradient>
<linearGradient id="paint3_linear_112_1302" x1="25.2007" y1="76.414" x2="25.2007" y2="85.1977" gradientUnits="userSpaceOnUse">
<stop stop-color="#FEA613" stop-opacity="0"/>
<stop offset="1" stop-color="#E94444"/>
</linearGradient>
<linearGradient id="paint4_linear_112_1302" x1="17.1458" y1="12.2908" x2="87.429" y2="82.5741" gradientUnits="userSpaceOnUse">
<stop stop-color="#8AC9FE"/>
<stop offset="1" stop-color="#814AA0"/>
</linearGradient>
<linearGradient id="paint5_linear_112_1302" x1="20.3927" y1="34.9688" x2="6.99579" y2="22.9878" gradientUnits="userSpaceOnUse">
<stop stop-color="#5B3374" stop-opacity="0"/>
<stop offset="1" stop-color="#5B3374"/>
</linearGradient>
<linearGradient id="paint6_linear_112_1302" x1="67.5829" y1="57.0295" x2="38.2872" y2="42.4391" gradientUnits="userSpaceOnUse">
<stop stop-color="#5B3374" stop-opacity="0"/>
<stop offset="1" stop-color="#5B3374"/>
</linearGradient>
<linearGradient id="paint7_linear_112_1302" x1="46.0707" y1="47.5405" x2="26.4299" y2="38.0335" gradientUnits="userSpaceOnUse">
<stop stop-color="#5B3374" stop-opacity="0"/>
<stop offset="1" stop-color="#5B3374"/>
</linearGradient>
<linearGradient id="paint8_linear_112_1302" x1="75.0382" y1="61.4947" x2="50.338" y2="49.5467" gradientUnits="userSpaceOnUse">
<stop stop-color="#5B3374" stop-opacity="0"/>
<stop offset="1" stop-color="#5B3374"/>
</linearGradient>
<linearGradient id="paint9_linear_112_1302" x1="29.3301" y1="43.6129" x2="44.4402" y2="43.6129" gradientUnits="userSpaceOnUse">
<stop stop-color="#EAF6FF"/>
<stop offset="1" stop-color="#B3DAFE"/>
</linearGradient>
<linearGradient id="paint10_linear_112_1302" x1="6.93382" y1="3.72025" x2="22.1237" y2="18.9102" gradientUnits="userSpaceOnUse">
<stop stop-color="#B3DAFE"/>
<stop offset="1" stop-color="#4FC123"/>
</linearGradient>
<linearGradient id="paint11_linear_112_1302" x1="22.1227" y1="20.5941" x2="27.7502" y2="14.9667" gradientUnits="userSpaceOnUse">
<stop stop-color="#4FC123" stop-opacity="0"/>
<stop offset="1" stop-color="#017B4E"/>
</linearGradient>
<linearGradient id="paint12_linear_112_1302" x1="18.9665" y1="2.20301" x2="23.2965" y2="8.63933" gradientUnits="userSpaceOnUse">
<stop stop-color="#4FC123" stop-opacity="0"/>
<stop offset="1" stop-color="#017B4E"/>
</linearGradient>
<clipPath id="clip0_112_1302">
<rect width="83.1587" height="83.1587" fill="white" transform="translate(0.978516 0.634735)"/>
</clipPath>
</defs>
</svg>
