<svg width="60" height="60" viewBox="0 0 60 60" fill="none" xmlns="http://www.w3.org/2000/svg">
<path d="M54.325 25.511H47.718C48.4232 21.8338 48.6656 18.0805 48.4393 14.3412L48.3947 13.5564L47.6222 13.4656C43.2764 12.9626 39.0278 11.8085 35.0147 10.0407C31.3793 8.43523 27.9737 6.33846 24.8904 3.80718L24.635 3.59961H23.8882L23.6328 3.80718C20.5531 6.3471 17.1443 8.44459 13.5021 10.0407C9.49196 11.8106 5.24515 12.9648 0.900935 13.4656L0.134907 13.5564L0.0774551 14.3347C-0.371831 21.9902 1.13913 29.6333 4.46296 36.5185C4.98642 37.5888 5.48433 38.5229 5.98225 39.3791C10.2361 46.6318 16.4363 52.5023 23.8562 56.3023L24.0541 56.3996H24.584L24.7819 56.3023C27.5004 54.9198 30.068 53.2501 32.4421 51.3207H54.4016C55.8907 51.2986 57.3116 50.6833 58.3587 49.6072C59.4057 48.5312 59.9951 47.0804 60 45.5672V31.2969C60.0017 30.5382 59.8562 29.7867 59.5718 29.0852C59.2874 28.3837 58.8698 27.7461 58.3427 27.2087C57.8157 26.6713 57.1895 26.2448 56.5002 25.9535C55.8108 25.6622 55.0716 25.5118 54.325 25.511ZM24.252 54.4212C17.3251 50.781 11.5402 45.242 7.55261 38.432C7.08023 37.6147 6.60146 36.7196 6.09716 35.6947C3.04949 29.3373 1.6102 22.3079 1.90954 15.2429C6.15945 14.6749 10.3105 13.5069 14.2426 11.7726C17.8208 10.1947 21.1848 8.1564 24.252 5.70772C27.3242 8.15587 30.6923 10.1941 34.2742 11.7726C38.2145 13.5074 42.3744 14.6733 46.6328 15.2364C46.7727 18.6819 46.5004 22.132 45.8221 25.511H25.3436C24.597 25.5118 23.8578 25.6622 23.1684 25.9535C22.4791 26.2448 21.8529 26.6713 21.3259 27.2087C20.7988 27.7461 20.3812 28.3837 20.0968 29.0852C19.8124 29.7867 19.6669 30.5382 19.6686 31.2969V45.5672C19.6686 47.0971 20.2663 48.5645 21.3304 49.647C22.3945 50.7295 23.8379 51.3384 25.3436 51.3402H29.2823C27.6802 52.4881 25.9991 53.5178 24.252 54.4212ZM58.1424 45.5672C58.1424 46.5994 57.7388 47.5893 57.0205 48.3192C56.3023 49.049 55.328 49.4591 54.3122 49.4591H25.3436C24.3278 49.4591 23.3536 49.049 22.6353 48.3192C21.917 47.5893 21.5135 46.5994 21.5135 45.5672V31.2969C21.5135 30.2647 21.917 29.2748 22.6353 28.5449C23.3536 27.8151 24.3278 27.405 25.3436 27.405H54.325C55.3408 27.405 56.315 27.8151 57.0333 28.5449C57.7516 29.2748 58.1551 30.2647 58.1551 31.2969L58.1424 45.5672Z" fill="black"/>
<path d="M25.5601 43.0264H29.0461V44.7724H25.5601V43.0264Z" fill="black"/>
<path d="M35.844 43.0264H42.642V44.7724H35.844V43.0264Z" fill="black"/>
<path d="M49.446 43.0264H52.932V44.7724H49.446V43.0264Z" fill="black"/>
<path d="M36.516 38.886C36.6307 38.8868 36.7445 38.8648 36.8507 38.8215C36.957 38.7781 37.0536 38.7142 37.135 38.6333C37.2165 38.5524 37.2811 38.4562 37.3252 38.3503C37.3693 38.2444 37.392 38.1307 37.392 38.016V31.002C37.392 30.7696 37.2997 30.5468 37.1354 30.3826C36.9711 30.2183 36.7483 30.126 36.516 30.126H25.56C25.4452 30.126 25.3316 30.1487 25.2256 30.1928C25.1197 30.2369 25.0235 30.3015 24.9426 30.3829C24.8618 30.4643 24.7978 30.561 24.7545 30.6672C24.7111 30.7734 24.6892 30.8872 24.69 31.002V38.016C24.69 38.2467 24.7816 38.468 24.9448 38.6312C25.1079 38.7943 25.3292 38.886 25.56 38.886H36.516ZM26.43 31.872H35.646V37.14H26.43V31.872Z" fill="black"/>
</svg>
