<svg width="38" height="38" viewBox="0 0 38 38" fill="none" xmlns="http://www.w3.org/2000/svg">
<g clip-path="url(#clip0_159_3111)">
<path d="M23.75 33.25L34.4375 33.25C36.402 33.25 38 31.652 38 29.6875L38 19C38 17.0355 36.402 15.4375 34.4375 15.4375L29.644 15.4375C29.644 15.4375 31.442 6.18843 31.4467 6.16427C31.5842 5.45674 30.9995 4.75 30.2813 4.75L26.434 4.75C25.4014 4.75 24.4835 5.42551 24.171 6.40369L20.714 14.6037C20.6943 14.6507 20.6775 14.6988 20.6641 14.7475C20.3475 15.8851 20.1875 17.0616 20.1875 18.2439L20.1875 29.6875C20.1875 31.652 21.7855 33.25 23.75 33.25ZM22.5625 18.2439C22.5625 17.3011 22.6872 16.3629 22.9324 15.4549L26.3836 7.26881C26.4033 7.22183 26.4207 7.17371 26.434 7.125L28.8404 7.125C28.8404 7.125 27.0392 16.3906 27.0377 16.3983C26.8971 17.1215 27.4677 17.8125 28.2031 17.8125L34.4375 17.8125C35.0921 17.8125 35.625 18.3454 35.625 19L35.625 29.6875C35.625 30.3421 35.0921 30.875 34.4375 30.875L23.75 30.875C23.0954 30.875 22.5625 30.3421 22.5625 29.6875L22.5625 18.2439Z" fill="white"/>
<path d="M3.5625 33.25L14.25 33.25C16.2145 33.25 17.8125 31.652 17.8125 29.6875L17.8125 19C17.8125 17.0355 16.2145 15.4375 14.25 15.4375L9.45593 15.4375C9.45593 15.4375 11.2553 6.18415 11.2592 6.16425C11.3981 5.45014 10.8189 4.75 10.0938 4.75L6.24598 4.75C5.21271 4.75 4.29541 5.42551 3.98347 6.40427L0.526502 14.6037C0.50679 14.6507 0.490556 14.6988 0.476639 14.7475C0.16004 15.8863 -4.92216e-07 17.0628 -5.95473e-07 18.2439L-1.59591e-06 29.6875C-1.76765e-06 31.652 1.59802 33.25 3.5625 33.25ZM2.375 18.2439C2.375 17.3022 2.50025 16.3647 2.74609 15.4549L6.19727 7.26881C6.21698 7.22184 6.23206 7.17429 6.24598 7.12501L8.65344 7.12501C8.65344 7.12501 6.85179 16.3899 6.85017 16.3983C6.7124 17.1067 7.27034 17.8125 8.01563 17.8125L14.25 17.8125C14.9052 17.8125 15.4375 18.3454 15.4375 19L15.4375 29.6875C15.4375 30.3421 14.9052 30.875 14.25 30.875L3.5625 30.875C2.90728 30.875 2.375 30.3421 2.375 29.6875L2.375 18.2439Z" fill="white"/>
</g>
<defs>
<clipPath id="clip0_159_3111">
<rect width="38" height="38" fill="white" transform="translate(38 38) rotate(-180)"/>
</clipPath>
</defs>
</svg>
