<svg width="60" height="60" viewBox="0 0 60 60" fill="none" xmlns="http://www.w3.org/2000/svg">
<path d="M51.158 3.9967C50.8139 3.6442 50.2493 3.63694 49.8969 3.98077L43.9288 9.80064L44.6556 6.17896C44.7524 5.69627 44.4396 5.22611 43.9567 5.1292C43.4743 5.03287 43.0037 5.34518 42.9069 5.82811L41.667 12.0061L39.1092 14.5003L39.8193 10.9623C39.9162 10.4796 39.6033 10.0095 39.1204 9.91255C38.6377 9.81587 38.1674 10.1285 38.0706 10.6115L36.8475 16.7059L32.2096 21.2284C31.857 21.5722 31.8499 22.1368 32.1937 22.4894C32.3685 22.6685 32.6002 22.7585 32.8323 22.7585C33.0569 22.7585 33.2814 22.6744 33.4548 22.5053L37.8109 18.2575L44.3516 18.1458C44.8441 18.1373 45.2364 17.7314 45.228 17.2389C45.2197 16.7515 44.8221 16.3623 44.3367 16.3623C44.3314 16.3623 44.3263 16.3623 44.3211 16.3624L39.6728 16.4418L42.7173 13.4729L49.1878 13.3623C49.6803 13.3539 50.0726 12.9479 50.0642 12.4554C50.0559 11.968 49.6583 11.5788 49.1729 11.5788C49.1676 11.5788 49.1625 11.5788 49.1573 11.579L44.5792 11.6572L51.142 5.25752C51.4948 4.91369 51.5018 4.3492 51.158 3.9967Z" fill="white"/>
<path d="M14.8055 16.8164C14.5199 16.4922 14.2424 16.1553 13.9806 15.815C13.6805 15.4247 13.1207 15.3514 12.73 15.6517C12.3396 15.9519 12.2665 16.5119 12.5667 16.9023C12.8524 17.2739 13.1554 17.6418 13.4671 17.9955C13.6435 18.1955 14.305 18.5072 14.7259 18.0751C15.0695 17.7223 15.131 17.1859 14.8055 16.8164Z" fill="white"/>
<path d="M34.3137 45.8506C32.7078 45.8506 31.4014 47.1571 31.4014 48.7629C31.4014 50.3689 32.7079 51.6753 34.3137 51.6753C35.9196 51.6753 37.226 50.3687 37.226 48.7629C37.2262 47.1571 35.9196 45.8506 34.3137 45.8506ZM34.3137 49.8919C33.6912 49.8919 33.1848 49.3855 33.1848 48.763C33.1848 48.1405 33.6912 47.6342 34.3137 47.6342C34.9362 47.6342 35.4426 48.1405 35.4426 48.763C35.4426 49.3854 34.9362 49.8919 34.3137 49.8919Z" fill="white"/>
<path d="M42.4613 50.6094C41.9686 50.6094 41.5695 51.0085 41.5695 51.5012C41.5695 51.9938 41.9686 52.393 42.4613 52.393C43.0838 52.393 43.5903 52.8993 43.5903 53.5218C43.5903 54.1443 43.0838 54.6508 42.4613 54.6508C41.8388 54.6508 41.3324 54.1443 41.3324 53.5218C41.3324 53.0292 40.9333 52.63 40.4406 52.63C39.948 52.63 39.5488 53.0292 39.5488 53.5218C39.5488 55.1279 40.8554 56.4343 42.4612 56.4343C44.0672 56.4343 45.3736 55.1278 45.3736 53.5218C45.3737 51.9159 44.0672 50.6094 42.4613 50.6094Z" fill="white"/>
<path d="M44.4817 34.0479C42.8759 34.0479 41.5693 35.3544 41.5693 36.9603C41.5693 38.5662 42.8759 39.8726 44.4817 39.8726C46.0876 39.8726 47.394 38.5661 47.394 36.9603C47.394 35.3543 46.0876 34.0479 44.4817 34.0479ZM44.4818 38.0892C43.8593 38.0892 43.3529 37.5828 43.3529 36.9603C43.3529 36.3378 43.8593 35.8313 44.4818 35.8313C45.1043 35.8313 45.6107 36.3377 45.6107 36.9603C45.6107 37.5827 45.1043 38.0892 44.4818 38.0892Z" fill="white"/>
<path d="M13.5676 33.335C11.9617 33.335 10.6553 34.6415 10.6553 36.2474C10.6553 37.8534 11.9618 39.1598 13.5676 39.1598C14.0603 39.1598 14.4594 38.7606 14.4594 38.268C14.4594 37.7753 14.0603 37.3762 13.5676 37.3762C12.9451 37.3762 12.4387 36.8698 12.4387 36.2473C12.4387 35.6248 12.9451 35.1183 13.5676 35.1183C14.1901 35.1183 14.6965 35.6248 14.6965 36.2473C14.6965 36.74 15.0956 37.1391 15.5883 37.1391C16.0809 37.1391 16.4801 36.74 16.4801 36.2473C16.4799 34.6414 15.1735 33.335 13.5676 33.335Z" fill="white"/>
<path d="M51.9667 46.6328C51.2939 46.6328 50.6312 46.7537 50.0084 46.9868C47.5678 40.9503 40.9866 41.3744 40.7514 41.3922C39.14 38.195 36.2079 35.9151 32.7959 35.0999C32.8899 32.0942 33.1638 29.1758 33.6167 26.4101C35.6944 26.2109 39.7266 25.5041 43.878 23.0146C46.855 21.2294 49.3302 18.856 51.2346 15.9606C53.5226 12.4816 54.973 8.25596 55.5456 3.40136C55.6519 2.50183 55.3555 1.60875 54.7325 0.951092C54.1106 0.294374 53.2319 -0.0499218 52.3297 0.00609374C52.1006 0.0207421 46.656 0.397148 41.1195 3.38062C37.2737 5.45284 34.0405 8.87342 31.7449 13.2287C31.2828 12.2819 30.7698 11.3761 30.2097 10.5245C28.305 7.62877 25.8298 5.2555 22.853 3.47038C17.1316 0.0394921 11.5414 0 11.3063 0C10.9113 0 9.86209 0 8.95905 0.903514C8.36632 1.49648 8.04206 2.31726 8.06972 3.15503C8.20097 7.18088 9.11468 10.8138 10.7856 13.9528C11.0169 14.3873 11.5566 14.5524 11.9919 14.3209C12.4265 14.0895 12.5914 13.5494 12.3599 13.1147C10.8181 10.2184 9.97436 6.84796 9.85213 3.09667C9.84077 2.74968 9.97495 2.40984 10.2205 2.16421C10.601 1.78347 11.0425 1.78347 11.3064 1.78347C11.5215 1.78347 16.6329 1.82015 21.9359 5.00003C24.6812 6.64616 26.9635 8.83463 28.7196 11.5044C29.4931 12.6804 30.1726 13.9685 30.7404 15.3333C30.4377 16.0371 30.1567 16.7601 29.9008 17.5026C29.7249 18.0205 29.5265 18.6479 29.3183 19.3802L26.5759 16.7059L25.3528 10.6114C25.2561 10.1285 24.7861 9.81584 24.3031 9.91252C23.8202 10.0094 23.5074 10.4796 23.6042 10.9623L24.3142 14.5003L21.7564 12.0061L20.5165 5.82807C20.4197 5.34515 19.9496 5.03272 19.4668 5.12917C18.9838 5.2262 18.6711 5.69612 18.7679 6.17893L19.4947 9.80072L13.5263 3.98062C13.1735 3.63679 12.6092 3.64406 12.2653 3.99655C11.9214 4.34917 11.9286 4.91378 12.2812 5.25749L18.844 11.6572L14.2659 11.5789C13.7738 11.5654 13.3674 11.9628 13.359 12.4554C13.3506 12.9479 13.7429 13.3538 14.2354 13.3623L20.7059 13.4729L23.7503 16.4417L19.1021 16.3624C18.6141 16.3515 18.2036 16.7463 18.1952 17.2388C18.1868 17.7314 18.5791 18.1373 19.0716 18.1457L25.6122 18.2574L28.8006 21.3665C28.5975 22.2174 28.3951 23.1593 28.2039 24.1942C26.271 23.7678 23.6199 22.9781 20.9405 21.5345C19.5889 20.8061 18.3309 19.9616 17.2015 19.0242C16.8226 18.7095 16.2603 18.7617 15.9458 19.1407C15.6311 19.5196 15.6834 20.0818 16.0622 20.3963C17.2823 21.4092 18.639 22.3203 20.0943 23.1044C22.9892 24.6644 25.8455 25.5058 27.9048 25.9544C27.5025 28.5452 27.1899 31.6095 27.0928 35.1254C23.7282 35.963 20.8423 38.2292 19.2484 41.3919C19.0131 41.3741 12.7591 40.701 9.99147 46.9866C9.36874 46.7535 8.70593 46.6326 8.03315 46.6326C4.95371 46.6326 2.44824 49.1379 2.44824 52.2175C2.44824 55.297 4.95359 57.8024 8.03315 57.8024C9.25788 57.8024 10.4417 57.3976 11.405 56.6684C13.1668 58.7711 15.7675 59.9998 18.5445 59.9998C20.8581 59.9998 23.0346 59.1654 24.7429 57.6372C26.374 58.4291 28.178 58.8454 29.9997 58.8454C31.8214 58.8454 33.6253 58.4292 35.2565 57.6372C36.9647 59.1655 39.1413 59.9998 41.455 59.9998C44.232 59.9998 46.8328 58.7711 48.5945 56.6684C49.5579 57.3976 50.7417 57.8024 51.9663 57.8024C55.0458 57.8024 57.5512 55.297 57.5512 52.2175C57.5512 49.1379 55.0461 46.6328 51.9667 46.6328ZM31.5881 18.08C33.6463 12.1102 37.3317 7.44748 41.9655 4.95058C47.1625 2.15003 52.2299 1.79941 52.4415 1.78605C52.8177 1.7632 53.1801 1.90558 53.4377 2.17746C53.6958 2.44992 53.8185 2.81964 53.7744 3.19242C53.2346 7.76928 51.8788 11.7355 49.7443 14.9806C47.9883 17.6504 45.7059 19.8389 42.9606 21.4851C38.4832 24.1699 34.0538 24.6128 32.8027 24.6846C32.3896 24.7082 32.0472 25.0129 31.9755 25.4204C31.4515 28.4 31.1326 31.5575 31.0208 34.8146C30.6831 34.7859 30.3429 34.7695 29.9997 34.7695C29.625 34.7695 29.2534 34.7886 28.8852 34.8228C29.1685 26.0806 30.8582 20.2295 31.5881 18.08ZM51.9667 56.019C50.8881 56.019 49.856 55.5575 49.1352 54.7531C48.9508 54.5475 48.6813 54.4392 48.4073 54.4587C48.1323 54.4783 47.8817 54.6241 47.7289 54.8536C46.3257 56.9593 43.9806 58.2164 41.4553 58.2164C39.4034 58.2164 37.4845 57.4044 36.0522 55.9301C35.8798 55.7525 35.6474 55.6597 35.4121 55.6597C35.2641 55.6597 35.1148 55.6966 34.9786 55.7724C33.463 56.6162 31.7414 57.0622 30.0001 57.0622C28.2589 57.0622 26.5373 56.6162 25.0217 55.7724C24.6691 55.5761 24.2291 55.641 23.9482 55.9301C22.516 57.4044 20.597 58.2164 18.5451 58.2164C16.0199 58.2164 13.6747 56.9593 12.2715 54.8536C12.1185 54.6241 11.868 54.4784 11.5931 54.4587C11.3197 54.4395 11.0494 54.5476 10.8652 54.7531C10.1443 55.5577 9.11221 56.019 8.03374 56.019C5.93761 56.019 4.2323 54.3137 4.2323 52.2176C4.2323 50.1215 5.93761 48.4162 8.03374 48.4162C8.7371 48.4162 9.42393 48.6099 10.0202 48.9763C10.2555 49.121 10.5441 49.1481 10.8025 49.0507C11.0607 48.9531 11.2592 48.7412 11.3399 48.4772C12.3141 45.29 15.2097 43.1486 18.5451 43.1486C18.9125 43.1486 19.2857 43.176 19.6541 43.2305C20.0519 43.2886 20.4404 43.0743 20.6015 42.7054C22.2352 38.9677 25.9246 36.5527 30.0003 36.5527C34.0759 36.5527 37.7653 38.9678 39.399 42.7054C39.56 43.0741 39.9481 43.2889 40.3464 43.2305C40.7149 43.176 41.0881 43.1486 41.4554 43.1486C44.7908 43.1486 47.6864 45.29 48.6606 48.4772C48.7413 48.7412 48.9398 48.9531 49.198 49.0507C49.4565 49.1482 49.7451 49.121 49.9803 48.9763C50.5766 48.6099 51.2635 48.4162 51.9668 48.4162C54.0629 48.4162 55.7682 50.1215 55.7682 52.2176C55.7682 54.3137 54.0628 56.019 51.9667 56.019Z" fill="white"/>
<path d="M41.0998 47.3842C41.5292 47.3842 41.8773 47.0361 41.8773 46.6066C41.8773 46.1772 41.5292 45.8291 41.0998 45.8291C40.6704 45.8291 40.3223 46.1772 40.3223 46.6066C40.3223 47.0361 40.6704 47.3842 41.0998 47.3842Z" fill="white"/>
<path d="M48.9045 42.2562C49.3339 42.2562 49.682 41.9081 49.682 41.4787C49.682 41.0493 49.3339 40.7012 48.9045 40.7012C48.4751 40.7012 48.127 41.0493 48.127 41.4787C48.127 41.9081 48.4751 42.2562 48.9045 42.2562Z" fill="white"/>
<path d="M10.0939 41.4789C10.5234 41.4789 10.8715 41.1308 10.8715 40.7014C10.8715 40.2719 10.5234 39.9238 10.0939 39.9238C9.66452 39.9238 9.31641 40.2719 9.31641 40.7014C9.31641 41.1308 9.66452 41.4789 10.0939 41.4789Z" fill="white"/>
</svg>
