<svg width="32" height="32" viewBox="0 0 32 32" fill="none" xmlns="http://www.w3.org/2000/svg">
<path d="M27.3329 7.56033V5C27.3329 3.897 26.4359 3 25.3329 3H15.3329C15.1563 3 14.9866 3.07033 14.8616 3.19533L1.52826 16.5287C1.26792 16.789 1.26792 17.211 1.52826 17.4713L12.8616 28.8047C12.9919 28.935 13.1623 29 13.3329 29C13.5036 29 13.6739 28.935 13.8043 28.8047L20.7359 21.873C21.7896 23.1963 23.1636 24 24.6663 24C27.9746 24 30.6663 20.1123 30.6663 15.3333C30.6663 12.001 29.3683 9.006 27.3329 7.56033ZM13.3329 27.3907L2.94226 17L15.6089 4.33333H25.3329C25.7006 4.33333 25.9996 4.63233 25.9996 5V14.724L20.9536 19.7697C20.3556 18.537 19.9996 16.9997 19.9996 15.3333C19.9996 14.3867 20.1243 13.463 20.3479 12.6017C20.5586 12.6437 20.7766 12.6667 20.9996 12.6667C22.8376 12.6667 24.3329 11.1713 24.3329 9.33333C24.3329 7.49533 22.8376 6 20.9996 6C19.1616 6 17.6663 7.49533 17.6663 9.33333C17.6663 10.4697 18.2389 11.4737 19.1096 12.0757C18.8233 13.102 18.6663 14.2067 18.6663 15.3333C18.6663 17.3777 19.1599 19.2573 19.9826 20.741L13.3329 27.3907ZM21.4736 8.87533C21.1763 8.658 20.7596 8.72233 20.5416 9.019C20.1669 9.53 19.8489 10.114 19.5799 10.7403C19.2216 10.3787 18.9996 9.88167 18.9996 9.33333C18.9996 8.23033 19.8966 7.33333 20.9996 7.33333C22.1026 7.33333 22.9996 8.23033 22.9996 9.33333C22.9996 10.4363 22.1026 11.3333 20.9996 11.3333C20.9249 11.3333 20.8516 11.3287 20.7793 11.3207C21.0126 10.767 21.2899 10.2537 21.6169 9.80733C21.8346 9.51033 21.7703 9.093 21.4736 8.87533ZM24.6663 22.6667C23.5243 22.6667 22.4773 22.0177 21.6653 20.9437L27.1376 15.4713C27.2626 15.3463 27.3329 15.1767 27.3329 15V9.34167C28.5603 10.7033 29.3329 12.9373 29.3329 15.3333C29.3329 19.377 27.2396 22.6667 24.6663 22.6667Z" fill="url(#paint0_linear_357_4609)"/>
<defs>
<linearGradient id="paint0_linear_357_4609" x1="15.9996" y1="3" x2="15.9996" y2="29" gradientUnits="userSpaceOnUse">
<stop stop-color="#F44369"/>
<stop offset="1" stop-color="#3E3B92"/>
</linearGradient>
</defs>
</svg>
