<svg width="74" height="74" viewBox="0 0 74 74" fill="none" xmlns="http://www.w3.org/2000/svg">
<g clip-path="url(#clip0_159_3071)">
<path d="M45.6774 39.17C45.6774 45.1508 40.8116 50.0166 34.8307 50.0166C28.8499 50.0166 23.9841 45.1508 23.9841 39.17C23.9841 33.189 28.8499 28.323 34.8307 28.323C37.0387 28.323 39.0937 28.9879 40.8091 30.1255L47.0994 23.8352C46.9575 23.7314 46.8148 23.6281 46.6697 23.5266C42.4039 20.5457 38.1307 19.0391 33.9507 19.0391C33.5678 19.0391 33.186 19.0516 32.8047 19.0769C27.7611 19.4202 23.0624 21.6655 19.5773 25.3989C16.0836 29.1356 14.1602 34.0257 14.1602 39.17C14.1602 44.6893 16.3108 49.8797 20.2157 53.7847C24.121 57.6899 29.3112 59.8404 34.8306 59.8404C40.3499 59.8404 45.5403 57.6898 49.4454 53.7847C53.3504 49.8796 55.5009 44.6893 55.5009 39.17C55.5009 34.6268 53.6662 30.2651 50.3538 26.7124L43.8746 33.1914C45.0127 34.9069 45.6774 36.9619 45.6774 39.17Z" fill="#51150A"/>
<path d="M33.297 37.6366L37.6376 33.2961C36.787 32.8878 35.8348 32.6587 34.83 32.6587C31.24 32.6587 28.3193 35.5795 28.3193 39.1697C28.3193 42.7597 31.24 45.6804 34.83 45.6804C38.42 45.6804 41.3407 42.7597 41.3407 39.1697C41.3407 38.1649 41.1117 37.2126 40.7035 36.362L36.3631 40.7024L33.297 37.6366Z" fill="#51150A"/>
<path d="M56.1192 20.9466L53.4216 23.6441C57.547 28.012 59.8367 33.4556 59.8367 39.1697C59.8367 45.8473 57.2351 52.1263 52.5111 56.8503C47.787 61.5745 41.5078 64.1762 34.8303 64.1762C28.1528 64.1762 21.8737 61.5745 17.1495 56.8503C12.4254 52.1263 9.82379 45.8471 9.82379 39.1697C9.82379 32.9219 12.1625 26.98 16.4086 22.4386C20.6453 17.8997 26.3654 15.1688 32.5136 14.7504C38.071 14.3831 43.6672 16.1387 49.1529 19.9723C49.509 20.2212 49.8553 20.4776 50.1954 20.7386L53.0534 17.8806L53.5111 9.75928C47.9793 6.2304 41.5504 4.33936 34.8304 4.33936C25.527 4.33936 16.7802 7.96232 10.2017 14.5408C3.62296 21.1193 0 29.866 0 39.1695C0 48.473 3.62297 57.2197 10.2016 63.7982C16.7802 70.3767 25.5268 73.9998 34.8303 73.9998C44.1338 73.9998 52.8805 70.3768 59.459 63.7982C66.0375 57.2196 69.6605 48.473 69.6605 39.1695C69.6605 32.4495 67.7693 26.0206 64.2405 20.4888L56.1192 20.9466Z" fill="#51150A"/>
<path d="M57.4727 16.5277L66.3321 16.0284L74.0004 8.35998L65.6406 0L57.9722 7.66825L57.4727 16.5277Z" fill="#51150A"/>
</g>
<defs>
<clipPath id="clip0_159_3071">
<rect width="74" height="74" fill="white"/>
</clipPath>
</defs>
</svg>
