<svg width="32" height="32" viewBox="0 0 32 32" fill="none" xmlns="http://www.w3.org/2000/svg">
<g clip-path="url(#clip0_329_1857)">
<path fill-rule="evenodd" clip-rule="evenodd" d="M24 32H8C5.8783 31.9999 3.84352 31.157 2.34325 29.6568C0.842977 28.1565 9.28184e-05 26.1217 0 24L0 8C9.28184e-05 5.8783 0.842977 3.84352 2.34325 2.34325C3.84352 0.842977 5.8783 9.28184e-05 8 0L24 0C26.1217 0 28.1566 0.842855 29.6569 2.34315C31.1571 3.84344 32 5.87827 32 8V24C32 26.1217 31.1571 28.1566 29.6569 29.6569C28.1566 31.1571 26.1217 32 24 32Z" fill="#0F9DFF"/>
<path fill-rule="evenodd" clip-rule="evenodd" d="M15 9H24C25.1536 8.99993 26.2632 8.55683 27.0995 7.7622C27.9359 6.96758 28.4351 5.88213 28.4941 4.73C28.5532 3.57788 28.1675 2.44708 27.4168 1.57113C26.666 0.695185 25.6076 0.140991 24.46 0.023C24.307 0.0145 24.1555 0 24 0H8C5.8783 9.28184e-05 3.84352 0.842977 2.34325 2.34325C0.842977 3.84352 9.28184e-05 5.8783 0 8L0 24C9.28219e-05 20.0218 1.58048 16.2065 4.3935 13.3935C7.20653 10.5805 11.0218 9.00009 15 9Z" fill="#00B7FF"/>
<path fill-rule="evenodd" clip-rule="evenodd" d="M24 16C22.4178 16 20.871 16.4692 19.5554 17.3482C18.2399 18.2273 17.2145 19.4767 16.609 20.9385C16.0035 22.4003 15.845 24.0089 16.1537 25.5607C16.4624 27.1126 17.2243 28.538 18.3431 29.6569C19.462 30.7757 20.8874 31.5376 22.4393 31.8463C23.9911 32.155 25.5997 31.9965 27.0615 31.391C28.5233 30.7855 29.7727 29.7602 30.6518 28.4446C31.5308 27.129 32 25.5822 32 24V8C32 10.1217 31.1572 12.1566 29.6569 13.6569C28.1566 15.1571 26.1217 16 24 16Z" fill="#1D83FF"/>
<path d="M12.288 24.1281C19.957 24.1281 24.2105 17.6161 23.952 11.9281C24.5202 11.5175 25.0338 11.0363 25.4805 10.4961C25.5143 10.4543 25.5337 10.4027 25.5358 10.3489C25.5378 10.2952 25.5224 10.2422 25.4919 10.198C25.4613 10.1537 25.4172 10.1205 25.3662 10.1034C25.3152 10.0863 25.26 10.0862 25.209 10.1031C24.8718 10.2114 24.5281 10.2984 24.18 10.3636C24.1524 10.3685 24.1241 10.364 24.0994 10.3507C24.0747 10.3375 24.0552 10.3164 24.044 10.2908C24.0328 10.2652 24.0306 10.2365 24.0377 10.2094C24.0447 10.1824 24.0607 10.1585 24.083 10.1416C24.5311 9.7871 24.9004 9.34318 25.1675 8.83809C25.1906 8.79206 25.1986 8.73993 25.1905 8.68908C25.1823 8.63823 25.1584 8.59122 25.1221 8.55469C25.0858 8.51817 25.0389 8.49397 24.9881 8.48552C24.9373 8.47707 24.8852 8.48479 24.839 8.50759C24.2029 8.81064 23.5314 9.03255 22.84 9.16809C22.2771 8.568 21.5467 8.15099 20.7438 7.97122C19.9409 7.79144 19.1025 7.85719 18.3375 8.15994C17.5724 8.46269 16.916 8.98845 16.4535 9.66896C15.991 10.3495 15.7438 11.1533 15.744 11.9761C15.7451 12.2376 15.7697 12.4985 15.8175 12.7556C15.821 12.7743 15.8202 12.7936 15.8152 12.8119C15.8102 12.8303 15.801 12.8472 15.7884 12.8615C15.7758 12.8758 15.7601 12.887 15.7426 12.8943C15.725 12.9016 15.706 12.9048 15.687 12.9036C12.7183 12.7137 9.93504 11.3942 7.90898 9.21609C7.85044 9.15112 7.77578 9.10276 7.69256 9.07589C7.60934 9.04902 7.52049 9.04459 7.43501 9.06306C7.34953 9.08153 7.27044 9.12223 7.20573 9.18106C7.14102 9.23989 7.09298 9.31475 7.06648 9.39809C6.78651 10.1771 6.75611 11.024 6.97949 11.8211C7.20287 12.6182 7.66895 13.326 8.31298 13.8461C8.33388 13.8628 8.34871 13.8859 8.35521 13.9119C8.36171 13.9378 8.35951 13.9652 8.34895 13.9898C8.33839 14.0144 8.32005 14.0348 8.29675 14.0479C8.27346 14.0611 8.24648 14.0662 8.21998 14.0626C7.98555 14.0307 7.75446 13.9778 7.52948 13.9046C7.44737 13.8771 7.35948 13.8717 7.27463 13.8889C7.18977 13.9061 7.11092 13.9453 7.04598 14.0026C6.97937 14.0586 6.92944 14.1318 6.90166 14.2143C6.87388 14.2967 6.86932 14.3852 6.88848 14.4701C7.75748 17.8161 10.111 17.3896 10.111 17.6431C10.111 17.8146 9.64548 17.8146 9.02148 17.8161C8.93703 17.8165 8.85409 17.8386 8.78063 17.8802C8.70717 17.9219 8.64566 17.9818 8.60198 18.0541C8.55831 18.1263 8.53395 18.2086 8.53123 18.293C8.52852 18.3775 8.54754 18.4612 8.58648 18.5361C8.91489 19.1008 9.37226 19.5797 9.92122 19.9337C10.4702 20.2878 11.0951 20.5069 11.745 20.5731C11.7702 20.575 11.7943 20.5847 11.8139 20.6007C11.8335 20.6168 11.8477 20.6385 11.8546 20.6628C11.8614 20.6872 11.8606 20.7131 11.8523 20.737C11.844 20.761 11.8285 20.7818 11.808 20.7966C10.6729 21.6176 9.34604 22.1336 7.95448 22.2951C7.84675 22.3036 7.74497 22.3479 7.66533 22.421C7.58569 22.494 7.53278 22.5916 7.51501 22.6982C7.49725 22.8048 7.51565 22.9143 7.56729 23.0092C7.61893 23.1042 7.70084 23.1791 7.79998 23.2221C9.21991 23.8226 10.7463 24.1307 12.288 24.1281Z" fill="white"/>
</g>
<defs>
<clipPath id="clip0_329_1857">
<rect width="32" height="32" fill="white"/>
</clipPath>
</defs>
</svg>
