<svg width="131" height="62" viewBox="0 0 131 62" fill="none" xmlns="http://www.w3.org/2000/svg">
<rect width="131" height="62" fill="#F5F5F5"/>
<path d="M12.9809 39.48C10.7409 39.48 8.59427 39.1867 6.54094 38.6C4.4876 37.9867 2.83427 37.2 1.58094 36.24L3.78094 31.36C4.98094 32.2133 6.39427 32.92 8.02094 33.48C9.67427 34.0133 11.3409 34.28 13.0209 34.28C14.3009 34.28 15.3276 34.16 16.1009 33.92C16.9009 33.6533 17.4876 33.2933 17.8609 32.84C18.2343 32.3867 18.4209 31.8667 18.4209 31.28C18.4209 30.5333 18.1276 29.9467 17.5409 29.52C16.9543 29.0667 16.1809 28.7067 15.2209 28.44C14.2609 28.1467 13.1943 27.88 12.0209 27.64C10.8743 27.3733 9.71427 27.0533 8.54094 26.68C7.39427 26.3067 6.34094 25.8267 5.38094 25.24C4.42094 24.6533 3.63427 23.88 3.02094 22.92C2.43427 21.96 2.14094 20.7333 2.14094 19.24C2.14094 17.64 2.5676 16.1867 3.42094 14.88C4.30094 13.5467 5.6076 12.4933 7.34094 11.72C9.10094 10.92 11.3009 10.52 13.9409 10.52C15.7009 10.52 17.4343 10.7333 19.1409 11.16C20.8476 11.56 22.3543 12.1733 23.6609 13L21.6609 17.92C20.3543 17.1733 19.0476 16.6267 17.7409 16.28C16.4343 15.9067 15.1543 15.72 13.9009 15.72C12.6476 15.72 11.6209 15.8667 10.8209 16.16C10.0209 16.4533 9.4476 16.84 9.10094 17.32C8.75427 17.7733 8.58094 18.3067 8.58094 18.92C8.58094 19.64 8.87427 20.2267 9.46094 20.68C10.0476 21.1067 10.8209 21.4533 11.7809 21.72C12.7409 21.9867 13.7943 22.2533 14.9409 22.52C16.1143 22.7867 17.2743 23.0933 18.4209 23.44C19.5943 23.7867 20.6609 24.2533 21.6209 24.84C22.5809 25.4267 23.3543 26.2 23.9409 27.16C24.5543 28.12 24.8609 29.3333 24.8609 30.8C24.8609 32.3733 24.4209 33.8133 23.5409 35.12C22.6609 36.4267 21.3409 37.48 19.5809 38.28C17.8476 39.08 15.6476 39.48 12.9809 39.48ZM48.4888 11H54.9688V39H48.4888V11ZM35.7688 39H29.2888V11H35.7688V39ZM48.9688 27.52H35.2888V22.04H48.9688V27.52ZM67.5534 22.28H81.0334V27.32H67.5534V22.28ZM68.0334 33.8H83.2734V39H61.5934V11H82.7534V16.2H68.0334V33.8ZM88.4294 39V11H94.9094V39H88.4294ZM101.554 39V11H106.914L123.434 31.16H120.834V11H127.234V39H121.914L105.354 18.84H107.954V39H101.554Z" fill="black"/>
<path d="M7.12001 61.17C6.19067 61.17 5.30101 61.0397 4.45101 60.779C3.60101 60.507 2.92667 60.1613 2.42801 59.742L3.19301 58.025C3.66901 58.399 4.25834 58.7107 4.96101 58.96C5.66367 59.2093 6.38334 59.334 7.12001 59.334C7.74334 59.334 8.24767 59.266 8.63301 59.13C9.01834 58.994 9.30167 58.8127 9.48301 58.586C9.66434 58.348 9.75501 58.0817 9.75501 57.787C9.75501 57.4243 9.62467 57.1353 9.36401 56.92C9.10334 56.6933 8.76334 56.5177 8.34401 56.393C7.93601 56.257 7.47701 56.1323 6.96701 56.019C6.46834 55.9057 5.96401 55.7753 5.45401 55.628C4.95534 55.4693 4.49634 55.271 4.07701 55.033C3.66901 54.7837 3.33467 54.455 3.07401 54.047C2.81334 53.639 2.68301 53.1177 2.68301 52.483C2.68301 51.837 2.85301 51.2477 3.19301 50.715C3.54434 50.171 4.07134 49.7403 4.77401 49.423C5.48801 49.0943 6.38901 48.93 7.47701 48.93C8.19101 48.93 8.89934 49.0207 9.60201 49.202C10.3047 49.3833 10.9167 49.644 11.438 49.984L10.741 51.701C10.2083 51.3837 9.65867 51.1513 9.09201 51.004C8.52534 50.8453 7.98134 50.766 7.46001 50.766C6.84801 50.766 6.34934 50.8397 5.96401 50.987C5.59001 51.1343 5.31234 51.327 5.13101 51.565C4.96101 51.803 4.87601 52.075 4.87601 52.381C4.87601 52.7437 5.00067 53.0383 5.25001 53.265C5.51067 53.4803 5.84501 53.6503 6.25301 53.775C6.67234 53.8997 7.13701 54.0243 7.64701 54.149C8.15701 54.2623 8.66134 54.3927 9.16001 54.54C9.67001 54.6873 10.129 54.88 10.537 55.118C10.9563 55.356 11.2907 55.679 11.54 56.087C11.8007 56.495 11.931 57.0107 11.931 57.634C11.931 58.2687 11.7553 58.858 11.404 59.402C11.064 59.9347 10.537 60.3653 9.82301 60.694C9.10901 61.0113 8.20801 61.17 7.12001 61.17ZM16.3704 61V50.97H12.4264V49.1H22.5244V50.97H18.5804V61H16.3704ZM26.9243 61V56.291L27.4173 57.651L22.2493 49.1H24.6123L28.7603 55.985H27.4343L31.6163 49.1H33.7923L28.6243 57.651L29.1343 56.291V61H26.9243ZM35.0902 61V49.1H37.3002V59.13H43.5222V61H35.0902ZM47.3069 54.047H53.2229V55.866H47.3069V54.047ZM47.4769 59.147H54.1919V61H45.2669V49.1H53.9539V50.953H47.4769V59.147ZM65.0429 61.17C64.1135 61.17 63.2239 61.0397 62.3739 60.779C61.5239 60.507 60.8495 60.1613 60.3509 59.742L61.1159 58.025C61.5919 58.399 62.1812 58.7107 62.8839 58.96C63.5865 59.2093 64.3062 59.334 65.0429 59.334C65.6662 59.334 66.1705 59.266 66.5559 59.13C66.9412 58.994 67.2245 58.8127 67.4059 58.586C67.5872 58.348 67.6779 58.0817 67.6779 57.787C67.6779 57.4243 67.5475 57.1353 67.2869 56.92C67.0262 56.6933 66.6862 56.5177 66.2669 56.393C65.8589 56.257 65.3999 56.1323 64.8899 56.019C64.3912 55.9057 63.8869 55.7753 63.3769 55.628C62.8782 55.4693 62.4192 55.271 61.9999 55.033C61.5919 54.7837 61.2575 54.455 60.9969 54.047C60.7362 53.639 60.6059 53.1177 60.6059 52.483C60.6059 51.837 60.7759 51.2477 61.1159 50.715C61.4672 50.171 61.9942 49.7403 62.6969 49.423C63.4109 49.0943 64.3119 48.93 65.3999 48.93C66.1139 48.93 66.8222 49.0207 67.5249 49.202C68.2275 49.3833 68.8395 49.644 69.3609 49.984L68.6639 51.701C68.1312 51.3837 67.5815 51.1513 67.0149 51.004C66.4482 50.8453 65.9042 50.766 65.3829 50.766C64.7709 50.766 64.2722 50.8397 63.8869 50.987C63.5129 51.1343 63.2352 51.327 63.0539 51.565C62.8839 51.803 62.7989 52.075 62.7989 52.381C62.7989 52.7437 62.9235 53.0383 63.1729 53.265C63.4335 53.4803 63.7679 53.6503 64.1759 53.775C64.5952 53.8997 65.0599 54.0243 65.5699 54.149C66.0799 54.2623 66.5842 54.3927 67.0829 54.54C67.5929 54.6873 68.0519 54.88 68.4599 55.118C68.8792 55.356 69.2135 55.679 69.4629 56.087C69.7235 56.495 69.8539 57.0107 69.8539 57.634C69.8539 58.2687 69.6782 58.858 69.3269 59.402C68.9869 59.9347 68.4599 60.3653 67.7459 60.694C67.0319 61.0113 66.1309 61.17 65.0429 61.17ZM74.2933 61V50.97H70.3493V49.1H80.4473V50.97H76.5033V61H74.2933ZM87.5158 61.17C86.5865 61.17 85.7308 61.017 84.9488 60.711C84.1668 60.405 83.4868 59.98 82.9088 59.436C82.3308 58.8807 81.8831 58.2347 81.5658 57.498C81.2485 56.75 81.0898 55.934 81.0898 55.05C81.0898 54.166 81.2485 53.3557 81.5658 52.619C81.8831 51.871 82.3308 51.225 82.9088 50.681C83.4868 50.1257 84.1668 49.695 84.9488 49.389C85.7308 49.083 86.5808 48.93 87.4988 48.93C88.4281 48.93 89.2781 49.083 90.0488 49.389C90.8308 49.695 91.5108 50.1257 92.0888 50.681C92.6668 51.225 93.1145 51.871 93.4318 52.619C93.7491 53.3557 93.9078 54.166 93.9078 55.05C93.9078 55.934 93.7491 56.75 93.4318 57.498C93.1145 58.246 92.6668 58.892 92.0888 59.436C91.5108 59.98 90.8308 60.405 90.0488 60.711C89.2781 61.017 88.4338 61.17 87.5158 61.17ZM87.4988 59.232C88.0995 59.232 88.6548 59.13 89.1648 58.926C89.6748 58.722 90.1168 58.433 90.4908 58.059C90.8648 57.6737 91.1538 57.2317 91.3578 56.733C91.5731 56.223 91.6808 55.662 91.6808 55.05C91.6808 54.438 91.5731 53.8827 91.3578 53.384C91.1538 52.874 90.8648 52.432 90.4908 52.058C90.1168 51.6727 89.6748 51.378 89.1648 51.174C88.6548 50.97 88.0995 50.868 87.4988 50.868C86.8981 50.868 86.3428 50.97 85.8328 51.174C85.3341 51.378 84.8921 51.6727 84.5068 52.058C84.1328 52.432 83.8381 52.874 83.6228 53.384C83.4188 53.8827 83.3168 54.438 83.3168 55.05C83.3168 55.6507 83.4188 56.206 83.6228 56.716C83.8381 57.226 84.1328 57.6737 84.5068 58.059C84.8808 58.433 85.3228 58.722 85.8328 58.926C86.3428 59.13 86.8981 59.232 87.4988 59.232ZM96.2503 61V49.1H101.146C102.2 49.1 103.101 49.27 103.849 49.61C104.609 49.95 105.192 50.4373 105.6 51.072C106.008 51.7067 106.212 52.4603 106.212 53.333C106.212 54.2057 106.008 54.9593 105.6 55.594C105.192 56.2173 104.609 56.699 103.849 57.039C103.101 57.3677 102.2 57.532 101.146 57.532H97.4743L98.4603 56.529V61H96.2503ZM104.036 61L101.027 56.682H103.39L106.416 61H104.036ZM98.4603 56.767L97.4743 55.713H101.044C102.019 55.713 102.75 55.5033 103.237 55.084C103.736 54.6647 103.985 54.081 103.985 53.333C103.985 52.5737 103.736 51.99 103.237 51.582C102.75 51.174 102.019 50.97 101.044 50.97H97.4743L98.4603 49.882V56.767ZM110.725 54.047H116.641V55.866H110.725V54.047ZM110.895 59.147H117.61V61H108.685V49.1H117.372V50.953H110.895V59.147ZM123.763 61.17C122.833 61.17 121.944 61.0397 121.094 60.779C120.244 60.507 119.569 60.1613 119.071 59.742L119.836 58.025C120.312 58.399 120.901 58.7107 121.604 58.96C122.306 59.2093 123.026 59.334 123.763 59.334C124.386 59.334 124.89 59.266 125.276 59.13C125.661 58.994 125.944 58.8127 126.126 58.586C126.307 58.348 126.398 58.0817 126.398 57.787C126.398 57.4243 126.267 57.1353 126.007 56.92C125.746 56.6933 125.406 56.5177 124.987 56.393C124.579 56.257 124.12 56.1323 123.61 56.019C123.111 55.9057 122.607 55.7753 122.097 55.628C121.598 55.4693 121.139 55.271 120.72 55.033C120.312 54.7837 119.977 54.455 119.717 54.047C119.456 53.639 119.326 53.1177 119.326 52.483C119.326 51.837 119.496 51.2477 119.836 50.715C120.187 50.171 120.714 49.7403 121.417 49.423C122.131 49.0943 123.032 48.93 124.12 48.93C124.834 48.93 125.542 49.0207 126.245 49.202C126.947 49.3833 127.559 49.644 128.081 49.984L127.384 51.701C126.851 51.3837 126.301 51.1513 125.735 51.004C125.168 50.8453 124.624 50.766 124.103 50.766C123.491 50.766 122.992 50.8397 122.607 50.987C122.233 51.1343 121.955 51.327 121.774 51.565C121.604 51.803 121.519 52.075 121.519 52.381C121.519 52.7437 121.643 53.0383 121.893 53.265C122.153 53.4803 122.488 53.6503 122.896 53.775C123.315 53.8997 123.78 54.0243 124.29 54.149C124.8 54.2623 125.304 54.3927 125.803 54.54C126.313 54.6873 126.772 54.88 127.18 55.118C127.599 55.356 127.933 55.679 128.183 56.087C128.443 56.495 128.574 57.0107 128.574 57.634C128.574 58.2687 128.398 58.858 128.047 59.402C127.707 59.9347 127.18 60.3653 126.466 60.694C125.752 61.0113 124.851 61.17 123.763 61.17Z" fill="black"/>
</svg>
