<svg width="60" height="60" viewBox="0 0 60 60" fill="none" xmlns="http://www.w3.org/2000/svg">
<path fill-rule="evenodd" clip-rule="evenodd" d="M30.3253 55.0943L32.2724 49.877L34.2011 55.0928L35.8491 54.4581L33.0143 46.7925L31.5382 46.7938L28.6792 54.4546L30.3253 55.0943Z" fill="#56B03D"/>
<path fill-rule="evenodd" clip-rule="evenodd" d="M29.8113 52.2642C29.8113 52.7852 30.2105 53.2075 30.7029 53.2075H34.2027C34.6952 53.2075 35.0943 52.7852 35.0943 52.2642C35.0943 51.7431 34.6952 51.3208 34.2027 51.3208H30.7029C30.2105 51.3208 29.8113 51.7431 29.8113 52.2642Z" fill="#56B03D"/>
<path fill-rule="evenodd" clip-rule="evenodd" d="M39.1997 54.717V50.2904L42.0595 54.622H43.7736V46.7925H41.9324V51.1359L39.0724 46.804H37.3585V54.717H39.1997Z" fill="#56B03D"/>
<path fill-rule="evenodd" clip-rule="evenodd" d="M47.1698 54.717V46.7925H45.283V54.717H47.1698Z" fill="#56B03D"/>
<path fill-rule="evenodd" clip-rule="evenodd" d="M24.3632 52.9647C23.1354 52.9647 22.1401 51.9753 22.1401 50.7547C22.1401 49.5341 23.1354 48.5447 24.3632 48.5447C24.8249 48.5447 25.2513 48.6836 25.6055 48.9216L26.3357 49.4121L27.3227 47.9603L26.5924 47.4697C25.9558 47.0421 25.1873 46.7925 24.3632 46.7925C22.1619 46.7925 20.3774 48.5663 20.3774 50.7547C20.3774 52.943 22.1619 54.717 24.3632 54.717C25.4832 54.717 26.4057 54.2547 27.0306 53.4888C27.6397 52.7424 27.9245 51.7626 27.9245 50.7547V49.8785H24.3044V51.6308H26.0438C25.9561 51.9316 25.8239 52.1861 25.6616 52.385C25.3751 52.7362 24.9577 52.9647 24.3632 52.9647Z" fill="#56B03D"/>
<path fill-rule="evenodd" clip-rule="evenodd" d="M19.2453 53.9553L16.0621 50.1887L14.717 51.3277L17.9001 55.0943L19.2453 53.9553Z" fill="#56B03D"/>
<path fill-rule="evenodd" clip-rule="evenodd" d="M15.6513 54.717L15.6517 51.7561L16.3918 51.7527C17.692 51.7516 18.8679 50.6924 18.8679 49.2726C18.8679 47.8521 17.6907 46.7925 16.3897 46.7925H13.9636L13.9623 54.7167L15.6513 54.717ZM15.652 50.0038L15.6523 48.5447H16.3897C16.8588 48.5447 17.1789 48.9212 17.1789 49.2726C17.1789 49.624 16.8588 50.0005 16.3897 50.0005H16.3879L15.652 50.0038Z" fill="#56B03D"/>
<path fill-rule="evenodd" clip-rule="evenodd" d="M4.15094 50.7547C4.15094 52.943 5.92491 54.717 8.11327 54.717C10.3017 54.717 12.0755 52.943 12.0755 50.7547C12.0755 48.5663 10.3016 46.7925 8.11327 46.7925C5.92496 46.7925 4.15094 48.5663 4.15094 50.7547ZM8.11327 52.9647C6.89266 52.9647 5.9032 51.9753 5.9032 50.7547C5.9032 49.5341 6.89262 48.5447 8.11327 48.5447C9.33387 48.5447 10.3232 49.5341 10.3232 50.7547C10.3232 51.9753 9.33383 52.9647 8.11327 52.9647Z" fill="#56B03D"/>
<path fill-rule="evenodd" clip-rule="evenodd" d="M53.0351 52.9648C51.8094 52.9648 50.816 51.9753 50.816 50.7547C50.816 49.534 51.8094 48.5446 53.0351 48.5446C53.4958 48.5446 53.9214 48.6835 54.2751 48.9215L55.004 49.412L55.9889 47.9601L55.26 47.4697C54.6245 47.0421 53.8577 46.7925 53.0351 46.7925C50.8378 46.7925 49.0566 48.5663 49.0566 50.7547C49.0566 52.943 50.8377 54.717 53.0351 54.717C54.0349 54.717 54.98 54.3416 55.6612 53.5327L56.2264 52.8614L54.8784 51.7355L54.3131 52.4068C54.0031 52.7749 53.575 52.9648 53.0351 52.9648Z" fill="#56B03D"/>
<path fill-rule="evenodd" clip-rule="evenodd" d="M0 57.3585C0 58.8134 1.18467 60 2.63672 60H49.4531V58.239H2.63672C2.15541 58.239 1.75781 57.8407 1.75781 57.3585V44.1508C1.75781 43.6687 2.15529 43.2704 2.63672 43.2704H57.3633C57.8447 43.2704 58.2422 43.6687 58.2422 44.1508V57.3585C58.2422 57.8406 57.8446 58.239 57.3633 58.239H54.7266V60H57.3633C58.8154 60 60 58.8132 60 57.3585V44.1508C60 42.6961 58.8154 41.5094 57.3633 41.5094H2.63672C1.18455 41.5094 0 42.6961 0 44.1508V57.3585ZM51.2109 60H52.9688V58.239H51.2109V60Z" fill="#56B03D"/>
<path fill-rule="evenodd" clip-rule="evenodd" d="M20.3126 35.8427C22.0431 35.7634 23.7855 34.9418 25.4452 33.2676L25.6089 33.1025L25.669 32.8772C26.2782 30.592 26.1133 28.6611 25.3162 27.1116C24.5226 25.569 23.1611 24.5185 21.5889 23.8732C18.4788 22.5967 14.3473 22.8158 11.1944 24.0974L10.566 24.3528L10.6606 25.0288C11.1353 28.4205 13.0127 32.1347 15.6651 34.21C17.0059 35.259 18.5898 35.9216 20.3126 35.8427ZM12.494 25.4743C15.2014 24.5565 18.5111 24.4952 20.9351 25.49C22.2292 26.0211 23.2194 26.8298 23.7776 27.915C24.3108 28.9514 24.5043 30.3456 24.0532 32.1977C22.6867 33.5174 21.3915 34.0456 20.2339 34.0987C19.0219 34.1542 17.8316 33.6946 16.7281 32.8312C14.6608 31.2137 13.0587 28.2954 12.494 25.4743Z" fill="#56B03D"/>
<path fill-rule="evenodd" clip-rule="evenodd" d="M30.9434 42.2642V13.5849H29.0566V42.2642H30.9434Z" fill="#56B03D"/>
<path fill-rule="evenodd" clip-rule="evenodd" d="M30.5013 38.1132L44.1509 30.2815L43.2728 28.7701L29.6232 36.6017L30.5013 38.1132ZM30.5013 34.8564L17.1046 27.1698L16.2264 28.6813L29.6232 36.3679L30.5013 34.8564Z" fill="#56B03D"/>
<path fill-rule="evenodd" clip-rule="evenodd" d="M35.6179 34.0845C35.1557 32.2324 35.3539 30.8382 35.9001 29.8018C36.472 28.7166 37.4864 27.9079 38.812 27.3768C41.2951 26.3819 44.6855 26.4433 47.459 27.3611C46.8805 30.1822 45.2393 33.1005 43.1216 34.7179C41.9912 35.5814 40.7719 36.041 39.5303 35.9855C38.3445 35.9324 37.0177 35.4042 35.6179 34.0845ZM44.2105 36.0968C46.9276 34.0215 48.8508 30.3073 49.3371 26.9156L49.434 26.2396L48.7903 25.9842C45.5605 24.7026 41.3282 24.4835 38.1422 25.76C36.5317 26.4053 35.137 27.4558 34.324 28.9984C33.5075 30.5479 33.3385 32.4788 33.9627 34.764L34.0242 34.9893L34.1919 35.1544C35.8921 36.8286 37.6769 37.6502 39.4497 37.7295C41.2145 37.8084 42.8371 37.1458 44.2105 36.0968Z" fill="#56B03D"/>
<path fill-rule="evenodd" clip-rule="evenodd" d="M30 24.1509L30.2319 24.0912C32.5832 23.4851 34.2178 22.3847 35.1851 20.9264C36.148 19.4745 36.3784 17.7751 36.1386 16.0944C35.6643 12.7697 33.3285 9.30262 30.5532 7.2096L30 6.79245L29.4469 7.2096C26.6716 9.30262 24.3357 12.7697 23.8614 16.0944C23.6216 17.7751 23.852 19.4745 24.8149 20.9264C25.7822 22.3847 27.4168 23.4851 29.7682 24.0912L30 24.1509ZM30 9.01723C32.2204 10.9052 33.9899 13.7392 34.3596 16.3305C34.557 17.7138 34.3497 18.9718 33.6722 19.9932C33.0252 20.9687 31.8836 21.8277 30 22.3558C28.1164 21.8277 26.9748 20.9687 26.3277 19.9932C25.6503 18.9718 25.443 17.7138 25.6404 16.3305C26.0101 13.7392 27.7796 10.9052 30 9.01723Z" fill="#56B03D"/>
<path fill-rule="evenodd" clip-rule="evenodd" d="M5.28302 24.513C5.28302 31.901 8.57997 38.5258 13.7909 43.0189L14.952 41.6944C10.1112 37.5204 7.05273 31.3716 7.05273 24.513C7.05273 18.3047 9.55923 12.6795 13.6244 8.57265L12.3615 7.34313C7.9849 11.7647 5.28302 17.8262 5.28302 24.513ZM46.2092 43.0189C51.4202 38.5258 54.717 31.901 54.717 24.513C54.717 10.9748 43.6509 0 30 0C23.7558 0 18.0515 2.29828 13.7013 6.086L14.8689 7.40493C18.9087 3.88742 24.2019 1.75511 30 1.75511C42.6735 1.75511 52.9473 11.9441 52.9473 24.513C52.9473 31.3716 49.8889 37.5204 45.0481 41.6944L46.2092 43.0189Z" fill="#56B03D"/>
<path fill-rule="evenodd" clip-rule="evenodd" d="M41.2579 7.73591V9.43396H43.0189V7.73591H41.2579ZM37.7359 6.03774V7.73579H39.4969V6.03774H37.7359Z" fill="#56B03D"/>
</svg>
