<svg width="69" height="65" viewBox="0 0 69 65" fill="none" xmlns="http://www.w3.org/2000/svg">
<path d="M66.7506 28.2539H63.684H63.5417C61.3135 12.8066 47.9903 0.898132 31.9358 0.898132C14.3263 0.898132 0 15.2243 0 32.8337C0 40.0998 2.50624 47.2115 7.057 52.8586C11.5392 58.4207 17.8206 62.3616 24.744 63.9558C24.9335 63.9996 25.1229 64.0203 25.3095 64.0203C26.4527 64.0203 27.4864 63.2341 27.7539 62.0726C28.0649 60.7213 27.2218 59.3739 25.8704 59.0628C20.0388 57.72 14.7461 54.3979 10.9667 49.7082C7.07708 44.8816 5.02123 39.0466 5.02123 32.8339C5.02123 17.9932 17.095 5.9195 31.9358 5.9195C45.2156 5.9195 56.2783 15.5873 58.4588 28.2541H55.8105C53.8104 28.2541 52.8089 30.6722 54.2231 32.0863L59.6932 37.5564C60.5699 38.4331 61.9914 38.4331 62.868 37.5564L68.3382 32.0863C69.7523 30.672 68.7505 28.2539 66.7506 28.2539Z" fill="url(#paint0_linear_357_4686)"/>
<defs>
<linearGradient id="paint0_linear_357_4686" x1="41.0322" y1="41.9416" x2="56.3498" y2="57.2593" gradientUnits="userSpaceOnUse">
<stop stop-color="#FFB92D"/>
<stop offset="1" stop-color="#F59500"/>
</linearGradient>
</defs>
</svg>
