<svg width="48" height="48" viewBox="0 0 48 48" fill="none" xmlns="http://www.w3.org/2000/svg">
<path d="M44.9759 13.2963C43.1039 13.0563 41.3759 13.5843 40.0799 14.9763L39.8399 15.2163C38.0639 11.9043 34.8479 11.8563 32.5439 12.1923C32.2079 12.2403 31.9199 12.5283 31.9199 12.9123V13.2483C29.9519 12.9603 27.9359 13.1523 26.1599 13.7763C25.8719 13.3923 25.5359 13.0563 25.1039 12.7683C25.2959 11.0883 24.7679 9.40826 23.6159 8.16025C22.4639 6.91226 20.8799 6.24026 19.1519 6.28826C17.8559 3.50426 14.7359 1.96825 11.7119 2.73625C8.6399 3.45625 6.6239 6.28826 6.7679 9.36026C5.2799 10.0803 4.1759 11.4243 3.7439 13.1043C3.3119 14.7363 3.6479 16.5123 4.6079 17.9043C4.0319 18.9603 3.9359 20.2563 4.4159 21.5043C5.0399 23.1363 6.4799 24.3363 8.2079 24.6723C10.0319 25.1043 12.4799 27.3123 13.4879 29.5683C13.7759 30.1923 14.0159 30.7203 14.3039 31.1523C13.8719 31.2963 13.4879 31.4883 13.1039 31.6803C12.3359 32.0643 11.7119 32.5443 11.1839 33.1203C9.8399 31.3443 8.5919 30.3843 7.4399 30.2403C6.7199 30.1443 6.0479 30.3363 5.4239 30.7683C4.4159 31.5363 3.8399 33.0243 4.8479 34.9443C3.3119 35.5683 2.3999 36.6243 2.3999 37.8243C2.3999 39.0243 3.3119 40.0323 4.8479 40.6562C3.8399 42.5763 4.4159 44.0643 5.4239 44.8323C5.9039 45.2163 6.4799 45.4083 7.0559 45.4083C7.1999 45.4083 7.2959 45.4083 7.4399 45.3603C8.5919 45.1683 9.8399 44.2563 11.1839 42.4803C11.7119 43.0563 12.3359 43.5363 13.1039 43.9203C15.1679 45.0243 17.9999 45.5043 21.0719 45.5043C29.8079 45.5043 40.7999 41.8563 44.0159 39.7923C44.8319 39.2643 45.2639 38.5443 45.2639 37.8243C45.2639 37.1043 44.8319 36.3843 44.0159 35.8563C43.3439 35.4243 42.2879 34.8963 40.9439 34.3203C41.1359 34.1763 41.2799 33.9843 41.4239 33.7923C43.8239 31.1043 44.5919 27.3603 43.5359 23.6163C43.6319 23.6163 43.7759 23.6163 43.8719 23.5683C44.2079 23.5203 44.4959 23.2323 44.4959 22.8483C44.5439 20.5923 44.2079 17.5203 40.9439 16.0803L41.0879 15.9363C42.0959 14.8803 43.3439 14.4963 44.7839 14.6883C45.1679 14.7363 45.5519 14.4483 45.5999 14.0643C45.6479 13.7283 45.3599 13.3923 44.9759 13.2963ZM14.8319 28.9443C13.6319 26.3043 10.7999 23.7603 8.5439 23.2323C7.2479 22.9923 6.2399 22.1283 5.8079 20.9763C5.4239 20.0163 5.5679 19.0083 6.0959 18.2883C6.2879 18.0003 6.2879 17.6643 6.0959 17.3763C5.0879 16.3203 4.7999 14.8803 5.1359 13.4883C5.4719 12.0963 6.4799 10.9923 7.8239 10.5123C8.1599 10.3683 8.3039 10.0803 8.3039 9.74425C7.9199 7.20025 9.5519 4.75226 12.0959 4.12826C14.5919 3.50426 17.1839 4.84826 18.0479 7.29626C18.1439 7.63226 18.4799 7.82426 18.8159 7.77626C20.2559 7.58426 21.5999 8.11226 22.5599 9.16826C23.5199 10.2243 23.9519 11.6643 23.6159 13.0563C23.5679 13.3923 23.7119 13.7283 24.0479 13.8723C24.8639 14.2563 25.4399 15.0723 25.5839 16.0803C25.7279 17.3283 25.2479 18.5763 24.1919 19.3923C22.4639 20.9283 21.1679 24.4803 21.3599 27.3603C21.4079 28.5123 21.4079 29.4243 21.3119 30.1443C19.2959 30.1443 17.4239 30.2883 15.7439 30.7203C15.4079 30.1923 15.1199 29.6163 14.8319 28.9443ZM7.2479 43.9683C6.9119 44.0163 6.6239 43.9203 6.3359 43.7283C5.1839 42.8163 6.0959 41.3283 6.5759 40.7043C6.7199 40.5123 6.7679 40.2723 6.6719 40.0323C6.5759 39.7923 6.3839 39.6483 6.1919 39.6003C4.7999 39.2163 3.8399 38.4963 3.8399 37.8243C3.8399 37.1523 4.7999 36.4323 6.1439 36.0963C6.3839 36.0483 6.5759 35.8563 6.6239 35.6643C6.6719 35.4723 6.6719 35.1843 6.5279 34.9923C6.0959 34.3683 5.1839 32.8323 6.2879 31.9683C6.5759 31.7283 6.8639 31.6803 7.1999 31.7283C7.7759 31.8243 8.7839 32.3523 10.2719 34.4163C9.7439 35.4243 9.4559 36.5763 9.4559 37.8723C9.4559 39.1683 9.7439 40.3203 10.2719 41.3283C8.8319 43.2963 7.8239 43.8723 7.2479 43.9683ZM43.8239 37.8243C43.8239 38.0643 43.5839 38.3523 43.1999 38.5923C40.7999 40.1283 33.2159 42.7683 25.9679 43.6803V40.3683C25.9679 39.9843 25.6319 39.6483 25.2479 39.6483C24.8639 39.6483 24.5279 39.9843 24.5279 40.3683V43.8243C21.9359 44.0643 19.4399 44.1123 17.3279 43.7763V39.6963C17.3279 39.3123 16.9919 38.9763 16.6079 38.9763C16.2239 38.9763 15.8879 39.3123 15.8879 39.6963V43.4403C15.1199 43.2483 14.3999 42.9603 13.7759 42.6243C11.8559 41.5683 10.9439 39.9843 10.9439 37.7763C10.9439 35.5683 11.8559 33.9843 13.7759 32.9283C15.3599 32.0643 17.4239 31.6803 19.7759 31.5843V35.0883C19.7759 35.4723 20.1119 35.8083 20.4959 35.8083C20.8799 35.8083 21.2159 35.4723 21.2159 35.0883V31.5843C23.7599 31.6323 26.5439 31.9683 29.2799 32.4963V37.3443C29.2799 37.7283 29.6159 38.0643 29.9999 38.0643C30.3839 38.0643 30.7199 37.7283 30.7199 37.3443V32.7843C36.2879 33.9843 41.3759 35.8563 43.1999 37.0563C43.5839 37.2963 43.8239 37.5843 43.8239 37.8243ZM40.3679 32.8323C40.0799 33.1683 39.7439 33.4563 39.4559 33.6963C34.9919 32.0643 28.5119 30.3843 22.7519 30.0963C22.8479 29.2803 22.8479 28.3203 22.7999 27.1683C22.6559 24.7203 23.7119 21.6003 25.1519 20.4003C26.5439 19.2483 27.2639 17.5683 27.0239 15.7923C26.9759 15.5043 26.9279 15.2643 26.8319 15.0243C28.4639 14.4483 30.3839 14.3523 32.2079 14.7363C32.4479 15.4563 32.8799 16.0803 33.4079 16.6563C32.3999 17.2803 31.5839 18.2883 31.0559 19.5363C30.9119 19.8723 31.0559 20.2563 31.3439 20.4483C32.5919 21.1683 33.8879 21.5043 35.0879 21.3603C35.0879 22.6083 35.5199 23.8563 36.4319 25.0083C36.5759 25.2003 36.7679 25.2963 37.0079 25.2963C37.1039 25.2963 37.2479 25.2483 37.3439 25.2003C38.5439 24.5283 39.4079 23.6163 39.9359 22.5603C40.5599 23.0403 41.2799 23.3763 41.9999 23.5683C43.1519 26.9763 42.5279 30.4323 40.3679 32.8323ZM43.1039 22.2243C41.9999 22.2243 41.0879 21.7443 40.2239 20.7843C40.0319 20.5923 39.7439 20.4963 39.5039 20.5923C39.2639 20.6403 39.0239 20.8803 38.9759 21.1203C38.7839 22.0803 38.1599 22.9443 37.2479 23.5683C36.6719 22.6083 36.4319 21.5523 36.6719 20.5923C36.7199 20.3523 36.6239 20.0643 36.4319 19.9203C36.2879 19.8243 36.1439 19.7283 35.9519 19.7283C35.8559 19.7283 35.8079 19.7283 35.7119 19.7763C34.7519 20.1123 33.6959 20.0163 32.6879 19.5363C33.2159 18.5763 34.0319 17.8563 34.9439 17.5683C35.1839 17.4723 35.3759 17.2803 35.4239 16.9923C35.4719 16.7043 35.3759 16.4643 35.1359 16.3203C34.0799 15.5523 33.5039 14.6883 33.3599 13.5843C36.1439 13.3443 37.7759 14.1603 38.7359 16.3203L37.9199 17.1363C37.6319 17.4243 37.6319 17.8563 37.9199 18.1443C38.0639 18.2883 38.2559 18.3363 38.4479 18.3363C38.6399 18.3363 38.8319 18.2883 38.9759 18.1443L39.8879 17.1843C42.0479 17.9523 43.0079 19.4883 43.1039 22.2243Z" fill="#588F27"/>
<path d="M19.8237 12.3843C20.0637 12.0963 20.0157 11.6163 19.7277 11.3763C19.4397 11.1363 18.9597 11.1843 18.7197 11.4723L15.5517 15.2643L14.7357 12.0963C14.6397 11.7123 14.2557 11.4723 13.8717 11.5683C13.4877 11.6643 13.2477 12.0483 13.3437 12.4323L14.1597 15.6003L9.59968 13.7763C9.21568 13.6323 8.83168 13.8243 8.63968 14.1603C8.49568 14.5443 8.68768 14.9283 9.02368 15.1203L14.5917 17.3763L15.3597 20.4963L12.7677 19.4403C12.3837 19.2963 11.9997 19.4883 11.8077 19.8243C11.6637 20.2083 11.8557 20.5923 12.1917 20.7843L15.7917 22.2243L16.8477 26.5443C16.9437 26.8803 17.2317 27.0723 17.5677 27.0723H17.7597C18.1437 26.9763 18.3837 26.5923 18.2877 26.2083L17.2317 21.8883L19.6797 18.9123C19.9197 18.6243 19.8717 18.1443 19.5837 17.9043C19.2957 17.6643 18.8157 17.7123 18.5757 18.0003L16.7997 20.1123L16.0317 16.9923L19.8237 12.3843Z" fill="#588F27"/>
</svg>
