<svg width="74" height="74" viewBox="0 0 74 74" fill="none" xmlns="http://www.w3.org/2000/svg">
<g clip-path="url(#clip0_159_3076)">
<path d="M16.91 37.0077C16.91 27.4084 23.678 19.3615 32.6926 17.3843C25.641 18.2821 18.2675 21.3392 11.123 26.3624C4.68299 30.8906 0.706216 35.3791 0.540149 35.568C-0.18005 36.3868 -0.18005 37.613 0.540149 38.4318C0.706216 38.6207 4.68299 43.1092 11.1232 47.6373C18.2094 52.6197 25.5209 55.6679 32.5201 56.5934C23.5917 54.5522 16.91 46.5458 16.91 37.0077Z" fill="#51150A"/>
<path d="M21.2461 37.0078C21.2461 45.6946 28.3132 52.7617 37 52.7617C45.6868 52.7617 52.7539 45.6946 52.7539 37.0078C52.7539 28.321 45.6868 21.2539 37 21.2539C28.3132 21.2539 21.2461 28.321 21.2461 37.0078ZM39.8906 30.4961H45.6719C46.8692 30.4961 47.8398 31.4668 47.8398 32.6641V38.4453C47.8398 39.6426 46.8692 40.6133 45.6719 40.6133C44.4746 40.6133 43.5039 39.6426 43.5039 38.4453V37.898L38.5329 42.869C37.6862 43.7155 36.3138 43.7157 35.467 42.869L32.6603 40.0625L29.8944 42.8284C29.0479 43.6749 27.6751 43.6752 26.8285 42.8284C25.9818 41.9819 25.9818 40.6092 26.8285 39.7624L31.1273 35.4635C31.9736 34.6168 33.3474 34.6174 34.1932 35.4635L37 38.27L40.438 34.832H39.8906C38.6933 34.832 37.7227 33.8614 37.7227 32.6641C37.7227 31.4668 38.6933 30.4961 39.8906 30.4961Z" fill="#51150A"/>
<path d="M73.4602 35.5679C73.2941 35.379 69.3173 30.8904 62.8772 26.3624C55.7328 21.3391 48.3593 18.2821 41.3076 17.3843C50.3222 19.3613 57.0901 27.4082 57.0901 37.0076C57.0901 46.5456 50.4085 54.5521 41.4802 56.5933C48.4794 55.6679 55.7911 52.6196 62.8772 47.6371C69.3173 43.1091 73.294 38.6204 73.4602 38.4316C74.1804 37.6129 74.1804 36.3867 73.4602 35.5679Z" fill="#51150A"/>
<path d="M54.0527 57.8652C53.4539 56.8282 52.1281 56.4728 51.0912 57.0717C50.0542 57.6704 49.6989 58.9962 50.2977 60.0332L52.538 63.9134C53.1385 64.9536 54.4656 65.3039 55.4994 64.7069C56.5364 64.1082 56.8917 62.7824 56.2929 61.7454L54.0527 57.8652Z" fill="#51150A"/>
<path d="M37 13.0078C38.1973 13.0078 39.168 12.0371 39.168 10.8398V6.50391C39.168 5.30661 38.1973 4.33594 37 4.33594C35.8027 4.33594 34.832 5.30661 34.832 6.50391V10.8398C34.832 12.0371 35.8027 13.0078 37 13.0078Z" fill="#51150A"/>
<path d="M51.1635 16.8033C52.1959 17.3995 53.5237 17.0514 54.1249 16.0098L56.2929 12.2549C56.8917 11.218 56.5364 9.89194 55.4994 9.29344C54.4626 8.6945 53.1365 9.04976 52.538 10.0869L50.37 13.8418C49.7712 14.8787 50.1265 16.2046 51.1635 16.8033Z" fill="#51150A"/>
<path d="M37 60.8477C35.8027 60.8477 34.832 61.8183 34.832 63.0156V67.4961C34.832 68.6934 35.8027 69.6641 37 69.6641C38.1973 69.6641 39.168 68.6934 39.168 67.4961V63.0156C39.168 61.8183 38.1973 60.8477 37 60.8477Z" fill="#51150A"/>
<path d="M19.8739 16.0097C20.4744 17.0499 21.8015 17.4003 22.8354 16.8032C23.8724 16.2046 24.2276 14.8786 23.6288 13.8418L21.4609 10.0869C20.8621 9.0497 19.5363 8.69458 18.4994 9.29338C17.4624 9.89202 17.1071 11.218 17.7059 12.2548L19.8739 16.0097Z" fill="#51150A"/>
<path d="M22.9076 57.0718C21.8708 56.4727 20.5447 56.8284 19.9462 57.8652L17.7059 61.7455C17.1071 62.7825 17.4624 64.1084 18.4994 64.7069C19.5322 65.3034 20.8598 64.9545 21.4609 63.9134L23.7011 60.0332C24.2999 58.9963 23.9446 57.6704 22.9076 57.0718Z" fill="#51150A"/>
</g>
<defs>
<clipPath id="clip0_159_3076">
<rect width="74" height="74" fill="white"/>
</clipPath>
</defs>
</svg>
