<svg width="79" height="81" viewBox="0 0 79 81" fill="none" xmlns="http://www.w3.org/2000/svg">
<g clip-path="url(#clip0_112_802)">
<path fill-rule="evenodd" clip-rule="evenodd" d="M58.905 80.06H19.635C14.4275 80.0598 9.43344 77.9736 5.75121 74.2604C2.06898 70.5473 0.000227811 65.5112 0 60.26L0 20.66C0.000227811 15.4088 2.06898 10.3727 5.75121 6.65952C9.43344 2.94635 14.4275 0.860215 19.635 0.859985L58.905 0.859985C64.1125 0.859985 69.1068 2.94605 72.789 6.65927C76.4713 10.3725 78.54 15.4087 78.54 20.66V60.26C78.54 65.5113 76.4713 70.5475 72.789 74.2607C69.1068 77.9739 64.1125 80.06 58.905 80.06Z" fill="#00D264"/>
<path fill-rule="evenodd" clip-rule="evenodd" d="M36.8156 23.135H58.905C61.7365 23.1348 64.4597 22.0381 66.5124 20.0714C68.5651 18.1047 69.7904 15.4182 69.9353 12.5667C70.0802 9.71523 69.1336 6.9165 67.291 4.74854C65.4485 2.58057 62.8506 1.20894 60.034 0.91691C59.6585 0.895873 59.2867 0.859985 58.905 0.859985H19.635C14.4275 0.860215 9.43344 2.94635 5.75121 6.65952C2.06898 10.3727 0.000227811 15.4088 0 20.66L0 60.26C0.00022782 50.4139 3.87908 40.9711 10.7833 34.0089C17.6875 27.0467 27.0516 23.1352 36.8156 23.135Z" fill="#00EB78"/>
<path fill-rule="evenodd" clip-rule="evenodd" d="M58.9045 40.46C55.0211 40.46 51.2249 41.6212 47.9959 43.7969C44.767 45.9725 42.2503 49.0649 40.7642 52.6828C39.278 56.3008 38.8892 60.2819 39.6468 64.1228C40.4044 67.9636 42.2745 71.4916 45.0205 74.2607C47.7665 77.0298 51.2651 78.9155 55.0739 79.6795C58.8828 80.4435 62.8307 80.0514 66.4185 78.5528C70.0064 77.0542 73.0729 74.5164 75.2304 71.2603C77.388 68.0042 78.5395 64.176 78.5395 60.26V20.66C78.5395 25.9113 76.4709 30.9475 72.7886 34.6607C69.1063 38.3739 64.1121 40.46 58.9045 40.46Z" fill="#00B950"/>
<path fill-rule="evenodd" clip-rule="evenodd" d="M26.5965 59.1375C26.9232 59.0439 27.2655 59.0195 27.602 59.0659C27.9385 59.1124 28.2617 59.2286 28.5514 59.4073C33.4308 62.3388 39.2042 63.3715 44.7857 62.3112C50.3672 61.2509 55.3723 58.1707 58.8595 53.6499C62.3467 49.1291 64.0757 43.4792 63.7214 37.763C63.3671 32.0467 60.9539 26.6579 56.9356 22.6102C52.9173 18.5624 47.5709 16.1346 41.9019 15.7834C36.2328 15.4322 30.6319 17.1818 26.1525 20.7031C21.6731 24.2245 18.6239 29.2748 17.5784 34.9044C16.5328 40.534 17.5631 46.3548 20.4753 51.272C20.6519 51.5632 20.7666 51.8883 20.8123 52.2265C20.8579 52.5648 20.8334 52.9089 20.7404 53.2372C20.0568 55.6763 18.4075 61.4975 18.4075 61.4975C18.4075 61.4975 24.1802 59.8343 26.5965 59.1375ZM16.2219 53.7433C12.7132 47.7791 11.4844 40.7285 12.7662 33.9153C14.0479 27.1022 17.752 20.9952 23.183 16.7412C28.6139 12.4872 35.3981 10.3787 42.2616 10.8118C49.125 11.2449 55.5956 14.1897 60.4583 19.0933C65.321 23.9968 68.2413 30.5218 68.6708 37.4429C69.1002 44.3641 67.0094 51.2052 62.7908 56.6818C58.5723 62.1584 52.5162 65.8937 45.7598 67.1862C39.0034 68.4787 32.0115 67.2396 26.0971 63.7014C26.0971 63.7014 18.2713 65.9562 14.3958 67.0736C14.1853 67.1341 13.9626 67.1367 13.7507 67.0812C13.5388 67.0257 13.3455 66.9141 13.1907 66.7581C13.036 66.602 12.9253 66.407 12.8703 66.1934C12.8153 65.9797 12.8179 65.7552 12.8778 65.5429C13.9859 61.6348 16.2219 53.7433 16.2219 53.7433Z" fill="white"/>
<path fill-rule="evenodd" clip-rule="evenodd" d="M26.9745 31.5326C27.3563 37.0738 29.7015 42.2918 33.582 46.234C37.4625 50.1762 42.6195 52.5797 48.1116 53.0057H48.114C48.9909 53.0742 49.8721 52.9503 50.697 52.6427C51.5219 52.3351 52.2709 51.851 52.8927 51.2237L53.7493 50.3599C54.1536 49.9519 54.3809 49.3986 54.3813 48.8217V46.9878C54.3812 46.7578 54.3177 46.5324 54.1978 46.3368C54.078 46.1412 53.9065 45.9831 53.7026 45.8802C52.4104 45.2293 49.605 43.8148 48.2306 43.1218C48.0001 43.0056 47.7392 42.9654 47.4849 43.0069C47.2305 43.0484 46.9955 43.1696 46.8132 43.3532C46.1284 44.0438 45.046 45.1365 44.4324 45.754C44.2896 45.898 44.1138 46.0043 43.9205 46.0635C43.7272 46.1226 43.5224 46.1328 43.3243 46.093L43.3132 46.0906C40.9374 45.6114 38.7554 44.4338 37.0422 42.7062C35.3289 40.9785 34.1611 38.7782 33.686 36.3824L33.6835 36.3712C33.6441 36.1715 33.6542 35.965 33.7129 35.7701C33.7715 35.5751 33.8769 35.3978 34.0198 35.2538C34.6321 34.635 35.7157 33.5436 36.4005 32.853C36.5826 32.6692 36.7027 32.4322 36.7439 32.1757C36.7851 31.9192 36.7452 31.6561 36.63 31.4237C35.9428 30.0377 34.5401 27.2088 33.8946 25.9057C33.7925 25.7001 33.6357 25.5272 33.4418 25.4063C33.2478 25.2855 33.0243 25.2214 32.7963 25.2214H31.25C30.8828 25.2215 30.5198 25.2993 30.1843 25.4498C29.8488 25.6003 29.5484 25.8201 29.3024 26.095C29.0558 26.3722 28.7723 26.689 28.4876 27.0083C27.9518 27.6079 27.5411 28.3102 27.2801 29.0732C27.0191 29.8363 26.9131 30.6445 26.9683 31.4497C26.9708 31.4769 26.972 31.5042 26.9745 31.5326Z" fill="white"/>
</g>
<defs>
<clipPath id="clip0_112_802">
<rect y="0.859985" width="78.54" height="79.2" fill="white"/>
</clipPath>
</defs>
</svg>
