<svg width="48" height="48" viewBox="0 0 48 48" fill="none" xmlns="http://www.w3.org/2000/svg">
<path d="M42.7198 4.7998C38.8128 4.7998 35.4934 7.33328 34.2985 10.841C33.1036 7.33328 29.7842 4.7998 25.8774 4.7998C25.6123 4.7998 25.3974 5.01449 25.3974 5.2798V6.50043C25.3974 11.2467 29.1341 15.126 33.8185 15.3777V20.5692C32.3505 17.6664 29.3464 15.6673 25.8774 15.6673C25.6123 15.6673 25.3974 15.882 25.3974 16.1473V17.3679C25.3974 22.1142 29.1341 25.9935 33.8185 26.2452V31.4367C32.3505 28.5339 29.3464 26.5348 25.8774 26.5348C25.6123 26.5348 25.3974 26.7495 25.3974 27.0148V28.2354C25.3974 32.9817 29.1341 36.8605 33.8185 37.1122V42.2398H14.1811V37.1122C18.8655 36.8605 22.6022 32.9817 22.6022 28.2354V27.0148C22.6022 26.7495 22.3873 26.5348 22.1222 26.5348C18.6532 26.5348 15.6491 28.5339 14.1811 31.4367V26.2452C18.8655 25.9935 22.6022 22.1142 22.6022 17.3679V16.1473C22.6022 15.882 22.3873 15.6673 22.1222 15.6673C18.2154 15.6673 14.896 18.2008 13.7011 21.7085C12.5063 18.2008 9.18678 15.6673 5.2798 15.6673C5.01473 15.6673 4.7998 15.882 4.7998 16.1473V17.3679C4.7998 22.1142 8.53653 25.9935 13.2211 26.2452V31.4367C11.7532 28.5339 8.74899 26.5348 5.2798 26.5348C5.01473 26.5348 4.7998 26.7495 4.7998 27.0148V28.2354C4.7998 32.9817 8.53653 36.8605 13.2211 37.1122V42.2398H5.2798C5.01473 42.2398 4.7998 42.4545 4.7998 42.7198C4.7998 42.9851 5.01473 43.1998 5.2798 43.1998H42.7198C42.9849 43.1998 43.1998 42.9851 43.1998 42.7198C43.1998 42.4545 42.9849 42.2398 42.7198 42.2398H34.7785V37.1122C39.4631 36.8605 43.1998 32.9817 43.1998 28.2354V27.0148C43.1998 26.7495 42.9849 26.5348 42.7198 26.5348C39.2506 26.5348 36.2465 28.5339 34.7785 31.4367V26.2452C39.4631 25.9935 43.1998 22.1142 43.1998 17.3679V16.1473C43.1998 15.882 42.9849 15.6673 42.7198 15.6673C39.2506 15.6673 36.2465 17.6664 34.7785 20.5692V15.3777C39.4631 15.126 43.1998 11.2467 43.1998 6.50043V5.2798C43.1998 5.01449 42.9849 4.7998 42.7198 4.7998ZM21.6422 27.5093V28.2354C21.6422 32.4528 18.3373 35.9131 14.1811 36.162V35.4359C14.1811 31.2181 17.4861 27.7582 21.6422 27.5093ZM21.6422 16.6418V17.3679C21.6422 21.5857 18.3373 25.0461 14.1811 25.295V24.5684C14.1811 20.3511 17.4861 16.8907 21.6422 16.6418ZM5.7598 17.3679V16.6418C9.91598 16.8907 13.2211 20.3511 13.2211 24.5684V25.295C9.06496 25.0461 5.7598 21.5857 5.7598 17.3679ZM5.7598 28.2354V27.5093C9.91598 27.7582 13.2211 31.2181 13.2211 35.4359V36.162C9.06496 35.9131 5.7598 32.4528 5.7598 28.2354ZM26.3574 6.50043V5.77434C30.5136 6.02324 33.8185 9.48355 33.8185 13.7009V14.4275C29.6623 14.1786 26.3574 10.7182 26.3574 6.50043ZM26.3574 17.3679V16.6418C30.5136 16.8907 33.8185 20.3511 33.8185 24.5684V25.295C29.6623 25.0461 26.3574 21.5857 26.3574 17.3679ZM26.3574 28.2354V27.5093C30.5136 27.7582 33.8185 31.2181 33.8185 35.4359V36.162C29.6623 35.9131 26.3574 32.4528 26.3574 28.2354ZM42.2398 27.5093V28.2354C42.2398 32.4528 38.9347 35.9131 34.7785 36.162V35.4359C34.7785 31.2181 38.0836 27.7582 42.2398 27.5093ZM42.2398 16.6418V17.3679C42.2398 21.5857 38.9347 25.0461 34.7785 25.295V24.5684C34.7785 20.3511 38.0836 16.8907 42.2398 16.6418ZM42.2398 6.50043C42.2398 10.7182 38.9347 14.1786 34.7785 14.4275V13.7009C34.7785 9.48355 38.0836 6.02324 42.2398 5.77434V6.50043Z" fill="#588F27"/>
</svg>
