<svg width="60" height="60" viewBox="0 0 60 60" fill="none" xmlns="http://www.w3.org/2000/svg">
<path d="M30.0066 45.9564C29.8836 45.956 29.7621 45.9291 29.6506 45.8772L14.5714 38.6245C14.4337 38.5562 14.3176 38.451 14.2361 38.3206C14.1547 38.1902 14.111 38.0398 14.1099 37.886V21.6531C14.1095 21.5144 14.1443 21.3779 14.2112 21.2564C14.278 21.1349 14.3747 21.0324 14.4921 20.9586C14.6094 20.8847 14.7436 20.842 14.8821 20.8343C15.0206 20.8266 15.1587 20.8542 15.2835 20.9146L30.3626 28.1674C30.5004 28.2357 30.6164 28.3409 30.6979 28.4713C30.7794 28.6016 30.8231 28.7521 30.8242 28.9058V45.1388C30.8242 45.2771 30.7891 45.4132 30.7223 45.5343C30.6554 45.6553 30.5589 45.7575 30.4418 45.8311C30.3118 45.914 30.1607 45.9575 30.0066 45.9564ZM15.7451 37.3849L29.189 43.8597V29.4267L15.7451 22.952V37.3849Z" fill="black"/>
<path d="M30.0066 29.7163C29.8925 29.7244 29.778 29.7087 29.6703 29.6701L14.5912 22.4174C14.4512 22.3522 14.3327 22.2484 14.2497 22.1181C14.1667 21.9879 14.1226 21.8367 14.1226 21.6822C14.1226 21.5278 14.1667 21.3765 14.2497 21.2463C14.3327 21.1161 14.4512 21.0123 14.5912 20.947L29.6703 13.6613C29.7806 13.6091 29.9011 13.582 30.0231 13.582C30.1451 13.582 30.2656 13.6091 30.3758 13.6613L45.4549 20.9141C45.5936 20.9812 45.7106 21.0861 45.7922 21.2168C45.8739 21.3474 45.917 21.4985 45.9165 21.6525C45.9165 21.8057 45.8731 21.9557 45.7915 22.0852C45.7098 22.2147 45.5931 22.3184 45.4549 22.3844L30.3297 29.6701C30.2262 29.7071 30.1163 29.7228 30.0066 29.7163ZM16.8198 21.646L30.0066 27.9954L43.1934 21.6591L30.0066 15.3031L16.8198 21.646Z" fill="black"/>
<path d="M30.0066 45.9556C29.8525 45.9568 29.7013 45.9133 29.5714 45.8304C29.4543 45.7567 29.3578 45.6546 29.2909 45.5335C29.2241 45.4124 29.189 45.2764 29.189 45.138V28.9117C29.1885 28.7576 29.2316 28.6065 29.3133 28.4759C29.3949 28.3452 29.5119 28.2403 29.6505 28.1732L44.7297 20.9205C44.8545 20.8601 44.9926 20.8324 45.1311 20.8401C45.2695 20.8478 45.4038 20.8906 45.5211 20.9645C45.6385 21.0383 45.7352 21.1408 45.802 21.2623C45.8689 21.3838 45.9037 21.5203 45.9033 21.6589V37.8787C45.9038 38.0328 45.8607 38.1838 45.779 38.3145C45.6974 38.4452 45.5805 38.5501 45.4418 38.6172L30.3297 45.8765C30.2285 45.9247 30.1186 45.9517 30.0066 45.9556ZM30.8242 29.426V43.8391L44.2681 37.3644V22.9512L30.8242 29.426Z" fill="black"/>
<path d="M22.4637 26.0897C22.2802 26.0879 22.1025 26.0243 21.9595 25.9092C21.8165 25.7941 21.7163 25.6342 21.6752 25.4553C21.6341 25.2764 21.6544 25.0888 21.7329 24.9228C21.8113 24.7568 21.9433 24.6221 22.1077 24.5403L37.1934 17.2875C37.3885 17.1946 37.6124 17.1826 37.8163 17.2543C38.0201 17.3259 38.1873 17.4754 38.2813 17.67C38.3282 17.7664 38.3556 17.8712 38.3617 17.9782C38.3679 18.0853 38.3527 18.1925 38.3172 18.2937C38.2816 18.3949 38.2263 18.488 38.1545 18.5677C38.0827 18.6474 37.9958 18.712 37.8989 18.7579L22.8198 26.0106C22.708 26.0618 22.5867 26.0888 22.4637 26.0897Z" fill="black"/>
<path d="M24.4879 33.2113C24.3648 33.2118 24.2432 33.1848 24.1319 33.1322L19.6813 30.9893C19.5844 30.9434 19.4975 30.8788 19.4257 30.7991C19.3539 30.7195 19.2986 30.6263 19.2631 30.5252C19.2275 30.424 19.2123 30.3168 19.2185 30.2097C19.2246 30.1026 19.252 29.9978 19.2989 29.9014C19.3929 29.7068 19.5601 29.5574 19.764 29.4857C19.9678 29.4141 20.1917 29.426 20.3868 29.519L24.8374 31.6487C25.0013 31.7302 25.133 31.8644 25.2116 32.0297C25.2902 32.195 25.311 32.382 25.2707 32.5605C25.2305 32.7391 25.1314 32.899 24.9895 33.0146C24.8476 33.1302 24.6709 33.1948 24.4879 33.1981V33.2113Z" fill="black"/>
<path d="M5.23516 40.7007C5.07559 40.7032 4.91877 40.659 4.78404 40.5735C4.6493 40.4879 4.54254 40.3649 4.47692 40.2194C2.00215 34.0992 1.81036 27.2932 3.93656 21.0434C6.06275 14.7935 10.3652 9.51649 16.0588 6.17517C21.7524 2.83386 28.4575 1.65104 34.9507 2.84254C41.4439 4.03404 47.2922 7.52043 51.4286 12.6655C51.5053 12.7474 51.5643 12.8442 51.602 12.9499C51.6396 13.0556 51.6552 13.168 51.6475 13.2799C51.6399 13.3919 51.6094 13.501 51.5577 13.6007C51.5061 13.7003 51.4345 13.7882 51.3474 13.859C51.2603 13.9297 51.1596 13.9818 51.0515 14.012C50.9434 14.0421 50.8303 14.0497 50.7192 14.0342C50.608 14.0187 50.5013 13.9806 50.4055 13.9221C50.3098 13.8635 50.2271 13.786 50.1626 13.6941C46.2716 8.86921 40.7781 5.60112 34.6812 4.48422C28.5843 3.36732 22.289 4.4758 16.9403 7.60805C11.5916 10.7403 7.54475 15.6883 5.5358 21.552C3.52685 27.4158 3.68923 33.8059 5.99341 39.56C6.04293 39.684 6.06134 39.8182 6.04704 39.9509C6.03273 40.0837 5.98615 40.2109 5.91135 40.3214C5.83655 40.432 5.73582 40.5226 5.61795 40.5852C5.50008 40.6479 5.36866 40.6808 5.23516 40.6809V40.7007Z" fill="black"/>
<path d="M30.0396 57.4221C25.9228 57.4319 21.8564 56.5168 18.1406 54.7445C14.4249 52.9723 11.1547 50.388 8.57143 47.1825C8.43503 47.0077 8.37369 46.7858 8.40089 46.5657C8.42809 46.3456 8.54162 46.1453 8.71648 46.0089C8.89135 45.8725 9.11324 45.8112 9.33334 45.8384C9.55344 45.8656 9.75371 45.9791 9.89011 46.154C13.8049 50.9732 19.3219 54.2243 25.4344 55.3141C31.5469 56.404 37.8475 55.2599 43.1866 52.0906C48.5257 48.9214 52.5474 43.9382 54.518 38.0503C56.4886 32.1624 56.2767 25.7623 53.9209 20.0177C53.8766 19.918 53.8527 19.8105 53.8506 19.7014C53.8485 19.5924 53.8683 19.484 53.9087 19.3827C53.9491 19.2814 54.0094 19.1892 54.086 19.1115C54.1626 19.0339 54.254 18.9724 54.3548 18.9306C54.4555 18.8888 54.5636 18.8676 54.6727 18.8682C54.7818 18.8688 54.8896 18.8912 54.9899 18.9342C55.0901 18.9771 55.1808 19.0397 55.2565 19.1182C55.3322 19.1967 55.3915 19.2896 55.4308 19.3913C57.6771 24.8893 58.0964 30.9639 56.6266 36.7183C55.1568 42.4728 51.8759 47.6022 47.2681 51.3496C42.3899 55.2866 36.3083 57.4302 30.0396 57.4221Z" fill="black"/>
<path d="M50.8615 14.0568H50.7692L43.1538 13.2327C42.9493 13.1966 42.7662 13.0842 42.6416 12.9181C42.517 12.752 42.4602 12.5447 42.4829 12.3383C42.5055 12.1318 42.6059 11.9418 42.7636 11.8067C42.9212 11.6715 43.1244 11.6015 43.3319 11.6107L50.1099 12.3425L50.8681 5.53815C50.8731 5.42642 50.9009 5.3169 50.9499 5.21636C50.9989 5.11582 51.068 5.0264 51.1529 4.95362C51.2378 4.88085 51.3367 4.82627 51.4436 4.79326C51.5504 4.76025 51.6629 4.74952 51.7741 4.76172C51.8853 4.77392 51.9928 4.8088 52.0899 4.8642C52.1871 4.91959 52.2718 4.99434 52.3389 5.0838C52.406 5.17326 52.4541 5.27554 52.4801 5.38431C52.5061 5.49308 52.5095 5.60603 52.4901 5.71617L51.6725 13.3316C51.648 13.547 51.5389 13.7438 51.3692 13.8788C51.2257 13.9951 51.0463 14.0581 50.8615 14.0568Z" fill="black"/>
<path d="M8.34066 55.0355H8.24835C8.03349 55.0123 7.83658 54.9049 7.70067 54.7368C7.56476 54.5688 7.50091 54.3538 7.52308 54.1388L8.34725 46.5234C8.35751 46.417 8.38906 46.3137 8.44003 46.2197C8.491 46.1257 8.56035 46.0429 8.64396 45.9762C8.81277 45.8403 9.02833 45.7763 9.24396 45.7981L16.8593 46.6157C17.0629 46.6521 17.2451 46.7641 17.3693 46.9294C17.4935 47.0947 17.5505 47.3009 17.5288 47.5065C17.507 47.7121 17.4082 47.9019 17.2522 48.0376C17.0962 48.1732 16.8945 48.2447 16.6879 48.2377L9.89011 47.5058L9.14505 54.3102C9.12393 54.509 9.03014 54.693 8.88168 54.8268C8.73322 54.9607 8.54055 55.035 8.34066 55.0355Z" fill="black"/>
</svg>
