<svg width="52" height="13" viewBox="0 0 52 13" fill="none" xmlns="http://www.w3.org/2000/svg">
<g clip-path="url(#clip0_943_344)">
<path fill-rule="evenodd" clip-rule="evenodd" d="M9.33e-06 3.04724C-0.00050183 2.91199 0.0195356 2.86281 0.172884 2.86506C0.959457 2.87621 1.74685 2.85423 2.53291 2.87866C3.68936 2.91465 4.7402 3.2516 5.59731 4.06844C6.18729 4.63051 6.55809 5.31873 6.70408 6.11717C6.99483 7.7079 6.54633 9.05766 5.33458 10.1368C4.67303 10.7259 3.88033 11.0221 3.00461 11.0927C2.03944 11.1706 1.0715 11.1086 0.105104 11.1297C-0.0105206 11.1323 0.00236067 11.0698 0.0024629 10.9972C0.00328075 10.1829 0.0050187 4.36399 9.33e-06 3.04724ZM1.60904 9.57649C1.60843 9.68833 1.63184 9.72411 1.75022 9.72258C2.07246 9.71839 2.3953 9.72166 2.7156 9.68578C3.30047 9.62025 3.84904 9.45249 4.27719 9.02403C4.9969 8.30401 5.26138 7.42829 5.06152 6.43756C4.86022 5.43968 4.28588 4.73652 3.28994 4.42788C2.80485 4.2776 2.30043 4.28701 1.79837 4.28067C1.65535 4.27883 1.60577 4.30715 1.6074 4.46418C1.6163 5.31066 1.61384 8.71897 1.60904 9.57649Z" fill="#231F20"/>
<path fill-rule="evenodd" clip-rule="evenodd" d="M48.8189 7.66536C49.6839 8.82232 50.5353 9.96098 51.4074 11.1272C51.2716 11.1272 51.1655 11.1272 51.0594 11.1272C50.5729 11.1272 50.0863 11.1197 49.6001 11.1317C49.4528 11.1354 49.3786 11.0805 49.3022 10.9661C48.6279 9.95535 47.9477 8.94847 47.2693 7.94036C47.2602 7.92676 47.2491 7.91388 47.2429 7.89896C47.2019 7.79826 47.1138 7.8049 47.0357 7.82095C46.9495 7.83874 46.9907 7.91961 46.9905 7.97042C46.9879 8.95972 46.9842 9.94902 46.9929 10.9382C46.9943 11.1027 46.9456 11.1347 46.7926 11.1309C46.3666 11.12 45.94 11.124 45.5138 11.1293C45.4063 11.1307 45.3627 11.1112 45.3628 10.9891C45.3664 8.32731 45.3659 5.66549 45.3641 3.00378C45.3641 2.91351 45.3737 2.86475 45.4853 2.8672C46.4029 2.88632 47.3217 2.8306 48.2383 2.90094C48.8748 2.9498 49.4734 3.12196 49.9628 3.55583C50.5498 4.0764 50.7152 4.75941 50.6752 5.51163C50.6165 6.61809 50.0135 7.34864 48.9392 7.62099C48.9031 7.63009 48.8686 7.64675 48.8189 7.66536ZM46.9887 5.42729C46.9887 5.79277 46.9952 6.15846 46.9851 6.52363C46.9815 6.65173 47.0222 6.67687 47.1398 6.67207C47.3793 6.66226 47.6189 6.66747 47.8585 6.64222C48.5598 6.5682 48.9587 6.16285 49.0107 5.46031C49.0527 4.89466 48.7635 4.46682 48.2255 4.29037C47.8717 4.17434 47.5066 4.18702 47.1419 4.17986C47.0228 4.17751 46.9823 4.20347 46.9855 4.33085C46.9948 4.69613 46.9887 5.06171 46.9887 5.42729Z" fill="#231F20"/>
<path fill-rule="evenodd" clip-rule="evenodd" d="M39.7466 3.02997C39.7462 2.90607 39.7713 2.86558 39.9049 2.86609C41.3258 2.87151 42.7466 2.87069 44.1674 2.86701C44.278 2.86671 44.318 2.88838 44.3154 3.0082C44.3074 3.39054 44.3075 3.7733 44.3154 4.15565C44.3179 4.27097 44.2751 4.2864 44.1755 4.28599C43.2957 4.28262 42.4158 4.28814 41.5361 4.28007C41.3865 4.27874 41.3566 4.32229 41.3592 4.46265C41.368 4.95981 41.367 5.45727 41.3595 5.95442C41.3577 6.07863 41.3925 6.10869 41.5145 6.10797C42.3615 6.10256 43.2086 6.10859 44.0556 6.10153C44.1894 6.10041 44.215 6.14161 44.2124 6.26449C44.2045 6.63048 44.2046 6.99678 44.2125 7.36277C44.2149 7.4785 44.1819 7.506 44.0683 7.50538C43.2268 7.50037 42.3852 7.50722 41.5437 7.49853C41.3868 7.4969 41.3578 7.54648 41.3594 7.69032C41.367 8.31322 41.3659 8.93622 41.3598 9.55922C41.3586 9.68313 41.3843 9.72392 41.5181 9.7229C42.3978 9.71615 43.2777 9.72259 44.1575 9.71605C44.2889 9.71513 44.3183 9.75254 44.3155 9.87757C44.3073 10.2544 44.3099 10.6317 44.3144 11.0088C44.3155 11.099 44.2934 11.1297 44.1976 11.1295C42.7549 11.1265 41.3122 11.1254 39.8695 11.1308C39.7381 11.1313 39.7485 11.0671 39.7486 10.9814C39.7496 9.64776 39.751 4.34693 39.7466 3.02997Z" fill="#231F20"/>
<path fill-rule="evenodd" clip-rule="evenodd" d="M10.7787 8.74128C10.9961 9.14786 11.2828 9.47899 11.705 9.66444C12.1587 9.86379 12.6258 9.93331 13.0967 9.72271C13.5247 9.53154 13.7558 9.19029 13.7742 8.72564C13.7925 8.26539 13.5463 7.95706 13.1476 7.75802C12.6893 7.52922 12.1936 7.39336 11.7253 7.18991C11.2676 6.99107 10.8316 6.76105 10.5156 6.35386C10.3225 6.10513 10.2153 5.82072 10.1779 5.51617C10.0111 4.15996 10.7538 3.18998 11.8804 2.87122C13.0571 2.53826 14.1168 2.83084 15.066 3.57683C15.1362 3.63193 15.1602 3.67078 15.093 3.75492C14.8514 4.05763 14.6151 4.36484 14.3867 4.67756C14.3173 4.77274 14.287 4.74575 14.2238 4.67828C13.9655 4.40266 13.6691 4.17949 13.2851 4.12459C12.8003 4.05528 12.3417 4.11733 12.0042 4.51921C11.7025 4.87845 11.7695 5.33093 12.1506 5.60164C12.4917 5.84393 12.8893 5.96599 13.274 6.11464C13.6347 6.25408 13.987 6.40988 14.3241 6.60106C15.0121 6.99107 15.3901 7.56316 15.4394 8.36487C15.5225 9.71842 14.8109 10.8617 13.4854 11.2022C12.0713 11.5655 10.6895 11.1631 9.78229 9.82392C9.74487 9.76862 9.74078 9.73631 9.79231 9.68744C10.1208 9.37584 10.4462 9.06096 10.7787 8.74128Z" fill="#231F20"/>
<path fill-rule="evenodd" clip-rule="evenodd" d="M31.0952 2.86943C31.6558 2.86943 32.1911 2.87301 32.7263 2.86637C32.8335 2.86504 32.8753 2.90348 32.9123 2.99722C33.4049 4.24445 34.8246 7.81603 35.0427 8.36727C35.1423 8.25737 36.5607 4.65972 37.2294 2.9916C37.2561 2.92505 37.2752 2.86637 37.3725 2.86718C37.9186 2.87199 38.4647 2.86954 39.034 2.86954C38.9041 3.18155 36.5649 8.73182 35.5238 11.2102C35.4826 11.3084 35.4369 11.3405 35.3346 11.3366C35.1272 11.3287 34.9193 11.3292 34.712 11.3365C34.6197 11.3398 34.578 11.306 34.5437 11.223C33.9021 9.66674 31.651 4.22851 31.17 3.06439C31.1453 3.00489 31.1237 2.94416 31.0952 2.86943Z" fill="#231F20"/>
<path fill-rule="evenodd" clip-rule="evenodd" d="M22.3118 5.10244C22.0072 4.81108 21.7152 4.56634 21.3665 4.40501C19.9945 3.77056 18.3427 4.45204 17.8139 5.90721C17.4066 7.02808 17.5421 8.09385 18.3605 9.00402C18.9077 9.61261 19.6307 9.83466 20.437 9.82617C21.0767 9.81953 21.606 9.55935 22.0738 9.14602C22.1427 9.0852 22.2092 9.02181 22.2762 8.96017C22.3344 8.99196 22.3103 9.04124 22.3104 9.07957C22.3123 9.62059 22.3106 10.1617 22.3128 10.7028C22.3131 10.7849 22.3009 10.835 22.2118 10.8779C20.5549 11.6758 18.4589 11.36 17.1626 10.033C16.3604 9.21186 15.9654 8.22052 15.9405 7.07296C15.8982 5.13127 17.192 3.438 18.9918 2.89413C20.0961 2.56044 21.1743 2.62434 22.2144 3.14633C22.2704 3.17435 22.3139 3.19857 22.3135 3.27596C22.3103 3.87147 22.3118 4.46676 22.3118 5.10244Z" fill="#231F20"/>
<path fill-rule="evenodd" clip-rule="evenodd" d="M9.1414 10.9471C9.14191 11.0828 9.12177 11.1362 8.96658 11.1317C8.52974 11.1189 8.09219 11.124 7.65505 11.1296C7.54893 11.131 7.51632 11.1037 7.51642 10.9941C7.51939 8.33253 7.51959 5.67082 7.51611 3.00921C7.51591 2.88929 7.55558 2.86568 7.66548 2.86711C8.0972 2.87294 8.52913 2.8759 8.96065 2.86588C9.10357 2.86251 9.14303 2.89686 9.14232 3.04417C9.13588 4.36675 9.1367 9.63538 9.1414 10.9471Z" fill="#231F20"/>
<path fill-rule="evenodd" clip-rule="evenodd" d="M51.7665 3.51528C51.8446 3.61966 51.9215 3.7225 52.0002 3.8278C51.9879 3.8278 51.9783 3.8278 51.9688 3.8278C51.9249 3.8278 51.881 3.82709 51.837 3.82821C51.8239 3.82862 51.8171 3.82361 51.8102 3.81329C51.7493 3.72199 51.6879 3.63111 51.6266 3.54012C51.6258 3.53889 51.6248 3.53777 51.6243 3.53644C51.6206 3.52724 51.6126 3.52785 51.6056 3.52928C51.5978 3.53092 51.6015 3.53818 51.6015 3.54278C51.6013 3.63203 51.6009 3.72138 51.6017 3.81073C51.6019 3.82555 51.5974 3.82852 51.5836 3.82811C51.5452 3.82719 51.5066 3.8275 51.4682 3.82801C51.4585 3.82811 51.4546 3.82637 51.4546 3.81533C51.4549 3.57509 51.4549 3.33474 51.4548 3.09449C51.4548 3.08631 51.4556 3.08202 51.4657 3.08212C51.5485 3.08386 51.6315 3.07885 51.7143 3.08509C51.7717 3.08948 51.8257 3.10502 51.87 3.14428C51.9229 3.1912 51.9378 3.25295 51.9343 3.32084C51.9289 3.42072 51.8746 3.48665 51.7775 3.51129C51.7741 3.51201 51.7709 3.51354 51.7665 3.51528ZM51.6012 3.31317C51.6012 3.34619 51.6019 3.37921 51.6009 3.41213C51.6006 3.42368 51.6043 3.42603 51.6149 3.42562C51.6366 3.4247 51.6581 3.42521 51.6797 3.42286C51.7431 3.41622 51.779 3.37962 51.7837 3.31623C51.7875 3.26522 51.7614 3.22647 51.7128 3.21063C51.6809 3.2002 51.6479 3.20132 51.615 3.20061C51.6043 3.20051 51.6005 3.20276 51.6009 3.21421C51.6018 3.24713 51.6012 3.28015 51.6012 3.31317Z" fill="#231F20"/>
<path d="M27.1896 11.38C29.6 11.38 31.554 9.41901 31.554 7.00004C31.554 4.58108 29.6 2.62012 27.1896 2.62012C24.7792 2.62012 22.8252 4.58108 22.8252 7.00004C22.8252 9.41901 24.7792 11.38 27.1896 11.38Z" fill="url(#paint0_linear_943_344)"/>
<path d="M27.1896 11.38C29.6 11.38 31.554 9.41901 31.554 7.00004C31.554 4.58108 29.6 2.62012 27.1896 2.62012C24.7792 2.62012 22.8252 4.58108 22.8252 7.00004C22.8252 9.41901 24.7792 11.38 27.1896 11.38Z" fill="url(#paint1_linear_943_344)"/>
</g>
<defs>
<linearGradient id="paint0_linear_943_344" x1="25.3393" y1="3.03199" x2="29.0399" y2="10.968" gradientUnits="userSpaceOnUse">
<stop offset="0.3831" stop-color="#E45E26"/>
<stop offset="1" stop-color="#F8A020"/>
</linearGradient>
<linearGradient id="paint1_linear_943_344" x1="25.0012" y1="3.20958" x2="29.378" y2="10.7904" gradientUnits="userSpaceOnUse">
<stop stop-color="#80391B"/>
<stop offset="0.1105" stop-color="#843B1B" stop-opacity="0.8161"/>
<stop offset="0.2346" stop-color="#92401D" stop-opacity="0.6096"/>
<stop offset="0.3653" stop-color="#A8481F" stop-opacity="0.3922"/>
<stop offset="0.4996" stop-color="#C75323" stop-opacity="0.1687"/>
<stop offset="0.601" stop-color="#E45E26" stop-opacity="0"/>
<stop offset="1" stop-color="#F8A020" stop-opacity="0"/>
</linearGradient>
<clipPath id="clip0_943_344">
<rect width="52" height="13" fill="white"/>
</clipPath>
</defs>
</svg>
