<svg width="32" height="32" viewBox="0 0 32 32" fill="none" xmlns="http://www.w3.org/2000/svg">
<g clip-path="url(#clip0_329_1863)">
<path fill-rule="evenodd" clip-rule="evenodd" d="M16 32H8C5.8783 31.9999 3.84352 31.157 2.34325 29.6568C0.842977 28.1565 9.28184e-05 26.1217 0 24L0 8C9.28184e-05 5.8783 0.842977 3.84352 2.34325 2.34325C3.84352 0.842977 5.8783 9.28184e-05 8 0L24 0C26.1217 0 28.1566 0.842855 29.6569 2.34315C31.1571 3.84344 32 5.87827 32 8V24C32 26.1217 31.1571 28.1566 29.6569 29.6569C28.1566 31.1571 26.1217 32 24 32H21C21 31.337 20.7366 30.7011 20.2678 30.2322C19.7989 29.7634 19.163 29.5 18.5 29.5C17.837 29.5 17.2011 29.7634 16.7322 30.2322C16.2634 30.7011 16 31.337 16 32Z" fill="#3764B9"/>
<path fill-rule="evenodd" clip-rule="evenodd" d="M14.8551 9.13043H23.7681C24.9106 9.13036 26.0094 8.68084 26.8377 7.8747C27.6659 7.06856 28.1604 5.96737 28.2188 4.79855C28.2773 3.62973 27.8953 2.48254 27.1519 1.5939C26.4084 0.70526 25.3602 0.143034 24.2237 0.0233333C24.0722 0.0147101 23.9221 0 23.7681 0H7.92271C5.8215 9.41636e-05 3.80638 0.855194 2.32061 2.37721C0.834833 3.89922 9.19217e-05 5.96349 0 8.11594L0 24.3478C9.1925e-05 20.312 1.56521 16.4414 4.35105 13.5876C7.1369 10.7338 10.9153 9.13053 14.8551 9.13043Z" fill="#507DD2"/>
<path fill-rule="evenodd" clip-rule="evenodd" d="M24 16.3554C22.4178 16.3554 20.871 16.8142 19.5554 17.6737C18.2398 18.5332 17.2145 19.7549 16.609 21.1842C16.0035 22.6135 15.845 24.1863 16.1537 25.7037C16.4624 27.221 17.2243 28.6148 18.3431 29.7088C19.462 30.8027 20.8874 31.5477 22.4393 31.8496C23.9911 32.1514 25.5997 31.9965 27.0615 31.4044C28.5233 30.8124 29.7727 29.8098 30.6518 28.5234C31.5308 27.2371 32 25.7247 32 24.1776V8.5332C32 10.6078 31.1571 12.5974 29.6569 14.0643C28.1566 15.5313 26.1217 16.3554 24 16.3554Z" fill="#1E4BA0"/>
<path fill-rule="evenodd" clip-rule="evenodd" d="M25.7488 9.13024C25.7488 9.3993 25.6444 9.65734 25.4587 9.84759C25.273 10.0378 25.0211 10.1447 24.7584 10.1447H21.7874C21.5248 10.1447 21.2729 10.2516 21.0871 10.4419C20.9014 10.6321 20.7971 10.8902 20.7971 11.1592V15.2172H24.5406C24.6871 15.2172 24.8318 15.2505 24.9642 15.3147C25.0966 15.3789 25.2135 15.4724 25.3064 15.5885C25.3993 15.7045 25.4659 15.8403 25.5014 15.9859C25.5369 16.1315 25.5404 16.2834 25.5117 16.4305C25.3278 17.3725 25.0781 18.6518 24.9175 19.474C24.8726 19.704 24.7513 19.911 24.5743 20.0597C24.3972 20.2084 24.1753 20.2897 23.9464 20.2897H20.7971V32.4636H15.8454V20.2897H12.8744C12.6117 20.2897 12.3598 20.1828 12.1741 19.9925C11.9884 19.8023 11.884 19.5442 11.884 19.2752V16.2317C11.884 15.9626 11.9884 15.7046 12.1741 15.5143C12.3598 15.3241 12.6117 15.2172 12.8744 15.2172H15.8454V11.1592C15.8454 9.54486 16.4714 7.99662 17.5858 6.85509C18.7001 5.71357 20.2115 5.07227 21.7874 5.07227H24.7584C25.0211 5.07227 25.273 5.17915 25.4587 5.3694C25.6444 5.55966 25.7488 5.8177 25.7488 6.08676V9.13024Z" fill="white"/>
</g>
<defs>
<clipPath id="clip0_329_1863">
<rect width="32" height="32" fill="white"/>
</clipPath>
</defs>
</svg>
