<svg width="79" height="81" viewBox="0 0 79 81" fill="none" xmlns="http://www.w3.org/2000/svg">
<g clip-path="url(#clip0_112_823)">
<path fill-rule="evenodd" clip-rule="evenodd" d="M39.27 80.14H19.635C14.4275 80.1398 9.43344 78.0536 5.75121 74.3405C2.06898 70.6273 0.000227811 65.5912 0 60.34L0 20.74C0.000227811 15.4888 2.06898 10.4527 5.75121 6.73954C9.43344 3.02637 14.4275 0.940232 19.635 0.940002L58.905 0.940002C64.1125 0.940002 69.1068 3.02607 72.789 6.73929C76.4713 10.4525 78.54 15.4887 78.54 20.74V60.34C78.54 65.5913 76.4713 70.6275 72.789 74.3407C69.1068 78.0539 64.1125 80.14 58.905 80.14H51.5419C51.5419 78.499 50.8954 76.9252 49.7447 75.7648C48.594 74.6044 47.0333 73.9525 45.4059 73.9525C43.7786 73.9525 42.2179 74.6044 41.0672 75.7648C39.9165 76.9252 39.27 78.499 39.27 80.14Z" fill="#3764B9"/>
<path fill-rule="evenodd" clip-rule="evenodd" d="M36.8156 23.215H58.905C61.7365 23.2148 64.4597 22.1181 66.5124 20.1515C68.5651 18.1848 69.7904 15.4983 69.9353 12.6468C70.0802 9.79525 69.1336 6.99652 67.291 4.82855C65.4485 2.66058 62.8506 1.28896 60.034 0.996927C59.6585 0.97589 59.2867 0.940002 58.905 0.940002H19.635C14.4275 0.940232 9.43344 3.02637 5.75121 6.73954C2.06898 10.4527 0.000227811 15.4888 0 20.74L0 60.34C0.00022782 50.4939 3.87908 41.0511 10.7833 34.0889C17.6875 27.1267 27.0516 23.2152 36.8156 23.215Z" fill="#507DD2"/>
<path fill-rule="evenodd" clip-rule="evenodd" d="M58.9045 40.54C55.0211 40.54 51.2249 41.7012 47.9959 43.8769C44.767 46.0525 42.2503 49.1449 40.7642 52.7629C39.278 56.3808 38.8892 60.362 39.6468 64.2028C40.4044 68.0436 42.2745 71.5716 45.0205 74.3407C47.7665 77.1098 51.2651 78.9956 55.0739 79.7595C58.8828 80.5235 62.8307 80.1314 66.4185 78.6328C70.0064 77.1342 73.0729 74.5964 75.2304 71.3403C77.388 68.0842 78.5395 64.2561 78.5395 60.34V20.74C78.5395 25.9913 76.4709 31.0275 72.7886 34.7407C69.1063 38.4539 64.1121 40.54 58.9045 40.54Z" fill="#1E4BA0"/>
<path fill-rule="evenodd" clip-rule="evenodd" d="M63.8134 23.215C63.8134 23.8714 63.5548 24.5009 63.0945 24.9651C62.6342 25.4292 62.01 25.69 61.359 25.69H53.9959C53.345 25.69 52.7207 25.9508 52.2604 26.4149C51.8001 26.8791 51.5415 27.5086 51.5415 28.165V38.065H60.8191C61.1822 38.065 61.5407 38.1462 61.8689 38.3029C62.1972 38.4595 62.4868 38.6876 62.717 38.9708C62.9473 39.2539 63.1123 39.5851 63.2003 39.9403C63.2883 40.2955 63.297 40.666 63.2258 41.0251C62.7702 43.3231 62.1512 46.4441 61.7532 48.4501C61.642 49.0112 61.3414 49.5161 60.9026 49.8789C60.4638 50.2417 59.9139 50.44 59.3464 50.44H51.5415V80.14H39.2696V50.44H31.9065C31.2556 50.44 30.6313 50.1792 30.171 49.7151C29.7107 49.2509 29.4521 48.6214 29.4521 47.965V40.54C29.4521 39.8836 29.7107 39.2541 30.171 38.7899C30.6313 38.3258 31.2556 38.065 31.9065 38.065H39.2696V28.165C39.2696 24.2265 40.8212 20.4494 43.5829 17.6645C46.3446 14.8796 50.0903 13.315 53.9959 13.315H61.359C62.01 13.315 62.6342 13.5758 63.0945 14.0399C63.5548 14.5041 63.8134 15.1336 63.8134 15.79V23.215Z" fill="white"/>
</g>
<defs>
<clipPath id="clip0_112_823">
<rect y="0.940002" width="78.54" height="79.2" fill="white"/>
</clipPath>
</defs>
</svg>
