<svg width="46" height="20" viewBox="0 0 46 20" fill="none" xmlns="http://www.w3.org/2000/svg">
<g clip-path="url(#clip0_329_1881)">
<path d="M21.4696 10.5306V16.0197H19.7809V2.46484H24.2577C25.3923 2.46484 26.3598 2.85502 27.1514 3.63527C27.9606 4.41552 28.3652 5.36816 28.3652 6.49317C28.3652 7.64543 27.9606 8.59807 27.1514 9.36924C26.3686 10.1404 25.4011 10.5215 24.2577 10.5215H21.4696V10.5306ZM21.4696 4.13425V8.86118H24.2929C24.9614 8.86118 25.5243 8.62531 25.964 8.16257C26.4126 7.69984 26.6413 7.13737 26.6413 6.50225C26.6413 5.87622 26.4126 5.32275 25.964 4.8601C25.5242 4.37919 24.9702 4.14333 24.2929 4.14333H21.4696V4.13425Z" fill="#383E41"/>
<path d="M32.7805 6.43848C34.0294 6.43848 35.0145 6.78324 35.7357 7.47276C36.4569 8.16228 36.8175 9.10583 36.8175 10.3035V16.0194H35.2079V14.7311H35.1376C34.4427 15.7926 33.5104 16.3188 32.3495 16.3188C31.3556 16.3188 30.5288 16.0194 29.8604 15.4115C29.1919 14.8037 28.8577 14.0506 28.8577 13.1433C28.8577 12.1816 29.2095 11.4195 29.9132 10.857C30.6168 10.2854 31.5579 10.0042 32.7277 10.0042C33.7304 10.0042 34.5572 10.1947 35.1992 10.5757V10.1765C35.1992 9.56867 34.9706 9.06061 34.5044 8.6342C34.0382 8.20779 33.4929 7.99908 32.8684 7.99908C31.9273 7.99908 31.1797 8.40732 30.6344 9.23299L29.1479 8.27127C29.9659 7.04635 31.1797 6.43848 32.7805 6.43848ZM30.5992 13.1705C30.5992 13.6241 30.7839 14.0052 31.1621 14.3046C31.5315 14.604 31.9713 14.7582 32.4726 14.7582C33.1851 14.7582 33.8183 14.4861 34.3725 13.9417C34.9266 13.3973 35.208 12.7622 35.208 12.0273C34.6803 11.6009 33.9503 11.3831 33.0092 11.3831C32.3232 11.3831 31.7515 11.5555 31.2941 11.8912C30.8279 12.245 30.5992 12.6715 30.5992 13.1705Z" fill="#383E41"/>
<path d="M46 6.73828L40.3709 20.0935H38.6294L40.7226 15.421L37.011 6.73828H38.8492L41.5231 13.3977H41.5583L44.1617 6.73828H46Z" fill="#383E41"/>
<path d="M14.6118 7.78906H7.53329V10.7831L11.61 10.784C11.4446 11.7802 10.9125 12.6294 10.0972 13.1956V13.1962C10.0974 13.196 10.0978 13.1958 10.0981 13.1956L10.0247 14.9851L12.5247 15.1372C12.5244 15.1375 12.524 15.1378 12.5238 15.1381C13.9407 13.7854 14.7526 11.7857 14.7526 9.42315C14.7525 8.85513 14.7033 8.31167 14.6118 7.78906Z" fill="#0085F7"/>
<path d="M10.098 13.1959C10.0977 13.1961 10.0973 13.1963 10.0971 13.1965C9.42172 13.666 8.55212 13.9407 7.535 13.9407C5.56922 13.9407 3.90163 12.5744 3.30444 10.7326H3.30417C3.30426 10.7329 3.30435 10.7333 3.30444 10.7335L1.21728 10.3926L0.801666 12.7365C2.04196 15.2747 4.59065 17.0164 7.53509 17.0164C9.56979 17.0164 11.2792 16.3264 12.5238 15.1383C12.5241 15.138 12.5245 15.1378 12.5247 15.1374L10.098 13.1959Z" fill="#00A94B"/>
<path d="M3.0687 9.2462C3.0687 8.72905 3.15226 8.22915 3.30445 7.75918L2.65273 5.75586H0.801227C0.288488 6.80562 0 7.9905 0 9.2462C0 10.5019 0.289387 11.6868 0.801227 12.7365L0.801586 12.7363L3.30445 10.7332C3.30436 10.7329 3.30427 10.7327 3.30418 10.7323C3.15217 10.2627 3.0687 9.76306 3.0687 9.2462Z" fill="#FFBB00"/>
<path d="M7.53503 1.47559C4.59121 1.47559 2.04144 3.21756 0.801239 5.75618L3.30438 7.7595C3.90157 5.91772 5.56916 4.55137 7.53494 4.55137C8.64577 4.55137 9.64061 4.94609 10.426 5.71726L12.5765 3.50078C11.2705 2.24583 9.56765 1.47559 7.53503 1.47559Z" fill="#FF4031"/>
</g>
<defs>
<clipPath id="clip0_329_1881">
<rect width="46" height="20" fill="white"/>
</clipPath>
</defs>
</svg>
