<svg width="79" height="81" viewBox="0 0 79 81" fill="none" xmlns="http://www.w3.org/2000/svg">
<g clip-path="url(#clip0_112_810)">
<path d="M77.2148 15.026C76.5 8.27169 71.2101 2.93618 64.5115 2.21592C47.7132 0.408008 30.8658 0.408008 14.0681 2.21592C7.36947 2.93678 2.07902 8.27169 1.36416 15.026C-0.428679 31.9648 -0.428679 48.9545 1.36416 65.8933C2.07902 72.6482 7.36947 77.9831 14.0675 78.704C30.8652 80.5119 47.7132 80.5119 64.5115 78.704C71.2101 77.9831 76.5 72.6482 77.2148 65.8933C79.0077 48.9545 79.0077 31.9654 77.2148 15.026Z" fill="url(#paint0_radial_112_810)"/>
<path d="M72.9428 17.8907C72.3088 11.8972 67.6146 7.1629 61.6704 6.52301C46.7644 4.91933 31.8141 4.91933 16.9081 6.52301C10.9645 7.1629 6.26968 11.8972 5.63511 17.8907C4.04481 32.922 4.04481 47.998 5.63511 63.0286C6.26968 69.0227 10.9645 73.757 16.9081 74.3963C31.8141 76.0006 46.7644 76.0006 61.6698 74.3963C67.614 73.757 72.3088 69.0227 72.9428 63.0286C74.5337 47.998 74.5337 32.922 72.9428 17.8907Z" fill="url(#paint1_linear_112_810)"/>
<path d="M1.19629 64.2516C1.25022 64.799 1.30594 65.3465 1.36407 65.8939C2.07893 72.6482 7.36937 77.9831 14.068 78.704C30.8657 80.5119 47.7137 80.5119 64.5114 78.704C71.21 77.9831 76.4999 72.6482 77.2147 65.8939C77.2729 65.3465 77.3286 64.799 77.3831 64.2516H1.19629Z" fill="url(#paint2_linear_112_810)"/>
<path d="M77.2151 65.8933C78.1787 56.7915 78.6233 47.6753 78.5514 38.5602L60.599 20.4569C58.3561 17.875 55.0802 16.2634 51.2309 16.1239C43.3147 15.8362 35.3733 15.8507 27.456 16.1251C20.8802 16.3535 16.2818 20.8104 15.1026 27.3611C14.8947 28.5176 14.77 29.6892 14.6064 30.8542V50.0584C14.6969 50.6808 14.83 51.3001 14.8713 51.9261C15.135 55.9105 16.7588 59.3233 19.3588 61.6322L37.6276 80.0539C46.593 80.1173 55.559 79.6677 64.5118 78.704C71.2104 77.9831 76.5003 72.6482 77.2151 65.8933Z" fill="url(#paint3_linear_112_810)"/>
<path d="M77.2149 65.894C76.5006 72.6476 71.209 77.9838 64.5116 78.704C55.56 79.6672 46.5921 80.1174 37.6279 80.0539L19.3867 61.6594C21.5013 63.5259 24.2577 64.6625 27.4563 64.784C35.3719 65.0837 43.3151 65.0758 51.2307 64.7882C58.39 64.5272 63.5708 59.1838 63.7943 51.9643C64.0328 44.2988 64.0328 36.6133 63.7943 28.9479C63.6925 25.6172 62.533 22.6866 60.6107 20.4691L78.5517 38.5608C78.6224 47.6747 78.1778 56.7922 77.2149 65.894Z" fill="url(#paint4_linear_112_810)"/>
<path d="M48.5572 31.8838C46.2575 29.3587 42.9576 27.7744 39.2898 27.7744C32.3426 27.7744 26.71 33.4543 26.71 40.4599C26.71 44.1585 28.2811 47.4861 30.7852 49.8052L59.8907 79.1553C61.4313 79.02 62.9719 78.8695 64.5113 78.704C71.2099 77.9831 76.5003 72.6482 77.2152 65.8933C77.3793 64.341 77.5285 62.7875 77.6628 61.234L48.5572 31.8838Z" fill="url(#paint5_linear_112_810)"/>
<path d="M78.4077 48.9913L54.9833 25.3707C54.4368 24.6474 53.5757 24.1779 52.6044 24.1779C50.9518 24.1779 49.6113 25.529 49.6113 27.1961C49.6113 28.1756 50.0769 29.0439 50.7942 29.595L77.9888 57.0188C78.1734 54.3438 78.313 51.6676 78.4077 48.9913Z" fill="url(#paint6_linear_112_810)"/>
<path d="M14.6064 30.8542C14.77 29.6892 14.8947 28.5176 15.1026 27.3611C16.2812 20.8104 20.8802 16.3535 27.456 16.1251C35.3733 15.8507 43.3147 15.8362 51.2309 16.1239C58.3879 16.3837 63.5711 21.7277 63.7946 28.9472C64.0325 36.6133 64.0325 44.2981 63.7946 51.9642C63.5711 59.1838 58.3897 64.5271 51.2315 64.7875C43.3153 65.0758 35.3721 65.083 27.4566 64.7833C20.2984 64.512 15.3501 59.156 14.8713 51.9255C14.83 51.3001 14.6969 50.6802 14.6064 50.0578C14.6064 43.6564 14.6064 37.255 14.6064 30.8542ZM39.2964 60.5089C42.9192 60.5089 46.5457 60.6182 50.1637 60.4835C55.8364 60.2714 59.3256 56.8574 59.4581 51.1424C59.6223 44.0214 59.6223 36.8906 59.4581 29.769C59.3256 24.0552 55.834 20.5615 50.1637 20.44C42.9666 20.2865 35.7616 20.2877 28.5645 20.44C22.9373 20.559 19.4379 23.9821 19.2851 29.633C19.0909 36.8441 19.0909 44.0679 19.2851 51.279C19.4379 56.9293 22.9373 60.2732 28.5651 60.4835C32.1376 60.6176 35.7191 60.5089 39.2964 60.5089Z" fill="url(#paint7_linear_112_810)"/>
<path d="M14.6064 30.8542C14.77 29.6892 14.8947 28.5176 15.1026 27.3611C16.2812 20.8104 20.8802 16.3535 27.456 16.1251C35.3733 15.8507 43.3147 15.8362 51.2309 16.1239C58.3879 16.3837 63.5711 21.7277 63.7946 28.9472C64.0325 36.6133 64.0325 44.2981 63.7946 51.9642C63.5711 59.1838 58.3897 64.5271 51.2315 64.7875C43.3153 65.0758 35.3721 65.083 27.4566 64.7833C20.2984 64.512 15.3501 59.156 14.8713 51.9255C14.83 51.3001 14.6969 50.6802 14.6064 50.0578C14.6064 43.6564 14.6064 37.255 14.6064 30.8542ZM39.2964 60.5089C42.9192 60.5089 46.5457 60.6182 50.1637 60.4835C55.8364 60.2714 59.3256 56.8574 59.4581 51.1424C59.6223 44.0214 59.6223 36.8906 59.4581 29.769C59.3256 24.0552 55.834 20.5615 50.1637 20.44C42.9666 20.2865 35.7616 20.2877 28.5645 20.44C22.9373 20.559 19.4379 23.9821 19.2851 29.633C19.0909 36.8441 19.0909 44.0679 19.2851 51.279C19.4379 56.9293 22.9373 60.2732 28.5651 60.4835C32.1376 60.6176 35.7191 60.5089 39.2964 60.5089Z" fill="white"/>
<path d="M39.2898 27.775C32.3426 27.775 26.71 33.4543 26.71 40.4599C26.71 47.4662 32.3426 53.1455 39.2898 53.1455C46.2377 53.1455 51.8697 47.4662 51.8697 40.4599C51.8697 33.4543 46.2377 27.775 39.2898 27.775ZM39.2898 48.778C34.734 48.778 31.0411 45.054 31.0411 40.4599C31.0411 35.8658 34.734 32.1419 39.2898 32.1419C43.8456 32.1419 47.5386 35.8658 47.5386 40.4599C47.5386 45.054 43.8456 48.778 39.2898 48.778Z" fill="white"/>
<path d="M55.5969 27.1961C55.5969 28.8626 54.257 30.2137 52.6044 30.2137C50.9518 30.2137 49.6113 28.8626 49.6113 27.1961C49.6113 25.529 50.9518 24.1779 52.6044 24.1779C54.257 24.1779 55.5969 25.529 55.5969 27.1961Z" fill="white"/>
</g>
<defs>
<radialGradient id="paint0_radial_112_810" cx="0" cy="0" r="1" gradientUnits="userSpaceOnUse" gradientTransform="translate(16.1198 70.0745) scale(86.6157 87.3436)">
<stop stop-color="#FAE100"/>
<stop offset="0.0544" stop-color="#FADC04"/>
<stop offset="0.1167" stop-color="#FBCE0E"/>
<stop offset="0.1829" stop-color="#FCB720"/>
<stop offset="0.2514" stop-color="#FE9838"/>
<stop offset="0.3054" stop-color="#FF7950"/>
<stop offset="0.4922" stop-color="#FF1C74"/>
<stop offset="1" stop-color="#6C1CD1"/>
</radialGradient>
<linearGradient id="paint1_linear_112_810" x1="30.1425" y1="35.2717" x2="-103.446" y2="-39.2458" gradientUnits="userSpaceOnUse">
<stop stop-color="#A1B5D8" stop-opacity="0"/>
<stop offset="0.3094" stop-color="#90A2BD" stop-opacity="0.309804"/>
<stop offset="0.7554" stop-color="#7C8B9C" stop-opacity="0.756863"/>
<stop offset="1" stop-color="#748290"/>
</linearGradient>
<linearGradient id="paint2_linear_112_810" x1="39.2895" y1="70.7734" x2="39.2895" y2="83.1187" gradientUnits="userSpaceOnUse">
<stop stop-color="#FAE100" stop-opacity="0"/>
<stop offset="0.3068" stop-color="#FCA800" stop-opacity="0.305882"/>
<stop offset="0.6275" stop-color="#FE7300" stop-opacity="0.627451"/>
<stop offset="0.8685" stop-color="#FF5200" stop-opacity="0.866667"/>
<stop offset="1" stop-color="#FF4500"/>
</linearGradient>
<linearGradient id="paint3_linear_112_810" x1="34.8217" y1="35.8422" x2="15.2217" y2="16.4055" gradientUnits="userSpaceOnUse">
<stop stop-color="#833AB4" stop-opacity="0"/>
<stop offset="1" stop-color="#833AB4"/>
</linearGradient>
<linearGradient id="paint4_linear_112_810" x1="53.847" y1="73.2982" x2="43.9889" y2="27.2116" gradientUnits="userSpaceOnUse">
<stop stop-color="#833AB4" stop-opacity="0"/>
<stop offset="1" stop-color="#833AB4"/>
</linearGradient>
<linearGradient id="paint5_linear_112_810" x1="57.5389" y1="58.8623" x2="18.2459" y2="19.8968" gradientUnits="userSpaceOnUse">
<stop stop-color="#833AB4" stop-opacity="0"/>
<stop offset="1" stop-color="#833AB4"/>
</linearGradient>
<linearGradient id="paint6_linear_112_810" x1="60.4292" y1="35.0866" x2="47.4358" y2="22.2015" gradientUnits="userSpaceOnUse">
<stop stop-color="#833AB4" stop-opacity="0"/>
<stop offset="1" stop-color="#833AB4"/>
</linearGradient>
<linearGradient id="paint7_linear_112_810" x1="54.884" y1="24.8442" x2="22.8469" y2="56.6143" gradientUnits="userSpaceOnUse">
<stop stop-color="#833AB4"/>
<stop offset="0.0922" stop-color="#9C3495"/>
<stop offset="0.2927" stop-color="#DC2546"/>
<stop offset="0.392" stop-color="#FD1D1D"/>
<stop offset="0.5589" stop-color="#FC6831"/>
<stop offset="0.6887" stop-color="#FC9B40"/>
<stop offset="0.7521" stop-color="#FCAF45"/>
<stop offset="0.7806" stop-color="#FDB750"/>
<stop offset="0.8656" stop-color="#FECB6A"/>
<stop offset="0.9415" stop-color="#FFD87A"/>
<stop offset="1" stop-color="#FFDC80"/>
</linearGradient>
<clipPath id="clip0_112_810">
<rect x="0.0195312" y="0.859985" width="78.54" height="79.2" fill="white"/>
</clipPath>
</defs>
</svg>
