<svg width="32" height="32" viewBox="0 0 32 32" fill="none" xmlns="http://www.w3.org/2000/svg">
<g clip-path="url(#clip0_329_1869)">
<path d="M26.2761 31.4545C19.447 32.1831 12.5598 32.1831 5.73067 31.4545C4.40452 31.3145 3.16644 30.7241 2.22283 29.7818C1.27923 28.8396 0.687118 27.6023 0.545214 26.2764C-0.183366 19.4473 -0.183366 12.56 0.545214 5.73091C0.685257 4.40476 1.27563 3.16668 2.21791 2.22308C3.16019 1.27947 4.39744 0.687362 5.7234 0.545458C12.5525 -0.183121 19.4397 -0.183121 26.2688 0.545458C27.595 0.685501 28.8331 1.27588 29.7767 2.21816C30.7203 3.16044 31.3124 4.39769 31.4543 5.72364C32.1829 12.5527 32.1829 19.44 31.4543 26.2691C31.3143 27.5952 30.7239 28.8333 29.7816 29.7769C28.8393 30.7205 27.6021 31.3126 26.2761 31.4545Z" fill="url(#paint0_linear_329_1869)"/>
<path d="M20.0418 6H11.9582C10.3786 6.00192 8.8642 6.63028 7.74724 7.74724C6.63028 8.8642 6.00192 10.3786 6 11.9582V20.0418C6.00192 21.6214 6.63028 23.1358 7.74724 24.2528C8.8642 25.3697 10.3786 25.9981 11.9582 26H20.0418C21.6214 25.9981 23.1358 25.3697 24.2528 24.2528C25.3697 23.1358 25.9981 21.6214 26 20.0418V11.9582C25.9981 10.3786 25.3697 8.8642 24.2528 7.74724C23.1358 6.63028 21.6214 6.00192 20.0418 6ZM23.9873 20.0418C23.9875 20.56 23.8856 21.0732 23.6874 21.552C23.4892 22.0308 23.1986 22.4658 22.8322 22.8322C22.4658 23.1986 22.0308 23.4892 21.552 23.6874C21.0732 23.8856 20.56 23.9875 20.0418 23.9873H11.9582C11.44 23.9875 10.9268 23.8856 10.448 23.6874C9.96925 23.4892 9.53421 23.1986 9.16779 22.8322C8.80137 22.4658 8.51076 22.0308 8.31257 21.552C8.11438 21.0732 8.01249 20.56 8.01273 20.0418V11.9582C8.01273 10.9118 8.42841 9.90824 9.16832 9.16832C9.90824 8.42841 10.9118 8.01273 11.9582 8.01273H20.0418C21.0882 8.01273 22.0918 8.42841 22.8317 9.16832C23.5716 9.90824 23.9873 10.9118 23.9873 11.9582V20.0418Z" fill="white"/>
<path d="M16 10.8271C14.9769 10.8271 13.9768 11.1305 13.1262 11.6989C12.2755 12.2673 11.6125 13.0752 11.221 14.0204C10.8295 14.9656 10.7271 16.0056 10.9267 17.009C11.1263 18.0124 11.6189 18.9341 12.3423 19.6575C13.0657 20.381 13.9874 20.8736 14.9909 21.0732C15.9943 21.2728 17.0343 21.1704 17.9795 20.7789C18.9247 20.3873 19.7326 19.7243 20.301 18.8737C20.8694 18.023 21.1727 17.0229 21.1727 15.9999C21.1708 14.6286 20.6252 13.314 19.6555 12.3443C18.6859 11.3747 17.3713 10.8291 16 10.8271ZM16 19.1617C15.3747 19.1617 14.7633 18.9763 14.2434 18.6288C13.7234 18.2814 13.3182 17.7876 13.0789 17.2099C12.8396 16.6321 12.7769 15.9964 12.8989 15.383C13.0209 14.7697 13.3221 14.2063 13.7643 13.7641C14.2064 13.3219 14.7698 13.0208 15.3832 12.8988C15.9965 12.7768 16.6322 12.8394 17.21 13.0787C17.7877 13.318 18.2815 13.7233 18.629 14.2433C18.9764 14.7632 19.1618 15.3745 19.1618 15.9999C19.1613 16.8383 18.8281 17.6422 18.2352 18.2351C17.6424 18.8279 16.8384 19.1612 16 19.1617Z" fill="white"/>
<path d="M21.2018 12.1052C21.9077 12.1052 22.4799 11.5329 22.4799 10.827C22.4799 10.1211 21.9077 9.54883 21.2018 9.54883C20.4958 9.54883 19.9236 10.1211 19.9236 10.827C19.9236 11.5329 20.4958 12.1052 21.2018 12.1052Z" fill="white"/>
</g>
<defs>
<linearGradient id="paint0_linear_329_1869" x1="2.38158" y1="29.6182" x2="29.0907" y2="2.90909" gradientUnits="userSpaceOnUse">
<stop stop-color="#E09B3D"/>
<stop offset="0.3" stop-color="#C74C4D"/>
<stop offset="0.6" stop-color="#C21975"/>
<stop offset="1" stop-color="#7024C4"/>
</linearGradient>
<clipPath id="clip0_329_1869">
<rect width="32" height="32" fill="white"/>
</clipPath>
</defs>
</svg>
