<svg width="49" height="20" viewBox="0 0 49 20" fill="none" xmlns="http://www.w3.org/2000/svg">
<g clip-path="url(#clip0_943_499)">
<path d="M37.8776 6.50555H35.2331C35.0776 6.50555 34.922 6.66111 34.8443 6.81667L33.7554 13.6611C33.7554 13.8167 33.8331 13.8944 33.9887 13.8944H35.3887C35.5443 13.8944 35.622 13.8167 35.622 13.6611L35.9331 11.7167C35.9331 11.5611 36.0887 11.4056 36.322 11.4056H37.1776C38.9665 11.4056 39.9776 10.55 40.2109 8.83889C40.3665 8.13889 40.2109 7.51667 39.8998 7.12778C39.4331 6.73889 38.7331 6.50555 37.8776 6.50555ZM38.1887 9.07222C38.0331 10.0056 37.3331 10.0056 36.6331 10.0056H36.1665L36.4776 8.21667C36.4776 8.13889 36.5554 8.06111 36.7109 8.06111H36.8665C37.3331 8.06111 37.7998 8.06111 38.0331 8.37222C38.1887 8.45 38.1887 8.68333 38.1887 9.07222Z" fill="#139AD6"/>
<path d="M18.8224 6.50555H16.178C16.0224 6.50555 15.8669 6.66111 15.7891 6.81667L14.7002 13.6611C14.7002 13.8167 14.778 13.8944 14.9335 13.8944H16.178C16.3335 13.8944 16.4891 13.7389 16.5669 13.5833L16.878 11.7167C16.878 11.5611 17.0335 11.4056 17.2669 11.4056H18.1224C19.9113 11.4056 20.9224 10.55 21.1558 8.83889C21.3113 8.13889 21.1558 7.51667 20.8446 7.12778C20.378 6.73889 19.7558 6.50555 18.8224 6.50555ZM19.1335 9.07222C18.978 10.0056 18.278 10.0056 17.578 10.0056H17.1891L17.5002 8.21667C17.5002 8.13889 17.578 8.06111 17.7335 8.06111H17.8891C18.3558 8.06111 18.8224 8.06111 19.0558 8.37222C19.1335 8.45 19.2113 8.68333 19.1335 9.07222Z" fill="#263B80"/>
<path d="M26.8335 8.99442H25.5891C25.5113 8.99442 25.3557 9.0722 25.3557 9.14998L25.278 9.53887L25.2002 9.38331C24.8891 8.99442 24.3446 8.83887 23.7224 8.83887C22.3224 8.83887 21.078 9.92776 20.8446 11.4055C20.6891 12.1833 20.9224 12.8833 21.3113 13.35C21.7002 13.8166 22.2446 13.9722 22.9446 13.9722C24.1113 13.9722 24.7335 13.2722 24.7335 13.2722L24.6557 13.6611C24.6557 13.8166 24.7335 13.8944 24.8891 13.8944H26.0557C26.2113 13.8944 26.3668 13.7389 26.4446 13.5833L27.1446 9.22776C27.0668 9.14998 26.9113 8.99442 26.8335 8.99442ZM25.0446 11.4833C24.8891 12.1833 24.3446 12.7278 23.5668 12.7278C23.178 12.7278 22.8668 12.5722 22.7113 12.4166C22.5557 12.1833 22.478 11.8722 22.478 11.4833C22.5557 10.7833 23.178 10.2389 23.878 10.2389C24.2668 10.2389 24.5002 10.3944 24.7335 10.55C24.9668 10.7833 25.0446 11.1722 25.0446 11.4833Z" fill="#263B80"/>
<path d="M45.8111 8.99442H44.5666C44.4888 8.99442 44.3333 9.0722 44.3333 9.14998L44.2555 9.53887L44.1777 9.38331C43.8666 8.99442 43.3222 8.83887 42.6999 8.83887C41.2999 8.83887 40.0555 9.92776 39.8222 11.4055C39.6666 12.1833 39.8999 12.8833 40.2888 13.35C40.6777 13.8166 41.2222 13.9722 41.9222 13.9722C43.0888 13.9722 43.7111 13.2722 43.7111 13.2722L43.6333 13.6611C43.6333 13.8166 43.7111 13.8944 43.8666 13.8944H45.0333C45.1888 13.8944 45.3444 13.7389 45.4222 13.5833L46.1222 9.22776C46.0444 9.14998 45.9666 8.99442 45.8111 8.99442ZM44.0222 11.4833C43.8666 12.1833 43.3222 12.7278 42.5444 12.7278C42.1555 12.7278 41.8444 12.5722 41.6888 12.4166C41.5333 12.1833 41.4555 11.8722 41.4555 11.4833C41.5333 10.7833 42.1555 10.2389 42.8555 10.2389C43.2444 10.2389 43.4777 10.3944 43.7111 10.55C44.0222 10.7833 44.0999 11.1722 44.0222 11.4833Z" fill="#139AD6"/>
<path d="M33.6002 8.99445H32.278C32.1224 8.99445 32.0447 9.07222 31.9669 9.15L30.2558 11.7944L29.478 9.30556C29.4002 9.15 29.3224 9.07222 29.0891 9.07222H27.8447C27.6891 9.07222 27.6113 9.22778 27.6113 9.38333L29.0113 13.5056L27.6891 15.3722C27.6113 15.5278 27.6891 15.7611 27.8447 15.7611H29.0891C29.2447 15.7611 29.3224 15.6833 29.4002 15.6056L33.678 9.46111C33.9113 9.22778 33.7558 8.99445 33.6002 8.99445Z" fill="#263B80"/>
<path d="M47.2891 6.73886L46.2002 13.7389C46.2002 13.8944 46.278 13.9722 46.4335 13.9722H47.5224C47.678 13.9722 47.8335 13.8166 47.9113 13.6611L49.0002 6.81664C49.0002 6.66109 48.9224 6.58331 48.7669 6.58331H47.5224C47.4446 6.50553 47.3669 6.58331 47.2891 6.73886Z" fill="#139AD6"/>
<path d="M8.94444 4.17222C8.4 3.55 7.38889 3.23889 5.98889 3.23889H2.1C1.86667 3.23889 1.63333 3.47222 1.55556 3.70556L0 13.8944C0 14.1278 0.155556 14.2833 0.311111 14.2833H2.72222L3.34444 10.4722V10.6278C3.42222 10.3944 3.65556 10.1611 3.88889 10.1611H5.05556C7.31111 10.1611 9.02222 9.22778 9.56667 6.66111C9.56667 6.58334 9.56667 6.50556 9.56667 6.42778C9.48889 6.42778 9.48889 6.42778 9.56667 6.42778C9.64444 5.41667 9.48889 4.79445 8.94444 4.17222Z" fill="#263B80"/>
<path d="M9.48877 6.4278C9.48877 6.50557 9.48877 6.58335 9.48877 6.66113C8.94433 9.30557 7.23321 10.1611 4.97766 10.1611H3.81099C3.57766 10.1611 3.34432 10.3945 3.26655 10.6278L2.48877 15.3722C2.48877 15.5278 2.56655 15.6834 2.79988 15.6834H4.8221C5.05544 15.6834 5.28877 15.5278 5.28877 15.2945V15.2167L5.67766 12.8056V12.65C5.67766 12.4167 5.91099 12.2611 6.14433 12.2611H6.45544C8.39988 12.2611 9.95544 11.4834 10.3443 9.15002C10.4999 8.21668 10.4221 7.36113 9.95544 6.81668C9.87766 6.66113 9.7221 6.50557 9.48877 6.4278Z" fill="#139AD6"/>
<path d="M8.94424 6.19445C8.86646 6.19445 8.78868 6.11668 8.7109 6.11668C8.63313 6.11668 8.55535 6.11667 8.47757 6.0389C8.16646 5.96112 7.85535 5.96112 7.46646 5.96112H4.43313C4.35535 5.96112 4.27757 5.96112 4.19979 6.0389C4.04424 6.11667 3.96646 6.27223 3.96646 6.42779L3.34424 10.4722V10.6278C3.42202 10.3945 3.65535 10.1611 3.88868 10.1611H5.05535C7.3109 10.1611 9.02202 9.22779 9.56646 6.66112C9.56646 6.58334 9.56646 6.50556 9.64424 6.42779C9.48868 6.35001 9.4109 6.27223 9.25535 6.27223C9.02202 6.19445 9.02202 6.19445 8.94424 6.19445Z" fill="#232C65"/>
</g>
<defs>
<clipPath id="clip0_943_499">
<rect width="49" height="20" fill="white"/>
</clipPath>
</defs>
</svg>
