<svg width="79" height="81" viewBox="0 0 79 81" fill="none" xmlns="http://www.w3.org/2000/svg">
<g clip-path="url(#clip0_112_829)">
<path fill-rule="evenodd" clip-rule="evenodd" d="M58.9245 80.14H19.6545C14.4471 80.1398 9.45297 78.0536 5.77074 74.3405C2.08851 70.6273 0.0197591 65.5912 0.0195312 60.34L0.0195313 20.74C0.0197591 15.4888 2.08851 10.4527 5.77074 6.73954C9.45297 3.02637 14.4471 0.940232 19.6545 0.940002L58.9245 0.940002C64.1321 0.940002 69.1263 3.02607 72.8086 6.73929C76.4909 10.4525 78.5595 15.4887 78.5595 20.74V60.34C78.5595 65.5913 76.4909 70.6275 72.8086 74.3407C69.1263 78.0539 64.1321 80.14 58.9245 80.14Z" fill="#199BDF"/>
<path fill-rule="evenodd" clip-rule="evenodd" d="M36.8352 23.215H58.9245C61.756 23.2148 64.4793 22.1181 66.5319 20.1515C68.5846 18.1848 69.8099 15.4983 69.9548 12.6468C70.0997 9.79525 69.1531 6.99652 67.3106 4.82855C65.468 2.66058 62.8702 1.28896 60.0535 0.996927C59.678 0.97589 59.3062 0.940002 58.9245 0.940002H19.6545C14.4471 0.940232 9.45297 3.02637 5.77074 6.73954C2.08851 10.4527 0.0197591 15.4888 0.0195312 20.74L0.0195313 60.34C0.0197591 50.4939 3.89861 41.0511 10.8028 34.0889C17.7071 27.1267 27.0711 23.2152 36.8352 23.215Z" fill="#32B4FF"/>
<path fill-rule="evenodd" clip-rule="evenodd" d="M58.9241 40.54C55.0406 40.54 51.2444 41.7012 48.0155 43.8769C44.7865 46.0525 42.2698 49.1449 40.7837 52.7629C39.2976 56.3808 38.9087 60.362 39.6664 64.2028C40.424 68.0436 42.294 71.5716 45.04 74.3407C47.786 77.1098 51.2847 78.9956 55.0935 79.7595C58.9023 80.5235 62.8502 80.1314 66.4381 78.6328C70.0259 77.1342 73.0925 74.5964 75.25 71.3403C77.4075 68.0842 78.5591 64.2561 78.5591 60.34V20.74C78.5591 25.9913 76.4904 31.0275 72.8081 34.7407C69.1258 38.4539 64.1316 40.54 58.9241 40.54Z" fill="#0082BE"/>
<path fill-rule="evenodd" clip-rule="evenodd" d="M55.3409 22.0171C55.9442 21.7659 56.6028 21.681 57.2494 21.771C57.8959 21.861 58.5071 22.1227 59.0203 22.5293C59.5335 22.9359 59.9303 23.4728 60.1701 24.085C60.4098 24.6971 60.4839 25.3625 60.3847 26.013C58.9545 35.392 56.3325 52.5784 54.9406 61.7013C54.8443 62.3325 54.5881 62.9281 54.1968 63.4303C53.8055 63.9326 53.2923 64.3245 52.7069 64.5683C52.1214 64.812 51.4835 64.8993 50.8548 64.8218C50.2261 64.7442 49.6279 64.5044 49.118 64.1255C44.1943 60.4675 36.8122 54.9829 33.0643 52.1973C32.775 51.9823 32.5361 51.706 32.3644 51.3877C32.1927 51.0695 32.0924 50.7171 32.0705 50.3555C32.0487 49.9938 32.1058 49.6318 32.2379 49.2948C32.37 48.9579 32.5738 48.6543 32.835 48.4056C36.2693 45.1348 43.1094 38.6206 47.8156 34.1384C47.9264 34.0322 47.9939 33.888 48.0049 33.7342C48.0158 33.5804 47.9694 33.428 47.8747 33.3069C47.7801 33.1858 47.644 33.1047 47.4931 33.0795C47.3422 33.0543 47.1875 33.0868 47.0591 33.1707C41.0249 37.1394 31.7835 43.2167 27.2542 46.1954C26.4053 46.7536 25.4513 47.1292 24.4519 47.2985C23.4525 47.4678 22.4292 47.4272 21.4461 47.1792C18.9521 46.5506 15.3547 45.6435 12.1534 44.8366C11.6522 44.7103 11.2032 44.4278 10.8706 44.0292C10.5379 43.6306 10.3384 43.1364 10.3005 42.6168C10.2627 42.0972 10.3884 41.5789 10.6597 41.1355C10.931 40.6922 11.3342 40.3465 11.8117 40.1477C22.9561 35.5059 44.7654 26.4226 55.3409 22.0171Z" fill="white"/>
</g>
<defs>
<clipPath id="clip0_112_829">
<rect x="0.0195312" y="0.940002" width="78.54" height="79.2" fill="white"/>
</clipPath>
</defs>
</svg>
