<svg width="60" height="60" viewBox="0 0 60 60" fill="none" xmlns="http://www.w3.org/2000/svg">
<path d="M42.0132 36.8376C41.7865 36.8387 41.5669 36.7593 41.3934 36.6135L34.1802 30.7717C34.0668 30.6777 33.9755 30.5598 33.9128 30.4265C33.8501 30.2931 33.8176 30.1476 33.8176 30.0003V13.8464C33.8176 13.5841 33.9218 13.3326 34.1072 13.1471C34.2927 12.9616 34.5443 12.8574 34.8066 12.8574C35.0689 12.8574 35.3204 12.9616 35.5059 13.1471C35.6914 13.3326 35.7956 13.5841 35.7956 13.8464V29.5321L42.6395 35.0772C42.8023 35.2074 42.9198 35.3858 42.9752 35.5868C43.0306 35.7878 43.021 36.0011 42.9479 36.1964C42.8748 36.3916 42.7418 36.5588 42.568 36.6739C42.3942 36.7891 42.1885 36.8464 41.9802 36.8376H42.0132Z" fill="black"/>
<path d="M24.8769 40.8003H13.8461C13.5838 40.8003 13.3323 40.6961 13.1468 40.5106C12.9613 40.3251 12.8571 40.0736 12.8571 39.8113C12.8571 39.549 12.9613 39.2974 13.1468 39.1119C13.3323 38.9265 13.5838 38.8223 13.8461 38.8223H24.8769C25.1392 38.8223 25.3908 38.9265 25.5762 39.1119C25.7617 39.2974 25.8659 39.549 25.8659 39.8113C25.8659 40.0736 25.7617 40.3251 25.5762 40.5106C25.3908 40.6961 25.1392 40.8003 24.8769 40.8003Z" fill="black"/>
<path d="M20.4 30.1851H1.83954C1.57723 30.1851 1.32568 30.0809 1.1402 29.8954C0.954724 29.7099 0.850525 29.4583 0.850525 29.196C0.850525 28.9337 0.954724 28.6822 1.1402 28.4967C1.32568 28.3112 1.57723 28.207 1.83954 28.207H20.4C20.6623 28.207 20.9138 28.3112 21.0993 28.4967C21.2848 28.6822 21.389 28.9337 21.389 29.196C21.389 29.4583 21.2848 29.7099 21.0993 29.8954C20.9138 30.0809 20.6623 30.1851 20.4 30.1851Z" fill="black"/>
<path d="M13.3385 19.4507H6.74505C6.48275 19.4507 6.23119 19.3465 6.04572 19.161C5.86024 18.9755 5.75604 18.724 5.75604 18.4617C5.75604 18.1994 5.86024 17.9478 6.04572 17.7623C6.23119 17.5769 6.48275 17.4727 6.74505 17.4727H13.3385C13.6008 17.4727 13.8523 17.5769 14.0378 17.7623C14.2233 17.9478 14.3275 18.1994 14.3275 18.4617C14.3275 18.724 14.2233 18.9755 14.0378 19.161C13.8523 19.3465 13.6008 19.4507 13.3385 19.4507Z" fill="black"/>
<path d="M34.8066 48.7911C34.5443 48.7911 34.2927 48.6869 34.1072 48.5014C33.9218 48.3159 33.8176 48.0644 33.8176 47.802V47.6042C33.8176 47.3419 33.9218 47.0904 34.1072 46.9049C34.2927 46.7194 34.5443 46.6152 34.8066 46.6152C35.0689 46.6152 35.3204 46.7194 35.5059 46.9049C35.6914 47.0904 35.7956 47.3419 35.7956 47.6042V47.802C35.7956 48.0644 35.6914 48.3159 35.5059 48.5014C35.3204 48.6869 35.0689 48.7911 34.8066 48.7911Z" fill="black"/>
<path d="M53.2286 30.9888H53.0308C52.7685 30.9888 52.5169 30.8846 52.3314 30.6991C52.1459 30.5136 52.0417 30.2621 52.0417 29.9998C52.0417 29.7375 52.1459 29.4859 52.3314 29.3004C52.5169 29.1149 52.7685 29.0107 53.0308 29.0107H53.2286C53.4909 29.0107 53.7424 29.1149 53.9279 29.3004C54.1134 29.4859 54.2176 29.7375 54.2176 29.9998C54.2176 30.2621 54.1134 30.5136 53.9279 30.6991C53.7424 30.8846 53.4909 30.9888 53.2286 30.9888Z" fill="black"/>
<path d="M11.7428 34.1932C11.5047 34.1937 11.2745 34.1078 11.095 33.9513C10.9155 33.7949 10.799 33.5786 10.767 33.3426C10.6149 32.2349 10.5422 31.1178 10.5494 29.9998C10.5494 29.7375 10.6536 29.4859 10.8391 29.3004C11.0246 29.1149 11.2761 29.0107 11.5384 29.0107C11.8008 29.0107 12.0523 29.1149 12.2378 29.3004C12.4233 29.4859 12.5275 29.7375 12.5275 29.9998C12.5276 31.0254 12.5981 32.0497 12.7384 33.0657C12.7559 33.1962 12.7472 33.3289 12.7127 33.456C12.6782 33.5831 12.6187 33.7021 12.5376 33.8059C12.4566 33.9097 12.3556 33.9962 12.2406 34.0605C12.1256 34.1247 11.999 34.1653 11.8681 34.18L11.7428 34.1932Z" fill="black"/>
<path d="M34.8066 54.2707C31.5446 54.2821 28.3143 53.6306 25.3119 52.3554C22.3095 51.0803 19.5975 49.2083 17.3406 46.8531C17.1902 46.6596 17.1169 46.4171 17.135 46.1727C17.1531 45.9283 17.2613 45.6993 17.4387 45.5301C17.6161 45.361 17.85 45.2637 18.095 45.2572C18.34 45.2507 18.5787 45.3353 18.7648 45.4948C20.8379 47.6567 23.3291 49.3741 26.0869 50.5428C28.8447 51.7114 31.8114 52.3068 34.8066 52.2926C38.7799 52.2915 42.6806 51.2285 46.1051 49.2136C49.5296 47.1986 52.3533 44.3051 54.2839 40.8324C56.2146 37.3597 57.182 33.4342 57.0861 29.462C56.9901 25.4899 55.8343 21.6156 53.7383 18.2402C51.6422 14.8648 48.6821 12.111 45.1643 10.2637C41.6466 8.41648 37.699 7.543 33.7303 7.7337C29.7616 7.9244 25.916 9.17235 22.5916 11.3484C19.2672 13.5244 16.5847 16.5494 14.822 20.1102C14.7048 20.3454 14.499 20.5244 14.2499 20.6079C14.0007 20.6914 13.7286 20.6724 13.4934 20.5553C13.2582 20.4381 13.0792 20.2323 12.9957 19.9832C12.9122 19.734 12.9312 19.4619 13.0483 19.2267C14.9676 15.3481 17.8887 12.053 21.5093 9.68265C25.1298 7.31227 29.3182 5.95274 33.6407 5.74484C37.9631 5.53693 42.2626 6.4882 46.094 8.50015C49.9253 10.5121 53.1492 13.5116 55.4319 17.1881C57.7145 20.8646 58.973 25.0844 59.0769 29.4106C59.1809 33.7368 58.1265 38.0122 56.0231 41.7941C53.9196 45.5759 50.8435 48.7268 47.1132 50.9204C43.3829 53.1141 39.1341 54.2707 34.8066 54.2707Z" fill="black"/>
<path d="M8.26814 40.8003H6.46814C6.20584 40.8003 5.95428 40.6961 5.7688 40.5106C5.58332 40.3251 5.47913 40.0736 5.47913 39.8113C5.47913 39.549 5.58332 39.2974 5.7688 39.1119C5.95428 38.9265 6.20584 38.8223 6.46814 38.8223H8.26814C8.53044 38.8223 8.782 38.9265 8.96747 39.1119C9.15295 39.2974 9.25715 39.549 9.25715 39.8113C9.25715 40.0736 9.15295 40.3251 8.96747 40.5106C8.782 40.6961 8.53044 40.8003 8.26814 40.8003Z" fill="black"/>
<path d="M12.6462 23.5257C12.4796 23.5237 12.3162 23.4801 12.171 23.3986C12.0257 23.3172 11.9032 23.2006 11.8146 23.0596C11.726 22.9185 11.6743 22.7575 11.6641 22.5913C11.6538 22.4251 11.6855 22.2589 11.7561 22.1081L13.1275 19.24C13.1833 19.1226 13.2617 19.0175 13.3582 18.9304C13.4547 18.8434 13.5674 18.7763 13.6899 18.7328C13.8123 18.6893 13.9421 18.6704 14.0719 18.6771C14.2017 18.6838 14.3288 18.716 14.4462 18.7718C14.5635 18.8277 14.6687 18.9061 14.7557 19.0026C14.8427 19.0991 14.9099 19.2118 14.9533 19.3342C14.9968 19.4567 15.0157 19.5865 15.009 19.7163C15.0023 19.846 14.9701 19.9732 14.9143 20.0905L13.5429 22.9652C13.4611 23.1335 13.3337 23.2752 13.1751 23.3743C13.0165 23.4735 12.8332 23.5259 12.6462 23.5257Z" fill="black"/>
</svg>
