<svg width="47" height="20" viewBox="0 0 47 20" fill="none" xmlns="http://www.w3.org/2000/svg">
<g clip-path="url(#clip0_329_1891)">
<path d="M17.2333 16.344L19.6206 3.50293H23.3508L21.0381 16.344H17.2333Z" fill="#3C58BF"/>
<path d="M17.2333 16.344L20.2921 3.50293H23.3508L21.0381 16.344H17.2333Z" fill="#293688"/>
<path d="M34.5413 3.64591C33.7952 3.36055 32.6016 3.0752 31.1095 3.0752C27.3794 3.0752 24.6936 4.85868 24.6936 7.4269C24.6936 9.35306 26.5587 10.3518 28.0508 10.9939C29.5429 11.6359 29.9905 12.064 29.9905 12.6347C29.9905 13.4907 28.7968 13.9188 27.7524 13.9188C26.2603 13.9188 25.4397 13.7048 24.1714 13.2054L23.6492 12.9914L23.127 15.9163C24.0222 16.273 25.6635 16.6297 27.3794 16.6297C31.3333 16.6297 33.9444 14.8462 33.9444 12.1353C33.9444 10.6372 32.9746 9.49574 30.7365 8.56833C29.3937 7.92627 28.573 7.56958 28.573 6.92752C28.573 6.35681 29.2444 5.78609 30.7365 5.78609C32.0048 5.78609 32.9 6.00011 33.5714 6.28547L33.9444 6.42815L34.5413 3.64591Z" fill="#3C58BF"/>
<path d="M34.5413 3.64591C33.7952 3.36055 32.6016 3.0752 31.1095 3.0752C27.3794 3.0752 25.3651 4.85868 25.3651 7.4269C25.3651 9.35306 26.5587 10.3518 28.0508 10.9939C29.5429 11.6359 29.9905 12.064 29.9905 12.6347C29.9905 13.4907 28.7968 13.9188 27.7524 13.9188C26.2603 13.9188 25.4397 13.7048 24.1714 13.2054L23.6492 12.9914L23.127 15.9163C24.0222 16.273 25.6635 16.6297 27.3794 16.6297C31.3333 16.6297 33.9444 14.8462 33.9444 12.1353C33.9444 10.6372 32.9746 9.49574 30.7365 8.56833C29.3937 7.92627 28.573 7.56958 28.573 6.92752C28.573 6.35681 29.2444 5.78609 30.7365 5.78609C32.0048 5.78609 32.9 6.00011 33.5714 6.28547L33.9444 6.42815L34.5413 3.64591Z" fill="#293688"/>
<path d="M40.9571 3.50293C40.0619 3.50293 39.3905 3.57427 39.0174 4.43034L33.4222 16.344H37.4508L38.1968 14.2038H42.9714L43.419 16.344H47L43.8667 3.50293H40.9571ZM39.2413 12.0637C39.4651 11.4216 40.7333 8.28267 40.7333 8.28267C40.7333 8.28267 41.0317 7.49794 41.2555 6.99856L41.4794 8.21133C41.4794 8.21133 42.2254 11.4216 42.3746 12.135H39.2413V12.0637Z" fill="#3C58BF"/>
<path d="M41.8524 3.50293C40.9571 3.50293 40.2857 3.57427 39.9127 4.43034L33.4222 16.344H37.4508L38.1968 14.2038H42.9714L43.419 16.344H47L43.8667 3.50293H41.8524ZM39.2413 12.0637C39.5397 11.3503 40.7333 8.28267 40.7333 8.28267C40.7333 8.28267 41.0317 7.49794 41.2555 6.99856L41.4794 8.21133C41.4794 8.21133 42.2254 11.4216 42.3746 12.135H39.2413V12.0637Z" fill="#293688"/>
<path d="M10.3699 12.4916L9.99683 10.6368C9.32541 8.49664 7.16191 6.14244 4.77461 5.00101L8.13176 16.4153H12.1603L18.2032 3.57422H14.1746L10.3699 12.4916Z" fill="#3C58BF"/>
<path d="M10.3699 12.4916L9.99683 10.6368C9.32541 8.49664 7.16191 6.14244 4.77461 5.00101L8.13176 16.4153H12.1603L18.2032 3.57422H14.9206L10.3699 12.4916Z" fill="#293688"/>
<path d="M0 3.50293L0.671429 3.64561C5.44603 4.7157 8.72857 7.4266 9.99683 10.6369L8.65397 4.57302C8.43016 3.71695 7.75873 3.50293 6.9381 3.50293H0Z" fill="#FFBC00"/>
<path d="M0 3.50293C4.7746 4.57302 8.72857 7.35526 9.99683 10.5655L8.72857 5.50043C8.50476 4.64436 7.75873 4.14499 6.9381 4.14499L0 3.50293Z" fill="#F7981D"/>
<path d="M0 3.50293C4.7746 4.57302 8.72857 7.35526 9.99683 10.5655L9.10159 7.78329C8.87778 6.92722 8.57937 6.07115 7.53492 5.71445L0 3.50293Z" fill="#ED7C00"/>
<path d="M14.1 12.0636L11.5635 9.63809L10.3698 12.349L10.0714 10.5655C9.40001 8.42532 7.23651 6.07112 4.84921 4.92969L8.20636 16.344H12.2349L14.1 12.0636Z" fill="#051244"/>
<path d="M21.0381 16.344L17.8302 13.2051L17.2333 16.344H21.0381Z" fill="#051244"/>
<path d="M29.6175 11.9209C29.9159 12.2063 30.0651 12.4203 29.9905 12.7056C29.9905 13.5617 28.7968 13.9897 27.7524 13.9897C26.2603 13.9897 25.4397 13.7757 24.1714 13.2763L23.6492 13.0623L23.127 15.9872C24.0222 16.3439 25.6635 16.7006 27.3794 16.7006C29.7667 16.7006 31.7063 16.0586 32.8254 14.9172L29.6175 11.9209Z" fill="#051244"/>
<path d="M33.9445 16.3435H37.4508L38.1968 14.2033H42.9714L43.4191 16.3435H47L45.7318 11.1357L41.2556 6.99805L41.4794 8.13948C41.4794 8.13948 42.2254 11.3497 42.3746 12.0631H39.2413C39.5397 11.3497 40.7333 8.28216 40.7333 8.28216C40.7333 8.28216 41.0318 7.49742 41.2556 6.99805" fill="#051244"/>
</g>
<defs>
<clipPath id="clip0_329_1891">
<rect width="47" height="20" fill="white"/>
</clipPath>
</defs>
</svg>
